<svg version="1.1" id="Layer_1" xmlns="http://www.w3.org/2000/svg" xmlns:xlink="http://www.w3.org/1999/xlink" x="0px" y="0px"
	 width="100%" viewBox="0 0 512 512" enable-background="new 0 0 512 512" xml:space="preserve">
<path fill="#000000" opacity="1.000000" stroke="none" 
	d="
M211.387848,31.248383 
	C225.397049,26.198208 238.743942,20.553677 251.838364,14.342527 
	C255.505951,12.602862 258.557739,12.696822 262.222809,14.387892 
	C304.271667,33.789410 347.864471,48.441563 393.577240,56.383228 
	C408.347046,58.949184 423.286102,60.024082 438.251465,60.629013 
	C444.360809,60.875969 445.334717,61.618221 445.335632,67.577766 
	C445.345795,133.238129 445.543243,198.899643 445.184723,264.558105 
	C445.083191,283.156982 440.174133,301.056366 433.580109,318.430298 
	C432.938751,320.120056 432.383575,321.842529 431.709320,323.776703 
	C434.079712,325.227753 436.453705,324.545074 438.672974,324.627167 
	C444.304626,324.835449 445.305206,325.746155 445.334717,331.503540 
	C445.381683,340.669098 445.547363,349.841248 445.261963,358.998138 
	C445.127106,363.324615 446.392578,364.822479 450.872528,364.744995 
	C465.366760,364.494263 479.868164,364.630859 494.366699,364.669678 
	C501.369812,364.688416 503.043823,367.627808 499.459564,373.677246 
	C493.175446,384.283630 486.892548,394.892822 480.415924,405.381561 
	C478.786957,408.019623 478.821503,410.033417 480.419769,412.633972 
	C486.874451,423.136353 493.193390,433.723511 499.454620,444.342926 
	C503.042084,450.427551 501.365387,453.335480 494.332123,453.340424 
	C458.835541,453.365417 423.338928,453.360596 387.842346,453.333374 
	C381.711304,453.328674 380.698151,452.247223 380.670074,445.926147 
	C380.632324,437.427124 380.755859,428.925934 380.593689,420.429840 
	C380.549805,418.130310 382.032593,414.603485 378.952362,413.808380 
	C375.439758,412.901703 371.446167,412.271057 368.175781,415.506012 
	C361.662140,421.949036 355.092468,428.343079 348.359802,434.555603 
	C322.443573,458.469604 294.196045,479.295776 264.365631,498.059235 
	C259.220184,501.295776 255.214661,501.513824 249.855774,498.165253 
	C212.819458,475.022400 178.510849,448.492432 147.731339,417.459839 
	C146.226654,415.942780 144.933197,414.098969 142.694458,413.500397 
	C135.805145,411.658569 133.354370,413.569305 133.351379,420.776489 
	C133.347717,429.608978 133.267685,438.442383 133.376434,447.273499 
	C133.428375,451.491058 131.578171,453.357574 127.387245,453.354004 
	C91.057480,453.323090 54.727608,453.374542 18.397949,453.306793 
	C12.901621,453.296539 11.243240,449.902374 14.193785,444.891510 
	C20.363997,434.412811 26.477667,423.891968 33.007244,413.638519 
	C35.224400,410.156891 35.140572,407.675720 33.010212,404.279816 
	C26.726734,394.263733 20.720140,384.070465 14.761059,373.855621 
	C10.932538,367.292908 12.467191,364.682159 19.934149,364.666779 
	C34.266048,364.637238 48.599918,364.527252 62.928867,364.734283 
	C67.192543,364.795837 68.891937,363.615570 68.743324,359.105286 
	C68.447128,350.115936 68.636841,341.109863 68.665833,332.110809 
	C68.687424,325.408112 69.394127,324.731445 76.181358,324.660004 
	C77.982040,324.641022 79.783096,324.657104 81.317520,324.657104 
	C82.583588,322.591400 81.448944,321.309021 80.944893,319.991058 
	C72.410316,297.675537 68.370209,274.686829 68.523346,250.690048 
	C68.909401,190.198288 68.652214,129.702438 68.659378,69.208229 
	C68.660347,61.013706 68.851555,60.929352 77.051109,60.622452 
	C113.719154,59.250008 149.285400,51.886978 184.115555,40.668453 
	C193.145309,37.760033 202.063217,34.504349 211.387848,31.248383 
M77.367287,361.499512 
	C77.361687,373.997559 77.514771,386.498810 77.263397,398.991913 
	C77.176773,403.296661 78.375122,404.744293 82.862503,404.740021 
	C198.845169,404.629639 314.827972,404.629578 430.810608,404.743408 
	C435.471466,404.747986 436.793182,403.278229 436.744080,398.727020 
	C436.533813,379.232208 436.658966,359.733795 436.655029,340.236694 
	C436.653625,333.398071 436.644775,333.364624 429.838745,333.363434 
	C363.015350,333.351501 296.191986,333.351410 229.368591,333.348267 
	C180.875809,333.346008 132.383041,333.342712 83.890259,333.343842 
	C77.359879,333.343994 77.353203,333.354828 77.351311,340.002838 
	C77.349365,346.835022 77.362259,353.667236 77.367287,361.499512 
M412.652252,240.499985 
	C412.653412,193.018051 412.583771,145.535858 412.763947,98.054619 
	C412.782227,93.236267 411.071503,91.632912 406.589081,91.279930 
	C400.466400,90.797791 394.345978,90.026054 388.290863,88.990784 
	C350.937531,82.604408 314.788483,71.971230 279.628876,57.897800 
	C273.808655,55.568127 267.981995,53.254642 262.233582,50.963669 
	C261.800018,51.691025 261.496185,51.963139 261.495270,52.236248 
	C261.437073,69.894218 261.422546,87.552353 261.346741,105.210220 
	C261.335480,107.829803 262.630371,108.540588 265.032288,108.761963 
	C269.493591,109.173149 273.941620,109.820068 278.362701,110.562286 
	C333.835175,119.875031 377.143127,166.823059 381.129669,222.744141 
	C383.789093,260.049408 372.265137,292.607483 346.237885,319.790924 
	C345.063812,321.017151 343.138458,321.819244 343.137756,324.399658 
	C344.808319,324.485535 346.420074,324.638031 348.032074,324.640320 
	C361.860138,324.659943 375.690460,324.514587 389.514862,324.740936 
	C393.415833,324.804810 395.385559,323.523651 397.108215,319.980591 
	C409.179504,295.152740 413.841614,268.921356 412.652252,240.499985 
M144.695068,85.361809 
	C132.658768,87.899109 120.572662,90.176216 108.313538,91.296013 
	C101.697174,91.900375 101.352768,92.052330 101.352264,98.670387 
	C101.348312,149.980881 101.402313,201.291458 101.326057,252.601837 
	C101.290276,276.681183 106.904022,299.355927 117.386559,320.954620 
	C118.778671,323.823059 120.527588,324.725433 123.565971,324.700867 
	C138.391739,324.581055 153.218994,324.653778 168.045654,324.623810 
	C168.974640,324.621948 170.086411,324.983398 170.850250,323.777344 
	C169.915207,321.235016 167.631546,319.711151 165.897430,317.778534 
	C136.125046,284.598175 126.012993,246.002930 136.269791,202.871597 
	C148.652710,150.799606 193.961349,113.150970 247.721176,108.834221 
	C251.729568,108.512367 252.749878,107.079071 252.716446,103.356049 
	C252.571320,87.197861 252.664490,71.037621 252.621918,54.878262 
	C252.618668,53.644665 253.153534,52.186398 251.386368,50.922710 
	C217.286377,65.502686 182.069214,77.434402 144.695068,85.361809 
M92.655243,250.499878 
	C92.656326,198.000137 92.656265,145.500397 92.659576,93.000656 
	C92.660141,84.143333 93.266426,83.405769 102.142563,82.786652 
	C111.283539,82.149055 120.318222,80.713585 129.312088,79.115822 
	C171.494171,71.622162 211.886673,58.300564 251.018631,41.063137 
	C255.420593,39.124096 258.968079,39.286865 263.273163,41.164207 
	C311.264313,62.091976 360.705963,77.880363 413.144226,82.897720 
	C420.518646,83.603310 421.346405,84.731438 421.347076,92.427902 
	C421.351746,146.094238 421.139313,199.761810 421.449280,253.426346 
	C421.580719,276.174866 416.758057,297.645355 407.750519,318.355896 
	C406.981018,320.125031 405.675049,321.796112 406.131256,324.211395 
	C409.531738,325.069275 413.032196,324.330109 416.443939,324.694641 
	C420.032593,325.078033 421.899109,323.490082 423.214111,320.268707 
	C431.083801,300.990082 436.385803,281.004578 436.511383,260.188538 
	C436.885406,198.191162 436.626282,136.190079 436.712738,74.190582 
	C436.717834,70.517365 435.548309,69.308357 431.837677,69.237999 
	C413.823608,68.896400 396.052338,66.276939 378.432861,62.696281 
	C337.960327,54.471405 299.155243,41.117996 261.561951,24.155273 
	C258.427185,22.740814 255.839020,22.515305 252.629639,23.997412 
	C229.773468,34.552464 206.275497,43.453659 182.176987,50.752705 
	C149.439651,60.668301 116.246010,68.161087 81.890900,69.264389 
	C78.387886,69.376884 77.280357,70.712997 77.313438,74.082787 
	C77.956230,139.561310 75.949234,205.058884 78.415947,270.518890 
	C79.079315,288.122681 84.422607,304.853943 91.257751,321.048401 
	C91.831245,322.407196 92.336647,324.188385 94.005882,324.353912 
	C98.708321,324.820251 103.434807,324.949127 108.778938,324.173798 
	C97.987167,300.601135 91.586952,276.848206 92.655243,250.499878 
M292.908875,212.630295 
	C282.136780,204.816513 271.330017,197.049728 260.618652,189.153564 
	C258.159241,187.340515 256.312225,186.977524 253.597458,189.009430 
	C241.348312,198.177383 228.978027,207.188751 216.488434,216.026245 
	C213.607666,218.064651 213.208527,219.953232 214.271698,223.120728 
	C219.081543,237.450623 223.756195,251.827576 228.288971,266.247498 
	C229.297134,269.454773 230.829773,270.756531 234.290222,270.719757 
	C249.429581,270.558777 264.572571,270.559906 279.711945,270.719513 
	C283.204285,270.756317 284.705627,269.333862 285.700867,266.179810 
	C289.800293,253.188431 294.232056,240.301407 298.282837,227.295395 
	C301.484833,217.014679 302.668854,219.934799 292.908875,212.630295 
M189.007736,215.595230 
	C186.468842,214.804916 183.861160,214.182343 181.410355,213.177246 
	C178.947937,212.167404 177.015488,212.653885 174.950897,214.170227 
	C165.294846,221.262207 155.596451,228.297409 145.855423,235.272232 
	C143.196609,237.176025 141.922226,239.365601 142.168701,242.814636 
	C143.475525,261.101715 149.164688,277.902496 158.666840,293.514923 
	C160.175415,295.993591 162.079193,296.715698 164.838409,296.691681 
	C176.823456,296.587341 188.810608,296.582642 200.795456,296.699921 
	C203.729706,296.728638 205.841553,295.912659 207.544510,293.429718 
	C211.120407,288.215912 214.830505,283.089478 218.629242,278.035187 
	C220.607193,275.403473 221.020676,272.895477 219.933060,269.684540 
	C216.040222,258.191711 211.590225,246.793884 208.932831,235.003601 
	C206.446655,223.972839 201.047318,217.351730 189.007736,215.595230 
M294.577026,268.017609 
	C293.697754,271.177246 292.256958,274.176514 294.827057,277.443451 
	C299.045319,282.805328 302.949524,288.416290 306.927155,293.964478 
	C308.311829,295.895813 310.029633,296.692902 312.432434,296.678284 
	C324.922699,296.602112 337.413757,296.622742 349.904297,296.673218 
	C352.069092,296.681946 353.678314,296.157440 354.898224,294.160736 
	C364.784058,277.979828 370.891205,260.612732 371.877808,241.553802 
	C372.017670,238.852158 370.904114,237.263199 368.834015,235.784500 
	C358.808502,228.623062 348.825592,221.400833 338.899017,214.102982 
	C336.792572,212.554367 334.873383,212.343948 332.421204,213.213013 
	C326.309723,215.378967 320.138336,217.391373 313.928528,219.257553 
	C311.093445,220.109573 309.566498,221.656403 308.663025,224.539154 
	C304.186981,238.821533 299.492554,253.035477 294.577026,268.017609 
M236.661530,139.880737 
	C230.882751,135.667023 225.081787,131.483170 219.337952,127.222374 
	C217.480927,125.844826 215.776245,125.212547 213.394348,126.195091 
	C196.164688,133.302429 181.453339,143.825668 169.349289,158.025726 
	C167.356537,160.363541 167.244827,162.558395 168.216293,165.348740 
	C171.000793,173.346649 174.321686,181.269669 175.998032,189.513672 
	C178.171036,200.200058 183.445038,206.622162 194.514801,207.998581 
	C197.102600,208.320343 199.668533,209.371750 202.075394,210.461136 
	C205.402710,211.967148 207.986572,211.123215 210.780807,209.053131 
	C222.140427,200.637329 233.407700,192.064911 245.156311,184.220108 
	C250.742508,180.490082 252.190842,176.250275 253.009613,169.706238 
	C254.782059,155.539856 249.855591,146.161789 236.661530,139.880737 
M263.891968,149.591995 
	C261.729584,150.834808 261.295746,152.799271 261.326019,155.130432 
	C261.408203,161.462067 261.491272,167.799896 261.291656,174.126358 
	C261.191772,177.292480 262.238312,179.325485 264.862976,181.180496 
	C275.474579,188.680359 286.345734,195.904541 296.296936,204.217072 
	C303.739777,210.434326 310.714447,212.677109 319.576324,207.956070 
	C322.610657,206.339569 326.157990,205.624146 329.532013,204.726547 
	C332.255432,204.002045 333.663239,202.345673 334.496155,199.733810 
	C338.187042,188.160065 341.898315,176.590744 345.819427,165.093903 
	C346.876190,161.995407 346.300964,159.810883 344.204163,157.418701 
	C332.240784,143.769974 317.903931,133.487610 301.234802,126.341827 
	C298.510620,125.174004 296.575989,125.769165 294.387329,127.382629 
	C284.465210,134.697235 274.470490,141.913361 263.891968,149.591995 
M266.498749,279.398834 
	C257.183167,279.396515 247.831848,279.893921 238.563553,279.230835 
	C231.382568,278.717133 227.540359,281.800385 222.917847,286.983917 
	C213.823242,297.182281 212.044876,307.155884 218.161819,319.334412 
	C220.108383,323.209991 221.787170,324.799988 226.126114,324.744965 
	C243.922623,324.519165 261.723694,324.656250 279.523071,324.656342 
	C293.877899,324.656433 293.526459,324.524719 298.421600,311.237762 
	C300.855499,304.631470 299.750244,299.941956 296.123993,293.889252 
	C289.325775,282.542145 280.942413,276.558960 266.498749,279.398834 
M167.517700,413.361053 
	C164.438477,413.361053 161.359253,413.361053 158.143219,413.361053 
	C158.603210,415.992676 160.113464,416.901886 161.261978,418.024567 
	C189.379654,445.509918 220.581665,469.012421 253.841583,489.887939 
	C256.740051,491.707153 258.617188,490.843964 261.005066,489.346802 
	C288.441559,472.144226 314.446625,453.026123 338.553162,431.381317 
	C344.773956,425.795837 350.728027,419.913300 357.662598,413.355896 
	C351.531342,413.355896 346.710327,413.585693 341.922424,413.286346 
	C337.762512,413.026306 334.646179,414.443146 331.644196,417.232513 
	C309.993286,437.349762 286.438629,455.011292 261.751495,471.216522 
	C258.328003,473.463806 255.594772,473.378906 252.198929,471.164917 
	C228.573151,455.761597 206.046585,438.905304 185.243774,419.866913 
	C180.232452,415.280670 175.358322,412.213013 167.517700,413.361053 
M27.019892,441.230133 
	C26.595919,442.215210 25.425226,443.092834 26.447960,444.193481 
	C55.503822,444.193481 84.427780,444.193481 114.428024,444.193481 
	C99.981804,433.829468 86.512222,424.073029 72.921806,414.487915 
	C69.895432,412.353455 68.524345,409.910034 68.596558,406.168976 
	C68.779701,396.680939 68.568260,387.185822 68.698143,377.696014 
	C68.742577,374.449707 67.528557,373.288910 64.300819,373.321259 
	C52.312775,373.441467 40.322826,373.366333 28.333651,373.392792 
	C27.550997,373.394531 26.623369,373.272125 26.132126,374.316681 
	C26.567940,376.605286 27.960592,378.491638 29.146431,380.471344 
	C33.937054,388.469025 38.650608,396.515106 43.582352,404.425018 
	C45.597515,407.657135 45.560783,410.398773 43.540627,413.650757 
	C38.007381,422.557953 32.736393,431.628052 27.019892,441.230133 
M473.638184,418.780548 
	C473.026764,417.789093 472.508606,416.723358 471.788300,415.818573 
	C468.030243,411.098053 468.528961,406.765228 471.881714,401.804901 
	C476.905823,394.371826 481.280121,386.496094 485.835724,378.752716 
	C486.706390,377.272827 488.282959,375.953186 487.607605,373.346436 
	C475.219330,373.346436 462.769165,373.474915 450.324341,373.272766 
	C446.281952,373.207062 445.186584,374.738861 445.281250,378.554657 
	C445.499939,387.371124 445.120392,396.205200 445.444366,405.015198 
	C445.610107,409.523163 444.121002,412.490540 440.442322,415.022430 
	C431.123535,421.436157 421.951904,428.067627 412.818695,434.745087 
	C408.857880,437.640930 404.510101,440.075745 400.600098,444.125000 
	C430.137604,444.125000 459.013031,444.125000 488.762695,444.125000 
	C483.535553,435.368744 478.771973,427.389038 473.638184,418.780548 
M245.001205,455.428680 
	C247.304428,456.926331 249.607666,458.423950 252.623505,460.384949 
	C252.623505,445.078430 252.619553,430.798279 252.626495,416.518097 
	C252.628052,413.297333 250.383484,413.358612 248.125519,413.359650 
	C230.812897,413.367645 213.500259,413.351685 196.187759,413.400604 
	C195.196106,413.403412 193.803421,412.812408 193.141861,414.787048 
	C209.183014,429.412872 226.491287,442.602173 245.001205,455.428680 
M296.085815,435.570770 
	C304.594971,428.709351 313.339996,422.110565 320.832306,413.960144 
	C301.996887,413.353180 283.543610,413.386536 265.090729,413.321960 
	C261.823181,413.310516 261.307404,415.065277 261.322388,417.779633 
	C261.390289,430.090790 261.332733,442.402618 261.375763,454.713989 
	C261.380737,456.142181 260.893433,457.713531 262.510376,459.496490 
	C274.000305,452.434967 284.766235,444.227600 296.085815,435.570770 
M368.669739,203.746567 
	C365.408020,192.212448 361.214294,181.104645 353.558777,170.290787 
	C349.824829,181.922592 346.399353,192.630264 342.944366,203.328384 
	C342.152191,205.781250 344.125305,206.583481 345.511719,207.606995 
	C353.147888,213.244461 360.824005,218.828354 368.530060,224.369904 
	C369.357544,224.964981 370.220886,226.132553 371.762970,225.054169 
	C371.989044,218.121521 370.441467,211.333466 368.669739,203.746567 
M171.256195,205.015381 
	C168.405075,193.505753 164.319901,182.412155 160.222839,170.292191 
	C149.011536,187.984879 142.943085,206.078262 141.955841,227.072479 
	C152.277512,219.429047 161.602966,212.523331 171.256195,205.015381 
M256.568085,117.364555 
	C247.035019,117.956001 237.486465,118.453880 227.473694,121.879486 
	C236.889740,128.709564 245.625565,135.002609 254.303314,141.374771 
	C256.217316,142.780243 257.915314,142.725082 259.753784,141.382980 
	C268.449707,135.034851 277.156555,128.701675 286.645782,121.790497 
	C276.534485,118.535568 267.028625,117.876541 256.568085,117.364555 
M341.319244,311.837097 
	C342.856720,309.976013 344.394196,308.114899 346.667938,305.362549 
	C334.402466,305.362549 323.330475,305.360107 312.258484,305.366058 
	C311.045197,305.366730 309.806915,305.579834 309.366425,306.864380 
	C307.416718,312.549866 305.549744,318.263763 303.424438,324.654022 
	C306.887115,324.654022 309.246094,324.320862 311.479614,324.709259 
	C323.960266,326.879608 333.355896,321.948212 341.319244,311.837097 
M183.022308,321.558929 
	C184.976135,323.082336 186.741196,324.772705 189.584412,324.687775 
	C195.077515,324.523651 200.580170,324.561890 206.076294,324.659882 
	C209.412033,324.719391 210.190002,323.326904 209.157196,320.318695 
	C207.914902,316.700409 206.723602,313.056030 205.728424,309.364105 
	C204.886642,306.241272 203.032837,305.239716 199.884659,305.289307 
	C190.390549,305.438843 180.892441,305.320709 171.396179,305.365906 
	C170.354996,305.370850 169.014816,304.871857 168.289017,306.557709 
	C172.394867,311.930359 177.325562,316.610260 183.022308,321.558929 
M112.696053,431.760559 
	C116.379967,434.340546 120.063881,436.920532 124.634560,440.121582 
	C124.634560,431.369751 124.627998,424.089569 124.639061,416.809418 
	C124.641914,414.930023 124.090363,413.438721 121.923584,413.431427 
	C111.055344,413.394928 100.186913,413.414673 89.318550,413.414673 
	C89.180336,413.819366 89.042122,414.224030 88.903908,414.628723 
	C96.640305,420.200317 104.376694,425.771942 112.696053,431.760559 
M412.483215,413.361603 
	C406.320587,413.360046 400.157745,413.331268 393.995422,413.373962 
	C392.214478,413.386261 389.677124,413.066284 389.598785,415.507782 
	C389.346832,423.356262 389.505035,431.217926 389.505035,440.163086 
	C402.283783,431.022949 413.959717,422.671631 425.635620,414.320312 
	C425.528259,414.001038 425.420898,413.681732 425.313538,413.362427 
	C421.366577,413.362427 417.419586,413.362427 412.483215,413.361603 
z"/>
<path fill="#000000" opacity="1.000000" stroke="none" 
	d="
M220.282196,369.083160 
	C223.847900,372.247009 226.363892,375.512726 224.559372,380.481598 
	C222.672302,385.677917 218.455414,387.348450 213.527939,387.289948 
	C197.970917,387.105225 200.664291,390.029327 200.124756,374.464508 
	C199.940796,369.157593 200.096313,363.837921 200.140549,358.524445 
	C200.166626,355.391174 201.417770,353.525970 204.944000,353.731110 
	C208.412689,353.932892 211.875137,353.665558 215.350281,354.393921 
	C224.477737,356.306915 226.400223,361.736145 220.282196,369.083160 
M216.412079,375.962769 
	C215.093170,373.516205 212.878983,373.201569 210.426865,373.444092 
	C209.004471,373.584839 208.286179,374.495422 208.396927,375.787079 
	C208.574524,377.858398 206.918686,381.021149 210.465958,381.442078 
	C213.615143,381.815735 216.485733,380.741516 216.412079,375.962769 
M215.398544,364.232147 
	C215.532242,360.307892 212.864304,359.982697 210.100464,360.493286 
	C207.570831,360.960602 207.833176,363.590851 208.532257,364.888458 
	C210.444016,368.437164 212.897751,367.049835 215.398544,364.232147 
z"/>
<path fill="#000000" opacity="1.000000" stroke="none" 
	d="
M414.154114,353.746643 
	C417.267181,353.910858 419.960663,353.824463 422.555908,354.288208 
	C432.472412,356.060211 434.390137,361.150391 428.028412,369.389069 
	C430.510345,371.284058 432.789673,373.462097 433.167145,376.844055 
	C433.698700,381.606689 429.878143,386.030457 424.265686,387.147125 
	C410.354706,389.914917 408.098297,388.114105 408.112671,374.255219 
	C408.117828,369.263245 408.187958,364.270233 408.108185,359.279633 
	C408.046234,355.404297 409.483521,353.227142 414.154114,353.746643 
M423.382904,379.965332 
	C424.948639,378.232300 425.215271,376.416718 423.463837,374.698334 
	C421.884308,373.148621 419.776642,372.959229 417.865082,373.605591 
	C415.559875,374.385040 416.178772,376.694702 416.332977,378.360931 
	C416.839081,383.829468 420.107635,381.361786 423.382904,379.965332 
M423.405029,364.231171 
	C423.542725,360.299683 420.866791,359.984039 418.104431,360.490417 
	C415.568481,360.955231 415.836639,363.587769 416.534393,364.885864 
	C418.446228,368.442566 420.900482,367.047272 423.405029,364.231171 
z"/>
<path fill="#000000" opacity="1.000000" stroke="none" 
	d="
M132.192978,362.147217 
	C136.574829,375.389984 131.882629,385.265717 120.326195,387.782562 
	C111.271873,389.754456 102.993813,383.673157 101.450134,373.915619 
	C99.859375,363.860504 106.196907,354.536865 115.261192,353.710571 
	C122.435387,353.056610 128.427887,354.991913 132.192978,362.147217 
M124.578773,365.159241 
	C120.726967,359.348236 114.573296,358.653076 111.437119,363.894379 
	C108.920006,368.101074 108.393608,372.610657 111.163765,377.090820 
	C114.388107,382.305511 121.047333,382.291290 124.139381,376.977417 
	C126.205650,373.426422 126.022484,369.682373 124.578773,365.159241 
z"/>
<path fill="#000000" opacity="1.000000" stroke="none" 
	d="
M139.274384,360.460999 
	C145.241684,353.499725 153.156174,351.638885 160.470001,355.217804 
	C166.451950,358.144989 170.125488,366.108978 168.886780,373.464844 
	C167.460968,381.931763 161.966919,387.211426 153.626114,388.130035 
	C141.867706,389.425049 133.116531,377.067902 137.162537,364.820862 
	C137.626968,363.415070 138.420944,362.118134 139.274384,360.460999 
M149.499146,380.325745 
	C152.919708,381.285767 156.174423,381.261475 158.458572,378.066833 
	C161.318939,374.066284 161.245560,369.661743 159.558731,365.257996 
	C158.385651,362.195496 156.033630,360.481201 152.692657,360.424530 
	C149.548874,360.371185 147.376862,361.993134 145.946228,364.700806 
	C143.050751,370.180939 143.996902,375.152649 149.499146,380.325745 
z"/>
<path fill="#000000" opacity="1.000000" stroke="none" 
	d="
M236.487717,357.491760 
	C237.690262,353.496796 240.572128,353.741913 243.477585,353.711365 
	C246.240784,353.682343 247.206863,355.418182 247.969528,357.559296 
	C251.358643,367.073853 254.751755,376.586945 258.254120,386.411072 
	C253.629745,387.959900 250.126465,388.322113 248.477127,383.001312 
	C247.297882,379.197083 243.953964,380.415222 241.295593,380.277649 
	C238.984940,380.158081 236.355820,379.872375 235.612091,382.940430 
	C234.308014,388.320007 230.742371,387.795349 226.001801,386.545502 
	C229.506622,376.812897 232.918579,367.338196 236.487717,357.491760 
M239.908737,369.234528 
	C239.582077,370.609406 238.494064,371.947479 239.663986,373.443817 
	C241.323380,373.646271 243.534561,374.400848 244.231415,372.690308 
	C245.375687,369.881531 243.604858,367.428284 242.222672,364.942444 
	C240.690964,365.993378 240.569305,367.372070 239.908737,369.234528 
z"/>
<path fill="#000000" opacity="1.000000" stroke="none" 
	d="
M382.223938,354.814697 
	C383.744843,361.437012 382.656128,367.770721 383.088654,374.055420 
	C383.303925,377.183655 383.803436,380.112396 387.672760,380.743042 
	C391.800751,381.415833 394.368225,378.981567 394.572296,373.731262 
	C394.772369,368.583984 394.683167,363.422913 394.622131,358.269043 
	C394.590424,355.588867 395.183014,353.772430 398.416992,353.743073 
	C401.579651,353.714386 402.383575,355.340576 402.344574,358.117310 
	C402.262939,363.935913 402.483643,369.762756 402.266113,375.574463 
	C401.983856,383.115173 397.430450,387.451324 389.477295,388.173279 
	C382.368896,388.818512 376.620117,384.776337 375.348175,377.703064 
	C374.106537,370.798096 374.545502,363.745087 375.048248,356.813232 
	C375.384460,352.178406 379.107208,353.716156 382.223938,354.814697 
z"/>
<path fill="#000000" opacity="1.000000" stroke="none" 
	d="
M334.117859,380.301331 
	C338.128540,381.461090 341.725586,380.456909 345.473999,379.996277 
	C347.091980,384.128082 346.594788,386.616974 341.674591,387.538879 
	C333.714020,389.030518 326.735413,386.910187 323.052032,381.292572 
	C319.014252,375.134430 319.171417,366.515259 323.429871,360.572205 
	C327.581329,354.778473 335.962280,351.940552 343.102936,353.910614 
	C346.331879,354.801453 346.681488,355.740936 345.663116,361.552185 
	C338.907196,360.084290 331.919250,358.796082 329.027039,367.720612 
	C327.432770,372.639954 328.959656,376.622314 334.117859,380.301331 
z"/>
<path fill="#000000" opacity="1.000000" stroke="none" 
	d="
M87.288696,363.491272 
	C87.048149,366.572693 88.175919,367.935120 91.003082,367.763275 
	C92.158318,367.693024 93.325180,367.828827 94.487129,367.851135 
	C96.774490,367.895081 97.750732,369.189117 97.794510,371.337006 
	C97.843956,373.763367 96.357628,374.266144 94.250381,374.441254 
	C87.380508,375.012115 87.357697,375.075684 87.293541,382.112854 
	C87.268379,384.872955 87.513260,387.419220 83.368546,387.412048 
	C79.533691,387.405457 79.013397,385.288940 79.017181,382.320404 
	C79.027130,374.515167 79.126419,366.706757 78.934601,358.905914 
	C78.838310,354.989746 80.415138,353.511169 84.238495,353.715790 
	C87.881638,353.910797 91.543106,353.782379 95.196350,353.762695 
	C97.690216,353.749268 98.876854,354.990875 98.795090,357.439484 
	C98.715187,359.832581 97.098808,360.081085 95.112213,360.504456 
	C92.451126,361.071594 88.482712,358.156891 87.288696,363.491272 
z"/>
<path fill="#000000" opacity="1.000000" stroke="none" 
	d="
M182.011032,353.738708 
	C185.995773,353.742523 189.488403,353.753937 192.980988,353.748627 
	C195.094162,353.745422 196.470932,354.405518 196.481552,356.880615 
	C196.492416,359.410522 195.408966,360.721710 192.894791,360.377380 
	C187.906998,359.694336 187.108841,362.327148 187.308716,366.541382 
	C187.576279,372.182556 187.276886,377.848358 187.353531,383.501801 
	C187.390305,386.214905 186.378281,387.406342 183.558807,387.377899 
	C180.815781,387.350189 179.632538,386.249908 179.651398,383.520447 
	C179.693893,377.367279 179.510849,371.210388 179.662857,365.061035 
	C179.747147,361.651520 178.527237,360.126160 175.030640,360.376495 
	C172.670731,360.545441 170.128479,360.618866 170.137131,357.099030 
	C170.145676,353.624939 172.639526,353.744019 175.032486,353.737183 
	C177.194611,353.730988 179.356750,353.738037 182.011032,353.738708 
z"/>
<path fill="#000000" opacity="1.000000" stroke="none" 
	d="
M351.171265,383.644226 
	C351.110931,375.025909 351.071808,366.871887 351.072144,358.717896 
	C351.072266,356.070496 351.325287,353.758698 354.996582,353.708557 
	C358.784363,353.656860 359.356598,355.746155 359.310699,358.807739 
	C359.223419,364.630920 359.398560,370.459229 359.247131,376.279755 
	C359.165588,379.412689 360.181946,381.036713 363.509003,380.758514 
	C364.665070,380.661865 365.837555,380.776886 367.002136,380.762817 
	C369.413147,380.733734 371.273773,381.201294 371.251190,384.271027 
	C371.229675,387.194977 369.358917,387.365143 367.225983,387.361359 
	C363.232086,387.354309 359.237274,387.297028 355.244629,387.365112 
	C352.911255,387.404877 351.353516,386.683746 351.171265,383.644226 
z"/>
<path fill="#000000" opacity="1.000000" stroke="none" 
	d="
M293.277222,363.056580 
	C293.275055,367.701019 293.401886,371.859131 293.228577,376.004761 
	C293.091522,379.283325 294.067871,380.785645 297.682617,380.891754 
	C300.451141,380.973022 305.397491,378.680298 305.063995,384.429840 
	C304.764679,389.589722 300.153748,387.180298 297.554840,387.239685 
	C285.154541,387.523163 285.146942,387.373871 285.121368,375.012207 
	C285.110016,369.530762 285.099304,364.049164 285.127655,358.567810 
	C285.141785,355.835327 285.703644,353.705597 289.254547,353.722321 
	C292.798248,353.738983 293.365051,355.762177 293.273895,358.578522 
	C293.230927,359.905884 293.273132,361.236023 293.277222,363.056580 
z"/>
<path fill="#000000" opacity="1.000000" stroke="none" 
	d="
M278.737030,387.275574 
	C273.942078,387.332092 269.614746,387.250519 265.294312,387.386780 
	C262.269592,387.482208 261.097412,386.082886 261.111115,383.213196 
	C261.150818,374.906189 261.137177,366.598938 261.140198,358.291779 
	C261.141296,355.351776 262.167664,353.599304 265.543457,353.726685 
	C268.802277,353.849670 269.292328,355.774170 269.272827,358.381073 
	C269.234253,363.536926 269.260895,368.693268 269.264984,373.849426 
	C269.270355,380.619629 269.272247,380.619598 276.037170,380.764099 
	C280.773346,380.865234 282.289062,382.556458 280.813568,386.222900 
	C280.622650,386.697357 279.759399,386.901245 278.737030,387.275574 
z"/>
</svg>