<?xml version="1.0" encoding="iso-8859-1"?>
<!-- Uploaded to: SVG Repo, www.svgrepo.com, Generator: SVG Repo Mixer Tools -->
<svg fill="#000000" height="800px" width="800px" version="1.1" id="Layer_1" xmlns="http://www.w3.org/2000/svg" xmlns:xlink="http://www.w3.org/1999/xlink" 
	 viewBox="0 0 512.001 512.001" xml:space="preserve">
<g>
	<g>
		<path d="M437.019,74.982C388.667,26.629,324.38,0.001,255.999,0.001S123.332,26.629,74.981,74.982C26.629,123.333,0,187.62,0,256
			s26.629,132.667,74.981,181.02c48.351,48.352,112.639,74.981,181.02,74.981s132.667-26.629,181.02-74.981
			S512.001,324.381,512.001,256S485.37,123.333,437.019,74.982z M435.181,99.039L402.67,199.099l-52.339,17.618L264.836,154.6
			V98.801l85.092-61.823C382.811,51.136,411.891,72.485,435.181,99.039z M338.438,229.922l-31.489,96.912H205.051l-31.489-96.912
			l82.438-59.895L338.438,229.922z M255.999,17.674c25.88,0,50.804,4.163,74.155,11.827l-74.155,53.877L181.844,29.5
			C205.195,21.836,230.119,17.674,255.999,17.674z M162.072,36.98l85.092,61.823v55.799l-85.494,62.116L109.33,199.1L76.819,99.039
			C100.109,72.485,129.188,51.136,162.072,36.98z M17.673,256c0-52.483,17.066-101.049,45.923-140.467l28.316,87.147l-74.229,53.931
			C17.68,256.408,17.673,256.205,17.673,256z M18.675,277.736l85.128-61.85l52.339,17.618l32.68,100.58l-32.329,43.862H51.312
			C33.476,348.119,21.977,314.095,18.675,277.736z M62.975,395.617h91.562l28.339,87.218
			C134.234,467.118,92.384,436.164,62.975,395.617z M255.999,494.327c-18.111,0-35.754-2.041-52.72-5.888l-32.515-100.071
			l32.329-43.862h105.811l32.33,43.862L308.719,488.44C291.754,492.286,274.111,494.327,255.999,494.327z M329.122,482.836
			l28.339-87.218h91.562C419.615,436.164,377.766,467.118,329.122,482.836z M460.688,377.944H355.506l-32.329-43.862l32.68-100.58
			l52.339-17.618l85.128,61.85C490.022,314.095,478.524,348.119,460.688,377.944z M420.088,202.68l28.316-87.147
			c28.857,39.418,45.923,87.984,45.923,140.467c0,0.204-0.007,0.408-0.008,0.612L420.088,202.68z"/>
	</g>
</g>
</svg>