<svg version="1.1" id="Layer_1" xmlns="http://www.w3.org/2000/svg" xmlns:xlink="http://www.w3.org/1999/xlink" x="0px" y="0px"
	 width="100%" viewBox="0 0 175 281" enable-background="new 0 0 175 281" xml:space="preserve">
<path fill="#FDFDFD" opacity="1.000000" stroke="none" 
	d="
M176.000000,79.000000 
	C176.000000,146.962982 176.000000,214.425964 176.000000,281.944458 
	C117.735725,281.944458 59.471375,281.944458 1.103515,281.944458 
	C1.103515,188.453812 1.103515,94.907478 1.103515,1.180568 
	C59.332870,1.180568 117.666397,1.180568 176.000000,1.180568 
	C176.000000,26.861744 176.000000,52.680870 176.000000,79.000000 
M48.771393,26.263031 
	C37.663586,35.676620 29.020334,47.076508 22.856207,60.166603 
	C-0.188226,109.103592 -1.336911,159.114807 16.803434,209.670914 
	C24.005350,229.742203 35.273174,247.358170 52.731228,260.300110 
	C74.964386,276.781891 101.378738,276.756104 123.690643,260.398651 
	C136.608047,250.928543 146.204071,238.612869 153.141312,224.364517 
	C175.685394,178.061371 177.496811,130.204788 162.478378,81.488686 
	C156.008133,60.500843 145.469482,41.646843 128.551437,27.060844 
	C103.922150,5.826537 74.685753,5.470468 48.771393,26.263031 
z"/>
<path fill="#221E28" opacity="1.000000" stroke="none" 
	d="
M49.058777,26.054783 
	C74.685753,5.470468 103.922150,5.826537 128.551437,27.060844 
	C145.469482,41.646843 156.008133,60.500843 162.478378,81.488686 
	C177.496811,130.204788 175.685394,178.061371 153.141312,224.364517 
	C146.204071,238.612869 136.608047,250.928543 123.690643,260.398651 
	C101.378738,276.756104 74.964386,276.781891 52.731228,260.300110 
	C35.273174,247.358170 24.005350,229.742203 16.803434,209.670914 
	C-1.336911,159.114807 -0.188226,109.103592 22.856207,60.166603 
	C29.020334,47.076508 37.663586,35.676620 49.058777,26.054783 
M155.269562,70.245522 
	C148.547592,54.184662 139.150803,40.010174 125.950165,28.490046 
	C104.084389,9.407915 74.788025,8.864077 52.321972,27.068146 
	C38.656803,38.140926 28.925217,52.172306 22.191153,68.182549 
	C3.882123,111.712273 2.721852,156.146698 16.678799,200.999527 
	C22.901762,220.998001 33.002548,238.870148 48.608192,253.302322 
	C71.345345,274.329803 100.896240,275.390869 124.835686,255.898560 
	C136.689880,246.246460 145.664246,234.245865 151.916199,220.449631 
	C174.237839,171.192368 174.778519,121.276550 155.269562,70.245522 
z"/>
<path fill="#DB0126" opacity="1.000000" stroke="none" 
	d="
M155.432434,70.590813 
	C174.778519,121.276550 174.237839,171.192368 151.916199,220.449631 
	C145.664246,234.245865 136.689880,246.246460 124.835686,255.898560 
	C100.896240,275.390869 71.345345,274.329803 48.608192,253.302322 
	C33.002548,238.870148 22.901762,220.998001 16.678799,200.999527 
	C2.721852,156.146698 3.882123,111.712273 22.191153,68.182549 
	C28.925217,52.172306 38.656803,38.140926 52.321972,27.068146 
	C74.788025,8.864077 104.084389,9.407915 125.950165,28.490046 
	C139.150803,40.010174 148.547592,54.184662 155.432434,70.590813 
M161.353455,155.902283 
	C162.842087,139.710632 161.845901,123.615334 158.931381,107.672775 
	C154.339493,82.554871 145.630478,59.262829 128.048813,40.011250 
	C106.060905,15.934899 75.125443,14.654815 51.515461,37.018436 
	C39.019207,48.855015 30.871004,63.489117 25.105986,79.480751 
	C13.832609,110.752060 11.958196,142.917419 17.505905,175.464081 
	C21.703211,200.088348 30.300367,222.991425 47.116104,242.156494 
	C63.262424,260.558594 86.016510,267.207977 105.925461,259.038757 
	C121.060806,252.828308 131.654999,241.489502 139.984268,227.863602 
	C153.301956,206.077133 159.425201,182.075897 161.353455,155.902283 
z"/>
<path fill="#11151F" opacity="1.000000" stroke="none" 
	d="
M161.314484,156.362427 
	C159.425201,182.075897 153.301956,206.077133 139.984268,227.863602 
	C131.654999,241.489502 121.060806,252.828308 105.925461,259.038757 
	C86.016510,267.207977 63.262424,260.558594 47.116104,242.156494 
	C30.300367,222.991425 21.703211,200.088348 17.505905,175.464081 
	C11.958196,142.917419 13.832609,110.752060 25.105986,79.480751 
	C30.871004,63.489117 39.019207,48.855015 51.515461,37.018436 
	C75.125443,14.654815 106.060905,15.934899 128.048813,40.011250 
	C145.630478,59.262829 154.339493,82.554871 158.931381,107.672775 
	C161.845901,123.615334 162.842087,139.710632 161.314484,156.362427 
M144.540863,187.007721 
	C111.488182,223.557846 57.683304,221.216324 28.072348,181.959045 
	C27.449642,181.133499 26.544271,180.521164 25.658222,179.705795 
	C25.313267,180.429794 25.013203,180.751556 25.069407,180.988953 
	C25.674850,183.546097 26.308228,186.097488 26.987122,188.636261 
	C32.259037,208.350830 40.275398,226.647736 55.072014,241.228043 
	C63.836197,249.864090 74.046364,255.820663 86.782524,256.166565 
	C104.632713,256.651367 117.296379,247.186432 127.841049,234.187439 
	C139.937378,219.275604 146.564423,201.770569 150.843887,183.270752 
	C151.069122,182.297058 150.872910,181.225861 150.872910,178.966278 
	C148.401062,182.116013 146.698349,184.285690 144.540863,187.007721 
M78.135750,71.459343 
	C109.319344,68.137413 133.648209,79.815453 151.789078,105.333420 
	C150.670761,99.563927 149.477707,94.038216 147.790283,88.667839 
	C142.189117,70.841629 134.326447,54.233112 120.374382,41.265831 
	C109.234016,30.911787 96.336319,25.167089 80.774887,28.070791 
	C68.624878,30.337934 59.155891,37.250023 51.171940,46.330997 
	C38.801571,60.401112 31.708233,77.139984 26.937136,95.014931 
	C26.246286,97.603195 25.549173,100.189804 24.854958,102.777176 
	C25.276352,103.162888 25.697744,103.548592 26.119139,103.934296 
	C38.864269,86.056595 55.616138,74.806320 78.135750,71.459343 
M111.654930,149.053650 
	C111.654930,167.060577 111.654930,185.067505 111.654930,203.074432 
	C112.204330,203.336914 112.753731,203.599380 113.303131,203.861862 
	C117.775665,201.450714 122.229805,199.004517 126.727715,196.641678 
	C129.385269,195.245621 130.262619,193.217514 130.220749,190.179657 
	C130.050980,177.861664 130.322601,165.536209 130.053864,153.221725 
	C129.964340,149.119537 131.375839,148.086121 135.201889,148.231552 
	C141.987274,148.489487 148.789490,148.303940 156.024597,148.303940 
	C156.024597,143.023514 156.024597,138.224030 156.024597,132.880829 
	C147.064148,132.880829 138.828278,132.880829 130.150574,132.880829 
	C130.150574,130.704346 130.150589,129.074448 130.150589,127.444542 
	C130.150558,116.123154 130.205597,104.801208 130.090668,93.480988 
	C130.073563,91.797173 129.799667,89.299477 128.715744,88.582512 
	C123.678505,85.250572 118.314362,82.412857 111.947571,78.755005 
	C111.947571,97.768539 111.947571,115.141472 111.947571,133.191101 
	C105.026909,133.191101 98.648300,133.191101 92.318924,133.191101 
	C92.318924,138.478729 92.318924,143.076065 92.318924,148.513657 
	C98.707962,148.513657 104.817757,148.513657 111.654930,149.053650 
M79.146729,98.500053 
	C79.146729,91.096695 79.146729,83.693329 79.146729,75.959702 
	C76.363945,76.450470 74.429695,76.915985 72.468491,77.112267 
	C68.022781,77.557213 66.430313,79.691788 66.630737,84.325760 
	C67.025948,93.463226 66.747169,102.629845 66.747177,111.784401 
	C66.747208,141.245438 66.708405,170.706650 66.842903,200.167068 
	C66.851051,201.952240 67.788689,204.735306 69.073112,205.308823 
	C71.958397,206.597153 75.334007,206.787354 79.146881,207.552338 
	C79.146881,171.001877 79.146881,135.250961 79.146729,98.500053 
M46.060505,89.576401 
	C41.792641,91.987785 40.891453,95.639221 40.930927,100.416000 
	C41.159325,128.052841 41.042225,155.692520 41.042603,183.331253 
	C41.042702,190.700241 45.863110,196.293228 53.424877,197.699875 
	C53.424877,160.247208 53.424877,122.794533 53.424877,84.604156 
	C50.743702,86.396034 48.696194,87.764412 46.060505,89.576401 
M108.303680,172.500244 
	C108.303680,165.751953 108.303680,159.003662 108.303680,152.282227 
	C102.524399,152.282227 97.449287,152.282227 92.279190,152.282227 
	C92.279190,170.976486 92.279190,189.379135 92.279190,208.294830 
	C96.195824,207.668976 99.761688,206.966171 103.361053,206.560547 
	C107.134857,206.135254 108.566910,204.507294 108.411415,200.470001 
	C108.065636,191.492020 108.303650,182.491547 108.303680,172.500244 
M92.009338,83.545952 
	C92.009338,98.683968 92.009338,113.821976 92.009338,129.164642 
	C97.573387,129.164642 102.781517,129.164642 108.063538,129.164642 
	C108.063538,112.030174 108.063538,95.255348 108.063538,77.914856 
	C102.781006,77.062447 97.649681,76.234436 92.009338,75.324287 
	C92.009338,78.284737 92.009338,80.421295 92.009338,83.545952 
M136.681717,151.986954 
	C133.391769,151.549377 133.894882,153.872238 133.894638,155.822159 
	C133.893387,166.285706 133.880722,176.749313 133.917114,187.212738 
	C133.920593,188.214447 134.235123,189.215057 134.503220,190.792679 
	C146.101395,179.897507 153.240402,167.489182 155.615295,151.985535 
	C149.258682,151.985535 143.456482,151.985535 136.681717,151.986954 
M146.945435,107.583633 
	C143.017120,102.649277 139.088806,97.714920 135.160492,92.780563 
	C134.853104,93.056412 134.545715,93.332253 134.238327,93.608101 
	C134.238327,105.475258 134.238327,117.342407 134.238327,129.267899 
	C141.339996,129.267899 148.085999,129.267899 156.466385,129.267899 
	C153.177856,121.713753 150.240662,114.966629 146.945435,107.583633 
M28.140930,137.500000 
	C28.140930,129.037613 28.140930,120.575233 28.140930,112.112846 
	C17.626610,131.846497 17.423830,151.511337 28.141399,171.140991 
	C28.141399,160.260666 28.141399,149.380325 28.140930,137.500000 
z"/>
<path fill="#F7F7F7" opacity="1.000000" stroke="none" 
	d="
M144.768250,186.731537 
	C146.698349,184.285690 148.401062,182.116013 150.872910,178.966278 
	C150.872910,181.225861 151.069122,182.297058 150.843887,183.270752 
	C146.564423,201.770569 139.937378,219.275604 127.841049,234.187439 
	C117.296379,247.186432 104.632713,256.651367 86.782524,256.166565 
	C74.046364,255.820663 63.836197,249.864090 55.072014,241.228043 
	C40.275398,226.647736 32.259037,208.350830 26.987122,188.636261 
	C26.308228,186.097488 25.674850,183.546097 25.069407,180.988953 
	C25.013203,180.751556 25.313267,180.429794 25.658222,179.705795 
	C26.544271,180.521164 27.449642,181.133499 28.072348,181.959045 
	C57.683304,221.216324 111.488182,223.557846 144.768250,186.731537 
M78.397522,237.389954 
	C85.380714,234.316727 78.140297,226.952225 82.667458,223.036438 
	C83.069641,222.688568 82.481300,221.186325 82.335060,220.222931 
	C82.311417,220.067200 82.198769,219.922836 82.118408,219.778137 
	C80.363678,216.618362 74.646782,214.888870 71.061432,216.577454 
	C66.985748,218.496979 66.886238,221.647919 67.951782,225.100571 
	C66.646202,227.724167 64.643669,231.196823 65.640999,233.084976 
	C66.901665,235.471695 70.496819,236.802155 73.308144,238.107819 
	C74.466782,238.645935 76.205841,237.934326 78.397522,237.389954 
M107.288063,223.719559 
	C110.951210,228.774353 112.679428,229.045120 120.999535,226.128448 
	C120.307487,228.048523 119.500336,230.329941 117.931381,231.145065 
	C116.235344,232.026215 113.827805,231.537872 111.730598,231.646881 
	C111.731674,232.487579 111.732750,233.328278 111.733818,234.168976 
	C114.429245,234.273453 117.550163,235.268921 119.704399,234.240173 
	C122.013008,233.137711 124.531418,230.312851 124.923904,227.907715 
	C125.412766,224.911926 124.260468,221.392990 123.025871,218.429504 
	C121.038895,213.660004 117.440315,212.064270 113.072929,213.218201 
	C108.280899,214.484329 106.569466,217.237473 107.288063,223.719559 
M93.132065,235.213135 
	C91.709732,234.974762 90.287407,234.736389 88.865074,234.498001 
	C92.959923,240.483673 100.123741,240.131256 102.665581,234.718033 
	C104.920288,229.916351 104.415405,224.912277 101.834969,220.349503 
	C99.792213,216.737488 94.916283,215.808899 90.762100,217.816071 
	C87.256477,219.509872 85.580055,223.423355 87.092926,227.043228 
	C88.912262,231.396423 92.506615,231.979462 96.634682,231.018188 
	C97.340813,230.853760 98.021141,230.578491 98.971405,230.270920 
	C99.007187,234.141052 97.353363,235.775726 93.132065,235.213135 
M61.800804,212.668182 
	C58.317444,213.887802 53.649719,212.799606 51.105122,217.557220 
	C53.526741,218.311813 55.059917,218.789581 56.672375,219.292038 
	C55.262787,223.536224 53.920979,227.576309 52.447792,232.011978 
	C54.133839,232.503860 55.452866,232.888672 57.035755,233.350464 
	C59.241867,227.045181 61.356220,221.139435 63.318565,215.183578 
	C63.517136,214.580902 62.798817,213.676102 61.800804,212.668182 
z"/>
<path fill="#F5F5F5" opacity="1.000000" stroke="none" 
	d="
M77.698563,71.554672 
	C55.616138,74.806320 38.864269,86.056595 26.119139,103.934296 
	C25.697744,103.548592 25.276352,103.162888 24.854958,102.777176 
	C25.549173,100.189804 26.246286,97.603195 26.937136,95.014931 
	C31.708233,77.139984 38.801571,60.401112 51.171940,46.330997 
	C59.155891,37.250023 68.624878,30.337934 80.774887,28.070791 
	C96.336319,25.167089 109.234016,30.911787 120.374382,41.265831 
	C134.326447,54.233112 142.189117,70.841629 147.790283,88.667839 
	C149.477707,94.038216 150.670761,99.563927 151.789078,105.333420 
	C133.648209,79.815453 109.319344,68.137413 77.698563,71.554672 
M104.142296,61.711452 
	C103.742775,63.283970 103.343262,64.856483 102.966805,66.338249 
	C106.254868,68.225685 107.668701,67.120163 108.420906,63.924488 
	C109.167618,60.752117 110.365387,57.685913 111.759636,53.345768 
	C112.667397,57.441105 113.246078,60.338226 113.962456,63.200890 
	C114.638687,65.903130 115.459763,68.569115 116.217117,71.251053 
	C116.752274,71.138969 117.287437,71.026894 117.822594,70.914818 
	C119.311737,67.619217 120.800873,64.323608 122.393166,60.799728 
	C126.678741,67.069420 124.267830,76.266975 133.702225,80.048080 
	C129.714813,69.497513 128.103271,58.975121 122.713165,48.191231 
	C120.777054,52.252907 119.611694,54.697670 118.377785,57.286243 
	C114.764938,52.407875 117.843727,44.697197 110.710396,41.137489 
	C108.509323,48.060875 106.461250,54.503021 104.142296,61.711452 
M65.247093,62.903614 
	C66.279945,63.396843 67.793449,63.615368 68.260246,64.432114 
	C70.031471,67.531204 69.904793,67.603600 73.685837,65.943970 
	C71.140869,57.755737 68.588181,49.542656 65.525284,39.688023 
	C62.474857,43.347790 59.712364,45.732998 58.122623,48.738518 
	C52.721138,58.950417 47.733849,69.381393 42.588371,79.728699 
	C42.881500,80.054138 43.174625,80.379578 43.467754,80.705017 
	C45.906597,78.144272 49.064476,75.950806 50.606491,72.931969 
	C52.639984,68.950951 54.993416,66.113678 59.411854,65.064758 
	C61.173233,64.646622 62.830006,63.787819 65.247093,62.903614 
M92.871094,34.173656 
	C91.212486,34.107658 89.542686,33.885067 87.897217,34.002724 
	C80.708000,34.516792 75.003395,39.797821 73.571060,47.140366 
	C72.277641,53.770817 76.097252,60.962021 82.483002,63.918915 
	C89.066917,66.967567 96.359314,65.522453 100.910248,60.254333 
	C99.510498,57.612194 97.927299,57.628929 95.339302,59.120354 
	C89.876244,62.268627 84.195808,61.063179 80.573959,56.535614 
	C77.261917,52.395340 77.278534,46.825275 80.615082,42.753815 
	C84.199776,38.379547 90.356438,37.044655 95.452057,40.293819 
	C98.578781,42.287540 99.734764,41.207397 101.344391,38.104259 
	C98.665070,36.798355 96.172287,35.583370 92.871094,34.173656 
z"/>
<path fill="#E20027" opacity="1.000000" stroke="none" 
	d="
M111.291245,148.783661 
	C104.817757,148.513657 98.707962,148.513657 92.318924,148.513657 
	C92.318924,143.076065 92.318924,138.478729 92.318924,133.191101 
	C98.648300,133.191101 105.026909,133.191101 111.947571,133.191101 
	C111.947571,115.141472 111.947571,97.768539 111.947571,78.755005 
	C118.314362,82.412857 123.678505,85.250572 128.715744,88.582512 
	C129.799667,89.299477 130.073563,91.797173 130.090668,93.480988 
	C130.205597,104.801208 130.150558,116.123154 130.150589,127.444542 
	C130.150589,129.074448 130.150574,130.704346 130.150574,132.880829 
	C138.828278,132.880829 147.064148,132.880829 156.024597,132.880829 
	C156.024597,138.224030 156.024597,143.023514 156.024597,148.303940 
	C148.789490,148.303940 141.987274,148.489487 135.201889,148.231552 
	C131.375839,148.086121 129.964340,149.119537 130.053864,153.221725 
	C130.322601,165.536209 130.050980,177.861664 130.220749,190.179657 
	C130.262619,193.217514 129.385269,195.245621 126.727715,196.641678 
	C122.229805,199.004517 117.775665,201.450714 113.303131,203.861862 
	C112.753731,203.599380 112.204330,203.336914 111.654930,203.074432 
	C111.654930,185.067505 111.654930,167.060577 111.291245,148.783661 
z"/>
<path fill="#E40027" opacity="1.000000" stroke="none" 
	d="
M79.146805,99.000046 
	C79.146881,135.250961 79.146881,171.001877 79.146881,207.552338 
	C75.334007,206.787354 71.958397,206.597153 69.073112,205.308823 
	C67.788689,204.735306 66.851051,201.952240 66.842903,200.167068 
	C66.708405,170.706650 66.747208,141.245438 66.747177,111.784401 
	C66.747169,102.629845 67.025948,93.463226 66.630737,84.325760 
	C66.430313,79.691788 68.022781,77.557213 72.468491,77.112267 
	C74.429695,76.915985 76.363945,76.450470 79.146729,75.959702 
	C79.146729,83.693329 79.146729,91.096695 79.146805,99.000046 
z"/>
<path fill="#DD0126" opacity="1.000000" stroke="none" 
	d="
M46.354599,89.354599 
	C48.696194,87.764412 50.743702,86.396034 53.424877,84.604156 
	C53.424877,122.794533 53.424877,160.247208 53.425186,197.700684 
	C45.863110,196.293228 41.042702,190.700241 41.042603,183.331253 
	C41.042225,155.692520 41.159325,128.052841 40.930927,100.416000 
	C40.891453,95.639221 41.792641,91.987785 46.354599,89.354599 
z"/>
<path fill="#FCFCFC" opacity="1.000000" stroke="none" 
	d="
M108.303688,173.000244 
	C108.303650,182.491547 108.065636,191.492020 108.411415,200.470001 
	C108.566910,204.507294 107.134857,206.135254 103.361053,206.560547 
	C99.761688,206.966171 96.195824,207.668976 92.279190,208.294830 
	C92.279190,189.379135 92.279190,170.976486 92.279190,152.282227 
	C97.449287,152.282227 102.524399,152.282227 108.303680,152.282227 
	C108.303680,159.003662 108.303680,165.751953 108.303688,173.000244 
z"/>
<path fill="#FAFBFB" opacity="1.000000" stroke="none" 
	d="
M92.009338,83.051903 
	C92.009338,80.421295 92.009338,78.284737 92.009338,75.324287 
	C97.649681,76.234436 102.781006,77.062447 108.063538,77.914856 
	C108.063538,95.255348 108.063538,112.030174 108.063538,129.164642 
	C102.781517,129.164642 97.573387,129.164642 92.009338,129.164642 
	C92.009338,113.821976 92.009338,98.683968 92.009338,83.051903 
z"/>
<path fill="#F9F9FA" opacity="1.000000" stroke="none" 
	d="
M137.167999,151.986237 
	C143.456482,151.985535 149.258682,151.985535 155.615295,151.985535 
	C153.240402,167.489182 146.101395,179.897507 134.503220,190.792679 
	C134.235123,189.215057 133.920593,188.214447 133.917114,187.212738 
	C133.880722,176.749313 133.893387,166.285706 133.894638,155.822159 
	C133.894882,153.872238 133.391769,151.549377 137.167999,151.986237 
z"/>
<path fill="#F6F6F7" opacity="1.000000" stroke="none" 
	d="
M147.124451,107.901566 
	C150.240662,114.966629 153.177856,121.713753 156.466385,129.267899 
	C148.085999,129.267899 141.339996,129.267899 134.238327,129.267899 
	C134.238327,117.342407 134.238327,105.475258 134.238327,93.608101 
	C134.545715,93.332253 134.853104,93.056412 135.160492,92.780563 
	C139.088806,97.714920 143.017120,102.649277 147.124451,107.901566 
z"/>
<path fill="#DD0026" opacity="1.000000" stroke="none" 
	d="
M28.141165,138.000000 
	C28.141399,149.380325 28.141399,160.260666 28.141399,171.140991 
	C17.423830,151.511337 17.626610,131.846497 28.140930,112.112846 
	C28.140930,120.575233 28.140930,129.037613 28.141165,138.000000 
z"/>
<path fill="#1A242C" opacity="1.000000" stroke="none" 
	d="
M78.039215,237.590546 
	C76.205841,237.934326 74.466782,238.645935 73.308144,238.107819 
	C70.496819,236.802155 66.901665,235.471695 65.640999,233.084976 
	C64.643669,231.196823 66.646202,227.724167 67.951782,225.100571 
	C66.886238,221.647919 66.985748,218.496979 71.061432,216.577454 
	C74.646782,214.888870 80.363678,216.618362 82.118408,219.778137 
	C82.198769,219.922836 82.311417,220.067200 82.335060,220.222931 
	C82.481300,221.186325 83.069641,222.688568 82.667458,223.036438 
	C78.140297,226.952225 85.380714,234.316727 78.039215,237.590546 
M71.960327,234.478729 
	C73.639374,233.720261 75.318420,232.961792 76.997467,232.203308 
	C76.412361,230.976700 76.106102,229.074661 75.173538,228.689667 
	C73.929848,228.176208 72.199356,228.841873 70.677963,229.001068 
	C70.874901,230.698364 71.071846,232.395660 71.960327,234.478729 
M71.987312,221.738235 
	C73.535736,222.694351 75.084152,223.650482 76.632584,224.606598 
	C77.009819,223.355911 77.387062,222.105240 77.764297,220.854553 
	C75.909073,220.906982 74.053841,220.959396 71.987312,221.738235 
z"/>
<path fill="#1B242D" opacity="1.000000" stroke="none" 
	d="
M107.159042,223.329407 
	C106.569466,217.237473 108.280899,214.484329 113.072929,213.218201 
	C117.440315,212.064270 121.038895,213.660004 123.025871,218.429504 
	C124.260468,221.392990 125.412766,224.911926 124.923904,227.907715 
	C124.531418,230.312851 122.013008,233.137711 119.704399,234.240173 
	C117.550163,235.268921 114.429245,234.273453 111.733818,234.168976 
	C111.732750,233.328278 111.731674,232.487579 111.730598,231.646881 
	C113.827805,231.537872 116.235344,232.026215 117.931381,231.145065 
	C119.500336,230.329941 120.307487,228.048523 120.999535,226.128448 
	C112.679428,229.045120 110.951210,228.774353 107.159042,223.329407 
M117.930939,222.674301 
	C119.387398,219.572906 118.461113,217.361923 115.128143,216.831772 
	C114.003761,216.652939 112.063568,217.717239 111.539856,218.745132 
	C111.020363,219.764740 111.397110,222.319244 112.120743,222.668808 
	C113.613174,223.389801 115.598259,223.091003 117.930939,222.674301 
z"/>
<path fill="#18222A" opacity="1.000000" stroke="none" 
	d="
M93.476364,235.359848 
	C97.353363,235.775726 99.007187,234.141052 98.971405,230.270920 
	C98.021141,230.578491 97.340813,230.853760 96.634682,231.018188 
	C92.506615,231.979462 88.912262,231.396423 87.092926,227.043228 
	C85.580055,223.423355 87.256477,219.509872 90.762100,217.816071 
	C94.916283,215.808899 99.792213,216.737488 101.834969,220.349503 
	C104.415405,224.912277 104.920288,229.916351 102.665581,234.718033 
	C100.123741,240.131256 92.959923,240.483673 88.865074,234.498001 
	C90.287407,234.736389 91.709732,234.974762 93.476364,235.359848 
M95.304832,220.396591 
	C93.885139,221.645187 92.095886,222.690887 91.240417,224.249222 
	C90.928825,224.816833 92.718491,227.473953 93.768929,227.622147 
	C95.157936,227.818085 98.043976,226.455048 98.028763,225.815826 
	C97.986938,224.058899 96.766945,222.329987 95.304832,220.396591 
z"/>
<path fill="#1A242C" opacity="1.000000" stroke="none" 
	d="
M62.153404,212.789856 
	C62.798817,213.676102 63.517136,214.580902 63.318565,215.183578 
	C61.356220,221.139435 59.241867,227.045181 57.035755,233.350464 
	C55.452866,232.888672 54.133839,232.503860 52.447792,232.011978 
	C53.920979,227.576309 55.262787,223.536224 56.672375,219.292038 
	C55.059917,218.789581 53.526741,218.311813 51.105122,217.557220 
	C53.649719,212.799606 58.317444,213.887802 62.153404,212.789856 
z"/>
<path fill="#172129" opacity="1.000000" stroke="none" 
	d="
M104.277740,61.328308 
	C106.461250,54.503021 108.509323,48.060875 110.710396,41.137489 
	C117.843727,44.697197 114.764938,52.407875 118.377785,57.286243 
	C119.611694,54.697670 120.777054,52.252907 122.713165,48.191231 
	C128.103271,58.975121 129.714813,69.497513 133.702225,80.048080 
	C124.267830,76.266975 126.678741,67.069420 122.393166,60.799728 
	C120.800873,64.323608 119.311737,67.619217 117.822594,70.914818 
	C117.287437,71.026894 116.752274,71.138969 116.217117,71.251053 
	C115.459763,68.569115 114.638687,65.903130 113.962456,63.200890 
	C113.246078,60.338226 112.667397,57.441105 111.759636,53.345768 
	C110.365387,57.685913 109.167618,60.752117 108.420906,63.924488 
	C107.668701,67.120163 106.254868,68.225685 102.966805,66.338249 
	C103.343262,64.856483 103.742775,63.283970 104.277740,61.328308 
z"/>
<path fill="#172129" opacity="1.000000" stroke="none" 
	d="
M64.890747,63.016617 
	C62.830006,63.787819 61.173233,64.646622 59.411854,65.064758 
	C54.993416,66.113678 52.639984,68.950951 50.606491,72.931969 
	C49.064476,75.950806 45.906597,78.144272 43.467754,80.705017 
	C43.174625,80.379578 42.881500,80.054138 42.588371,79.728699 
	C47.733849,69.381393 52.721138,58.950417 58.122623,48.738518 
	C59.712364,45.732998 62.474857,43.347790 65.525284,39.688023 
	C68.588181,49.542656 71.140869,57.755737 73.685837,65.943970 
	C69.904793,67.603600 70.031471,67.531204 68.260246,64.432114 
	C67.793449,63.615368 66.279945,63.396843 64.890747,63.016617 
M65.034874,53.475670 
	C64.568199,51.995140 64.101532,50.514610 63.245117,47.797596 
	C60.820492,52.753941 58.953533,56.570324 56.655109,61.268696 
	C59.681454,60.153713 61.622433,59.290066 63.647190,58.728462 
	C66.478714,57.943077 66.228493,56.259029 65.034874,53.475670 
z"/>
<path fill="#18222B" opacity="1.000000" stroke="none" 
	d="
M93.275299,34.271019 
	C96.172287,35.583370 98.665070,36.798355 101.344391,38.104259 
	C99.734764,41.207397 98.578781,42.287540 95.452057,40.293819 
	C90.356438,37.044655 84.199776,38.379547 80.615082,42.753815 
	C77.278534,46.825275 77.261917,52.395340 80.573959,56.535614 
	C84.195808,61.063179 89.876244,62.268627 95.339302,59.120354 
	C97.927299,57.628929 99.510498,57.612194 100.908958,60.261040 
	C96.359314,65.522453 89.066917,66.967567 82.483002,63.918915 
	C76.097252,60.962021 72.277641,53.770817 73.571060,47.140366 
	C75.003395,39.797821 80.708000,34.516792 87.897217,34.002724 
	C89.542686,33.885067 91.212486,34.107658 93.275299,34.271019 
z"/>
<path fill="#EAEAEB" opacity="1.000000" stroke="none" 
	d="
M71.614555,234.285843 
	C71.071846,232.395660 70.874901,230.698364 70.677963,229.001068 
	C72.199356,228.841873 73.929848,228.176208 75.173538,228.689667 
	C76.106102,229.074661 76.412361,230.976700 76.997467,232.203308 
	C75.318420,232.961792 73.639374,233.720261 71.614555,234.285843 
z"/>
<path fill="#E6E7E8" opacity="1.000000" stroke="none" 
	d="
M72.092964,221.375031 
	C74.053841,220.959396 75.909073,220.906982 77.764297,220.854553 
	C77.387062,222.105240 77.009819,223.355911 76.632584,224.606598 
	C75.084152,223.650482 73.535736,222.694351 72.092964,221.375031 
z"/>
<path fill="#EEEFF0" opacity="1.000000" stroke="none" 
	d="
M117.655792,222.943024 
	C115.598259,223.091003 113.613174,223.389801 112.120743,222.668808 
	C111.397110,222.319244 111.020363,219.764740 111.539856,218.745132 
	C112.063568,217.717239 114.003761,216.652939 115.128143,216.831772 
	C118.461113,217.361923 119.387398,219.572906 117.655792,222.943024 
z"/>
<path fill="#E7E7E8" opacity="1.000000" stroke="none" 
	d="
M95.658997,220.493286 
	C96.766945,222.329987 97.986938,224.058899 98.028763,225.815826 
	C98.043976,226.455048 95.157936,227.818085 93.768929,227.622147 
	C92.718491,227.473953 90.928825,224.816833 91.240417,224.249222 
	C92.095886,222.690887 93.885139,221.645187 95.658997,220.493286 
z"/>
<path fill="#E2E3E4" opacity="1.000000" stroke="none" 
	d="
M65.135925,53.849426 
	C66.228493,56.259029 66.478714,57.943077 63.647190,58.728462 
	C61.622433,59.290066 59.681454,60.153713 56.655109,61.268696 
	C58.953533,56.570324 60.820492,52.753941 63.245117,47.797596 
	C64.101532,50.514610 64.568199,51.995140 65.135925,53.849426 
z"/>
</svg>