<svg version="1.1" id="Layer_1" xmlns="http://www.w3.org/2000/svg" xmlns:xlink="http://www.w3.org/1999/xlink" x="0px" y="0px"
	 width="100%" viewBox="0 0 260 313" enable-background="new 0 0 260 313" xml:space="preserve">
<path fill="#FDFDFD" opacity="1.000000" stroke="none" 
	d="
M261.000000,84.000000 
	C261.000000,160.966629 261.000000,237.433243 261.000000,313.949951 
	C174.404556,313.949951 87.809059,313.949951 1.106786,313.949951 
	C1.106786,209.783478 1.106786,105.566803 1.106786,1.175068 
	C87.666367,1.175068 174.333160,1.175068 261.000000,1.175068 
	C261.000000,28.524137 261.000000,56.012070 261.000000,84.000000 
M193.237473,264.736053 
	C234.361084,226.193390 255.276489,178.577728 256.915131,122.402222 
	C257.697327,95.586060 253.558533,69.368401 247.449173,43.308285 
	C245.627731,35.538685 241.874878,31.455254 234.770920,28.659611 
	C198.592728,14.422278 160.909515,8.695098 122.318039,9.577717 
	C106.092545,9.948809 89.844803,12.577969 73.762917,15.153242 
	C55.003113,18.157345 36.618412,22.952995 19.624041,31.828403 
	C17.602190,32.884327 15.632537,35.363712 15.007638,37.570862 
	C6.697909,66.920921 2.567901,96.816284 3.922580,127.379379 
	C5.551477,164.129150 15.884371,198.102585 36.459831,228.734192 
	C59.635719,263.237152 91.446121,287.709991 127.924507,306.599762 
	C129.394714,307.361084 132.088623,306.860596 133.733856,306.015930 
	C155.175430,295.007843 175.014282,281.646973 193.237473,264.736053 
z"/>
<path fill="#9C824C" opacity="1.000000" stroke="none" 
	d="
M192.969299,264.966522 
	C175.014282,281.646973 155.175430,295.007843 133.733856,306.015930 
	C132.088623,306.860596 129.394714,307.361084 127.924507,306.599762 
	C91.446121,287.709991 59.635719,263.237152 36.459831,228.734192 
	C15.884371,198.102585 5.551477,164.129150 3.922580,127.379379 
	C2.567901,96.816284 6.697909,66.920921 15.007638,37.570862 
	C15.632537,35.363712 17.602190,32.884327 19.624041,31.828403 
	C36.618412,22.952995 55.003113,18.157345 73.762917,15.153242 
	C89.844803,12.577969 106.092545,9.948809 122.318039,9.577717 
	C160.909515,8.695098 198.592728,14.422278 234.770920,28.659611 
	C241.874878,31.455254 245.627731,35.538685 247.449173,43.308285 
	C253.558533,69.368401 257.697327,95.586060 256.915131,122.402222 
	C255.276489,178.577728 234.361084,226.193390 192.969299,264.966522 
M45.005016,32.011402 
	C45.005016,32.011402 45.070393,32.032421 44.381783,31.690641 
	C42.862755,32.386269 41.343731,33.081894 39.052956,33.834999 
	C35.591522,34.998032 32.167484,36.292637 28.658924,37.289860 
	C24.533213,38.462494 22.422270,40.913448 21.714375,45.259045 
	C18.885492,62.624866 14.788868,79.845169 13.003943,97.307655 
	C8.988032,136.596634 15.317041,174.268295 33.783947,209.543777 
	C37.320839,216.299942 37.490166,216.378006 44.228760,212.895218 
	C45.094864,212.447571 45.819382,211.725983 47.224644,211.125076 
	C48.466427,210.464020 49.708210,209.802963 51.584229,208.817368 
	C61.421970,201.571136 71.259712,194.324905 81.686081,187.440887 
	C84.102989,192.619003 86.571075,197.774445 88.886955,202.997360 
	C89.277657,203.878479 89.011803,205.050735 88.716026,206.690796 
	C79.729889,212.162354 70.363907,216.754807 59.168922,218.883133 
	C56.618874,219.318359 54.068821,219.753601 50.801243,220.261642 
	C47.841156,220.907455 44.881073,221.553284 41.498466,222.291290 
	C42.434242,223.955399 42.929199,224.989960 43.559563,225.934128 
	C62.105579,253.712799 86.988533,274.505249 115.596313,291.171356 
	C115.977562,291.393463 116.663406,291.092743 117.808838,291.343048 
	C120.155235,292.984650 122.477615,294.661987 124.854050,296.258911 
	C127.870148,298.285706 130.696503,299.168915 134.148895,296.531982 
	C137.851837,293.703705 142.084503,291.568970 146.833511,289.079529 
	C153.339813,285.180634 160.154678,281.712769 166.301529,277.311829 
	C201.979126,251.767746 227.662231,218.791077 240.303253,176.333908 
	C241.937439,170.845200 243.174500,165.238235 244.684616,159.338013 
	C239.140228,159.338013 234.536545,159.338013 229.070557,159.281677 
	C220.987030,159.693329 212.895859,160.002716 204.826675,160.606201 
	C203.283112,160.721649 201.675262,161.795410 200.364273,162.782074 
	C198.337128,164.307724 196.540161,166.139221 193.858612,167.865311 
	C188.787369,168.859009 183.716141,169.852722 178.688736,170.837830 
	C177.673004,167.262253 176.788132,164.147369 175.895126,160.290436 
	C172.987915,151.147049 167.561172,143.783798 160.583008,137.225754 
	C162.571503,137.155106 164.559891,137.026794 166.548523,137.022659 
	C188.489731,136.977005 210.431000,136.950638 233.397034,136.978851 
	C238.147354,136.978851 242.897659,136.978851 248.103378,136.978851 
	C248.103378,124.812965 248.432281,113.379852 248.031174,101.972404 
	C247.316299,81.641525 243.267288,61.811207 237.924576,42.240353 
	C237.552750,40.878334 236.264542,39.266510 234.998749,38.738255 
	C230.416931,36.826084 225.662704,35.326954 220.459747,33.289059 
	C218.661484,32.554634 216.863235,31.820208 214.394623,30.755297 
	C187.041779,21.353426 158.858231,17.440615 129.068542,17.868240 
	C112.271790,19.287863 95.364929,19.954926 78.716866,22.390785 
	C67.555428,24.023872 56.761051,28.165628 45.339245,31.307806 
	C44.944069,31.443243 44.834251,31.700611 45.005016,32.011402 
z"/>
<path fill="#EE0409" opacity="1.000000" stroke="none" 
	d="
M81.097450,187.078674 
	C71.259712,194.324905 61.421970,201.571136 50.944550,208.810120 
	C46.870358,198.937256 42.743561,189.251633 40.123634,179.174255 
	C29.898333,139.843353 32.390556,100.325012 39.465820,60.845890 
	C41.191666,51.215889 43.194767,41.635578 45.070393,32.032421 
	C45.070393,32.032421 45.005016,32.011402 45.229515,32.000881 
	C45.711185,31.782887 45.827328,31.514397 45.802433,31.184887 
	C56.761051,28.165628 67.555428,24.023872 78.716866,22.390785 
	C95.364929,19.954926 112.271790,19.287863 129.534576,18.395885 
	C130.008789,35.321190 130.016983,51.718849 129.779099,68.350037 
	C122.460320,70.689819 119.452530,76.230919 117.873047,83.223534 
	C114.092316,81.350502 110.746536,79.692955 107.400757,78.035416 
	C107.496086,77.542076 107.591415,77.048737 107.686745,76.555397 
	C111.000877,76.924736 114.315010,77.294067 117.607979,77.661049 
	C118.642838,68.844719 117.486244,67.609726 108.893394,68.093369 
	C104.265778,68.353828 99.931068,71.529884 94.963005,69.232323 
	C94.042221,68.806496 92.282379,70.220192 90.899429,70.758240 
	C90.164627,71.044121 89.388008,71.537201 88.663826,71.483574 
	C84.606239,71.183075 80.558876,70.744423 76.126564,70.316078 
	C76.126564,78.991417 76.126564,86.434441 76.126564,93.877457 
	C75.732040,93.911751 75.337517,93.946045 74.942993,93.980339 
	C72.176491,81.966583 69.409996,69.952835 66.577927,57.654331 
	C60.684349,58.585636 55.482292,59.407669 51.706242,60.004360 
	C46.706161,74.546265 42.046635,88.097740 37.335892,101.798157 
	C41.451202,101.798157 45.403328,101.798157 49.269825,101.798157 
	C52.541740,92.980324 52.541740,92.980324 60.655590,94.527603 
	C61.224430,96.843605 61.809448,99.225456 62.393204,101.602173 
	C71.268608,101.602173 79.975067,101.602173 88.474609,101.602173 
	C90.240837,93.805428 85.800308,84.831261 94.804970,78.250786 
	C95.349922,87.410988 103.557884,88.125565 108.932114,92.540504 
	C102.456383,95.944702 99.280632,90.327988 94.555290,88.809090 
	C94.430389,90.933922 94.525612,92.589012 94.205795,94.159599 
	C93.110893,99.536682 96.181633,101.355545 100.691322,101.880844 
	C108.271339,102.763771 115.420250,102.243629 119.771255,95.356583 
	C123.387619,97.690269 126.691689,99.822418 129.997284,102.426071 
	C129.998535,110.681862 129.998260,118.466148 129.611115,126.384171 
	C120.600044,126.744949 112.592911,129.028778 104.992012,133.169113 
	C102.517105,134.517258 99.456444,135.367386 96.644455,135.420181 
	C84.019135,135.657227 71.386383,135.465256 58.757450,135.567566 
	C55.528065,135.593735 51.931644,135.494186 50.879776,140.206482 
	C48.373482,142.334274 46.132069,144.228699 43.527493,146.116821 
	C38.245144,150.837219 38.598305,156.441681 44.292263,159.071136 
	C45.930420,159.549423 47.241486,159.776016 48.549652,160.323288 
	C49.700512,162.375763 50.854267,164.107574 52.206535,166.015137 
	C52.576054,166.146164 52.747059,166.101425 52.877563,166.042664 
	C52.837055,166.028671 52.774895,166.087692 52.959549,166.455688 
	C55.373211,167.244843 57.595219,167.979126 59.832523,168.029144 
	C66.876373,168.186615 73.925957,168.087158 81.097450,168.087158 
	C81.097450,174.914734 81.097450,180.996704 81.097450,187.078674 
z"/>
<path fill="#DA0108" opacity="1.000000" stroke="none" 
	d="
M129.997986,126.250443 
	C129.998260,118.466148 129.998535,110.681862 130.455734,102.428589 
	C136.963242,102.499176 142.865677,102.417000 147.613922,97.266266 
	C147.927536,99.214317 148.130447,100.474777 148.331635,101.724548 
	C152.876740,101.724548 157.139877,101.724548 161.549484,101.724548 
	C161.101212,95.654297 160.614151,89.893669 160.280319,84.124168 
	C160.148132,81.839310 159.276627,78.853439 164.079163,78.969589 
	C164.415649,86.603584 164.746826,94.117111 165.099426,102.116852 
	C169.650452,100.959778 174.859329,104.358047 178.949188,99.656754 
	C182.997513,103.008804 187.438385,103.875603 192.453262,102.021347 
	C193.568039,101.609146 194.953415,101.914474 196.214218,101.913773 
	C204.332779,101.909225 212.451324,101.911446 220.526077,101.911446 
	C218.924255,88.791855 217.426224,76.114777 215.751740,63.461060 
	C215.590714,62.244217 214.536987,60.442032 213.546829,60.164841 
	C209.988632,59.168732 206.279846,58.710529 202.755173,58.072075 
	C203.698914,66.500648 204.566803,74.251701 205.107605,81.990997 
	C204.562424,81.974083 204.344284,81.968925 204.060059,81.596985 
	C200.835785,70.928467 191.056778,67.322052 177.950638,71.938705 
	C178.120880,74.828499 178.298279,77.839394 178.485168,81.011658 
	C182.985001,80.488419 186.288834,76.184456 190.986786,79.397141 
	C188.173218,80.500534 185.610977,81.210693 183.357666,82.472527 
	C181.136414,83.716408 179.228012,85.518951 176.700134,87.443520 
	C176.700134,84.500954 176.943481,81.991035 176.655884,79.543503 
	C175.674835,71.194725 170.549133,67.768738 162.343735,69.699562 
	C161.102966,69.991524 159.758636,70.101967 158.492783,69.979721 
	C154.791153,69.622208 151.104980,69.104630 147.441956,68.653366 
	C147.100159,70.812210 146.887604,72.154762 146.498199,74.614288 
	C142.104996,67.744011 136.167496,67.616867 130.025177,68.116508 
	C130.016983,51.718849 130.008789,35.321190 130.000504,18.453354 
	C158.858231,17.440615 187.041779,21.353426 214.720444,31.318039 
	C223.118958,65.707253 228.663956,99.813675 226.900375,135.009048 
	C204.021317,135.009048 181.598618,135.017868 159.176010,134.978241 
	C158.234253,134.976562 157.146484,134.749100 156.374573,134.246338 
	C148.347763,129.018280 139.376617,126.978073 129.997986,126.250443 
z"/>
<path fill="#EF0308" opacity="1.000000" stroke="none" 
	d="
M60.022091,219.088776 
	C70.363907,216.754807 79.729889,212.162354 89.234512,206.384750 
	C90.700279,206.642990 91.869286,207.012589 92.561508,207.800858 
	C102.496078,219.113892 115.132675,224.525726 130.003235,225.601471 
	C130.001923,249.335190 130.002472,272.609467 129.663803,295.842041 
	C99.369095,276.556244 73.939278,252.926819 56.538216,221.300278 
	C57.953842,220.401657 58.987968,219.745224 60.022091,219.088776 
z"/>
<path fill="#053674" opacity="1.000000" stroke="none" 
	d="
M46.609489,211.131287 
	C45.819382,211.725983 45.094864,212.447571 44.228760,212.895218 
	C37.490166,216.378006 37.320839,216.299942 33.783947,209.543777 
	C15.317041,174.268295 8.988032,136.596634 13.003943,97.307655 
	C14.788868,79.845169 18.885492,62.624866 21.714375,45.259045 
	C22.422270,40.913448 24.533213,38.462494 28.658924,37.289860 
	C32.167484,36.292637 35.591522,34.998032 39.411297,34.210304 
	C34.050789,57.171242 29.968525,80.040329 28.455252,103.303970 
	C26.025766,140.652618 30.125870,176.945801 46.609489,211.131287 
z"/>
<path fill="#F8F0EF" opacity="1.000000" stroke="none" 
	d="
M130.005081,225.142044 
	C115.132675,224.525726 102.496078,219.113892 92.561508,207.800858 
	C91.869286,207.012589 90.700279,206.642990 89.401146,206.083588 
	C89.011803,205.050735 89.277657,203.878479 88.886955,202.997360 
	C86.571075,197.774445 84.102989,192.619003 81.391769,187.259781 
	C81.097450,180.996704 81.097450,174.914734 81.097450,168.087158 
	C73.925957,168.087158 66.876373,168.186615 59.832523,168.029144 
	C57.595219,167.979126 55.373211,167.244843 53.371937,166.181396 
	C62.833706,165.989609 72.067741,166.440109 81.452972,166.897964 
	C83.906334,154.792496 89.771805,145.638107 98.974953,137.186569 
	C86.228470,137.186569 75.094131,136.933334 63.981506,137.314102 
	C59.677242,137.461578 55.422153,139.044250 51.144661,139.973083 
	C51.931644,135.494186 55.528065,135.593735 58.757450,135.567566 
	C71.386383,135.465256 84.019135,135.657227 96.644455,135.420181 
	C99.456444,135.367386 102.517105,134.517258 104.992012,133.169113 
	C112.592911,129.028778 120.600044,126.744949 129.611115,126.384171 
	C139.376617,126.978073 148.347763,129.018280 156.374573,134.246338 
	C157.146484,134.749100 158.234253,134.976562 159.176010,134.978241 
	C181.598618,135.017868 204.021317,135.009048 226.900375,135.009048 
	C228.663956,99.813675 223.118958,65.707253 215.055618,31.483282 
	C216.863235,31.820208 218.661484,32.554634 220.710281,33.913177 
	C221.125000,35.348122 221.264603,36.164829 221.456924,36.968922 
	C229.315292,69.825020 234.397629,102.983765 232.372238,136.919067 
	C210.431000,136.950638 188.489731,136.977005 166.548523,137.022659 
	C164.559891,137.026794 162.571503,137.155106 160.181519,137.813828 
	C159.460526,138.624512 159.141006,138.847137 158.510590,138.941116 
	C142.796997,127.821709 126.274651,125.691643 109.290390,134.133636 
	C93.116760,142.172714 84.450790,155.788727 83.607498,173.966782 
	C82.654457,194.510452 95.322090,213.010101 114.696121,219.778305 
	C133.869705,226.476440 155.514389,219.622482 167.484848,202.969360 
	C176.327515,190.667587 177.880905,177.022446 174.799103,162.253845 
	C175.266693,161.646454 175.584976,161.339462 175.903275,161.032486 
	C176.788132,164.147369 177.673004,167.262253 178.688736,170.837830 
	C183.716141,169.852722 188.787369,168.859009 194.514923,167.957047 
	C195.446579,168.296585 195.721954,168.544388 195.644928,168.943665 
	C189.882538,170.464783 184.472534,171.834427 179.159088,173.179642 
	C179.213364,203.691574 157.128296,224.299698 130.005081,225.142044 
z"/>
<path fill="#053674" opacity="1.000000" stroke="none" 
	d="
M232.884644,136.948959 
	C234.397629,102.983765 229.315292,69.825020 221.456924,36.968922 
	C221.264603,36.164829 221.125000,35.348122 220.967194,34.104622 
	C225.662704,35.326954 230.416931,36.826084 234.998749,38.738255 
	C236.264542,39.266510 237.552750,40.878334 237.924576,42.240353 
	C243.267288,61.811207 247.316299,81.641525 248.031174,101.972404 
	C248.432281,113.379852 248.103378,124.812965 248.103378,136.978851 
	C242.897659,136.978851 238.147354,136.978851 232.884644,136.948959 
z"/>
<path fill="#083875" opacity="1.000000" stroke="none" 
	d="
M229.932861,159.338013 
	C234.536545,159.338013 239.140228,159.338013 244.684616,159.338013 
	C243.174500,165.238235 241.937439,170.845200 240.303253,176.333908 
	C227.662231,218.791077 201.979126,251.767746 166.301529,277.311829 
	C160.154678,281.712769 153.339813,285.180634 146.462067,288.749146 
	C151.115906,284.598785 156.274139,280.940460 161.145355,276.933197 
	C198.510834,246.194733 222.497025,207.598938 229.932861,159.338013 
z"/>
<path fill="#F5EDEF" opacity="1.000000" stroke="none" 
	d="
M229.501709,159.309845 
	C222.497025,207.598938 198.510834,246.194733 161.145355,276.933197 
	C156.274139,280.940460 151.115906,284.598785 146.088318,288.775146 
	C142.084503,291.568970 137.851837,293.703705 134.148895,296.531982 
	C130.696503,299.168915 127.870148,298.285706 124.854050,296.258911 
	C122.477615,294.661987 120.155235,292.984650 117.354668,290.870361 
	C109.965469,284.963989 102.828209,279.767120 96.134453,274.050934 
	C78.157539,258.699310 62.654945,241.236420 51.518772,220.188828 
	C54.068821,219.753601 56.618874,219.318359 59.595505,218.985962 
	C58.987968,219.745224 57.953842,220.401657 56.538216,221.300278 
	C73.939278,252.926819 99.369095,276.556244 130.006104,295.951569 
	C180.636078,264.670868 214.356384,221.939377 224.236816,162.125320 
	C220.549652,162.125320 217.247681,161.939301 213.974640,162.167862 
	C208.751236,162.532669 202.924484,161.246826 199.535599,167.242188 
	C199.028671,168.138977 197.209457,168.294022 195.997314,168.792191 
	C195.721954,168.544388 195.446579,168.296585 194.908386,167.944885 
	C196.540161,166.139221 198.337128,164.307724 200.364273,162.782074 
	C201.675262,161.795410 203.283112,160.721649 204.826675,160.606201 
	C212.895859,160.002716 220.987030,159.693329 229.501709,159.309845 
z"/>
<path fill="#F9F4F5" opacity="1.000000" stroke="none" 
	d="
M46.917068,211.128174 
	C30.125870,176.945801 26.025766,140.652618 28.455252,103.303970 
	C29.968525,80.040329 34.050789,57.171242 39.797173,34.181568 
	C41.343731,33.081894 42.862755,32.386269 44.726089,31.861530 
	C43.194767,41.635578 41.191666,51.215889 39.465820,60.845890 
	C32.390556,100.325012 29.898333,139.843353 40.123634,179.174255 
	C42.743561,189.251633 46.870358,198.937256 50.627426,208.972382 
	C49.708210,209.802963 48.466427,210.464020 46.917068,211.128174 
z"/>
<path fill="#0C3A76" opacity="1.000000" stroke="none" 
	d="
M51.160007,220.225235 
	C62.654945,241.236420 78.157539,258.699310 96.134453,274.050934 
	C102.828209,279.767120 109.965469,284.963989 117.053787,290.716858 
	C116.663406,291.092743 115.977562,291.393463 115.596313,291.171356 
	C86.988533,274.505249 62.105579,253.712799 43.559563,225.934128 
	C42.929199,224.989960 42.434242,223.955399 41.498466,222.291290 
	C44.881073,221.553284 47.841156,220.907455 51.160007,220.225235 
z"/>
<path fill="#F1EDE5" opacity="1.000000" stroke="none" 
	d="
M175.899200,160.661469 
	C175.584976,161.339462 175.266693,161.646454 174.587036,161.948090 
	C171.416824,152.751999 165.780441,145.465515 158.821487,139.069763 
	C159.141006,138.847137 159.460526,138.624512 159.921967,138.142670 
	C167.561172,143.783798 172.987915,151.147049 175.899200,160.661469 
z"/>
<path fill="#F9F4F5" opacity="1.000000" stroke="none" 
	d="
M45.570839,31.246346 
	C45.827328,31.514397 45.711185,31.782887 45.231899,32.035133 
	C44.834251,31.700611 44.944069,31.443243 45.570839,31.246346 
z"/>
<path fill="#A58250" opacity="1.000000" stroke="none" 
	d="
M129.779114,68.350037 
	C136.167496,67.616867 142.104996,67.744011 146.498199,74.614288 
	C146.887604,72.154762 147.100159,70.812210 147.441956,68.653366 
	C151.104980,69.104630 154.791153,69.622208 158.492783,69.979721 
	C159.758636,70.101967 161.102966,69.991524 162.343735,69.699562 
	C170.549133,67.768738 175.674835,71.194725 176.655884,79.543503 
	C176.943481,81.991035 176.700134,84.500954 176.700134,87.443520 
	C179.228012,85.518951 181.136414,83.716408 183.357666,82.472527 
	C185.610977,81.210693 188.173218,80.500534 190.986786,79.397141 
	C186.288834,76.184456 182.985001,80.488419 178.485168,81.011658 
	C178.298279,77.839394 178.120880,74.828499 177.950638,71.938705 
	C191.056778,67.322052 200.835785,70.928467 204.013336,82.033951 
	C204.615082,87.970810 205.197418,93.103912 205.779770,98.237022 
	C206.341888,98.161758 206.904007,98.086494 207.466125,98.011223 
	C206.788986,92.675072 206.111832,87.338913 205.434677,82.002754 
	C204.566803,74.251701 203.698914,66.500648 202.755173,58.072075 
	C206.279846,58.710529 209.988632,59.168732 213.546829,60.164841 
	C214.536987,60.442032 215.590714,62.244217 215.751740,63.461060 
	C217.426224,76.114777 218.924255,88.791855 220.526077,101.911446 
	C212.451324,101.911446 204.332779,101.909225 196.214218,101.913773 
	C194.953415,101.914474 193.568039,101.609146 192.453262,102.021347 
	C187.438385,103.875603 182.997513,103.008804 178.949188,99.656754 
	C174.859329,104.358047 169.650452,100.959778 165.099426,102.116852 
	C164.746826,94.117111 164.415649,86.603584 164.079163,78.969589 
	C159.276627,78.853439 160.148132,81.839310 160.280319,84.124168 
	C160.614151,89.893669 161.101212,95.654297 161.549484,101.724548 
	C157.139877,101.724548 152.876740,101.724548 148.331635,101.724548 
	C148.130447,100.474777 147.927536,99.214317 147.613922,97.266266 
	C142.865677,102.417000 136.963242,102.499176 130.454208,101.957092 
	C126.691689,99.822418 123.387619,97.690269 119.771255,95.356583 
	C115.420250,102.243629 108.271339,102.763771 100.691322,101.880844 
	C96.181633,101.355545 93.110893,99.536682 94.205795,94.159599 
	C94.525612,92.589012 94.430389,90.933922 94.555290,88.809090 
	C99.280632,90.327988 102.456383,95.944702 108.932114,92.540504 
	C103.557884,88.125565 95.349922,87.410988 94.804970,78.250786 
	C85.800308,84.831261 90.240837,93.805428 88.474609,101.602173 
	C79.975067,101.602173 71.268608,101.602173 62.393204,101.602173 
	C61.809448,99.225456 61.224430,96.843605 60.655590,94.527603 
	C52.541740,92.980324 52.541740,92.980324 49.269825,101.798157 
	C45.403328,101.798157 41.451202,101.798157 37.335892,101.798157 
	C42.046635,88.097740 46.706161,74.546265 51.706242,60.004360 
	C55.482292,59.407669 60.684349,58.585636 66.577927,57.654331 
	C69.409996,69.952835 72.176491,81.966583 74.942993,93.980339 
	C75.337517,93.946045 75.732040,93.911751 76.126564,93.877457 
	C76.126564,86.434441 76.126564,78.991417 76.126564,70.316078 
	C80.558876,70.744423 84.606239,71.183075 88.663826,71.483574 
	C89.388008,71.537201 90.164627,71.044121 90.899429,70.758240 
	C92.282379,70.220192 94.042221,68.806496 94.963005,69.232323 
	C99.931068,71.529884 104.265778,68.353828 108.893394,68.093369 
	C117.486244,67.609726 118.642838,68.844719 117.607979,77.661049 
	C114.315010,77.294067 111.000877,76.924736 107.686745,76.555397 
	C107.591415,77.048737 107.496086,77.542076 107.400757,78.035416 
	C110.746536,79.692955 114.092316,81.350502 117.873047,83.223534 
	C119.452530,76.230919 122.460320,70.689819 129.779114,68.350037 
M42.664783,93.139763 
	C41.798027,95.255928 40.931271,97.372101 39.939014,99.794678 
	C42.856297,99.794678 45.282555,99.794678 47.608772,99.794678 
	C49.315102,96.237076 48.472530,91.755371 54.942123,91.509850 
	C61.778961,91.250397 63.927799,94.010582 64.065506,99.821716 
	C67.728020,99.821716 70.849525,99.821716 74.170662,99.821716 
	C71.923729,90.095520 69.736397,80.594513 67.532814,71.097282 
	C64.886963,59.693905 64.880432,59.692650 53.071915,62.072685 
	C52.786594,62.130192 52.548653,62.422764 53.415043,61.813271 
	C49.676094,72.719757 46.300549,82.566208 42.664783,93.139763 
M149.336472,72.543388 
	C149.336472,81.618698 149.336472,90.694008 149.336472,99.623840 
	C153.442749,99.623840 156.165939,99.623840 158.957489,99.623840 
	C158.659607,93.584312 158.367538,87.941711 158.108307,82.297600 
	C157.963440,79.143738 158.875900,76.394348 162.434555,76.167702 
	C166.242859,75.925156 166.428802,79.195213 166.510956,81.796104 
	C166.698242,87.726341 166.570053,93.666542 166.570053,99.624908 
	C170.014359,99.624908 172.555801,99.624908 175.338303,99.624908 
	C174.940186,92.415466 174.692780,85.598961 174.147964,78.806305 
	C173.709152,73.335320 169.841354,70.482002 164.442673,71.684479 
	C162.108582,72.204361 159.955978,73.539062 157.659592,74.530113 
	C156.265930,69.813759 152.809982,70.835045 149.336472,72.543388 
M143.548477,93.921021 
	C136.144455,97.519272 132.283112,96.104080 130.261215,88.734566 
	C133.636459,87.493523 137.041931,86.232231 140.453888,84.988777 
	C146.916992,82.633385 148.003601,79.547234 143.458542,74.306953 
	C141.674652,72.250198 138.610794,70.595741 135.909103,70.174767 
	C127.587456,68.878090 120.950920,74.811546 120.386223,83.851494 
	C120.014366,89.804329 121.657715,95.184128 127.403526,98.231812 
	C132.782471,101.084900 138.280624,101.126335 143.548401,97.903648 
	C145.103287,96.952400 147.550232,95.684303 143.548477,93.921021 
M190.007339,72.276009 
	C186.765076,72.493340 183.522812,72.710663 179.888672,72.954254 
	C180.230240,75.032188 180.449936,76.368736 180.683289,77.788345 
	C189.706696,74.483032 192.800095,75.413589 193.485291,80.857216 
	C189.594788,82.559486 185.347824,83.585800 182.266556,86.062393 
	C180.258362,87.676514 178.933640,91.497314 179.192078,94.145195 
	C179.398132,96.256638 182.151352,99.137886 184.332443,99.779907 
	C187.047424,100.579079 190.336823,99.430252 193.377609,99.117134 
	C194.342575,99.017761 195.337677,98.690887 196.263519,98.832047 
	C198.788940,99.217087 201.284744,99.796288 204.031464,100.346474 
	C203.305328,94.454361 202.597153,89.698402 202.156891,84.917763 
	C201.375885,76.436852 199.391586,74.159676 190.007339,72.276009 
M105.545830,96.112053 
	C102.735435,95.257751 99.925049,94.403442 97.075188,93.537140 
	C95.551926,97.435791 97.291229,99.725929 101.235947,99.651550 
	C105.453781,99.572014 110.012215,99.450249 113.782913,97.845398 
	C120.031448,95.185951 120.111183,87.547585 114.338280,83.890083 
	C112.249306,82.566582 109.762733,81.868774 107.681107,80.536285 
	C106.575951,79.828857 105.020157,77.933594 105.298073,77.347221 
	C105.894913,76.087967 107.452263,74.715553 108.791351,74.505646 
	C110.965782,74.164764 113.280647,74.719673 116.701729,74.987793 
	C115.656708,73.142807 115.280899,71.412262 114.280090,70.897972 
	C110.051819,68.725166 101.636024,71.085373 98.852196,74.931290 
	C96.280243,78.484497 96.824791,82.419319 100.471771,84.912643 
	C102.657715,86.407112 105.246208,87.333115 107.353493,88.914711 
	C108.637276,89.878235 110.213509,91.702858 110.067848,92.955788 
	C109.931923,94.124969 107.693962,95.049767 105.545830,96.112053 
M208.087799,85.324379 
	C208.558624,90.067619 209.029449,94.810852 209.516296,99.715500 
	C212.404602,99.715500 215.126724,99.715500 218.025803,99.715500 
	C216.670303,88.726814 215.289505,78.063263 214.063202,67.381973 
	C213.386795,61.490440 211.615326,60.251480 205.489243,61.699100 
	C206.338242,69.284180 207.185074,76.850029 208.087799,85.324379 
M78.171227,90.682922 
	C78.171227,93.621338 78.171227,96.559761 78.171227,99.681625 
	C80.924500,99.681625 83.623528,99.681625 86.230064,99.681625 
	C88.306862,91.103081 82.845657,79.752991 96.045197,76.236488 
	C96.045197,74.586571 96.045197,72.999252 96.045197,70.231659 
	C92.661743,72.504814 90.025368,74.276047 87.439209,76.013542 
	C85.962799,72.185684 85.673500,72.092255 79.050209,73.468376 
	C78.766899,78.892967 78.483582,84.317551 78.171227,90.682922 
M145.859436,91.463539 
	C146.574814,91.519646 147.290176,91.575752 148.005554,91.631851 
	C148.005554,89.445160 148.005554,87.258476 148.005554,84.293045 
	C142.290390,86.483040 137.631058,88.268456 132.678848,90.166107 
	C134.948227,93.999290 137.538620,94.688034 140.887466,93.056526 
	C142.314926,92.361092 143.775528,91.733658 145.859436,91.463539 
z"/>
<path fill="#9D844D" opacity="1.000000" stroke="none" 
	d="
M50.879776,140.206482 
	C55.422153,139.044250 59.677242,137.461578 63.981506,137.314102 
	C75.094131,136.933334 86.228470,137.186569 98.974953,137.186569 
	C89.771805,145.638107 83.906334,154.792496 81.452972,166.897964 
	C72.067741,166.440109 62.833706,165.989609 53.187283,165.813416 
	C52.774895,166.087692 52.837055,166.028671 53.175068,165.787613 
	C53.389786,165.316238 53.266495,165.085907 52.989075,164.571152 
	C51.407482,162.858704 49.980015,161.430664 48.552551,160.002609 
	C47.241486,159.776016 45.930420,159.549423 44.228912,158.710175 
	C40.586655,154.091812 42.082775,150.106781 43.890656,146.123123 
	C46.132069,144.228699 48.373482,142.334274 50.879776,140.206482 
z"/>
<path fill="#F1D5D0" opacity="1.000000" stroke="none" 
	d="
M43.527496,146.116821 
	C42.082775,150.106781 40.586655,154.091812 43.901821,158.458466 
	C38.598305,156.441681 38.245144,150.837219 43.527496,146.116821 
z"/>
<path fill="#DBCAB7" opacity="1.000000" stroke="none" 
	d="
M48.549652,160.323288 
	C49.980015,161.430664 51.407482,162.858704 52.751045,164.673401 
	C52.447437,165.319839 52.227726,165.579605 52.008018,165.839371 
	C50.854267,164.107574 49.700512,162.375763 48.549652,160.323288 
z"/>
<path fill="#F8F0EF" opacity="1.000000" stroke="none" 
	d="
M52.206532,166.015137 
	C52.227726,165.579605 52.447437,165.319839 52.905174,164.957825 
	C53.266495,165.085907 53.389786,165.316238 53.215576,165.801605 
	C52.747059,166.101425 52.576054,166.146164 52.206532,166.015137 
z"/>
<path fill="#CE1B15" opacity="1.000000" stroke="none" 
	d="
M205.107605,81.990997 
	C206.111832,87.338913 206.788986,92.675072 207.466125,98.011223 
	C206.904007,98.086494 206.341888,98.161758 205.779770,98.237022 
	C205.197418,93.103912 204.615082,87.970810 204.079453,82.400742 
	C204.344284,81.968925 204.562424,81.974083 205.107605,81.990997 
z"/>
<path fill="#DB0208" opacity="1.000000" stroke="none" 
	d="
M195.644928,168.943665 
	C197.209457,168.294022 199.028671,168.138977 199.535599,167.242188 
	C202.924484,161.246826 208.751236,162.532669 213.974640,162.167862 
	C217.247681,161.939301 220.549652,162.125320 224.236816,162.125320 
	C214.356384,221.939377 180.636078,264.670868 130.345306,295.993286 
	C130.002472,272.609467 130.001923,249.335190 130.003235,225.601471 
	C157.128296,224.299698 179.213364,203.691574 179.159088,173.179642 
	C184.472534,171.834427 189.882538,170.464783 195.644928,168.943665 
z"/>
<path fill="#9E844E" opacity="1.000000" stroke="none" 
	d="
M158.510590,138.941101 
	C165.780441,145.465515 171.416824,152.751999 174.437744,162.248489 
	C177.880905,177.022446 176.327515,190.667587 167.484848,202.969360 
	C155.514389,219.622482 133.869705,226.476440 114.696121,219.778305 
	C95.322090,213.010101 82.654457,194.510452 83.607498,173.966782 
	C84.450790,155.788727 93.116760,142.172714 109.290390,134.133636 
	C126.274651,125.691643 142.796997,127.821709 158.510590,138.941101 
M136.391052,187.662262 
	C135.947342,188.146164 135.503616,188.630066 134.991074,189.027496 
	C134.991074,189.027496 135.082397,189.089600 134.260864,188.768982 
	C133.738785,197.073807 133.216690,205.378632 132.698410,213.623077 
	C142.634369,214.600220 155.849274,207.265366 160.315613,198.671280 
	C159.172958,198.409821 158.136795,198.172714 156.741760,197.362717 
	C153.447571,195.064774 150.153397,192.766846 146.626938,189.757690 
	C145.942581,189.557617 145.258224,189.357544 144.179001,189.345306 
	C143.859650,189.418457 143.595398,189.328964 143.219925,188.285141 
	C139.636383,184.636261 139.636383,184.636261 136.994293,188.007385 
	C136.994293,188.007385 137.064026,188.091141 136.391052,187.662262 
M142.782242,163.987778 
	C143.521255,163.434967 144.260254,162.882172 145.708496,162.121399 
	C149.887054,159.459183 154.065613,156.796967 158.932907,153.908371 
	C159.135635,152.856232 159.892502,151.348053 159.458115,150.820267 
	C152.770859,142.695160 144.179123,138.134842 133.183533,137.042343 
	C133.183533,145.117828 133.066193,152.700470 133.305008,160.271866 
	C133.342545,161.462280 134.994370,162.601761 136.379089,164.154526 
	C138.346756,165.582199 140.341705,167.914886 142.782242,163.987778 
M102.358566,196.132706 
	C102.256905,196.463043 102.155243,196.793381 102.039070,197.043228 
	C102.039070,197.043228 102.119308,197.059067 101.402969,196.921021 
	C100.795418,197.951706 99.407166,199.475983 99.699211,199.937897 
	C103.217545,205.502548 116.870171,215.500381 126.174408,213.442368 
	C126.174408,206.070999 126.311035,198.603745 126.032440,191.152039 
	C125.988831,189.985703 124.057449,188.889954 122.850990,187.110413 
	C122.097061,186.794998 121.343124,186.479584 119.975296,186.219513 
	C118.674408,186.817017 117.373528,187.414536 115.355484,188.076874 
	C111.202240,190.693298 107.048988,193.309708 102.358566,196.132706 
M110.193611,168.654099 
	C111.762253,170.126709 114.549561,171.539261 114.625763,173.085419 
	C114.753242,175.672241 113.150116,178.344360 111.889641,182.143143 
	C113.854866,180.077377 116.188103,178.724152 116.634720,176.907196 
	C117.373207,173.902832 117.972252,170.264145 113.708160,168.592712 
	C112.539223,168.134537 111.632957,167.006241 109.920769,166.122284 
	C109.427330,166.418213 108.933891,166.714127 108.440453,167.010056 
	C108.923302,167.338791 109.406151,167.667526 110.193611,168.654099 
M96.786308,188.506592 
	C96.612129,188.274612 96.387779,188.111710 95.720337,187.336258 
	C92.780418,177.727585 92.921051,168.482468 98.213219,158.857300 
	C98.119255,158.793625 97.018791,158.047989 95.683006,157.142914 
	C89.893311,169.009781 89.323540,180.365433 94.883850,192.521576 
	C96.493515,191.338516 97.631393,190.502213 99.241684,189.318695 
	C97.937164,189.065002 97.459641,188.972137 96.786308,188.506592 
M118.525780,163.450790 
	C122.093765,165.348312 125.975670,164.310196 126.074951,161.136368 
	C126.322159,153.233566 126.156326,145.317856 126.156326,137.412781 
	C116.578323,137.523911 106.062271,143.172775 100.205742,151.219208 
	C101.127960,151.826431 102.040329,152.427155 103.362541,153.562881 
	C108.250465,156.692902 113.138390,159.822922 118.525780,163.450790 
M159.049927,188.934525 
	C159.049927,188.934525 159.064301,188.969727 159.225632,189.671082 
	C160.919296,190.650085 162.612961,191.629074 164.295700,192.601746 
	C170.218475,183.036774 170.254532,169.016464 164.370621,158.823608 
	C162.225937,160.174500 160.080780,161.525665 157.361298,163.250458 
	C153.411179,165.924957 149.461075,168.599472 144.891159,171.577560 
	C141.525116,173.685425 142.195572,177.439957 143.909225,179.062195 
	C146.967972,181.957794 151.171188,183.644455 155.490692,185.983078 
	C155.989639,186.313705 156.488571,186.644348 157.077194,187.621140 
	C157.725357,188.050613 158.373505,188.480072 159.049927,188.934525 
M133.341263,169.823227 
	C129.940582,168.060654 126.454094,168.392471 124.622543,171.590088 
	C123.455490,173.627579 123.306198,177.072128 124.198402,179.280701 
	C125.709610,183.021591 130.670563,183.695557 133.908005,181.298096 
	C137.641418,178.533310 137.673080,174.673950 133.341263,169.823227 
M106.275459,182.865936 
	C104.886703,183.849411 103.497940,184.832886 102.109184,185.816360 
	C102.379433,186.233505 102.649689,186.650650 102.919937,187.067795 
	C105.313057,185.644852 107.706184,184.221909 110.099312,182.798965 
	C109.923477,182.361191 109.747650,181.923416 109.571823,181.485641 
	C108.670143,181.823822 107.768471,182.162003 106.275459,182.865936 
M106.386223,165.469238 
	C106.119362,165.181503 105.852501,164.893768 105.585632,164.606033 
	C105.483589,164.708832 105.284317,164.891281 105.293724,164.902771 
	C105.531464,165.192932 105.791115,165.465149 106.386223,165.469238 
M101.474800,161.368851 
	C101.529037,161.158447 101.583267,160.948029 101.637505,160.737625 
	C101.504265,160.872894 101.371017,161.008163 101.474800,161.368851 
M99.587479,187.517517 
	C99.587479,187.517517 99.476990,187.583572 99.587479,187.517517 
z"/>
<path fill="#FBFBF9" opacity="1.000000" stroke="none" 
	d="
M42.794891,92.776215 
	C46.300549,82.566208 49.676094,72.719757 53.415043,61.813271 
	C52.548653,62.422764 52.786594,62.130192 53.071915,62.072685 
	C64.880432,59.692650 64.886963,59.693905 67.532814,71.097282 
	C69.736397,80.594513 71.923729,90.095520 74.170662,99.821716 
	C70.849525,99.821716 67.728020,99.821716 64.065506,99.821716 
	C63.927799,94.010582 61.778961,91.250397 54.942123,91.509850 
	C48.472530,91.755371 49.315102,96.237076 47.608772,99.794678 
	C45.282555,99.794678 42.856297,99.794678 39.939014,99.794678 
	C40.931271,97.372101 41.798027,95.255928 42.794891,92.776215 
M58.600071,72.514091 
	C58.150654,72.298882 57.701237,72.083672 57.251812,71.868469 
	C55.548996,76.731735 53.846184,81.594994 51.943214,87.029900 
	C55.552177,86.819626 58.248070,86.662544 61.413319,86.478127 
	C60.459007,81.612373 59.637325,77.422874 58.600071,72.514091 
z"/>
<path fill="#FBFAF8" opacity="1.000000" stroke="none" 
	d="
M149.369049,72.130234 
	C152.809982,70.835045 156.265930,69.813759 157.659592,74.530113 
	C159.955978,73.539062 162.108582,72.204361 164.442673,71.684479 
	C169.841354,70.482002 173.709152,73.335320 174.147964,78.806305 
	C174.692780,85.598961 174.940186,92.415466 175.338303,99.624908 
	C172.555801,99.624908 170.014359,99.624908 166.570053,99.624908 
	C166.570053,93.666542 166.698242,87.726341 166.510956,81.796104 
	C166.428802,79.195213 166.242859,75.925156 162.434555,76.167702 
	C158.875900,76.394348 157.963440,79.143738 158.108307,82.297600 
	C158.367538,87.941711 158.659607,93.584312 158.957489,99.623840 
	C156.165939,99.623840 153.442749,99.623840 149.336472,99.623840 
	C149.336472,90.694008 149.336472,81.618698 149.369049,72.130234 
z"/>
<path fill="#FAF9F7" opacity="1.000000" stroke="none" 
	d="
M143.920410,93.796799 
	C147.550232,95.684303 145.103287,96.952400 143.548401,97.903648 
	C138.280624,101.126335 132.782471,101.084900 127.403526,98.231812 
	C121.657715,95.184128 120.014366,89.804329 120.386223,83.851494 
	C120.950920,74.811546 127.587456,68.878090 135.909103,70.174767 
	C138.610794,70.595741 141.674652,72.250198 143.458542,74.306953 
	C148.003601,79.547234 146.916992,82.633385 140.453888,84.988777 
	C137.041931,86.232231 133.636459,87.493523 130.261215,88.734566 
	C132.283112,96.104080 136.144455,97.519272 143.920410,93.796799 
M128.855042,80.603180 
	C128.967850,81.991295 129.080643,83.379410 129.225433,85.161064 
	C131.571121,84.279282 133.822281,84.024155 135.133896,82.779182 
	C136.537781,81.446625 137.773636,79.155273 137.706985,77.332710 
	C137.663254,76.136589 135.227753,74.137985 133.778915,74.059563 
	C130.242447,73.868149 129.300003,76.775467 128.855042,80.603180 
z"/>
<path fill="#FAF9F6" opacity="1.000000" stroke="none" 
	d="
M190.419128,72.346664 
	C199.391586,74.159676 201.375885,76.436852 202.156891,84.917763 
	C202.597153,89.698402 203.305328,94.454361 204.031464,100.346474 
	C201.284744,99.796288 198.788940,99.217087 196.263519,98.832047 
	C195.337677,98.690887 194.342575,99.017761 193.377609,99.117134 
	C190.336823,99.430252 187.047424,100.579079 184.332443,99.779907 
	C182.151352,99.137886 179.398132,96.256638 179.192078,94.145195 
	C178.933640,91.497314 180.258362,87.676514 182.266556,86.062393 
	C185.347824,83.585800 189.594788,82.559486 193.485291,80.857216 
	C192.800095,75.413589 189.706696,74.483032 180.683289,77.788345 
	C180.449936,76.368736 180.230240,75.032188 179.888672,72.954254 
	C183.522812,72.710663 186.765076,72.493340 190.419128,72.346664 
M194.153885,85.610977 
	C191.675720,86.685188 188.848221,87.348862 186.880600,89.023094 
	C186.018539,89.756607 186.209457,93.259872 187.187912,94.233597 
	C188.391418,95.431274 191.019714,95.851738 192.828140,95.514374 
	C193.749771,95.342438 194.551895,92.832253 194.810623,91.279449 
	C195.072189,89.709747 194.595612,88.017059 194.153885,85.610977 
z"/>
<path fill="#FAF9F7" opacity="1.000000" stroke="none" 
	d="
M105.963547,96.097092 
	C107.693962,95.049767 109.931923,94.124969 110.067848,92.955788 
	C110.213509,91.702858 108.637276,89.878235 107.353493,88.914711 
	C105.246208,87.333115 102.657715,86.407112 100.471771,84.912643 
	C96.824791,82.419319 96.280243,78.484497 98.852196,74.931290 
	C101.636024,71.085373 110.051819,68.725166 114.280090,70.897972 
	C115.280899,71.412262 115.656708,73.142807 116.701729,74.987793 
	C113.280647,74.719673 110.965782,74.164764 108.791351,74.505646 
	C107.452263,74.715553 105.894913,76.087967 105.298073,77.347221 
	C105.020157,77.933594 106.575951,79.828857 107.681107,80.536285 
	C109.762733,81.868774 112.249306,82.566582 114.338280,83.890083 
	C120.111183,87.547585 120.031448,95.185951 113.782913,97.845398 
	C110.012215,99.450249 105.453781,99.572014 101.235947,99.651550 
	C97.291229,99.725929 95.551926,97.435791 97.075188,93.537140 
	C99.925049,94.403442 102.735435,95.257751 105.963547,96.097092 
z"/>
<path fill="#FBFBF9" opacity="1.000000" stroke="none" 
	d="
M208.059860,84.870132 
	C207.185074,76.850029 206.338242,69.284180 205.489243,61.699100 
	C211.615326,60.251480 213.386795,61.490440 214.063202,67.381973 
	C215.289505,78.063263 216.670303,88.726814 218.025803,99.715500 
	C215.126724,99.715500 212.404602,99.715500 209.516296,99.715500 
	C209.029449,94.810852 208.558624,90.067619 208.059860,84.870132 
z"/>
<path fill="#FAF9F6" opacity="1.000000" stroke="none" 
	d="
M78.185745,90.212532 
	C78.483582,84.317551 78.766899,78.892967 79.050568,73.468399 
	C85.673500,72.092255 85.962799,72.185684 87.439209,76.013542 
	C90.025368,74.276047 92.661743,72.504814 96.045197,70.231659 
	C96.045197,72.999252 96.045197,74.586571 96.045197,76.236488 
	C82.845657,79.752991 88.306862,91.103081 86.230064,99.681625 
	C83.623528,99.681625 80.924500,99.681625 78.171227,99.681625 
	C78.171227,96.559761 78.171227,93.621338 78.185745,90.212532 
z"/>
<path fill="#D7070B" opacity="1.000000" stroke="none" 
	d="
M145.540253,91.269424 
	C143.775528,91.733658 142.314926,92.361092 140.887466,93.056526 
	C137.538620,94.688034 134.948227,93.999290 132.678848,90.166107 
	C137.631058,88.268456 142.290390,86.483040 148.005554,84.293045 
	C148.005554,87.258476 148.005554,89.445160 148.005554,91.631851 
	C147.290176,91.575752 146.574814,91.519646 145.540253,91.269424 
z"/>
<path fill="#EF0A10" opacity="1.000000" stroke="none" 
	d="
M116.072647,188.012054 
	C117.373528,187.414536 118.674408,186.817017 120.427628,186.441177 
	C121.271530,187.074020 121.663101,187.485199 122.103432,188.284027 
	C123.037804,189.704788 124.649940,190.710632 124.689888,191.775452 
	C124.929939,198.174774 124.809052,204.587631 124.809052,211.427185 
	C117.182419,210.776154 111.214561,207.853302 106.178307,203.129959 
	C104.448738,201.507843 103.451248,199.105148 102.119308,197.059067 
	C102.119308,197.059067 102.039070,197.043228 102.320183,197.384857 
	C103.062302,197.462036 103.523315,197.197586 104.320641,196.865234 
	C108.462181,193.868896 112.267418,190.940475 116.072647,188.012054 
z"/>
<path fill="#DB060C" opacity="1.000000" stroke="none" 
	d="
M143.386276,189.076843 
	C143.595398,189.328964 143.859650,189.418457 144.592529,189.512604 
	C145.623779,189.942902 146.241486,190.205902 146.859207,190.468903 
	C150.153397,192.766846 153.447571,195.064774 156.852539,198.007492 
	C152.013901,206.780975 144.302994,210.042160 135.082397,211.503082 
	C135.082397,203.673004 135.082397,196.381302 135.082397,189.089600 
	C135.082397,189.089600 134.991074,189.027496 135.334595,189.298904 
	C136.140091,189.077255 136.602066,188.584198 137.064026,188.091141 
	C137.064026,188.091141 136.994293,188.007385 137.347290,188.206238 
	C139.595612,188.629013 141.490952,188.852936 143.386276,189.076843 
z"/>
<path fill="#F6EBE7" opacity="1.000000" stroke="none" 
	d="
M157.935638,162.876846 
	C160.080780,161.525665 162.225937,160.174500 164.370621,158.823608 
	C170.254532,169.016464 170.218475,183.036774 164.295700,192.601746 
	C162.612961,191.629074 160.919296,190.650085 159.563232,189.322754 
	C161.747208,188.930038 163.905304,189.788513 164.321640,186.654831 
	C164.788727,183.139420 165.627319,179.673386 166.432236,175.526566 
	C159.077911,176.424011 152.762558,177.194672 146.199997,177.995499 
	C149.361069,180.845840 152.128479,183.341217 154.895874,185.836594 
	C151.171188,183.644455 146.967972,181.957794 143.909225,179.062195 
	C142.195572,177.439957 141.525116,173.685425 145.381393,171.697449 
	C146.014206,171.979050 146.156799,172.140732 146.059387,172.592896 
	C144.510284,174.703400 144.397369,176.191895 147.200760,175.866653 
	C153.373215,175.150574 159.519119,174.205643 166.275314,173.271194 
	C165.281509,169.239273 164.433197,165.797546 163.476486,161.916122 
	C161.648682,162.794098 160.364761,163.410828 158.832916,163.898926 
	C158.368546,163.472473 158.152084,163.174667 157.935638,162.876846 
z"/>
<path fill="#DC0A10" opacity="1.000000" stroke="none" 
	d="
M155.193283,185.909836 
	C152.128479,183.341217 149.361069,180.845840 146.199997,177.995499 
	C152.762558,177.194672 159.077911,176.424011 166.432236,175.526566 
	C165.627319,179.673386 164.788727,183.139420 164.321640,186.654831 
	C163.905304,189.788513 161.747208,188.930038 159.482574,188.972076 
	C159.064301,188.969727 159.049927,188.934525 158.931198,188.643158 
	C158.204147,187.892868 157.595825,187.433929 156.987503,186.974991 
	C156.488571,186.644348 155.989639,186.313705 155.193283,185.909836 
z"/>
<path fill="#F6F3EE" opacity="1.000000" stroke="none" 
	d="
M135.899780,163.764801 
	C134.994370,162.601761 133.342545,161.462280 133.305008,160.271866 
	C133.066193,152.700470 133.183533,145.117828 133.183533,137.042343 
	C144.179123,138.134842 152.770859,142.695160 159.458115,150.820267 
	C159.892502,151.348053 159.135635,152.856232 158.142700,153.936432 
	C157.055466,153.907745 156.758438,153.850983 156.647202,153.475067 
	C154.510712,147.014923 143.299805,140.455536 134.566101,140.570541 
	C135.042023,147.743423 135.516541,154.895050 135.969391,162.476288 
	C135.931747,163.192169 135.915756,163.478485 135.899780,163.764801 
z"/>
<path fill="#F7ECE9" opacity="1.000000" stroke="none" 
	d="
M134.671631,188.929291 
	C135.082397,196.381302 135.082397,203.673004 135.082397,211.503082 
	C144.302994,210.042160 152.013901,206.780975 157.031982,198.293945 
	C158.136795,198.172714 159.172958,198.409821 160.315613,198.671280 
	C155.849274,207.265366 142.634369,214.600220 132.698410,213.623077 
	C133.216690,205.378632 133.738785,197.073807 134.671631,188.929291 
z"/>
<path fill="#F6F3EF" opacity="1.000000" stroke="none" 
	d="
M102.952698,153.027863 
	C102.040329,152.427155 101.127960,151.826431 100.205742,151.219208 
	C106.062271,143.172775 116.578323,137.523911 126.156326,137.412781 
	C126.156326,145.317856 126.322159,153.233566 126.074951,161.136368 
	C125.975670,164.310196 122.093765,165.348312 118.398880,162.974060 
	C118.559052,162.311829 118.846123,162.126343 119.462524,162.053680 
	C121.418098,161.423996 124.404762,160.762787 124.454781,159.926071 
	C124.844971,153.397873 124.670609,146.835953 124.670609,139.326996 
	C120.186028,140.987839 116.324066,141.768845 113.219490,143.741699 
	C109.785446,145.923920 107.044716,149.197144 103.889191,152.222855 
	C103.501793,152.642929 103.227249,152.835403 102.952698,153.027863 
z"/>
<path fill="#F3F0E9" opacity="1.000000" stroke="none" 
	d="
M96.982124,188.879272 
	C97.459641,188.972137 97.937164,189.065002 99.241684,189.318695 
	C97.631393,190.502213 96.493515,191.338516 94.883850,192.521576 
	C89.323540,180.365433 89.893311,169.009781 95.683006,157.142914 
	C97.018791,158.047989 98.119255,158.793625 98.213219,158.857300 
	C92.921051,168.482468 92.780418,177.727585 95.934616,187.933258 
	C96.426636,188.646576 96.704384,188.762924 96.982124,188.879272 
z"/>
<path fill="#FAF1F0" opacity="1.000000" stroke="none" 
	d="
M101.761139,196.990051 
	C103.451248,199.105148 104.448738,201.507843 106.178307,203.129959 
	C111.214561,207.853302 117.182419,210.776154 124.809052,211.427185 
	C124.809052,204.587631 124.929939,198.174774 124.689888,191.775452 
	C124.649940,190.710632 123.037804,189.704788 122.341431,188.265625 
	C122.530685,187.859573 122.998978,187.761566 122.998978,187.761566 
	C124.057449,188.889954 125.988831,189.985703 126.032440,191.152039 
	C126.311035,198.603745 126.174408,206.070999 126.174408,213.442368 
	C116.870171,215.500381 103.217545,205.502548 99.699211,199.937897 
	C99.407166,199.475983 100.795418,197.951706 101.761139,196.990051 
z"/>
<path fill="#F0EBE3" opacity="1.000000" stroke="none" 
	d="
M133.669952,170.038361 
	C137.673080,174.673950 137.641418,178.533310 133.908005,181.298096 
	C130.670563,183.695557 125.709610,183.021591 124.198402,179.280701 
	C123.306198,177.072128 123.455490,173.627579 124.622543,171.590088 
	C126.454094,168.392471 129.940582,168.060654 133.669952,170.038361 
M134.653625,174.782227 
	C132.629120,173.560410 130.695724,171.725616 128.537277,171.404785 
	C127.615135,171.267685 125.268959,174.315323 125.313110,175.866196 
	C125.357513,177.425690 127.313461,179.820221 128.881744,180.266129 
	C132.409607,181.269180 134.270798,178.948700 134.653625,174.782227 
z"/>
<path fill="#EDE8DE" opacity="1.000000" stroke="none" 
	d="
M110.606163,166.185455 
	C111.632957,167.006241 112.539223,168.134537 113.708160,168.592712 
	C117.972252,170.264145 117.373207,173.902832 116.634720,176.907196 
	C116.188103,178.724152 113.854866,180.077377 111.889641,182.143143 
	C113.150116,178.344360 114.753242,175.672241 114.625763,173.085419 
	C114.549561,171.539261 111.762253,170.126709 110.236786,168.058624 
	C110.388687,167.037247 110.497429,166.611343 110.606163,166.185455 
z"/>
<path fill="#EDE8DE" opacity="1.000000" stroke="none" 
	d="
M119.133202,161.940857 
	C118.846123,162.126343 118.559052,162.311829 118.149155,162.725128 
	C113.138390,159.822922 108.250465,156.692902 103.157623,153.295380 
	C103.227249,152.835403 103.501793,152.642929 104.217972,152.321777 
	C109.484123,155.442352 114.308662,158.691605 119.133202,161.940857 
z"/>
<path fill="#ECE6DC" opacity="1.000000" stroke="none" 
	d="
M156.461395,153.794220 
	C156.758438,153.850983 157.055466,153.907745 157.798340,154.049622 
	C154.065613,156.796967 149.887054,159.459183 145.073853,162.168839 
	C144.259308,162.153854 144.079376,162.091446 144.007843,161.695908 
	C148.231277,158.839920 152.346344,156.317078 156.461395,153.794220 
z"/>
<path fill="#F3D8D3" opacity="1.000000" stroke="none" 
	d="
M115.714066,188.044464 
	C112.267418,190.940475 108.462181,193.868896 104.199753,196.640259 
	C103.460281,196.297501 103.178009,196.111816 102.895737,195.926117 
	C107.048988,193.309708 111.202240,190.693298 115.714066,188.044464 
z"/>
<path fill="#EEE9E0" opacity="1.000000" stroke="none" 
	d="
M157.648468,163.063660 
	C158.152084,163.174667 158.368546,163.472473 158.615204,164.158478 
	C154.530060,167.131912 150.414734,169.717178 146.299408,172.302429 
	C146.156799,172.140732 146.014206,171.979050 145.691284,171.545654 
	C149.461075,168.599472 153.411179,165.924957 157.648468,163.063660 
z"/>
<path fill="#9E854F" opacity="1.000000" stroke="none" 
	d="
M106.571121,182.683060 
	C107.768471,182.162003 108.670143,181.823822 109.571823,181.485641 
	C109.747650,181.923416 109.923477,182.361191 110.099312,182.798965 
	C107.706184,184.221909 105.313057,185.644852 102.919937,187.067795 
	C102.649689,186.650650 102.379433,186.233505 102.109184,185.816360 
	C103.497940,184.832886 104.886703,183.849411 106.571121,182.683060 
z"/>
<path fill="#EBE5DA" opacity="1.000000" stroke="none" 
	d="
M136.139435,163.959656 
	C135.915756,163.478485 135.931747,163.192169 136.324402,162.515839 
	C138.489212,162.700378 140.277328,163.274948 142.049255,163.905365 
	C142.033081,163.961197 142.147705,163.980591 142.147705,163.980591 
	C140.341705,167.914886 138.346756,165.582199 136.139435,163.959656 
z"/>
<path fill="#F7ECE9" opacity="1.000000" stroke="none" 
	d="
M143.303101,188.681000 
	C141.490952,188.852936 139.595612,188.629013 137.378326,188.251953 
	C139.636383,184.636261 139.636383,184.636261 143.303101,188.681000 
z"/>
<path fill="#9E854F" opacity="1.000000" stroke="none" 
	d="
M143.899460,162.029037 
	C144.079376,162.091446 144.259308,162.153854 144.719238,162.272827 
	C144.260254,162.882172 143.521255,163.434967 142.464966,163.984192 
	C142.147705,163.980591 142.033081,163.961197 142.071320,163.608719 
	C142.706177,162.847168 143.302826,162.438110 143.899460,162.029037 
z"/>
<path fill="#9E854F" opacity="1.000000" stroke="none" 
	d="
M110.263466,166.153870 
	C110.497429,166.611343 110.388687,167.037247 110.084473,167.729706 
	C109.406151,167.667526 108.923302,167.338791 108.440453,167.010056 
	C108.933891,166.714127 109.427330,166.418213 110.263466,166.153870 
z"/>
<path fill="#9E854F" opacity="1.000000" stroke="none" 
	d="
M122.924988,187.435989 
	C122.998978,187.761566 122.530685,187.859573 122.292679,187.877960 
	C121.663101,187.485199 121.271530,187.074020 120.734573,186.413513 
	C121.343124,186.479584 122.097061,186.794998 122.924988,187.435989 
z"/>
<path fill="#9E854F" opacity="1.000000" stroke="none" 
	d="
M157.032349,187.298065 
	C157.595825,187.433929 158.204147,187.892868 158.917068,188.630676 
	C158.373505,188.480072 157.725357,188.050613 157.032349,187.298065 
z"/>
<path fill="#9E854F" opacity="1.000000" stroke="none" 
	d="
M106.216568,165.604889 
	C105.791115,165.465149 105.531464,165.192932 105.293724,164.902771 
	C105.284317,164.891281 105.483589,164.708832 105.585632,164.606033 
	C105.852501,164.893768 106.119362,165.181503 106.216568,165.604889 
z"/>
<path fill="#9E854F" opacity="1.000000" stroke="none" 
	d="
M101.356285,161.256134 
	C101.371017,161.008163 101.504265,160.872894 101.637497,160.737625 
	C101.583267,160.948029 101.529037,161.158447 101.356285,161.256134 
z"/>
<path fill="#F7ECE9" opacity="1.000000" stroke="none" 
	d="
M136.727539,187.876709 
	C136.602066,188.584198 136.140091,189.077255 135.369003,189.342133 
	C135.503616,188.630066 135.947342,188.146164 136.727539,187.876709 
z"/>
<path fill="#9E854F" opacity="1.000000" stroke="none" 
	d="
M146.743073,190.113297 
	C146.241486,190.205902 145.623779,189.942902 144.789963,189.418686 
	C145.258224,189.357544 145.942581,189.557617 146.743073,190.113297 
z"/>
<path fill="#FAF1F0" opacity="1.000000" stroke="none" 
	d="
M102.627151,196.029419 
	C103.178009,196.111816 103.460281,196.297501 103.863449,196.708160 
	C103.523315,197.197586 103.062302,197.462036 102.327438,197.425110 
	C102.155243,196.793381 102.256905,196.463043 102.627151,196.029419 
z"/>
<path fill="#9E854F" opacity="1.000000" stroke="none" 
	d="
M96.884216,188.692932 
	C96.704384,188.762924 96.426636,188.646576 96.131073,188.274078 
	C96.387779,188.111710 96.612129,188.274612 96.884216,188.692932 
z"/>
<path fill="#9E854F" opacity="1.000000" stroke="none" 
	d="
M99.532234,187.550537 
	C99.476990,187.583572 99.587479,187.517517 99.532234,187.550537 
z"/>
<path fill="#A68756" opacity="1.000000" stroke="none" 
	d="
M58.707855,72.873734 
	C59.637325,77.422874 60.459007,81.612373 61.413319,86.478127 
	C58.248070,86.662544 55.552177,86.819626 51.943214,87.029900 
	C53.846184,81.594994 55.548996,76.731735 57.251816,71.868469 
	C57.701237,72.083672 58.150654,72.298882 58.707855,72.873734 
z"/>
<path fill="#A67748" opacity="1.000000" stroke="none" 
	d="
M128.884506,80.182770 
	C129.300003,76.775467 130.242447,73.868149 133.778915,74.059563 
	C135.227753,74.137985 137.663254,76.136589 137.706985,77.332710 
	C137.773636,79.155273 136.537781,81.446625 135.133896,82.779182 
	C133.822281,84.024155 131.571121,84.279282 129.225433,85.161064 
	C129.080643,83.379410 128.967850,81.991295 128.884506,80.182770 
z"/>
<path fill="#A58957" opacity="1.000000" stroke="none" 
	d="
M194.298126,85.994614 
	C194.595612,88.017059 195.072189,89.709747 194.810623,91.279449 
	C194.551895,92.832253 193.749771,95.342438 192.828140,95.514374 
	C191.019714,95.851738 188.391418,95.431274 187.187912,94.233597 
	C186.209457,93.259872 186.018539,89.756607 186.880600,89.023094 
	C188.848221,87.348862 191.675720,86.685188 194.298126,85.994614 
M188.170074,90.713806 
	C189.245667,91.805016 190.321243,92.896225 191.396820,93.987434 
	C191.958221,92.127525 192.519623,90.267609 193.081009,88.407700 
	C192.558487,88.118614 192.035965,87.829529 191.513428,87.540443 
	C190.497345,88.348503 189.481247,89.156563 188.170074,90.713806 
z"/>
<path fill="#9F8751" opacity="1.000000" stroke="none" 
	d="
M146.059387,172.592896 
	C150.414734,169.717178 154.530060,167.131912 158.863098,164.287109 
	C160.364761,163.410828 161.648682,162.794098 163.476486,161.916122 
	C164.433197,165.797546 165.281509,169.239273 166.275314,173.271194 
	C159.519119,174.205643 153.373215,175.150574 147.200760,175.866653 
	C144.397369,176.191895 144.510284,174.703400 146.059387,172.592896 
z"/>
<path fill="#9D844D" opacity="1.000000" stroke="none" 
	d="
M144.007843,161.695908 
	C143.302826,162.438110 142.706177,162.847168 142.087494,163.552887 
	C140.277328,163.274948 138.489212,162.700378 136.346069,162.086243 
	C135.516541,154.895050 135.042023,147.743423 134.566101,140.570541 
	C143.299805,140.455536 154.510712,147.014923 156.647202,153.475067 
	C152.346344,156.317078 148.231277,158.839920 144.007843,161.695908 
z"/>
<path fill="#A08751" opacity="1.000000" stroke="none" 
	d="
M119.462524,162.053680 
	C114.308662,158.691605 109.484123,155.442352 104.330811,152.094177 
	C107.044716,149.197144 109.785446,145.923920 113.219490,143.741699 
	C116.324066,141.768845 120.186028,140.987839 124.670609,139.326996 
	C124.670609,146.835953 124.844971,153.397873 124.454781,159.926071 
	C124.404762,160.762787 121.418098,161.423996 119.462524,162.053680 
z"/>
<path fill="#A08752" opacity="1.000000" stroke="none" 
	d="
M134.711090,175.151306 
	C134.270798,178.948700 132.409607,181.269180 128.881744,180.266129 
	C127.313461,179.820221 125.357513,177.425690 125.313110,175.866196 
	C125.268959,174.315323 127.615135,171.267685 128.537277,171.404785 
	C130.695724,171.725616 132.629120,173.560410 134.711090,175.151306 
z"/>
<path fill="#D21311" opacity="1.000000" stroke="none" 
	d="
M188.317612,90.339218 
	C189.481247,89.156563 190.497345,88.348503 191.513428,87.540443 
	C192.035965,87.829529 192.558487,88.118614 193.081009,88.407700 
	C192.519623,90.267609 191.958221,92.127525 191.396820,93.987434 
	C190.321243,92.896225 189.245667,91.805016 188.317612,90.339218 
z"/>
</svg>