<svg version="1.1" id="Layer_1" xmlns="http://www.w3.org/2000/svg" xmlns:xlink="http://www.w3.org/1999/xlink" x="0px" y="0px"
	 width="100%" viewBox="0 0 240 313" enable-background="new 0 0 240 313" xml:space="preserve">
<path fill="#2F3260" opacity="1.000000" stroke="none" 
	d="
M95.000000,1.000000 
	C96.714355,1.000000 98.428719,1.000000 100.733444,1.329106 
	C102.882538,1.438808 104.441269,1.219404 106.000000,1.000000 
	C119.354225,1.000000 132.708450,1.000000 146.717102,1.376303 
	C162.517441,3.851007 177.734772,5.542279 192.785843,8.181595 
	C204.044952,10.155957 215.240189,12.855898 226.179977,16.169882 
	C234.220337,18.605551 236.996033,23.730419 236.996170,32.089092 
	C236.997147,88.718094 236.943100,145.347198 237.032547,201.976044 
	C237.057190,217.574661 230.960571,229.987793 218.672195,239.429230 
	C211.808701,244.702606 204.835297,249.832764 197.958466,255.088989 
	C178.930084,269.633118 159.926361,284.209534 140.583405,298.876526 
	C136.066422,302.270966 131.878906,305.562103 127.395325,308.924469 
	C126.031815,309.903107 124.964371,310.810486 123.535110,311.843628 
	C120.889992,314.247803 119.113220,312.816345 117.146683,311.318481 
	C84.949631,286.794830 52.587875,262.484619 20.578430,237.718933 
	C9.625421,229.244568 4.024489,217.462784 4.018687,203.400986 
	C3.995167,146.406708 4.109683,89.412132 3.933015,32.418411 
	C3.908344,24.459272 7.365360,19.488344 14.204254,16.434200 
	C17.378422,15.016669 20.671291,13.602580 24.056870,12.965193 
	C40.720955,9.827922 57.422672,6.884625 74.135590,4.015511 
	C81.058914,2.826980 88.043358,1.994438 95.000000,1.000000 
M39.405579,197.482941 
	C32.978302,202.424911 26.692732,207.568359 20.067066,212.228271 
	C16.475304,214.754379 16.582401,216.972885 18.611629,220.413696 
	C23.769531,229.159576 31.917845,234.505630 40.341240,240.577713 
	C51.146641,248.697647 61.952042,256.817596 73.153107,265.509430 
	C83.420944,273.333344 93.688774,281.157257 104.316864,289.551239 
	C109.737656,293.780396 115.158447,298.009521 120.775352,302.391663 
	C126.373100,297.770721 131.692001,293.379974 137.637085,288.743011 
	C147.852768,280.835968 158.068451,272.928894 168.911026,264.810272 
	C179.603348,256.714264 190.295685,248.618256 201.654388,240.212723 
	C206.698044,236.140137 211.962402,232.308487 216.733536,227.938354 
	C223.862228,221.408783 227.054642,212.994003 227.056259,203.366821 
	C227.064392,155.253784 227.063568,107.140755 227.045258,59.027733 
	C227.044739,57.663483 226.813034,56.299324 226.612244,54.088722 
	C217.463058,61.134693 209.046783,67.616249 200.066772,74.390427 
	C189.386795,82.641426 178.706833,90.892418 167.398453,99.351768 
	C157.175568,107.297363 146.952698,115.242950 136.170319,123.484093 
	C125.435623,131.692886 114.700928,139.901672 103.346268,148.335434 
	C93.149673,156.415176 82.953079,164.494904 72.131874,172.874985 
	C61.421806,180.998077 50.711735,189.121170 39.405579,197.482941 
M86.169022,96.683876 
	C84.272430,97.971596 82.375847,99.259308 81.181068,100.070518 
	C81.402275,102.799919 82.504745,105.640305 81.617073,107.560852 
	C79.366631,112.429832 76.204735,116.875061 73.448486,121.514130 
	C72.518829,123.078835 71.711388,124.716164 70.848099,126.320312 
	C71.273712,126.615311 71.699333,126.910309 72.124954,127.205307 
	C84.344727,117.795006 96.582397,108.407631 108.741386,98.919418 
	C109.498657,98.328476 110.003685,96.948700 110.010269,95.931938 
	C110.094261,82.959457 110.065636,69.986252 110.065636,56.737640 
	C108.743019,57.036644 107.786369,57.216843 106.849548,57.470333 
	C98.177162,59.816967 90.038696,60.156658 83.928070,51.847134 
	C83.457695,51.207489 81.936119,50.974876 80.983269,51.111565 
	C68.958168,52.836594 63.230190,49.831341 57.785561,38.523285 
	C50.945171,39.877277 44.006798,41.250664 37.187153,42.600552 
	C37.187153,79.678261 37.187153,116.205299 37.187153,152.905457 
	C50.647850,145.261505 53.706078,139.485718 50.068272,127.790344 
	C49.337543,125.441109 46.902615,123.663895 45.515835,121.457985 
	C44.881172,120.448433 44.218620,118.416405 44.697239,117.905670 
	C50.314606,111.911545 52.014160,104.151566 54.302086,96.743027 
	C57.430447,86.613060 59.612667,76.393501 53.139641,66.462196 
	C52.599037,65.632774 53.698738,62.548225 54.749149,62.066856 
	C60.178391,59.578815 65.824249,57.555660 71.430344,55.466400 
	C72.982658,54.887894 74.657448,54.638008 76.276039,54.237347 
	C76.625504,56.256462 77.232704,58.276146 77.228294,60.294487 
	C77.225624,61.515976 76.340965,62.768944 75.739525,63.950211 
	C72.266861,70.770851 74.458832,76.636002 81.482651,79.733093 
	C88.117363,75.610527 88.008453,64.700005 98.236427,63.139709 
	C96.666634,69.366882 95.718872,74.795074 93.895088,79.910950 
	C91.910835,85.476967 89.112984,90.752937 86.169022,96.683876 
M126.008545,62.646282 
	C126.008545,70.050713 126.008545,77.455139 126.008545,86.095833 
	C146.862701,70.125397 166.699463,54.934101 187.356979,39.114254 
	C181.377930,38.179550 176.412277,37.403275 170.739227,36.516411 
	C172.047531,42.755859 169.789398,47.054161 164.642075,49.149353 
	C161.541214,50.411537 157.912994,50.328285 154.569748,51.066879 
	C153.014191,51.410534 150.998062,51.850578 150.179413,52.969997 
	C146.686111,57.746761 141.981018,59.177052 136.566925,58.152405 
	C133.063141,57.489292 129.728470,55.932686 126.004112,54.670036 
	C126.004112,57.108715 126.004112,59.406105 126.008545,62.646282 
M27.479956,187.580917 
	C29.266844,185.416473 31.053732,183.252014 32.739704,181.209793 
	C25.254080,179.184128 25.254080,179.184128 22.016037,171.796265 
	C21.002840,178.623322 17.666340,181.796722 10.491023,180.460876 
	C16.765589,183.764648 17.882696,188.183319 14.845078,194.325897 
	C19.782730,189.301468 24.290377,189.706985 29.063334,193.607178 
	C28.631216,191.859833 28.199097,190.112503 27.479956,187.580917 
M148.964996,84.871002 
	C146.355820,85.762993 143.746643,86.654991 140.668137,87.707436 
	C146.759262,89.967155 146.783936,94.482101 143.641205,100.298843 
	C150.983932,96.031212 150.983932,96.031212 157.947342,100.029083 
	C157.292267,97.258644 156.701904,94.761948 156.110168,92.259445 
	C158.125290,90.638794 159.984039,89.143913 161.842789,87.649033 
	C155.161606,88.699104 152.666718,84.871063 151.613632,78.243309 
	C150.447754,81.068840 149.822296,82.584633 148.964996,84.871002 
M93.780983,139.995239 
	C95.289619,137.484619 96.798256,134.973999 98.500252,132.141586 
	C92.369415,133.845032 89.623566,130.309479 88.760696,123.554962 
	C87.338226,126.971687 86.983604,130.065765 85.282616,131.291565 
	C83.508316,132.570206 80.436554,132.048416 76.139740,132.503662 
	C83.342018,135.265732 83.993355,139.569717 80.888618,145.746674 
	C84.348770,143.626984 86.310349,142.425323 88.283066,141.216843 
	C90.403824,142.617279 92.417526,143.947021 95.109428,145.724594 
	C94.601883,143.527023 94.278038,142.124802 93.780983,139.995239 
M115.740166,16.464010 
	C113.096588,17.258066 110.453003,18.052120 107.153519,19.043192 
	C113.158997,21.401367 113.742500,25.806492 110.126289,32.169186 
	C113.784241,29.903294 115.859703,28.617666 117.817284,27.405056 
	C119.987099,28.707888 121.839912,29.820379 123.692726,30.932871 
	C121.128250,25.055405 124.418015,21.797733 128.740189,18.540442 
	C122.140785,19.735592 119.331635,16.649717 117.785454,11.237245 
	C117.182823,12.726472 116.580185,14.215699 115.740166,16.464010 
M11.455886,32.334042 
	C17.392210,34.752476 15.438572,39.346889 14.175358,43.976250 
	C18.371675,40.183388 22.313601,38.887119 27.171108,43.612568 
	C24.592178,37.507744 26.935019,33.962059 32.001316,31.152267 
	C25.423540,32.349831 22.258451,29.573000 21.100433,23.165960 
	C19.964424,29.328266 16.691681,31.624477 11.248579,30.861847 
	C11.188518,30.853434 11.030660,31.543024 11.455886,32.334042 
M215.621719,29.142681 
	C214.968414,27.285652 214.315109,25.428625 213.220306,22.316622 
	C211.925018,28.782562 209.310226,32.661022 201.841385,30.446863 
	C207.697052,36.099079 207.697052,36.099079 206.390991,44.648285 
	C210.857498,39.355217 215.214706,39.618404 220.025848,44.331295 
	C216.341446,38.166958 218.870239,34.367352 224.170822,31.668722 
	C220.865753,30.947294 218.400528,30.409189 215.621719,29.142681 
M14.696255,105.153076 
	C14.364136,107.392075 14.032017,109.631073 13.539520,112.951263 
	C17.855066,108.861313 21.856892,108.651093 26.214432,114.127380 
	C25.314320,110.270287 24.799006,108.062111 24.288944,105.876434 
	C26.084059,104.352669 27.749920,102.938622 29.415783,101.524567 
	C23.611473,102.242523 21.005867,99.252937 19.752783,93.743034 
	C18.943560,99.962097 15.282471,101.476349 9.080908,100.495117 
	C11.596289,102.578957 12.860946,103.626648 14.696255,105.153076 
z"/>
<path fill="#FDFDFE" opacity="1.000000" stroke="none" 
	d="
M94.531342,1.000000 
	C88.043358,1.994438 81.058914,2.826980 74.135590,4.015511 
	C57.422672,6.884625 40.720955,9.827922 24.056870,12.965193 
	C20.671291,13.602580 17.378422,15.016669 14.204254,16.434200 
	C7.365360,19.488344 3.908344,24.459272 3.933015,32.418411 
	C4.109683,89.412132 3.995167,146.406708 4.018687,203.400986 
	C4.024489,217.462784 9.625421,229.244568 20.578430,237.718933 
	C52.587875,262.484619 84.949631,286.794830 117.146683,311.318481 
	C119.113220,312.816345 120.889992,314.247803 123.557854,312.223724 
	C123.961609,312.985352 123.980804,313.492676 124.000000,314.000000 
	C83.033867,314.000000 42.067734,314.000000 1.050799,314.000000 
	C1.050799,209.786728 1.050799,105.573433 1.050799,1.000000 
	C32.019966,1.000000 63.041325,1.000000 94.531342,1.000000 
z"/>
<path fill="#FDFDFE" opacity="1.000000" stroke="none" 
	d="
M140.912903,298.773193 
	C159.926361,284.209534 178.930084,269.633118 197.958466,255.088989 
	C204.835297,249.832764 211.808701,244.702606 218.672195,239.429230 
	C230.960571,229.987793 237.057190,217.574661 237.032547,201.976044 
	C236.943100,145.347198 236.997147,88.718094 236.996170,32.089092 
	C236.996033,23.730419 234.220337,18.605551 226.179977,16.169882 
	C215.240189,12.855898 204.044952,10.155957 192.785843,8.181595 
	C177.734772,5.542279 162.517441,3.851007 147.185760,1.376303 
	C178.298599,1.000000 209.597198,1.000000 241.000000,1.000000 
	C241.000000,101.020874 241.000000,201.041779 240.578568,301.531189 
	C229.782471,301.821136 219.407532,301.656067 209.033234,301.458221 
	C204.087357,301.363892 199.140091,301.036957 194.197906,301.111145 
	C180.040237,301.323700 165.883530,301.915588 151.729462,301.833954 
	C148.118164,301.813141 144.518112,299.846069 140.912903,298.773193 
z"/>
<path fill="#FDFDFE" opacity="1.000000" stroke="none" 
	d="
M140.583405,298.876526 
	C144.518112,299.846069 148.118164,301.813141 151.729462,301.833954 
	C165.883530,301.915588 180.040237,301.323700 194.197906,301.111145 
	C199.140091,301.036957 204.087357,301.363892 209.033234,301.458221 
	C219.407532,301.656067 229.782471,301.821136 240.578568,301.999847 
	C241.000000,304.370575 241.000000,306.741119 240.561859,309.555603 
	C234.847244,309.730621 229.273163,308.281586 224.375900,309.516479 
	C219.221085,310.816345 214.641098,309.843964 209.781372,309.486664 
	C206.166229,309.220825 202.518677,309.207947 198.892471,309.315399 
	C188.201218,309.632263 177.513489,310.067291 166.823837,310.440674 
	C166.505127,310.451782 166.183212,310.235321 165.858093,310.219147 
	C160.096878,309.931885 154.175598,308.699524 148.612946,309.623108 
	C141.429428,310.815826 134.625259,310.082275 127.691399,308.853210 
	C131.878906,305.562103 136.066422,302.270966 140.583405,298.876526 
z"/>
<path fill="#FFFFFF" opacity="1.000000" stroke="none" 
	d="
M127.395325,308.924469 
	C134.625259,310.082275 141.429428,310.815826 148.612946,309.623108 
	C154.175598,308.699524 160.096878,309.931885 165.858093,310.219147 
	C166.183212,310.235321 166.505127,310.451782 166.823837,310.440674 
	C177.513489,310.067291 188.201218,309.632263 198.892471,309.315399 
	C202.518677,309.207947 206.166229,309.220825 209.781372,309.486664 
	C214.641098,309.843964 219.221085,310.816345 224.375900,309.516479 
	C229.273163,308.281586 234.847244,309.730621 240.561859,309.999756 
	C241.000000,311.316895 241.000000,312.633820 241.000000,314.000000 
	C230.645813,314.000000 220.291565,314.000000 209.383087,313.702332 
	C207.885895,313.603119 206.942947,313.801544 206.000000,314.000000 
	C204.933334,314.000000 203.866653,314.000000 202.314423,313.702332 
	C200.885895,313.603149 199.942947,313.801575 199.000000,314.000000 
	C194.310745,314.000000 189.621490,314.000000 184.380539,313.702362 
	C182.885895,313.603149 181.942947,313.801575 181.000000,314.000000 
	C179.933334,314.000000 178.866653,314.000000 177.314423,313.702332 
	C175.885895,313.603149 174.942947,313.801575 174.000000,314.000000 
	C169.310745,314.000000 164.621490,314.000000 159.380539,313.702332 
	C157.885895,313.603149 156.942947,313.801575 156.000000,314.000000 
	C154.933334,314.000000 153.866653,314.000000 152.314423,313.702332 
	C150.885895,313.603119 149.942947,313.801575 149.000000,314.000000 
	C140.979095,314.000000 132.958206,314.000000 124.468651,314.000000 
	C123.980804,313.492676 123.961609,312.985352 123.919678,312.097961 
	C124.964371,310.810486 126.031815,309.903107 127.395325,308.924469 
z"/>
<path fill="#FFFFFF" opacity="1.000000" stroke="none" 
	d="
M206.375000,314.000000 
	C206.942947,313.801544 207.885895,313.603119 208.914429,313.702332 
	C208.250000,314.000000 207.500000,314.000000 206.375000,314.000000 
z"/>
<path fill="#FFFFFF" opacity="1.000000" stroke="none" 
	d="
M199.375000,314.000000 
	C199.942947,313.801575 200.885895,313.603149 201.914429,313.702332 
	C201.250000,314.000000 200.500000,314.000000 199.375000,314.000000 
z"/>
<path fill="#FFFFFF" opacity="1.000000" stroke="none" 
	d="
M181.375000,314.000000 
	C181.942947,313.801575 182.885895,313.603149 183.914429,313.702362 
	C183.250000,314.000000 182.500000,314.000000 181.375000,314.000000 
z"/>
<path fill="#FFFFFF" opacity="1.000000" stroke="none" 
	d="
M174.375000,314.000000 
	C174.942947,313.801575 175.885895,313.603149 176.914429,313.702332 
	C176.250000,314.000000 175.500000,314.000000 174.375000,314.000000 
z"/>
<path fill="#FFFFFF" opacity="1.000000" stroke="none" 
	d="
M156.375000,314.000000 
	C156.942947,313.801575 157.885895,313.603149 158.914429,313.702332 
	C158.250000,314.000000 157.500000,314.000000 156.375000,314.000000 
z"/>
<path fill="#FFFFFF" opacity="1.000000" stroke="none" 
	d="
M149.375000,314.000000 
	C149.942947,313.801575 150.885895,313.603119 151.914429,313.702332 
	C151.250000,314.000000 150.500000,314.000000 149.375000,314.000000 
z"/>
<path fill="#9D9FB4" opacity="1.000000" stroke="none" 
	d="
M105.583336,1.000000 
	C104.441269,1.219404 102.882538,1.438808 101.161903,1.329106 
	C102.388893,1.000000 103.777779,1.000000 105.583336,1.000000 
z"/>
<path fill="#FCFAFA" opacity="1.000000" stroke="none" 
	d="
M200.988007,240.522247 
	C190.295685,248.618256 179.603348,256.714264 168.563934,264.443176 
	C168.212158,223.089813 168.221680,182.103516 168.194916,141.117264 
	C168.185776,127.125946 168.085495,113.134697 168.026855,99.143410 
	C178.706833,90.892418 189.386795,82.641426 200.377396,74.708893 
	C200.696777,128.040039 200.702347,181.052704 200.725830,234.065384 
	C200.726776,236.217697 200.896774,238.369965 200.988007,240.522247 
z"/>
<path fill="#FDFBFB" opacity="1.000000" stroke="none" 
	d="
M137.010925,288.989227 
	C131.692001,293.379974 126.373100,297.770721 120.775352,302.391663 
	C115.158447,298.009521 109.737656,293.780396 104.206604,288.803650 
	C104.104515,274.227234 104.133110,260.398346 104.116745,246.569534 
	C104.077904,213.749832 104.017776,180.930161 103.966232,148.110474 
	C114.700928,139.901672 125.435623,131.692886 136.477386,123.794174 
	C136.801239,165.411713 136.805069,206.719177 136.842102,248.026627 
	C136.854340,261.680847 136.952194,275.335022 137.010925,288.989227 
z"/>
<path fill="#AF372A" opacity="1.000000" stroke="none" 
	d="
M137.324005,288.866119 
	C136.952194,275.335022 136.854340,261.680847 136.842102,248.026627 
	C136.805069,206.719177 136.801239,165.411713 136.757141,123.646393 
	C146.952698,115.242950 157.175568,107.297363 167.712646,99.247589 
	C168.085495,113.134697 168.185776,127.125946 168.194916,141.117264 
	C168.221680,182.103516 168.212158,223.089813 168.250488,264.548950 
	C158.068451,272.928894 147.852768,280.835968 137.324005,288.866119 
z"/>
<path fill="#AF372A" opacity="1.000000" stroke="none" 
	d="
M201.321198,240.367493 
	C200.896774,238.369965 200.726776,236.217697 200.725830,234.065384 
	C200.702347,181.052704 200.696777,128.040039 200.659256,74.562576 
	C209.046783,67.616249 217.463058,61.134693 226.612244,54.088722 
	C226.813034,56.299324 227.044739,57.663483 227.045258,59.027733 
	C227.063568,107.140755 227.064392,155.253784 227.056259,203.366821 
	C227.054642,212.994003 223.862228,221.408783 216.733536,227.938354 
	C211.962402,232.308487 206.698044,236.140137 201.321198,240.367493 
z"/>
<path fill="#AF372A" opacity="1.000000" stroke="none" 
	d="
M103.656250,148.222961 
	C104.017776,180.930161 104.077904,213.749832 104.116745,246.569534 
	C104.133110,260.398346 104.104515,274.227234 104.026474,288.518616 
	C93.688774,281.157257 83.420944,273.333344 72.990311,264.756714 
	C72.803841,233.527527 72.780159,203.051071 72.756485,172.574631 
	C82.953079,164.494904 93.149673,156.415176 103.656250,148.222961 
z"/>
<path fill="#FCFCFC" opacity="1.000000" stroke="none" 
	d="
M86.419434,96.419617 
	C89.112984,90.752937 91.910835,85.476967 93.895088,79.910950 
	C95.718872,74.795074 96.666634,69.366882 98.236427,63.139709 
	C88.008453,64.700005 88.117363,75.610527 81.482651,79.733093 
	C74.458832,76.636002 72.266861,70.770851 75.739525,63.950211 
	C76.340965,62.768944 77.225624,61.515976 77.228294,60.294487 
	C77.232704,58.276146 76.625504,56.256462 76.276039,54.237350 
	C74.657448,54.638008 72.982658,54.887894 71.430344,55.466400 
	C65.824249,57.555660 60.178391,59.578815 54.749149,62.066856 
	C53.698738,62.548225 52.599037,65.632774 53.139641,66.462196 
	C59.612667,76.393501 57.430447,86.613060 54.302086,96.743027 
	C52.014160,104.151566 50.314606,111.911545 44.697239,117.905670 
	C44.218620,118.416405 44.881172,120.448433 45.515835,121.457985 
	C46.902615,123.663895 49.337543,125.441109 50.068272,127.790344 
	C53.706078,139.485718 50.647850,145.261505 37.187153,152.905457 
	C37.187153,116.205299 37.187153,79.678261 37.187153,42.600552 
	C44.006798,41.250664 50.945171,39.877277 57.785561,38.523285 
	C63.230190,49.831341 68.958168,52.836594 80.983269,51.111565 
	C81.936119,50.974876 83.457695,51.207489 83.928070,51.847134 
	C90.038696,60.156658 98.177162,59.816967 106.849548,57.470333 
	C107.786369,57.216843 108.743019,57.036644 110.065636,56.737640 
	C110.065636,69.986252 110.094261,82.959457 110.010269,95.931938 
	C110.003685,96.948700 109.498657,98.328476 108.741386,98.919418 
	C96.582397,108.407631 84.344727,117.795006 72.124954,127.205307 
	C71.699333,126.910309 71.273712,126.615311 70.848099,126.320312 
	C71.711388,124.716164 72.518829,123.078835 73.448486,121.514130 
	C76.204735,116.875061 79.366631,112.429832 81.617073,107.560852 
	C82.504745,105.640305 81.402275,102.799919 81.181068,100.070518 
	C82.375847,99.259308 84.272430,97.971596 86.419434,96.419617 
z"/>
<path fill="#FCFBFB" opacity="1.000000" stroke="none" 
	d="
M72.444176,172.724808 
	C72.780159,203.051071 72.803841,233.527527 72.792480,264.470764 
	C61.952042,256.817596 51.146641,248.697647 40.227978,239.834229 
	C40.077030,225.141922 40.039349,211.193100 40.001667,197.244263 
	C50.711735,189.121170 61.421806,180.998077 72.444176,172.724808 
z"/>
<path fill="#F9F9FA" opacity="1.000000" stroke="none" 
	d="
M126.006332,62.174889 
	C126.004112,59.406105 126.004112,57.108715 126.004112,54.670036 
	C129.728470,55.932686 133.063141,57.489292 136.566925,58.152405 
	C141.981018,59.177052 146.686111,57.746761 150.179413,52.969997 
	C150.998062,51.850578 153.014191,51.410534 154.569748,51.066879 
	C157.912994,50.328285 161.541214,50.411537 164.642075,49.149353 
	C169.789398,47.054161 172.047531,42.755859 170.739227,36.516411 
	C176.412277,37.403275 181.377930,38.179550 187.356979,39.114254 
	C166.699463,54.934101 146.862701,70.125397 126.008545,86.095833 
	C126.008545,77.455139 126.008545,70.050713 126.006332,62.174889 
z"/>
<path fill="#AE372A" opacity="1.000000" stroke="none" 
	d="
M39.703621,197.363602 
	C40.039349,211.193100 40.077030,225.141922 40.041321,239.556244 
	C31.917845,234.505630 23.769531,229.159576 18.611629,220.413696 
	C16.582401,216.972885 16.475304,214.754379 20.067066,212.228271 
	C26.692732,207.568359 32.978302,202.424911 39.703621,197.363602 
z"/>
<path fill="#F2F2F5" opacity="1.000000" stroke="none" 
	d="
M27.623466,187.973053 
	C28.199097,190.112503 28.631216,191.859833 29.063334,193.607178 
	C24.290377,189.706985 19.782730,189.301468 14.845078,194.325897 
	C17.882696,188.183319 16.765589,183.764648 10.491023,180.460876 
	C17.666340,181.796722 21.002840,178.623322 22.016037,171.796265 
	C25.254080,179.184128 25.254080,179.184128 32.739704,181.209793 
	C31.053732,183.252014 29.266844,185.416473 27.623466,187.973053 
z"/>
<path fill="#F5F4F6" opacity="1.000000" stroke="none" 
	d="
M149.080933,84.485710 
	C149.822296,82.584633 150.447754,81.068840 151.613632,78.243309 
	C152.666718,84.871063 155.161606,88.699104 161.842789,87.649033 
	C159.984039,89.143913 158.125290,90.638794 156.110168,92.259445 
	C156.701904,94.761948 157.292267,97.258644 157.947342,100.029083 
	C150.983932,96.031212 150.983932,96.031212 143.641205,100.298843 
	C146.783936,94.482101 146.759262,89.967155 140.668137,87.707436 
	C143.746643,86.654991 146.355820,85.762993 149.080933,84.485710 
z"/>
<path fill="#F2F2F5" opacity="1.000000" stroke="none" 
	d="
M93.867584,140.358917 
	C94.278038,142.124802 94.601883,143.527023 95.109428,145.724594 
	C92.417526,143.947021 90.403824,142.617279 88.283066,141.216843 
	C86.310349,142.425323 84.348770,143.626984 80.888618,145.746674 
	C83.993355,139.569717 83.342018,135.265732 76.139740,132.503662 
	C80.436554,132.048416 83.508316,132.570206 85.282616,131.291565 
	C86.983604,130.065765 87.338226,126.971687 88.760696,123.554962 
	C89.623566,130.309479 92.369415,133.845032 98.500252,132.141586 
	C96.798256,134.973999 95.289619,137.484619 93.867584,140.358917 
z"/>
<path fill="#F3F2F5" opacity="1.000000" stroke="none" 
	d="
M115.858856,16.084469 
	C116.580185,14.215699 117.182823,12.726472 117.785454,11.237245 
	C119.331635,16.649717 122.140785,19.735592 128.740189,18.540442 
	C124.418015,21.797733 121.128250,25.055405 123.692726,30.932871 
	C121.839912,29.820379 119.987099,28.707888 117.817284,27.405056 
	C115.859703,28.617666 113.784241,29.903294 110.126289,32.169186 
	C113.742500,25.806492 113.158997,21.401367 107.153519,19.043192 
	C110.453003,18.052120 113.096588,17.258066 115.858856,16.084469 
z"/>
<path fill="#F4F4F6" opacity="1.000000" stroke="none" 
	d="
M11.187170,32.120407 
	C11.030660,31.543024 11.188518,30.853434 11.248579,30.861847 
	C16.691681,31.624477 19.964424,29.328266 21.100433,23.165960 
	C22.258451,29.573000 25.423540,32.349831 32.001316,31.152267 
	C26.935019,33.962059 24.592178,37.507744 27.171108,43.612568 
	C22.313601,38.887119 18.371675,40.183388 14.175358,43.976250 
	C15.438572,39.346889 17.392210,34.752476 11.187170,32.120407 
z"/>
<path fill="#F5F5F7" opacity="1.000000" stroke="none" 
	d="
M215.778519,29.506882 
	C218.400528,30.409189 220.865753,30.947294 224.170822,31.668722 
	C218.870239,34.367352 216.341446,38.166958 220.025848,44.331295 
	C215.214706,39.618404 210.857498,39.355217 206.390991,44.648285 
	C207.697052,36.099079 207.697052,36.099079 201.841385,30.446863 
	C209.310226,32.661022 211.925018,28.782562 213.220306,22.316622 
	C214.315109,25.428625 214.968414,27.285652 215.778519,29.506882 
z"/>
<path fill="#F5F5F7" opacity="1.000000" stroke="none" 
	d="
M14.410929,104.913712 
	C12.860946,103.626648 11.596289,102.578957 9.080908,100.495117 
	C15.282471,101.476349 18.943560,99.962097 19.752783,93.743034 
	C21.005867,99.252937 23.611473,102.242523 29.415783,101.524567 
	C27.749920,102.938622 26.084059,104.352669 24.288944,105.876434 
	C24.799006,108.062111 25.314320,110.270287 26.214432,114.127380 
	C21.856892,108.651093 17.855066,108.861313 13.539520,112.951263 
	C14.032017,109.631073 14.364136,107.392075 14.410929,104.913712 
z"/>
</svg>