<svg version="1.1" id="Layer_1" xmlns="http://www.w3.org/2000/svg" xmlns:xlink="http://www.w3.org/1999/xlink" x="0px" y="0px"
	 width="100%" viewBox="0 0 306 313" enable-background="new 0 0 306 313" xml:space="preserve">
<path fill="#FDFEFE" opacity="1.000000" stroke="none" 
	d="
M1.000000,112.000000 
	C1.000000,74.666687 1.000000,37.833370 1.000000,1.000040 
	C102.999931,1.000026 204.999863,1.000026 306.999817,1.000013 
	C306.999878,105.333221 306.999878,209.666443 306.999939,313.999756 
	C205.000168,313.999817 103.000328,313.999817 1.000247,313.999908 
	C1.000000,246.833328 1.000000,179.666672 1.000000,112.000000 
M301.698578,154.636566 
	C300.829895,146.533661 300.390350,138.357742 299.026245,130.339111 
	C285.155426,48.800472 202.062119,-5.779001 121.451759,13.570657 
	C44.170712,32.121147 -3.875161,105.382347 9.873775,183.706741 
	C23.979179,264.061859 103.794952,318.290802 183.447876,301.637573 
	C253.191193,287.056152 301.513000,227.383331 301.698578,154.636566 
z"/>
<path fill="#086AB4" opacity="1.000000" stroke="none" 
	d="
M301.709412,155.109497 
	C301.513000,227.383331 253.191193,287.056152 183.447876,301.637573 
	C103.794952,318.290802 23.979179,264.061859 9.873775,183.706741 
	C-3.875161,105.382347 44.170712,32.121147 121.451759,13.570657 
	C202.062119,-5.779001 285.155426,48.800472 299.026245,130.339111 
	C300.390350,138.357742 300.829895,146.533661 301.709412,155.109497 
M24.999708,104.570633 
	C14.344072,131.310944 12.181983,158.752151 17.976048,186.918945 
	C33.096748,260.425507 108.138229,309.826294 181.414413,294.445160 
	C259.187439,278.120087 307.035339,205.114044 291.007507,127.228752 
	C276.088898,54.733627 202.537750,5.213599 129.953140,19.398449 
	C80.421875,29.078098 45.664581,57.731567 24.999708,104.570633 
z"/>
<path fill="#F9F6F9" opacity="1.000000" stroke="none" 
	d="
M25.126148,104.207336 
	C45.664581,57.731567 80.421875,29.078098 129.953140,19.398449 
	C202.537750,5.213599 276.088898,54.733627 291.007507,127.228752 
	C307.035339,205.114044 259.187439,278.120087 181.414413,294.445160 
	C108.138229,309.826294 33.096748,260.425507 17.976048,186.918945 
	C12.181983,158.752151 14.344072,131.310944 25.126148,104.207336 
M113.019478,30.422661 
	C50.746895,51.842766 14.093539,111.110168 22.860060,176.207779 
	C32.518387,247.927704 99.765739,298.858643 172.045364,289.195831 
	C251.396332,278.587677 303.469025,200.811737 283.318268,123.504158 
	C264.840424,52.614674 190.321243,6.327559 113.019478,30.422661 
z"/>
<path fill="#DC0931" opacity="1.000000" stroke="none" 
	d="
M113.395630,30.288918 
	C190.321243,6.327559 264.840424,52.614674 283.318268,123.504158 
	C303.469025,200.811737 251.396332,278.587677 172.045364,289.195831 
	C99.765739,298.858643 32.518387,247.927704 22.860060,176.207779 
	C14.093539,111.110168 50.746895,51.842766 113.395630,30.288918 
M94.102997,235.314713 
	C96.062042,233.960007 98.021095,232.605301 100.401764,230.959061 
	C98.385994,229.562195 97.090401,228.664398 95.443253,227.522980 
	C94.497398,230.299164 93.708656,232.614227 92.501030,235.114059 
	C92.831322,235.280182 93.161621,235.446289 94.102997,235.314713 
M254.988373,121.990280 
	C254.988373,121.990280 255.009613,122.008545 254.983368,121.301529 
	C257.610016,117.257309 259.838531,112.869537 262.960022,109.252365 
	C267.248047,104.283440 266.212646,100.055580 262.264771,95.347527 
	C252.612289,99.722961 242.869293,104.139435 232.910049,108.653938 
	C234.275406,111.453499 235.405914,113.771545 236.621155,116.263298 
	C241.906250,113.934357 246.735336,111.806366 251.564438,109.678368 
	C251.819839,110.088104 252.075241,110.497833 252.330627,110.907570 
	C249.835526,114.589600 247.704712,118.599106 244.758972,121.876038 
	C240.461472,126.656670 241.615540,130.945923 244.650589,135.720566 
	C254.698242,131.891968 264.559448,128.134415 274.783783,124.238487 
	C273.662323,121.271690 272.757355,118.877594 271.803528,116.354210 
	C268.669250,117.517593 266.049133,118.572533 263.373566,119.460495 
	C260.597961,120.381660 257.768677,121.141129 254.988373,121.990280 
M184.985077,234.571304 
	C208.593735,224.591797 224.893478,207.821777 233.171951,183.338638 
	C237.573074,170.322571 238.848755,157.093781 236.409042,143.668137 
	C228.039276,97.609886 188.267975,68.787621 141.883392,74.925369 
	C97.240486,80.832642 64.290436,126.158920 72.486549,170.388046 
	C82.323357,223.470871 133.304153,252.881012 184.985077,234.571304 
M45.340797,194.860825 
	C42.419239,196.362518 39.497681,197.864227 36.328053,199.493423 
	C37.636879,202.221741 38.759357,204.561600 39.945850,207.034912 
	C45.392021,204.370453 50.355167,201.942322 56.668663,198.853561 
	C54.152939,204.730576 52.301968,209.054642 50.323723,213.676041 
	C55.694172,214.568359 60.596466,215.382904 66.386047,216.344879 
	C60.435688,219.876785 55.359493,222.889832 50.139332,225.988327 
	C51.850842,228.695953 53.223385,230.867340 54.674782,233.163483 
	C64.304321,227.512695 73.461235,222.139267 82.439117,216.870880 
	C79.414154,205.182419 69.298454,209.666229 61.782562,207.253220 
	C63.277580,204.325943 64.332283,201.299683 66.169754,198.863922 
	C69.949272,193.853714 68.920418,189.481537 65.151871,184.901627 
	C58.759769,188.102570 52.377285,191.298706 45.340797,194.860825 
M247.058426,220.426682 
	C250.816147,222.416275 254.573868,224.405884 258.490479,226.479614 
	C259.997711,223.885422 261.231995,221.761032 262.685974,219.258453 
	C257.250153,216.264130 252.078232,213.415207 245.761826,209.935822 
	C252.105194,209.073959 257.155914,208.007660 262.242493,207.793488 
	C268.503357,207.529877 271.344757,204.344177 271.988922,198.123917 
	C262.484467,193.736404 252.886841,189.305878 242.868927,184.681335 
	C241.707565,187.431351 240.700821,189.815277 239.613876,192.389099 
	C244.859573,194.968719 249.809738,197.403015 254.759903,199.837326 
	C249.677383,201.375458 244.938919,202.511612 240.240875,202.363785 
	C233.763977,202.159958 232.018112,206.399109 229.921967,211.167892 
	C235.604126,214.240280 241.003998,217.160034 247.058426,220.426682 
M127.561569,279.111969 
	C129.480164,279.550995 131.398758,279.990021 133.758926,280.530090 
	C136.596130,269.925293 139.359467,259.596588 142.193436,249.003937 
	C139.163895,248.280533 136.661453,247.682999 133.999878,247.047470 
	C132.340866,252.957336 130.808701,258.415344 128.907898,265.186554 
	C127.050385,258.969421 125.059280,254.312439 124.360481,249.468994 
	C123.442909,243.109268 119.259720,241.811737 113.914062,240.804291 
	C110.455063,251.121460 107.091812,261.153046 103.624413,271.495300 
	C106.386269,272.529083 108.814011,273.437836 111.552536,274.462891 
	C113.604210,268.430756 115.516083,262.809631 117.763573,256.201721 
	C119.962631,262.972015 121.795128,268.945099 123.886238,274.826202 
	C124.430336,276.356415 125.781540,277.599670 127.561569,279.111969 
M113.180206,75.687370 
	C116.369797,73.930466 119.869476,72.563942 122.680840,70.330864 
	C127.678741,66.361008 126.413925,58.618893 120.629486,55.925438 
	C119.624008,55.457241 118.555893,55.123566 117.404022,54.684837 
	C120.114395,50.825775 119.349426,47.001911 116.567314,44.487507 
	C114.699753,42.799648 110.892570,41.659157 108.589882,42.361397 
	C102.503464,44.217548 96.763565,47.209904 90.738045,49.813831 
	C95.851891,60.016582 100.602280,69.494186 105.443497,79.152992 
	C107.970268,78.011909 110.226845,76.992851 113.180206,75.687370 
M185.999008,243.789948 
	C184.016281,244.559845 182.033569,245.329742 179.708923,246.232422 
	C183.978409,256.424805 188.113007,266.295166 192.337891,276.381042 
	C195.187912,275.273346 197.602493,274.334900 200.301178,273.286011 
	C198.651169,269.108887 197.156769,265.325745 195.528168,261.202820 
	C199.125092,259.581879 202.382217,258.114105 205.936203,256.512512 
	C207.978012,260.496887 209.835495,264.121490 211.841629,268.036224 
	C214.560730,266.567322 216.948608,265.277374 219.458405,263.921539 
	C214.481293,253.890656 209.780273,244.416199 204.917877,234.616562 
	C202.243698,236.046371 199.967804,237.263245 197.350250,238.662781 
	C199.105850,242.361160 200.716522,245.754257 202.460052,249.427231 
	C198.974915,251.021378 195.840744,252.455002 193.044510,253.734039 
	C190.820969,250.162796 188.749237,246.835373 185.999008,243.789948 
M238.323547,65.189911 
	C237.489456,64.441147 236.655380,63.692387 236.382858,63.447750 
	C228.615356,71.294525 221.074219,78.912628 213.342117,86.723663 
	C214.815475,88.105293 216.696655,89.869370 218.736374,91.782097 
	C220.207748,90.400589 221.407288,89.281174 222.599014,88.153519 
	C223.876938,86.944298 225.147491,85.727310 226.246490,84.680244 
	C230.129593,86.512535 228.747086,88.837807 227.731125,91.158417 
	C224.376312,98.821320 224.388336,98.826584 230.840607,105.133461 
	C231.898941,102.595901 232.993332,100.212769 233.890533,97.757568 
	C234.929718,94.913834 235.763016,93.035728 239.822113,92.706696 
	C249.143845,91.951073 252.863022,81.709770 246.881653,74.512787 
	C244.337509,71.451599 241.506393,68.628906 238.323547,65.189911 
M105.239052,242.634888 
	C106.397339,241.029785 107.555634,239.424698 108.897583,237.565079 
	C106.428902,235.838806 104.198372,234.279068 101.832886,232.624969 
	C98.130569,237.647629 94.789841,242.194290 91.433403,246.729309 
	C87.752167,251.703156 85.271935,252.420334 81.766907,249.551788 
	C78.273865,246.693054 78.361893,244.575912 82.245270,239.892014 
	C85.944435,235.430313 89.679886,230.998703 93.654640,226.248825 
	C91.431267,224.254379 89.415741,222.446365 87.173790,220.435242 
	C82.346977,226.201508 77.733109,231.428009 73.445602,236.909775 
	C68.423416,243.330856 69.932732,249.952316 77.412796,255.733429 
	C84.748428,261.402954 91.128647,261.164001 96.199730,254.839264 
	C99.212761,251.081375 101.972710,247.120560 105.239052,242.634888 
M132.852966,56.305588 
	C131.864044,60.061947 130.875137,63.818310 129.738632,68.135292 
	C134.593933,67.157814 139.785049,68.256210 140.114105,61.615707 
	C144.176575,61.386917 148.239059,61.158127 152.301529,60.929337 
	C153.997467,67.041801 158.741104,64.978859 163.478043,65.022911 
	C158.686050,54.552948 154.301071,44.389767 149.217361,34.589012 
	C148.568939,33.338909 144.233810,33.613281 141.685837,33.895763 
	C140.361099,34.042633 138.495209,35.528049 138.100677,36.791832 
	C136.175827,42.957706 134.664795,49.252769 132.852966,56.305588 
M170.226578,249.996384 
	C162.409149,246.904190 154.398666,248.294571 150.062134,253.496368 
	C145.544067,258.915863 145.199341,270.471222 149.372543,276.612366 
	C152.966690,281.901398 160.688538,284.015503 168.321640,281.800293 
	C174.316284,280.060608 177.244965,276.056946 177.439743,269.080322 
	C173.744919,269.342926 169.861908,267.652954 167.530426,272.869202 
	C165.923920,276.463470 158.693283,276.123810 157.600494,272.362549 
	C156.383621,268.174225 156.274139,263.254791 157.193939,258.978699 
	C157.996323,255.248413 163.975983,254.298279 166.171143,257.391876 
	C169.231750,261.705048 172.585571,259.656830 177.895050,259.183807 
	C175.009445,255.537369 172.958252,252.945358 170.226578,249.996384 
M226.958710,224.402084 
	C228.582687,223.576279 230.206665,222.750458 232.069504,221.803162 
	C228.788864,218.691071 227.287292,217.266663 225.327209,215.407288 
	C220.208435,220.859756 215.472778,225.904160 210.492599,231.209015 
	C217.591568,239.104340 224.754257,247.070541 232.403793,255.578171 
	C238.112183,249.314194 243.344894,243.572205 248.238358,238.202484 
	C247.305710,236.866211 246.088089,235.121658 244.731125,233.177475 
	C240.648499,237.036316 237.091141,240.398651 233.344666,243.939774 
	C231.899399,242.184189 230.785385,240.830994 229.396164,239.143494 
	C232.644669,235.881729 235.654846,232.859268 238.864120,229.636917 
	C237.322723,228.194443 235.827728,226.795395 234.249527,225.318466 
	C230.875183,228.424057 227.851822,231.206589 224.638367,234.164108 
	C223.364410,232.615509 222.366669,231.402664 221.217941,230.006287 
	C223.122406,228.148849 224.777222,226.534912 226.958710,224.402084 
M79.424606,104.115295 
	C88.694366,96.241287 89.814468,88.259018 82.462982,81.175247 
	C80.079948,84.274231 76.566406,86.392349 78.805344,91.673317 
	C80.291580,95.178848 75.274323,99.304512 71.444725,97.678108 
	C67.939575,96.189484 64.508514,93.690338 62.053810,90.784210 
	C59.232239,87.443748 62.099293,80.949471 66.208870,81.390518 
	C71.660477,81.975571 72.582802,78.131065 74.954750,75.287140 
	C69.522903,71.815628 64.666191,71.962776 60.010113,75.554642 
	C52.755363,81.151207 50.540184,90.066864 54.751251,96.720459 
	C60.225731,105.370262 70.342850,108.668266 79.424606,104.115295 
M222.474518,57.175713 
	C223.028915,56.043385 223.583298,54.911057 224.228806,53.592648 
	C217.392090,49.834568 210.879196,46.254486 203.902374,42.419384 
	C198.886581,52.325054 194.056686,61.863628 189.103363,71.645935 
	C195.762894,75.308510 202.002594,78.740189 208.513947,82.321274 
	C209.746460,80.248573 210.834457,78.418892 212.078568,76.326675 
	C207.941498,73.984337 203.951569,71.725296 199.774246,69.360168 
	C200.868057,67.427292 201.729172,65.905602 202.674026,64.235931 
	C206.589462,66.269409 210.205734,68.147507 213.994431,70.115150 
	C215.207169,68.036346 216.196152,66.341118 217.335403,64.388298 
	C213.402695,62.127682 209.691406,59.994343 205.789581,57.751476 
	C206.669983,56.065170 207.416351,54.635605 208.290222,52.961784 
	C211.687668,54.800240 214.795624,56.689384 218.093948,58.148121 
	C219.167648,58.622982 220.738297,57.974148 222.474518,57.175713 
M45.996460,113.505508 
	C46.954006,110.761124 47.911556,108.016731 48.933472,105.087868 
	C46.518826,104.175476 44.580246,103.442978 42.395813,102.617577 
	C39.546021,110.570885 36.882553,118.004196 34.118423,125.718430 
	C44.754295,129.180313 54.962952,132.503143 65.485992,135.928299 
	C66.313232,132.874924 67.021538,130.260529 67.738480,127.614258 
	C63.710968,126.211327 60.199871,124.988274 56.573711,123.725143 
	C58.202442,119.053696 59.613102,115.007713 61.157631,110.577766 
	C58.971493,109.754097 57.055912,109.032364 54.913952,108.225334 
	C53.078106,112.943474 51.421894,117.199974 49.718884,121.576729 
	C47.522976,120.834549 45.812656,120.256493 43.849606,119.593010 
	C44.549603,117.653481 45.164089,115.950882 45.996460,113.505508 
M173.853561,34.429031 
	C170.999283,33.824703 168.145020,33.220375 164.782898,32.508522 
	C166.924850,44.356506 174.916061,54.492840 169.492172,66.576996 
	C172.998520,67.290161 175.523849,67.803795 178.700165,68.449837 
	C178.649643,54.705051 190.591599,49.168621 196.583878,39.943211 
	C186.665863,33.293571 183.576309,42.835857 178.286652,47.757927 
	C176.872314,43.310913 175.571457,39.220749 173.853561,34.429031 
z"/>
<path fill="#FDFEFE" opacity="1.000000" stroke="none" 
	d="
M184.625610,234.721756 
	C133.304153,252.881012 82.323357,223.470871 72.486549,170.388046 
	C64.290436,126.158920 97.240486,80.832642 141.883392,74.925369 
	C188.267975,68.787621 228.039276,97.609886 236.409042,143.668137 
	C238.848755,157.093781 237.573074,170.322571 233.171951,183.338638 
	C224.893478,207.821777 208.593735,224.591797 184.625610,234.721756 
M98.285027,135.485001 
	C98.317017,135.705780 98.349014,135.926575 98.245651,137.055695 
	C98.245651,148.907516 98.245651,160.759338 98.245651,172.611160 
	C97.891945,172.688400 97.538246,172.765640 97.184540,172.842880 
	C91.321976,164.289154 85.459412,155.735428 79.446373,146.962143 
	C73.671799,162.638901 85.363495,200.034058 98.611725,207.737411 
	C98.611725,196.957520 98.611725,186.507446 98.545723,176.050552 
	C98.545723,176.050552 98.491623,176.088959 99.183884,176.269943 
	C106.162224,186.252823 113.140556,196.235703 120.919395,207.363739 
	C120.919395,193.509186 120.919395,181.096725 121.612259,168.898758 
	C128.760910,179.053040 135.909561,189.207306 142.992416,199.916672 
	C142.999115,200.289230 143.005829,200.661804 143.053314,201.966263 
	C143.053314,212.210205 143.053314,222.454163 143.053314,233.070770 
	C150.799072,233.070770 158.039780,233.070770 165.600449,233.036545 
	C165.600449,233.036545 165.922150,233.029495 166.703003,232.840912 
	C173.476089,230.581406 180.249161,228.321899 187.734070,225.962784 
	C194.113312,222.003357 200.492554,218.043945 207.463959,213.716980 
	C200.412369,204.045319 194.212601,195.541977 188.027725,186.514435 
	C188.056198,186.166580 188.084671,185.818741 188.143585,184.474915 
	C188.227707,172.930267 188.311829,161.385620 189.254929,149.937042 
	C189.542999,149.942444 189.831055,149.947830 190.686935,150.302078 
	C197.093491,159.661423 203.500046,169.020767 209.906586,178.380112 
	C210.251282,178.248672 210.595963,178.117218 210.940643,177.985779 
	C210.940643,165.581360 210.940643,153.176941 211.581238,141.070526 
	C217.561737,149.776779 223.542236,158.483032 229.720566,167.477264 
	C234.580460,149.072083 225.078583,118.045631 210.545853,106.252251 
	C210.545853,117.128128 210.545853,127.557693 210.428879,137.964630 
	C210.428879,137.964630 210.315903,137.926773 209.619415,137.814148 
	C202.772552,127.948692 195.925705,118.083237 189.078842,108.217781 
	C188.135529,119.177055 188.184845,129.761337 188.083939,140.344177 
	C188.068253,141.988495 187.366043,143.626266 186.806763,144.576889 
	C179.858414,134.663757 172.910065,124.750626 166.006378,114.264191 
	C166.016296,113.880798 166.026215,113.497406 165.984619,112.161758 
	C165.984619,101.970978 165.984619,91.780190 165.984619,80.311485 
	C157.867691,80.882675 150.416931,81.406982 142.274368,81.690697 
	C135.333069,84.127823 128.391785,86.564957 121.517540,89.015358 
	C121.517540,89.015358 121.566231,88.967392 120.789001,88.689400 
	C114.544403,92.548584 108.299797,96.407761 101.997742,100.302444 
	C108.533562,110.084236 114.246262,118.634094 120.004005,127.710411 
	C120.286842,128.126038 120.569679,128.541656 120.887970,129.899673 
	C120.815529,140.950134 120.743088,152.000595 120.315392,163.378998 
	C119.956291,163.900162 119.597191,164.421341 118.761932,164.449936 
	C112.097862,155.013718 105.433800,145.577499 98.755447,135.470032 
	C98.658440,135.268417 98.561424,135.066818 98.456062,133.991776 
	C98.456062,124.774269 98.456062,115.556763 98.456062,106.339249 
	C98.061012,106.204124 97.665970,106.069000 97.270920,105.933876 
	C94.450562,109.943695 91.531059,113.890213 88.895485,118.018021 
	C88.382988,118.820694 88.558998,120.604996 89.128632,121.465958 
	C92.138313,126.014816 95.375526,130.413132 98.285027,135.485001 
M176.086792,89.420761 
	C179.866547,94.892471 183.646317,100.364182 187.426071,105.835892 
	C188.329666,100.454079 188.409180,95.497330 188.260071,90.547478 
	C188.231537,89.599663 187.523102,88.155510 186.753311,87.831612 
	C182.131729,85.887047 177.400665,84.202721 172.706268,82.431213 
	C172.510071,82.790642 172.313889,83.150070 172.117691,83.509499 
	C173.314117,85.276619 174.510559,87.043739 176.086792,89.420761 
M120.682632,217.509598 
	C121.002174,220.390976 120.296211,224.843033 121.839249,225.850510 
	C125.978325,228.552933 131.080002,229.781052 135.799362,231.594696 
	C136.057678,231.139999 136.315979,230.685303 136.574295,230.230606 
	C131.603699,222.942795 126.633095,215.654984 121.662491,208.367188 
	C121.335823,208.491577 121.009148,208.615967 120.682472,208.740356 
	C120.682472,211.348785 120.682472,213.957214 120.682632,217.509598 
M215.390289,186.091110 
	C214.119232,184.275620 212.848175,182.460129 210.997772,179.817154 
	C210.997772,189.867416 210.997772,198.779373 210.997772,208.762894 
	C212.934341,206.422363 214.226089,204.972336 215.395340,203.429459 
	C221.609985,195.228973 221.599350,195.220917 215.390289,186.091110 
z"/>
<path fill="#FDF8F9" opacity="1.000000" stroke="none" 
	d="
M45.667801,194.677826 
	C52.377285,191.298706 58.759769,188.102570 65.151871,184.901627 
	C68.920418,189.481537 69.949272,193.853714 66.169754,198.863922 
	C64.332283,201.299683 63.277580,204.325943 61.782562,207.253220 
	C69.298454,209.666229 79.414154,205.182419 82.439117,216.870880 
	C73.461235,222.139267 64.304321,227.512695 54.674782,233.163483 
	C53.223385,230.867340 51.850842,228.695953 50.139332,225.988327 
	C55.359493,222.889832 60.435688,219.876785 66.386047,216.344879 
	C60.596466,215.382904 55.694172,214.568359 50.323723,213.676041 
	C52.301968,209.054642 54.152939,204.730576 56.668663,198.853561 
	C50.355167,201.942322 45.392021,204.370453 39.945850,207.034912 
	C38.759357,204.561600 37.636879,202.221741 36.328053,199.493423 
	C39.497681,197.864227 42.419239,196.362518 45.667801,194.677826 
z"/>
<path fill="#FDF7F8" opacity="1.000000" stroke="none" 
	d="
M246.731140,220.253235 
	C241.003998,217.160034 235.604126,214.240280 229.921967,211.167892 
	C232.018112,206.399109 233.763977,202.159958 240.240875,202.363785 
	C244.938919,202.511612 249.677383,201.375458 254.759903,199.837326 
	C249.809738,197.403015 244.859573,194.968719 239.613876,192.389099 
	C240.700821,189.815277 241.707565,187.431351 242.868927,184.681335 
	C252.886841,189.305878 262.484467,193.736404 271.988922,198.123917 
	C271.344757,204.344177 268.503357,207.529877 262.242493,207.793488 
	C257.155914,208.007660 252.105194,209.073959 245.761826,209.935822 
	C252.078232,213.415207 257.250153,216.264130 262.685974,219.258453 
	C261.231995,221.761032 259.997711,223.885422 258.490479,226.479614 
	C254.573868,224.405884 250.816147,222.416275 246.731140,220.253235 
z"/>
<path fill="#FDF7F8" opacity="1.000000" stroke="none" 
	d="
M127.161804,279.043335 
	C125.781540,277.599670 124.430336,276.356415 123.886238,274.826202 
	C121.795128,268.945099 119.962631,262.972015 117.763573,256.201721 
	C115.516083,262.809631 113.604210,268.430756 111.552536,274.462891 
	C108.814011,273.437836 106.386269,272.529083 103.624413,271.495300 
	C107.091812,261.153046 110.455063,251.121460 113.914062,240.804291 
	C119.259720,241.811737 123.442909,243.109268 124.360481,249.468994 
	C125.059280,254.312439 127.050385,258.969421 128.907898,265.186554 
	C130.808701,258.415344 132.340866,252.957336 133.999878,247.047470 
	C136.661453,247.682999 139.163895,248.280533 142.193436,249.003937 
	C139.359467,259.596588 136.596130,269.925293 133.758926,280.530090 
	C131.398758,279.990021 129.480164,279.550995 127.161804,279.043335 
z"/>
<path fill="#FDF7F9" opacity="1.000000" stroke="none" 
	d="
M254.962891,121.971313 
	C257.768677,121.141129 260.597961,120.381660 263.373566,119.460495 
	C266.049133,118.572533 268.669250,117.517593 271.803528,116.354210 
	C272.757355,118.877594 273.662323,121.271690 274.783783,124.238487 
	C264.559448,128.134415 254.698242,131.891968 244.650589,135.720566 
	C241.615540,130.945923 240.461472,126.656670 244.758972,121.876038 
	C247.704712,118.599106 249.835526,114.589600 252.330627,110.907570 
	C252.075241,110.497833 251.819839,110.088104 251.564438,109.678368 
	C246.735336,111.806366 241.906250,113.934357 236.621155,116.263298 
	C235.405914,113.771545 234.275406,111.453499 232.910049,108.653938 
	C242.869293,104.139435 252.612289,99.722961 262.264771,95.347527 
	C266.212646,100.055580 267.248047,104.283440 262.960022,109.252365 
	C259.838531,112.869537 257.610016,117.257309 254.735840,121.685349 
	C254.509918,122.268272 254.522995,122.469429 254.569199,122.662651 
	C254.572937,122.678299 254.903824,122.661743 254.912506,122.622513 
	C254.959061,122.412033 254.951645,122.189606 254.962891,121.971313 
z"/>
<path fill="#FDF7F8" opacity="1.000000" stroke="none" 
	d="
M112.831810,75.830582 
	C110.226845,76.992851 107.970268,78.011909 105.443497,79.152992 
	C100.602280,69.494186 95.851891,60.016582 90.738045,49.813831 
	C96.763565,47.209904 102.503464,44.217548 108.589882,42.361397 
	C110.892570,41.659157 114.699753,42.799648 116.567314,44.487507 
	C119.349426,47.001911 120.114395,50.825775 117.404022,54.684837 
	C118.555893,55.123566 119.624008,55.457241 120.629486,55.925438 
	C126.413925,58.618893 127.678741,66.361008 122.680840,70.330864 
	C119.869476,72.563942 116.369797,73.930466 112.831810,75.830582 
M109.034729,67.387138 
	C111.521217,71.256363 113.627335,67.615578 115.591560,66.751701 
	C116.326141,66.428627 116.147331,64.028755 116.384979,62.575806 
	C114.484879,62.397198 112.515678,61.821827 110.701721,62.137783 
	C108.292526,62.557415 106.698723,63.969650 109.034729,67.387138 
M105.391708,50.525658 
	C104.182716,51.209618 102.973732,51.893581 101.551132,52.698387 
	C102.699348,54.614326 103.588402,56.097828 105.309044,58.968937 
	C107.616577,56.033234 109.333984,53.848309 111.051392,51.663380 
	C109.410088,51.156780 107.768784,50.650181 105.391708,50.525658 
z"/>
<path fill="#FDF7F8" opacity="1.000000" stroke="none" 
	d="
M186.338257,243.648956 
	C188.749237,246.835373 190.820969,250.162796 193.044510,253.734039 
	C195.840744,252.455002 198.974915,251.021378 202.460052,249.427231 
	C200.716522,245.754257 199.105850,242.361160 197.350250,238.662781 
	C199.967804,237.263245 202.243698,236.046371 204.917877,234.616562 
	C209.780273,244.416199 214.481293,253.890656 219.458405,263.921539 
	C216.948608,265.277374 214.560730,266.567322 211.841629,268.036224 
	C209.835495,264.121490 207.978012,260.496887 205.936203,256.512512 
	C202.382217,258.114105 199.125092,259.581879 195.528168,261.202820 
	C197.156769,265.325745 198.651169,269.108887 200.301178,273.286011 
	C197.602493,274.334900 195.187912,275.273346 192.337891,276.381042 
	C188.113007,266.295166 183.978409,256.424805 179.708923,246.232422 
	C182.033569,245.329742 184.016281,244.559845 186.338257,243.648956 
z"/>
<path fill="#FEF8F9" opacity="1.000000" stroke="none" 
	d="
M238.564606,65.443871 
	C241.506393,68.628906 244.337509,71.451599 246.881653,74.512787 
	C252.863022,81.709770 249.143845,91.951073 239.822113,92.706696 
	C235.763016,93.035728 234.929718,94.913834 233.890533,97.757568 
	C232.993332,100.212769 231.898941,102.595901 230.840607,105.133461 
	C224.388336,98.826584 224.376312,98.821320 227.731125,91.158417 
	C228.747086,88.837807 230.129593,86.512535 226.246490,84.680244 
	C225.147491,85.727310 223.876938,86.944298 222.599014,88.153519 
	C221.407288,89.281174 220.207748,90.400589 218.736374,91.782097 
	C216.696655,89.869370 214.815475,88.105293 213.342117,86.723663 
	C221.074219,78.912628 228.615356,71.294525 236.382858,63.447750 
	C236.655380,63.692387 237.489456,64.441147 238.564606,65.443871 
M241.833740,81.186630 
	C240.467651,78.747498 239.101547,76.308365 237.489426,73.429977 
	C234.938919,75.799683 233.174973,77.438568 231.470047,79.022621 
	C236.608032,85.717232 237.328415,85.890419 241.833740,81.186630 
z"/>
<path fill="#FDF6F7" opacity="1.000000" stroke="none" 
	d="
M105.042747,242.942932 
	C101.972710,247.120560 99.212761,251.081375 96.199730,254.839264 
	C91.128647,261.164001 84.748428,261.402954 77.412796,255.733429 
	C69.932732,249.952316 68.423416,243.330856 73.445602,236.909775 
	C77.733109,231.428009 82.346977,226.201508 87.173790,220.435242 
	C89.415741,222.446365 91.431267,224.254379 93.654640,226.248825 
	C89.679886,230.998703 85.944435,235.430313 82.245270,239.892014 
	C78.361893,244.575912 78.273865,246.693054 81.766907,249.551788 
	C85.271935,252.420334 87.752167,251.703156 91.433403,246.729309 
	C94.789841,242.194290 98.130569,237.647629 101.832886,232.624969 
	C104.198372,234.279068 106.428902,235.838806 108.897583,237.565079 
	C107.555634,239.424698 106.397339,241.029785 105.042747,242.942932 
z"/>
<path fill="#FDF7F8" opacity="1.000000" stroke="none" 
	d="
M132.930161,55.903858 
	C134.664795,49.252769 136.175827,42.957706 138.100677,36.791832 
	C138.495209,35.528049 140.361099,34.042633 141.685837,33.895763 
	C144.233810,33.613281 148.568939,33.338909 149.217361,34.589012 
	C154.301071,44.389767 158.686050,54.552948 163.478043,65.022911 
	C158.741104,64.978859 153.997467,67.041801 152.301529,60.929337 
	C148.239059,61.158127 144.176575,61.386917 140.114105,61.615707 
	C139.785049,68.256210 134.593933,67.157814 129.738632,68.135292 
	C130.875137,63.818310 131.864044,60.061947 132.930161,55.903858 
M143.163757,47.849182 
	C142.828339,49.686169 142.492920,51.523151 142.072510,53.825623 
	C144.730362,53.483105 146.774460,53.219681 149.185532,52.908962 
	C147.587784,49.462082 146.212280,46.494644 144.524719,42.854012 
	C143.965393,44.910732 143.664825,46.015972 143.163757,47.849182 
z"/>
<path fill="#FDF6F7" opacity="1.000000" stroke="none" 
	d="
M170.566833,250.174866 
	C172.958252,252.945358 175.009445,255.537369 177.895050,259.183807 
	C172.585571,259.656830 169.231750,261.705048 166.171143,257.391876 
	C163.975983,254.298279 157.996323,255.248413 157.193939,258.978699 
	C156.274139,263.254791 156.383621,268.174225 157.600494,272.362549 
	C158.693283,276.123810 165.923920,276.463470 167.530426,272.869202 
	C169.861908,267.652954 173.744919,269.342926 177.439743,269.080322 
	C177.244965,276.056946 174.316284,280.060608 168.321640,281.800293 
	C160.688538,284.015503 152.966690,281.901398 149.372543,276.612366 
	C145.199341,270.471222 145.544067,258.915863 150.062134,253.496368 
	C154.398666,248.294571 162.409149,246.904190 170.566833,250.174866 
z"/>
<path fill="#FDF5F7" opacity="1.000000" stroke="none" 
	d="
M226.695374,224.661530 
	C224.777222,226.534912 223.122406,228.148849 221.217941,230.006287 
	C222.366669,231.402664 223.364410,232.615509 224.638367,234.164108 
	C227.851822,231.206589 230.875183,228.424057 234.249527,225.318466 
	C235.827728,226.795395 237.322723,228.194443 238.864120,229.636917 
	C235.654846,232.859268 232.644669,235.881729 229.396164,239.143494 
	C230.785385,240.830994 231.899399,242.184189 233.344666,243.939774 
	C237.091141,240.398651 240.648499,237.036316 244.731125,233.177475 
	C246.088089,235.121658 247.305710,236.866211 248.238358,238.202484 
	C243.344894,243.572205 238.112183,249.314194 232.403793,255.578171 
	C224.754257,247.070541 217.591568,239.104340 210.492599,231.209015 
	C215.472778,225.904160 220.208435,220.859756 225.327209,215.407288 
	C227.287292,217.266663 228.788864,218.691071 232.069504,221.803162 
	C230.206665,222.750458 228.582687,223.576279 226.695374,224.661530 
z"/>
<path fill="#FDF8F9" opacity="1.000000" stroke="none" 
	d="
M79.125198,104.341827 
	C70.342850,108.668266 60.225731,105.370262 54.751251,96.720459 
	C50.540184,90.066864 52.755363,81.151207 60.010113,75.554642 
	C64.666191,71.962776 69.522903,71.815628 74.954750,75.287140 
	C72.582802,78.131065 71.660477,81.975571 66.208870,81.390518 
	C62.099293,80.949471 59.232239,87.443748 62.053810,90.784210 
	C64.508514,93.690338 67.939575,96.189484 71.444725,97.678108 
	C75.274323,99.304512 80.291580,95.178848 78.805344,91.673317 
	C76.566406,86.392349 80.079948,84.274231 82.462982,81.175247 
	C89.814468,88.259018 88.694366,96.241287 79.125198,104.341827 
z"/>
<path fill="#FDF6F7" opacity="1.000000" stroke="none" 
	d="
M222.278091,57.507484 
	C220.738297,57.974148 219.167648,58.622982 218.093948,58.148121 
	C214.795624,56.689384 211.687668,54.800240 208.290222,52.961784 
	C207.416351,54.635605 206.669983,56.065170 205.789581,57.751476 
	C209.691406,59.994343 213.402695,62.127682 217.335403,64.388298 
	C216.196152,66.341118 215.207169,68.036346 213.994431,70.115150 
	C210.205734,68.147507 206.589462,66.269409 202.674026,64.235931 
	C201.729172,65.905602 200.868057,67.427292 199.774246,69.360168 
	C203.951569,71.725296 207.941498,73.984337 212.078568,76.326675 
	C210.834457,78.418892 209.746460,80.248573 208.513947,82.321274 
	C202.002594,78.740189 195.762894,75.308510 189.103363,71.645935 
	C194.056686,61.863628 198.886581,52.325054 203.902374,42.419384 
	C210.879196,46.254486 217.392090,49.834568 224.228806,53.592648 
	C223.583298,54.911057 223.028915,56.043385 222.278091,57.507484 
z"/>
<path fill="#FDF6F7" opacity="1.000000" stroke="none" 
	d="
M45.887520,113.876892 
	C45.164089,115.950882 44.549603,117.653481 43.849606,119.593010 
	C45.812656,120.256493 47.522976,120.834549 49.718884,121.576729 
	C51.421894,117.199974 53.078106,112.943474 54.913952,108.225334 
	C57.055912,109.032364 58.971493,109.754097 61.157631,110.577766 
	C59.613102,115.007713 58.202442,119.053696 56.573711,123.725143 
	C60.199871,124.988274 63.710968,126.211327 67.738480,127.614258 
	C67.021538,130.260529 66.313232,132.874924 65.485992,135.928299 
	C54.962952,132.503143 44.754295,129.180313 34.118423,125.718430 
	C36.882553,118.004196 39.546021,110.570885 42.395813,102.617577 
	C44.580246,103.442978 46.518826,104.175476 48.933472,105.087868 
	C47.911556,108.016731 46.954006,110.761124 45.887520,113.876892 
z"/>
<path fill="#FDF7F8" opacity="1.000000" stroke="none" 
	d="
M174.062088,34.779808 
	C175.571457,39.220749 176.872314,43.310913 178.286652,47.757927 
	C183.576309,42.835857 186.665863,33.293571 196.583878,39.943211 
	C190.591599,49.168621 178.649643,54.705051 178.700165,68.449837 
	C175.523849,67.803795 172.998520,67.290161 169.492172,66.576996 
	C174.916061,54.492840 166.924850,44.356506 164.782898,32.508522 
	C168.145020,33.220375 170.999283,33.824703 174.062088,34.779808 
z"/>
<path fill="#FAE2E7" opacity="1.000000" stroke="none" 
	d="
M92.919907,234.929276 
	C93.708656,232.614227 94.497398,230.299164 95.443253,227.522980 
	C97.090401,228.664398 98.385994,229.562195 100.401764,230.959061 
	C98.021095,232.605301 96.062042,233.960007 93.666046,235.283066 
	C93.229103,235.251419 92.919899,234.929276 92.919907,234.929276 
z"/>
<path fill="#FAE2E7" opacity="1.000000" stroke="none" 
	d="
M93.360504,235.431915 
	C93.161621,235.446289 92.831322,235.280182 92.710464,235.021667 
	C92.919899,234.929276 93.229103,235.251419 93.360504,235.431915 
z"/>
<path fill="#0569B3" opacity="1.000000" stroke="none" 
	d="
M98.611725,176.057373 
	C98.611725,186.507446 98.611725,196.957520 98.611725,207.737411 
	C85.363495,200.034058 73.671799,162.638901 79.446373,146.962143 
	C85.459412,155.735428 91.321976,164.289154 97.184540,172.842880 
	C97.538246,172.765640 97.891945,172.688400 98.245651,172.611160 
	C98.245651,160.759338 98.245651,148.907516 98.411407,136.658020 
	C98.577164,136.260361 98.769730,136.141281 98.769730,136.141281 
	C105.433800,145.577499 112.097862,155.013718 119.050499,164.953186 
	C119.857185,165.887604 120.375305,166.318756 120.920425,167.071899 
	C120.938072,167.824005 120.928734,168.254135 120.919395,168.684265 
	C120.919395,181.096725 120.919395,193.509186 120.919395,207.363739 
	C113.140556,196.235703 106.162224,186.252823 98.918549,176.059967 
	C98.653206,175.849976 98.491081,175.714279 98.491081,175.714279 
	C98.491081,175.714279 98.611725,176.057373 98.611725,176.057373 
z"/>
<path fill="#086AB4" opacity="1.000000" stroke="none" 
	d="
M210.940643,140.772522 
	C210.940643,153.176941 210.940643,165.581360 210.940643,177.985779 
	C210.595963,178.117218 210.251282,178.248672 209.906586,178.380112 
	C203.500046,169.020767 197.093491,159.661423 190.329498,149.828400 
	C189.639633,149.228531 189.307220,149.102310 189.004120,148.981964 
	C189.033447,148.987823 189.033600,149.047638 189.103195,148.795807 
	C188.841080,148.157913 188.509369,147.771866 188.064072,147.102478 
	C187.627426,146.301788 187.304352,145.784439 186.981293,145.267075 
	C187.366043,143.626266 188.068253,141.988495 188.083939,140.344177 
	C188.184845,129.761337 188.135529,119.177055 189.078842,108.217781 
	C195.925705,118.083237 202.772552,127.948692 209.917084,138.078522 
	C210.314407,138.677673 210.535889,138.812775 210.911194,139.084747 
	C210.942337,139.871735 210.941498,140.322128 210.940643,140.772522 
z"/>
<path fill="#F5F9FB" opacity="1.000000" stroke="none" 
	d="
M166.036133,113.114014 
	C166.026215,113.497406 166.016296,113.880798 165.962387,115.030708 
	C165.914459,128.111938 165.910507,140.426636 165.600098,152.644806 
	C159.094147,143.611755 152.927185,134.652313 146.661484,125.762474 
	C145.679840,124.369720 144.249573,123.293167 143.017822,121.778961 
	C143.023499,121.099174 143.038101,120.710838 143.148727,119.838318 
	C143.198898,107.334251 143.153030,95.314369 143.436035,83.180786 
	C149.061157,90.429153 154.319244,97.819122 159.673294,105.138870 
	C161.679291,107.881340 163.908630,110.460434 166.036133,113.114014 
z"/>
<path fill="#F5F9FC" opacity="1.000000" stroke="none" 
	d="
M143.012527,201.034363 
	C143.005829,200.661804 142.999115,200.289230 143.056595,199.144531 
	C143.125351,186.043106 143.129944,173.713837 143.412109,161.519302 
	C145.525986,164.204483 147.371826,166.748093 149.196808,169.306610 
	C154.765732,177.113998 160.326584,184.927139 165.920563,193.030426 
	C165.959961,193.518555 165.969376,193.714279 165.892609,194.378998 
	C165.845032,207.575165 165.883591,220.302338 165.922150,233.029495 
	C165.922150,233.029495 165.600449,233.036545 165.561157,232.685516 
	C160.695801,225.397507 155.923111,218.422485 151.021759,211.539093 
	C148.469086,207.954147 145.689575,204.530746 143.012527,201.034363 
z"/>
<path fill="#0367B2" opacity="1.000000" stroke="none" 
	d="
M165.906570,152.741348 
	C165.910507,140.426636 165.914459,128.111938 165.940063,115.317360 
	C172.910065,124.750626 179.858414,134.663757 186.894028,144.921982 
	C187.304352,145.784439 187.627426,146.301788 188.091858,147.410614 
	C188.500031,148.350586 188.766815,148.699112 189.033600,149.047638 
	C189.033600,149.047638 189.033447,148.987823 188.727478,149.109833 
	C188.412979,149.434891 188.404449,149.637939 188.395935,149.840973 
	C188.311829,161.385620 188.227707,172.930267 187.780869,184.836975 
	C180.257965,175.043869 173.097778,164.888718 165.956909,154.401642 
	C165.953018,153.626953 165.929794,153.184143 165.906570,152.741348 
z"/>
<path fill="#F8FAFC" opacity="1.000000" stroke="none" 
	d="
M143.052704,120.322495 
	C143.038101,120.710838 143.023499,121.099174 143.073563,122.239777 
	C143.123093,135.171692 143.107956,147.351349 142.751495,159.390411 
	C139.484848,155.004318 136.616348,150.718277 133.620590,146.523087 
	C129.414124,140.632431 125.113091,134.809296 120.852516,128.957275 
	C120.569679,128.541656 120.286842,128.126038 120.372772,127.230682 
	C120.817680,122.601646 120.880013,118.452011 120.972885,114.303078 
	C121.161942,105.857651 121.367477,97.412598 121.566231,88.967392 
	C121.566231,88.967392 121.517540,89.015358 121.672745,89.319382 
	C128.902863,99.856438 135.977783,110.089462 143.052704,120.322495 
z"/>
<path fill="#F8FBFD" opacity="1.000000" stroke="none" 
	d="
M165.937592,154.733551 
	C173.097778,164.888718 180.257965,175.043869 187.765656,185.334961 
	C188.084671,185.818741 188.056198,186.166580 188.039047,187.242233 
	C188.047974,198.752594 188.083817,209.535477 187.999420,220.317398 
	C187.987610,221.826263 187.385773,223.330536 186.976425,224.508545 
	C179.923447,214.090088 172.951111,204.000031 165.978775,193.909988 
	C165.969376,193.714279 165.959961,193.518555 165.888641,192.581726 
	C165.863678,179.471603 165.900635,167.102570 165.937592,154.733551 
z"/>
<path fill="#0267B2" opacity="1.000000" stroke="none" 
	d="
M120.870239,129.428467 
	C125.113091,134.809296 129.414124,140.632431 133.620590,146.523087 
	C136.616348,150.718277 139.484848,155.004318 142.724548,159.698792 
	C143.070801,160.560028 143.102661,160.972290 143.134521,161.384552 
	C143.129944,173.713837 143.125351,186.043106 143.089493,198.866989 
	C135.909561,189.207306 128.760910,179.053040 121.265823,168.791504 
	C120.928734,168.254135 120.938072,167.824005 120.897827,166.700287 
	C120.789040,165.021484 120.729843,164.036270 120.670647,163.051056 
	C120.743088,152.000595 120.815529,140.950134 120.870239,129.428467 
z"/>
<path fill="#0569B3" opacity="1.000000" stroke="none" 
	d="
M211.260941,140.921524 
	C210.941498,140.322128 210.942337,139.871735 210.844940,138.887054 
	C210.746674,138.352783 210.545853,137.987259 210.545853,137.987259 
	C210.545853,127.557693 210.545853,117.128128 210.545853,106.252251 
	C225.078583,118.045631 234.580460,149.072083 229.720566,167.477264 
	C223.542236,158.483032 217.561737,149.776779 211.260941,140.921524 
z"/>
<path fill="#0468B3" opacity="1.000000" stroke="none" 
	d="
M165.892609,194.378998 
	C172.951111,204.000031 179.923447,214.090088 186.962280,224.814758 
	C187.026581,225.653687 187.024414,225.858032 187.022232,226.062378 
	C180.249161,228.321899 173.476089,230.581406 166.312576,232.935211 
	C165.883591,220.302338 165.845032,207.575165 165.892609,194.378998 
z"/>
<path fill="#0468B3" opacity="1.000000" stroke="none" 
	d="
M143.148712,119.838318 
	C135.977783,110.089462 128.902863,99.856438 121.639221,89.312744 
	C128.391785,86.564957 135.333069,84.127823 142.640961,82.036606 
	C143.027039,82.687996 143.060257,82.991982 143.107162,83.294479 
	C143.153030,95.314369 143.198898,107.334251 143.148712,119.838318 
z"/>
<path fill="#096BB4" opacity="1.000000" stroke="none" 
	d="
M143.032928,201.500305 
	C145.689575,204.530746 148.469086,207.954147 151.021759,211.539093 
	C155.923111,218.422485 160.695801,225.397507 165.401184,232.702637 
	C158.039780,233.070770 150.799072,233.070770 143.053314,233.070770 
	C143.053314,222.454163 143.053314,212.210205 143.032928,201.500305 
z"/>
<path fill="#0669B3" opacity="1.000000" stroke="none" 
	d="
M187.378143,226.012573 
	C187.024414,225.858032 187.026581,225.653687 187.042908,225.143143 
	C187.385773,223.330536 187.987610,221.826263 187.999420,220.317398 
	C188.083817,209.535477 188.047974,198.752594 188.031616,187.504333 
	C194.212601,195.541977 200.412369,204.045319 207.463959,213.716980 
	C200.492554,218.043945 194.113312,222.003357 187.378143,226.012573 
z"/>
<path fill="#0669B3" opacity="1.000000" stroke="none" 
	d="
M121.177612,88.828400 
	C121.367477,97.412598 121.161942,105.857651 120.972885,114.303078 
	C120.880013,118.452011 120.817680,122.601646 120.350243,126.967461 
	C114.246262,118.634094 108.533562,110.084236 101.997742,100.302444 
	C108.299797,96.407761 114.544403,92.548584 121.177612,88.828400 
z"/>
<path fill="#0669B3" opacity="1.000000" stroke="none" 
	d="
M143.436035,83.180786 
	C143.060257,82.991982 143.027039,82.687996 142.986847,82.156898 
	C150.416931,81.406982 157.867691,80.882675 165.984619,80.311485 
	C165.984619,91.780190 165.984619,101.970978 166.010376,112.637886 
	C163.908630,110.460434 161.679291,107.881340 159.673294,105.138870 
	C154.319244,97.819122 149.061157,90.429153 143.436035,83.180786 
z"/>
<path fill="#086AB4" opacity="1.000000" stroke="none" 
	d="
M98.533829,134.863663 
	C95.375526,130.413132 92.138313,126.014816 89.128632,121.465958 
	C88.558998,120.604996 88.382988,118.820694 88.895485,118.018021 
	C91.531059,113.890213 94.450562,109.943695 97.270920,105.933876 
	C97.665970,106.069000 98.061012,106.204124 98.456062,106.339249 
	C98.456062,115.556763 98.456062,124.774269 98.478249,134.452393 
	C98.500435,134.912994 98.533829,134.863663 98.533829,134.863663 
z"/>
<path fill="#0A6BB4" opacity="1.000000" stroke="none" 
	d="
M175.896881,89.115814 
	C174.510559,87.043739 173.314117,85.276619 172.117691,83.509499 
	C172.313889,83.150070 172.510071,82.790642 172.706268,82.431213 
	C177.400665,84.202721 182.131729,85.887047 186.753311,87.831612 
	C187.523102,88.155510 188.231537,89.599663 188.260071,90.547478 
	C188.409180,95.497330 188.329666,100.454079 187.426071,105.835892 
	C183.646317,100.364182 179.866547,94.892471 175.896881,89.115814 
z"/>
<path fill="#096BB4" opacity="1.000000" stroke="none" 
	d="
M120.682556,217.037628 
	C120.682472,213.957214 120.682472,211.348785 120.682472,208.740356 
	C121.009148,208.615967 121.335823,208.491577 121.662491,208.367188 
	C126.633095,215.654984 131.603699,222.942795 136.574295,230.230606 
	C136.315979,230.685303 136.057678,231.139999 135.799362,231.594696 
	C131.080002,229.781052 125.978325,228.552933 121.839249,225.850510 
	C120.296211,224.843033 121.002174,220.390976 120.682556,217.037628 
z"/>
<path fill="#0669B3" opacity="1.000000" stroke="none" 
	d="
M215.609253,186.385590 
	C221.599350,195.220917 221.609985,195.228973 215.395340,203.429459 
	C214.226089,204.972336 212.934341,206.422363 210.997772,208.762894 
	C210.997772,198.779373 210.997772,189.867416 210.997772,179.817154 
	C212.848175,182.460129 214.119232,184.275620 215.609253,186.385590 
z"/>
<path fill="#F8FAFC" opacity="1.000000" stroke="none" 
	d="
M120.493019,163.215027 
	C120.729843,164.036270 120.789040,165.021484 120.870834,166.378296 
	C120.375305,166.318756 119.857185,165.887604 119.288574,165.199478 
	C119.597191,164.421341 119.956291,163.900162 120.493019,163.215027 
z"/>
<path fill="#5397C9" opacity="1.000000" stroke="none" 
	d="
M98.409424,135.174332 
	C98.533829,134.863663 98.500435,134.912994 98.482422,134.889099 
	C98.561424,135.066818 98.658440,135.268417 98.762589,135.805664 
	C98.769730,136.141281 98.577164,136.260361 98.479080,136.203857 
	C98.349014,135.926575 98.317017,135.705780 98.409424,135.174332 
z"/>
<path fill="#FAFAFB" opacity="1.000000" stroke="none" 
	d="
M98.578720,176.053955 
	C98.611725,176.057373 98.491081,175.714279 98.491081,175.714279 
	C98.491081,175.714279 98.653206,175.849976 98.572418,175.969467 
	C98.491623,176.088959 98.545723,176.050552 98.578720,176.053955 
z"/>
<path fill="#F8FAFC" opacity="1.000000" stroke="none" 
	d="
M188.825439,149.889008 
	C188.404449,149.637939 188.412979,149.434891 188.698151,149.103973 
	C189.307220,149.102310 189.639633,149.228531 190.045593,149.653961 
	C189.831055,149.947830 189.542999,149.942444 188.825439,149.889008 
z"/>
<path fill="#FAFAFC" opacity="1.000000" stroke="none" 
	d="
M210.487366,137.975952 
	C210.545853,137.987259 210.746674,138.352783 210.812927,138.550476 
	C210.535889,138.812775 210.314407,138.677673 210.265320,138.134827 
	C210.315903,137.926773 210.428879,137.964630 210.487366,137.975952 
z"/>
<path fill="#DC0931" opacity="1.000000" stroke="none" 
	d="
M254.975632,121.980797 
	C254.951645,122.189606 254.959061,122.412033 254.912506,122.622513 
	C254.903824,122.661743 254.572937,122.678299 254.569199,122.662651 
	C254.522995,122.469429 254.509918,122.268272 254.748962,122.038857 
	C255.009613,122.008545 254.988373,121.990280 254.975632,121.980797 
z"/>
<path fill="#DD1137" opacity="1.000000" stroke="none" 
	d="
M108.872665,67.018356 
	C106.698723,63.969650 108.292526,62.557415 110.701721,62.137783 
	C112.515678,61.821827 114.484879,62.397198 116.384979,62.575806 
	C116.147331,64.028755 116.326141,66.428627 115.591560,66.751701 
	C113.627335,67.615578 111.521217,71.256363 108.872665,67.018356 
z"/>
<path fill="#DE183D" opacity="1.000000" stroke="none" 
	d="
M105.759598,50.334618 
	C107.768784,50.650181 109.410088,51.156780 111.051392,51.663383 
	C109.333984,53.848309 107.616577,56.033234 105.309044,58.968937 
	C103.588402,56.097828 102.699348,54.614326 101.551132,52.698387 
	C102.973732,51.893581 104.182716,51.209618 105.759598,50.334618 
z"/>
<path fill="#DE183D" opacity="1.000000" stroke="none" 
	d="
M241.687500,81.513466 
	C237.328415,85.890419 236.608032,85.717232 231.470047,79.022621 
	C233.174973,77.438568 234.938919,75.799683 237.489426,73.429977 
	C239.101547,76.308365 240.467651,78.747498 241.687500,81.513466 
z"/>
<path fill="#DF1D41" opacity="1.000000" stroke="none" 
	d="
M143.264008,47.485199 
	C143.664825,46.015972 143.965393,44.910732 144.524719,42.854012 
	C146.212280,46.494644 147.587784,49.462082 149.185532,52.908962 
	C146.774460,53.219681 144.730362,53.483105 142.072510,53.825623 
	C142.492920,51.523151 142.828339,49.686169 143.264008,47.485199 
z"/>
<path fill="#F8FAFC" opacity="1.000000" stroke="none" 
	d="
M189.103195,148.795807 
	C188.766815,148.699112 188.500031,148.350586 188.205444,147.693939 
	C188.509369,147.771866 188.841080,148.157913 189.103195,148.795807 
z"/>
<path fill="#086AB4" opacity="1.000000" stroke="none" 
	d="
M143.412109,161.519302 
	C143.102661,160.972290 143.070801,160.560028 143.065887,159.839386 
	C143.107956,147.351349 143.123093,135.171692 143.082489,122.531219 
	C144.249573,123.293167 145.679840,124.369720 146.661484,125.762474 
	C152.927185,134.652313 159.094147,143.611755 165.600098,152.644806 
	C165.929794,153.184143 165.953018,153.626953 165.956909,154.401642 
	C165.900635,167.102570 165.863678,179.471603 165.858673,192.289337 
	C160.326584,184.927139 154.765732,177.113998 149.196808,169.306610 
	C147.371826,166.748093 145.525986,164.204483 143.412109,161.519302 
z"/>
</svg>