<svg version="1.1" id="Layer_1" xmlns="http://www.w3.org/2000/svg" xmlns:xlink="http://www.w3.org/1999/xlink" x="0px" y="0px"
	 width="100%" viewBox="0 0 395 423" enable-background="new 0 0 395 423" xml:space="preserve">
<path fill="#FFFFFE" opacity="1.000000" stroke="none" 
	d="
M396.000000,154.000000 
	C396.000000,244.333328 396.000000,334.166656 396.000000,424.000000 
	C264.333344,424.000000 132.666672,424.000000 1.000000,424.000000 
	C1.000000,283.000000 1.000000,142.000000 1.000000,1.000000 
	C132.666672,1.000000 264.333344,1.000000 396.000000,1.000000 
	C396.000000,51.833332 396.000000,102.666664 396.000000,154.000000 
M116.666573,386.861115 
	C156.647812,405.199646 198.217941,409.802399 241.001465,399.856323 
	C323.903503,380.583740 384.172211,310.144012 389.692322,225.788452 
	C392.983978,175.486771 378.865662,130.136948 346.718292,91.103531 
	C309.079559,45.402504 260.108063,21.667658 201.039398,20.331934 
	C152.697296,19.238771 109.204109,34.371429 72.980904,66.551682 
	C14.335695,118.651360 -6.498794,184.192062 11.771837,260.186981 
	C25.761906,318.377319 62.220245,360.120911 116.666573,386.861115 
z"/>
<path fill="#F9DE05" opacity="1.000000" stroke="none" 
	d="
M116.320259,386.718567 
	C62.220245,360.120911 25.761906,318.377319 11.771837,260.186981 
	C-6.498794,184.192062 14.335695,118.651360 72.980904,66.551682 
	C109.204109,34.371429 152.697296,19.238771 201.039398,20.331934 
	C260.108063,21.667658 309.079559,45.402504 346.718292,91.103531 
	C378.865662,130.136948 392.983978,175.486771 389.692322,225.788452 
	C384.172211,310.144012 323.903503,380.583740 241.001465,399.856323 
	C198.217941,409.802399 156.647812,405.199646 116.320259,386.718567 
M79.452583,352.035309 
	C94.736931,365.191467 111.732712,375.586823 130.580200,382.712006 
	C185.474930,403.464569 239.201538,400.294647 289.697998,370.550446 
	C345.316925,337.788818 375.989868,288.066071 380.235504,223.349899 
	C383.763123,169.577316 366.245636,122.564095 328.358612,84.514885 
	C281.002869,36.956387 223.280289,20.188185 157.535843,33.909328 
	C78.673355,50.368263 18.378412,122.257545 15.142514,202.745560 
	C12.743585,262.415283 34.254963,312.006226 79.452583,352.035309 
z"/>
<path fill="#2A251F" opacity="1.000000" stroke="none" 
	d="
M79.162933,351.831635 
	C34.254963,312.006226 12.743585,262.415283 15.142514,202.745560 
	C18.378412,122.257545 78.673355,50.368263 157.535843,33.909328 
	C223.280289,20.188185 281.002869,36.956387 328.358612,84.514885 
	C366.245636,122.564095 383.763123,169.577316 380.235504,223.349899 
	C375.989868,288.066071 345.316925,337.788818 289.697998,370.550446 
	C239.201538,400.294647 185.474930,403.464569 130.580200,382.712006 
	C111.732712,375.586823 94.736931,365.191467 79.162933,351.831635 
M296.113373,70.356346 
	C248.065628,38.313599 196.318314,30.968801 141.659378,49.077412 
	C75.422653,71.021751 28.684622,132.938171 25.280556,202.395798 
	C22.463045,259.885193 43.168785,307.917633 87.037437,344.990845 
	C124.187820,376.386505 167.827255,389.188660 216.280975,384.142548 
	C259.661835,379.624725 296.269928,360.960785 325.538727,328.708862 
	C358.559204,292.322876 373.580780,249.093719 369.961670,200.210587 
	C365.937866,145.861496 340.862549,102.749931 296.113373,70.356346 
z"/>
<path fill="#FBDF00" opacity="1.000000" stroke="none" 
	d="
M296.402100,70.572296 
	C340.862549,102.749931 365.937866,145.861496 369.961670,200.210587 
	C373.580780,249.093719 358.559204,292.322876 325.538727,328.708862 
	C296.269928,360.960785 259.661835,379.624725 216.280975,384.142548 
	C167.827255,389.188660 124.187820,376.386505 87.037437,344.990845 
	C43.168785,307.917633 22.463045,259.885193 25.280556,202.395798 
	C28.684622,132.938171 75.422653,71.021751 141.659378,49.077412 
	C196.318314,30.968801 248.065628,38.313599 296.402100,70.572296 
M335.225708,219.366470 
	C334.791534,218.658447 334.478638,217.826859 333.903625,217.262299 
	C329.926361,213.357544 330.018524,210.292770 333.375519,205.176727 
	C348.251526,182.505997 339.485626,150.859421 311.781586,141.385925 
	C302.121338,138.082581 292.338593,139.343887 282.580627,139.112152 
	C273.306213,138.891891 264.022400,139.064743 254.573975,139.064743 
	C254.573975,187.161240 254.573975,234.693207 254.573975,282.416809 
	C271.045105,282.416809 287.165558,282.465485 303.285065,282.365112 
	C305.745728,282.349823 308.265533,281.877167 310.650665,281.224091 
	C336.762177,274.074219 348.665009,243.169846 335.225708,219.366470 
M99.497147,282.703278 
	C103.993462,282.700592 108.492226,282.794006 112.985672,282.679199 
	C136.878067,282.068756 154.485138,263.660400 154.180405,239.719482 
	C154.040771,228.747803 149.614716,219.475586 142.916214,211.439865 
	C143.047852,210.877090 143.041534,210.686218 143.129654,210.562759 
	C143.708923,209.751190 144.328903,208.968323 144.898544,208.150284 
	C155.066483,193.548309 157.232300,177.923477 149.081314,161.964569 
	C140.969299,146.082001 126.958977,139.172836 109.400436,139.078156 
	C98.909393,139.021576 88.417793,139.067764 77.926445,139.067764 
	C74.662003,139.067764 71.397560,139.067764 68.217056,139.067764 
	C68.217056,187.296585 68.217056,234.818085 68.217056,282.703094 
	C78.565186,282.703094 88.531647,282.703094 99.497147,282.703278 
M221.008438,171.542450 
	C232.015686,137.107300 243.022949,102.672150 254.219574,67.644592 
	C245.021622,67.644592 236.712280,67.515060 228.416473,67.791565 
	C227.242813,67.830688 225.487167,69.655037 225.093185,70.978302 
	C218.257370,93.937271 211.608826,116.951912 204.881470,139.943298 
	C202.632233,147.630249 200.277084,155.286209 197.590057,164.220810 
	C196.714844,161.397232 196.252319,159.985931 195.839188,158.560303 
	C187.365097,129.319275 178.913513,100.071663 170.366531,70.851967 
	C170.017334,69.658150 168.803192,67.827934 167.954193,67.806686 
	C159.033310,67.583427 150.104706,67.668701 140.767365,67.668701 
	C141.299866,69.635803 141.589722,70.913582 141.990234,72.155670 
	C150.005905,97.014008 158.030380,121.869514 166.061478,146.722885 
	C172.761871,167.458160 179.418793,188.207962 186.285202,208.888168 
	C186.819244,210.496536 188.774002,212.654343 190.205994,212.764236 
	C195.985336,213.207748 201.818634,212.948105 207.873169,212.948105 
	C212.231628,199.235916 216.510788,185.773209 221.008438,171.542450 
M203.972610,306.724152 
	C203.418228,314.360046 204.806290,321.351288 210.750809,326.777863 
	C216.777802,332.279694 223.862946,334.094147 232.304016,332.114899 
	C232.304016,334.673096 232.363846,336.651276 232.291519,338.624573 
	C232.142761,342.682709 230.135056,345.507202 226.003647,345.575500 
	C222.271744,345.637207 219.295654,344.131500 218.879227,339.528931 
	C218.759338,338.203979 217.045654,336.100311 215.873657,335.962585 
	C212.010223,335.508667 208.060181,335.791626 204.203659,335.791626 
	C203.452820,349.412811 212.026703,359.081329 224.805893,359.847687 
	C237.014725,360.579865 246.250397,351.681030 246.607086,338.365112 
	C246.888031,327.876740 246.873825,317.369659 246.611771,306.880402 
	C246.308472,294.739807 238.179306,286.293457 226.911789,285.877502 
	C214.201050,285.408203 205.333908,293.116669 203.972610,306.724152 
M148.283264,334.378174 
	C148.285095,335.543762 148.261307,336.710022 148.292694,337.874817 
	C148.638657,350.714996 157.804626,360.022339 169.952347,359.878357 
	C182.141388,359.733887 190.935272,350.382080 190.999237,337.406250 
	C191.048492,327.416016 191.216934,317.418579 190.894302,307.438507 
	C190.779694,303.893463 190.041489,300.044189 188.429993,296.933685 
	C183.854172,288.101532 174.322083,284.105957 164.763931,286.330322 
	C155.096207,288.580231 148.640930,296.445923 148.344482,306.935638 
	C148.095291,315.753601 148.286880,324.584045 148.283264,334.378174 
z"/>
<path fill="#262220" opacity="1.000000" stroke="none" 
	d="
M335.396240,219.696930 
	C348.665009,243.169846 336.762177,274.074219 310.650665,281.224091 
	C308.265533,281.877167 305.745728,282.349823 303.285065,282.365112 
	C287.165558,282.465485 271.045105,282.416809 254.573975,282.416809 
	C254.573975,234.693207 254.573975,187.161240 254.573975,139.064743 
	C264.022400,139.064743 273.306213,138.891891 282.580627,139.112152 
	C292.338593,139.343887 302.121338,138.082581 311.781586,141.385925 
	C339.485626,150.859421 348.251526,182.505997 333.375519,205.176727 
	C330.018524,210.292770 329.926361,213.357544 333.903625,217.262299 
	C334.478638,217.826859 334.791534,218.658447 335.396240,219.696930 
M308.718292,254.415787 
	C309.681580,253.502747 310.759399,252.682907 311.590271,251.662094 
	C319.025818,242.526672 314.096527,225.674149 303.119141,224.158401 
	C296.009735,223.176743 288.654694,223.973724 281.348511,223.973724 
	C281.348511,235.227280 281.348511,246.092575 281.348511,257.246368 
	C286.181580,257.246368 290.685638,257.558441 295.125366,257.157684 
	C299.480743,256.764526 303.770721,255.646484 308.718292,254.415787 
M304.574615,197.733307 
	C315.154785,194.854095 318.663574,179.175156 311.300385,170.265823 
	C309.733612,168.370087 307.025635,166.445694 304.731415,166.300125 
	C296.992523,165.809113 289.203186,166.113159 281.391357,166.113159 
	C281.391357,176.938110 281.391357,187.299789 281.391357,197.867416 
	C289.108002,197.867416 296.420746,197.867416 304.574615,197.733307 
z"/>
<path fill="#252120" opacity="1.000000" stroke="none" 
	d="
M98.997627,282.703186 
	C88.531647,282.703094 78.565186,282.703094 68.217056,282.703094 
	C68.217056,234.818085 68.217056,187.296585 68.217056,139.067764 
	C71.397560,139.067764 74.662003,139.067764 77.926445,139.067764 
	C88.417793,139.067764 98.909393,139.021576 109.400436,139.078156 
	C126.958977,139.172836 140.969299,146.082001 149.081314,161.964569 
	C157.232300,177.923477 155.066483,193.548309 144.898544,208.150284 
	C144.328903,208.968323 143.708923,209.751190 143.129654,210.562759 
	C143.041534,210.686218 143.047852,210.877090 142.916214,211.439865 
	C149.614716,219.475586 154.040771,228.747803 154.180405,239.719482 
	C154.485138,263.660400 136.878067,282.068756 112.985672,282.679199 
	C108.492226,282.794006 103.993462,282.700592 98.997627,282.703186 
M94.114906,245.480743 
	C94.114906,249.254303 94.114906,253.027878 94.114906,257.093384 
	C101.817535,257.093384 108.968559,257.553406 116.032265,256.965088 
	C123.212868,256.367004 128.352448,249.184677 128.342545,241.105515 
	C128.332031,232.542023 123.039124,224.634552 116.002670,224.037979 
	C108.945290,223.439636 101.797592,223.906509 94.114960,223.906509 
	C94.114960,230.950012 94.114960,237.718857 94.114906,245.480743 
M125.063019,170.574188 
	C123.064117,169.159225 121.128754,166.643005 119.055122,166.523376 
	C110.861046,166.050613 102.623611,166.329315 94.420959,166.329315 
	C94.420959,177.003586 94.420959,187.235229 94.420959,197.927597 
	C101.174149,197.927597 107.628586,197.755890 114.069550,197.976868 
	C120.262062,198.189331 124.207130,195.085358 126.577560,189.861877 
	C129.438278,183.557983 129.005325,177.252777 125.063019,170.574188 
z"/>
<path fill="#262120" opacity="1.000000" stroke="none" 
	d="
M220.899200,171.926483 
	C216.510788,185.773209 212.231628,199.235916 207.873169,212.948105 
	C201.818634,212.948105 195.985336,213.207748 190.205994,212.764236 
	C188.774002,212.654343 186.819244,210.496536 186.285202,208.888168 
	C179.418793,188.207962 172.761871,167.458160 166.061478,146.722885 
	C158.030380,121.869514 150.005905,97.014008 141.990234,72.155670 
	C141.589722,70.913582 141.299866,69.635803 140.767365,67.668701 
	C150.104706,67.668701 159.033310,67.583427 167.954193,67.806686 
	C168.803192,67.827934 170.017334,69.658150 170.366531,70.851967 
	C178.913513,100.071663 187.365097,129.319275 195.839188,158.560303 
	C196.252319,159.985931 196.714844,161.397232 197.590057,164.220810 
	C200.277084,155.286209 202.632233,147.630249 204.881470,139.943298 
	C211.608826,116.951912 218.257370,93.937271 225.093185,70.978302 
	C225.487167,69.655037 227.242813,67.830688 228.416473,67.791565 
	C236.712280,67.515060 245.021622,67.644592 254.219574,67.644592 
	C243.022949,102.672150 232.015686,137.107300 220.899200,171.926483 
z"/>
<path fill="#29241F" opacity="1.000000" stroke="none" 
	d="
M203.976288,306.268494 
	C205.333908,293.116669 214.201050,285.408203 226.911789,285.877502 
	C238.179306,286.293457 246.308472,294.739807 246.611771,306.880402 
	C246.873825,317.369659 246.888031,327.876740 246.607086,338.365112 
	C246.250397,351.681030 237.014725,360.579865 224.805893,359.847687 
	C212.026703,359.081329 203.452820,349.412811 204.203659,335.791626 
	C208.060181,335.791626 212.010223,335.508667 215.873657,335.962585 
	C217.045654,336.100311 218.759338,338.203979 218.879227,339.528931 
	C219.295654,344.131500 222.271744,345.637207 226.003647,345.575500 
	C230.135056,345.507202 232.142761,342.682709 232.291519,338.624573 
	C232.363846,336.651276 232.304016,334.673096 232.304016,332.114899 
	C223.862946,334.094147 216.777802,332.279694 210.750809,326.777863 
	C204.806290,321.351288 203.418228,314.360046 203.976288,306.268494 
M231.233002,303.672272 
	C228.814087,300.552979 225.710495,300.105774 222.389664,301.798828 
	C218.061844,304.005249 218.858109,308.204346 219.114075,311.915863 
	C219.385330,315.849274 222.068970,317.817902 225.821609,317.848785 
	C229.700806,317.880676 232.081924,315.689331 232.254700,311.754822 
	C232.362091,309.309265 231.907135,306.838989 231.233002,303.672272 
z"/>
<path fill="#29241F" opacity="1.000000" stroke="none" 
	d="
M148.283295,333.893555 
	C148.286880,324.584045 148.095291,315.753601 148.344482,306.935638 
	C148.640930,296.445923 155.096207,288.580231 164.763931,286.330322 
	C174.322083,284.105957 183.854172,288.101532 188.429993,296.933685 
	C190.041489,300.044189 190.779694,303.893463 190.894302,307.438507 
	C191.216934,317.418579 191.048492,327.416016 190.999237,337.406250 
	C190.935272,350.382080 182.141388,359.733887 169.952347,359.878357 
	C157.804626,360.022339 148.638657,350.714996 148.292694,337.874817 
	C148.261307,336.710022 148.285095,335.543762 148.283295,333.893555 
M165.950211,344.519745 
	C172.357376,346.880920 176.207077,344.534119 176.292603,337.958496 
	C176.417953,328.318787 176.377853,318.675812 176.305664,309.035004 
	C176.265457,303.667877 173.939911,301.056061 169.526489,301.075500 
	C165.334976,301.093933 163.031525,303.920258 163.005524,309.303040 
	C162.959747,318.777954 162.854568,328.256836 163.101257,337.725555 
	C163.156387,339.840942 164.563522,341.921173 165.950211,344.519745 
z"/>
<path fill="#FBDF00" opacity="1.000000" stroke="none" 
	d="
M308.403839,254.631165 
	C303.770721,255.646484 299.480743,256.764526 295.125366,257.157684 
	C290.685638,257.558441 286.181580,257.246368 281.348511,257.246368 
	C281.348511,246.092575 281.348511,235.227280 281.348511,223.973724 
	C288.654694,223.973724 296.009735,223.176743 303.119141,224.158401 
	C314.096527,225.674149 319.025818,242.526672 311.590271,251.662094 
	C310.759399,252.682907 309.681580,253.502747 308.403839,254.631165 
z"/>
<path fill="#F9DE01" opacity="1.000000" stroke="none" 
	d="
M304.154053,197.800354 
	C296.420746,197.867416 289.108002,197.867416 281.391357,197.867416 
	C281.391357,187.299789 281.391357,176.938110 281.391357,166.113159 
	C289.203186,166.113159 296.992523,165.809113 304.731415,166.300125 
	C307.025635,166.445694 309.733612,168.370087 311.300385,170.265823 
	C318.663574,179.175156 315.154785,194.854095 304.154053,197.800354 
z"/>
<path fill="#FADE00" opacity="1.000000" stroke="none" 
	d="
M94.114929,244.984222 
	C94.114960,237.718857 94.114960,230.950012 94.114960,223.906509 
	C101.797592,223.906509 108.945290,223.439636 116.002670,224.037979 
	C123.039124,224.634552 128.332031,232.542023 128.342545,241.105515 
	C128.352448,249.184677 123.212868,256.367004 116.032265,256.965088 
	C108.968559,257.553406 101.817535,257.093384 94.114906,257.093384 
	C94.114906,253.027878 94.114906,249.254303 94.114929,244.984222 
z"/>
<path fill="#F9DD01" opacity="1.000000" stroke="none" 
	d="
M125.259384,170.904373 
	C129.005325,177.252777 129.438278,183.557983 126.577560,189.861877 
	C124.207130,195.085358 120.262062,198.189331 114.069550,197.976868 
	C107.628586,197.755890 101.174149,197.927597 94.420959,197.927597 
	C94.420959,187.235229 94.420959,177.003586 94.420959,166.329315 
	C102.623611,166.329315 110.861046,166.050613 119.055122,166.523376 
	C121.128754,166.643005 123.064117,169.159225 125.259384,170.904373 
z"/>
<path fill="#F5DA01" opacity="1.000000" stroke="none" 
	d="
M231.468781,304.026062 
	C231.907135,306.838989 232.362091,309.309265 232.254700,311.754822 
	C232.081924,315.689331 229.700806,317.880676 225.821609,317.848785 
	C222.068970,317.817902 219.385330,315.849274 219.114075,311.915863 
	C218.858109,308.204346 218.061844,304.005249 222.389664,301.798828 
	C225.710495,300.105774 228.814087,300.552979 231.468781,304.026062 
z"/>
<path fill="#F9DD01" opacity="1.000000" stroke="none" 
	d="
M165.649200,344.268677 
	C164.563522,341.921173 163.156387,339.840942 163.101257,337.725555 
	C162.854568,328.256836 162.959747,318.777954 163.005524,309.303040 
	C163.031525,303.920258 165.334976,301.093933 169.526489,301.075500 
	C173.939911,301.056061 176.265457,303.667877 176.305664,309.035004 
	C176.377853,318.675812 176.417953,328.318787 176.292603,337.958496 
	C176.207077,344.534119 172.357376,346.880920 165.649200,344.268677 
z"/>
</svg>