<svg version="1.1" id="Layer_1" xmlns="http://www.w3.org/2000/svg" xmlns:xlink="http://www.w3.org/1999/xlink" x="0px" y="0px"
	 width="100%" viewBox="0 0 294 313" enable-background="new 0 0 294 313" xml:space="preserve">
<path fill="#FDFDFD" opacity="1.000000" stroke="none" 
	d="
M295.000000,109.000000 
	C295.000000,177.666656 295.000000,245.833313 295.000000,314.000000 
	C197.000031,314.000000 99.000061,314.000000 1.000067,314.000000 
	C1.000045,209.666718 1.000045,105.333427 1.000022,1.000109 
	C98.999939,1.000073 196.999878,1.000073 294.999908,1.000036 
	C295.000000,36.833332 295.000000,72.666664 295.000000,109.000000 
M168.481110,24.115900 
	C159.968933,25.197666 151.443497,27.252960 142.947647,27.137068 
	C129.613525,26.955177 117.981445,20.961861 106.991394,13.722244 
	C105.736794,12.895785 103.164124,12.609848 101.988922,13.339590 
	C80.101349,26.930647 56.985275,29.382664 32.550228,21.674423 
	C31.295210,21.278517 28.956997,21.888479 28.162996,22.870726 
	C24.307032,27.640898 20.805883,32.697887 17.113184,37.743317 
	C19.007446,40.608284 20.920311,43.320778 22.649128,46.145905 
	C32.671333,62.523590 37.955040,80.025452 34.949959,99.403717 
	C32.274761,116.654701 24.146355,131.382141 13.570066,144.927338 
	C10.628630,148.694458 7.490620,152.308075 3.826338,156.737259 
	C7.820674,160.412720 11.819649,163.706451 15.301825,167.477402 
	C16.796270,169.095779 17.800350,171.647461 18.022676,173.875336 
	C18.897726,182.643997 18.761597,191.547272 20.106247,200.229370 
	C25.185637,233.025803 41.951439,257.556732 72.315079,272.105164 
	C87.484360,279.373352 103.621063,282.947327 120.190605,285.176758 
	C123.900955,285.675964 127.794670,287.302979 130.876297,289.453522 
	C136.853516,293.624725 142.314178,298.536163 148.214462,303.323914 
	C154.650665,298.066376 160.863174,292.825623 167.285370,287.855896 
	C169.003983,286.526001 171.286575,285.615723 173.441147,285.212860 
	C181.928421,283.625946 190.642914,282.981049 198.956177,280.786194 
	C227.767044,273.179626 251.383118,258.161316 265.801788,231.147079 
	C275.272217,213.403671 278.358002,194.164948 278.257629,174.231506 
	C278.245972,171.924088 279.453552,169.131638 281.017578,167.393448 
	C284.423767,163.607986 288.424591,160.357574 292.311005,156.769775 
	C259.088623,119.576912 247.638779,80.948174 279.095062,37.762703 
	C274.993286,32.062256 270.948486,26.440971 266.944977,20.877083 
	C241.227600,29.454454 217.108856,27.394775 194.265366,13.132560 
	C193.193909,12.463599 190.957489,12.897112 189.618820,13.547877 
	C182.766266,16.879086 176.030304,20.450148 168.481110,24.115900 
z"/>
<path fill="#0A0905" opacity="1.000000" stroke="none" 
	d="
M168.867340,24.026630 
	C176.030304,20.450148 182.766266,16.879086 189.618820,13.547877 
	C190.957489,12.897112 193.193909,12.463599 194.265366,13.132560 
	C217.108856,27.394775 241.227600,29.454454 266.944977,20.877083 
	C270.948486,26.440971 274.993286,32.062256 279.095062,37.762703 
	C247.638779,80.948174 259.088623,119.576912 292.311005,156.769775 
	C288.424591,160.357574 284.423767,163.607986 281.017578,167.393448 
	C279.453552,169.131638 278.245972,171.924088 278.257629,174.231506 
	C278.358002,194.164948 275.272217,213.403671 265.801788,231.147079 
	C251.383118,258.161316 227.767044,273.179626 198.956177,280.786194 
	C190.642914,282.981049 181.928421,283.625946 173.441147,285.212860 
	C171.286575,285.615723 169.003983,286.526001 167.285370,287.855896 
	C160.863174,292.825623 154.650665,298.066376 148.214462,303.323914 
	C142.314178,298.536163 136.853516,293.624725 130.876297,289.453522 
	C127.794670,287.302979 123.900955,285.675964 120.190605,285.176758 
	C103.621063,282.947327 87.484360,279.373352 72.315079,272.105164 
	C41.951439,257.556732 25.185637,233.025803 20.106247,200.229370 
	C18.761597,191.547272 18.897726,182.643997 18.022676,173.875336 
	C17.800350,171.647461 16.796270,169.095779 15.301825,167.477402 
	C11.819649,163.706451 7.820674,160.412720 3.826338,156.737259 
	C7.490620,152.308075 10.628630,148.694458 13.570066,144.927338 
	C24.146355,131.382141 32.274761,116.654701 34.949959,99.403717 
	C37.955040,80.025452 32.671333,62.523590 22.649128,46.145905 
	C20.920311,43.320778 19.007446,40.608284 17.113184,37.743317 
	C20.805883,32.697887 24.307032,27.640898 28.162996,22.870726 
	C28.956997,21.888479 31.295210,21.278517 32.550228,21.674423 
	C56.985275,29.382664 80.101349,26.930647 101.988922,13.339590 
	C103.164124,12.609848 105.736794,12.895785 106.991394,13.722244 
	C117.981445,20.961861 129.613525,26.955177 142.947647,27.137068 
	C151.443497,27.252960 159.968933,25.197666 168.867340,24.026630 
M156.436737,288.954163 
	C157.703598,287.871887 159.093948,286.903442 160.215149,285.686920 
	C164.254059,281.304657 169.129318,279.506348 175.138397,279.138611 
	C182.074158,278.714111 189.038422,277.529144 195.815353,275.932037 
	C243.252899,264.752289 271.729034,230.649826 271.571777,183.704758 
	C271.534607,172.602661 273.075531,163.692551 282.237915,156.998016 
	C282.442261,156.848724 282.459167,156.442902 282.522675,156.268677 
	C278.557526,150.829208 274.286224,145.677765 270.784088,140.047836 
	C251.472931,109.003700 248.406860,77.233704 267.229767,44.740978 
	C271.643982,37.121006 271.844879,37.118824 266.283875,30.560688 
	C265.413971,29.534821 263.314880,28.893700 261.922241,29.084167 
	C256.332245,29.848692 250.835037,31.484289 245.233826,31.938738 
	C226.317078,33.473526 208.459091,30.024490 192.474792,19.360544 
	C162.699829,39.041843 133.148529,39.195675 104.073669,19.233852 
	C81.309341,33.453716 57.421829,35.614922 32.167713,28.445070 
	C30.973913,29.948074 29.717726,31.489851 28.506315,33.066044 
	C27.306330,34.627373 26.151501,36.223400 25.021254,37.744473 
	C53.257992,80.594406 43.959084,119.562065 13.231491,156.416473 
	C16.498913,159.855423 19.752245,162.981354 22.609701,166.434830 
	C23.741678,167.802917 24.476391,169.875687 24.561893,171.667221 
	C24.894865,178.643936 24.402515,185.686295 25.102417,192.614807 
	C28.496408,226.212860 44.280136,251.669418 75.019714,266.945770 
	C90.909737,274.842499 107.996155,278.162811 125.496681,279.950806 
	C127.922501,280.198639 130.536423,281.363403 132.500076,282.848358 
	C137.912308,286.941345 143.025711,291.429474 148.296906,295.794098 
	C151.054749,293.479736 153.475220,291.448486 156.436737,288.954163 
z"/>
<path fill="#E8B600" opacity="1.000000" stroke="none" 
	d="
M156.166214,289.185699 
	C153.475220,291.448486 151.054749,293.479736 148.296906,295.794098 
	C143.025711,291.429474 137.912308,286.941345 132.500076,282.848358 
	C130.536423,281.363403 127.922501,280.198639 125.496681,279.950806 
	C107.996155,278.162811 90.909737,274.842499 75.019714,266.945770 
	C44.280136,251.669418 28.496408,226.212860 25.102417,192.614807 
	C24.402515,185.686295 24.894865,178.643936 24.561893,171.667221 
	C24.476391,169.875687 23.741678,167.802917 22.609701,166.434830 
	C19.752245,162.981354 16.498913,159.855423 13.231491,156.416473 
	C43.959084,119.562065 53.257992,80.594406 25.021254,37.744473 
	C26.151501,36.223400 27.306330,34.627373 28.506315,33.066044 
	C29.717726,31.489851 30.973913,29.948074 32.167713,28.445070 
	C57.421829,35.614922 81.309341,33.453716 104.073669,19.233852 
	C133.148529,39.195675 162.699829,39.041843 192.474792,19.360544 
	C208.459091,30.024490 226.317078,33.473526 245.233826,31.938738 
	C250.835037,31.484289 256.332245,29.848692 261.922241,29.084167 
	C263.314880,28.893700 265.413971,29.534821 266.283875,30.560688 
	C271.844879,37.118824 271.643982,37.121006 267.229767,44.740978 
	C248.406860,77.233704 251.472931,109.003700 270.784088,140.047836 
	C274.286224,145.677765 278.557526,150.829208 282.522675,156.268677 
	C282.459167,156.442902 282.442261,156.848724 282.237915,156.998016 
	C273.075531,163.692551 271.534607,172.602661 271.571777,183.704758 
	C271.729034,230.649826 243.252899,264.752289 195.815353,275.932037 
	C189.038422,277.529144 182.074158,278.714111 175.138397,279.138611 
	C169.129318,279.506348 164.254059,281.304657 160.215149,285.686920 
	C159.093948,286.903442 157.703598,287.871887 156.166214,289.185699 
M50.998856,233.999283 
	C50.998856,233.999283 50.949860,234.040146 50.926540,234.728821 
	C52.203480,235.837906 53.480419,236.946976 55.087696,238.654922 
	C58.361458,241.475922 61.635220,244.296936 64.989159,247.811401 
	C69.248367,250.578873 73.507576,253.346344 78.245659,256.640198 
	C82.956886,258.446869 87.668106,260.253540 93.069260,262.261932 
	C95.051804,262.806610 97.034348,263.351257 99.843971,263.960693 
	C107.566589,265.361542 115.289207,266.762390 123.499153,268.860382 
	C139.330826,268.853088 155.162506,268.845795 171.852768,268.960785 
	C181.234406,267.015167 190.616043,265.069550 200.479492,262.969360 
	C200.859375,262.647095 201.239273,262.324799 202.519302,262.037567 
	C208.705612,259.387634 214.891922,256.737701 221.711823,253.824127 
	C224.828064,251.629150 227.944290,249.434189 231.686661,246.928329 
	C237.157425,240.793243 242.628174,234.658142 248.722900,228.419693 
	C252.155029,220.838562 255.855759,213.362411 258.880737,205.622162 
	C260.014160,202.721909 259.575439,199.207245 259.976044,195.313354 
	C260.258759,194.271240 260.541443,193.229126 261.247101,191.444977 
	C261.369965,186.267181 261.492828,181.089386 261.689850,175.097137 
	C261.474762,173.126129 261.259674,171.155121 260.995697,168.735977 
	C259.150360,168.735977 257.514160,168.735992 255.877960,168.735992 
	C184.238770,168.735947 112.599571,168.732941 40.960381,168.754440 
	C39.319798,168.754929 37.679298,169.032349 35.375290,169.665253 
	C35.535206,178.115601 35.695122,186.565964 35.980659,195.870468 
	C36.660133,199.957016 37.339607,204.043579 38.152256,208.735611 
	C41.425129,215.836502 44.698006,222.937393 47.999439,229.999084 
	C47.999439,229.999084 47.957069,230.022873 47.945137,230.694733 
	C48.948559,231.811508 49.951977,232.928284 50.998856,233.999283 
M96.275650,35.502525 
	C94.334648,36.335743 92.393654,37.168964 89.958382,38.461304 
	C87.633980,39.351292 85.309586,40.241276 82.212433,41.016026 
	C81.432877,40.996632 80.653328,40.977238 79.440788,40.697243 
	C78.865395,40.993961 78.296631,41.534977 77.713615,41.550808 
	C68.790253,41.793091 59.865021,41.966846 50.083611,42.051105 
	C46.397926,41.709049 42.712246,41.366993 37.772903,40.908588 
	C39.949657,44.033699 41.413872,46.135834 43.342026,48.794762 
	C45.613361,55.531750 47.884693,62.268734 50.321491,69.781570 
	C50.529129,71.334396 50.736771,72.887222 50.590672,74.940163 
	C50.731365,76.738922 50.955883,78.535728 50.997868,80.336784 
	C51.157646,87.191025 51.258488,94.046623 51.095852,101.750313 
	C50.514923,110.964630 47.672672,119.553917 43.258823,128.135361 
	C42.236687,132.897415 46.090508,130.517700 47.373966,130.521317 
	C114.146141,130.709610 180.918747,130.743668 247.691315,130.780243 
	C249.441208,130.781204 251.191177,130.629608 252.941116,130.549149 
	C253.191315,130.118530 253.441498,129.687927 253.691696,129.257309 
	C252.475220,128.176300 251.258759,127.095299 249.977173,125.345604 
	C247.855453,117.651817 245.442749,110.022583 243.716614,102.241043 
	C242.607803,97.242462 241.696732,91.947067 242.146484,86.914253 
	C242.842606,79.124878 244.359421,71.338226 246.319000,63.754757 
	C247.885742,57.691658 250.629974,51.932827 253.605682,46.166275 
	C254.828293,44.872478 256.050903,43.578682 257.529663,42.013844 
	C246.883698,42.013844 237.157486,41.998608 227.431686,42.056240 
	C226.913757,42.059303 226.399460,42.677074 225.072449,42.998249 
	C224.262009,42.960804 223.451584,42.923363 222.145889,42.422623 
	C216.924393,40.964352 211.711884,39.472782 206.477814,38.061111 
	C203.635757,37.294590 200.757050,36.664036 197.437241,35.998188 
	C197.437241,35.998188 196.981400,35.949955 197.023666,35.202713 
	C195.208191,34.121403 192.878311,31.719969 191.667953,32.191597 
	C186.904205,34.047867 182.492569,36.807777 177.966888,39.850979 
	C177.341660,40.233612 176.716446,40.616241 175.817017,40.247475 
	C168.592926,41.803825 161.368820,43.360180 153.431030,44.961914 
	C152.016968,45.641109 150.602890,46.320305 149.065323,46.421288 
	C148.409775,46.244400 147.754242,46.067513 146.505554,45.282444 
	C135.875381,45.523888 125.765495,43.184418 115.494125,38.837906 
	C115.006058,38.518864 114.517990,38.199821 113.803825,37.235252 
	C111.933769,36.204460 109.930107,35.356586 108.219620,34.107315 
	C103.745636,30.839676 100.209152,32.408806 96.993782,35.989101 
	C96.993782,35.989101 96.995529,35.920250 96.275650,35.502525 
M171.691544,149.500458 
	C171.691544,154.262955 171.691544,159.025467 171.691544,164.081894 
	C177.473740,164.081894 182.620682,164.413147 187.706055,163.995132 
	C193.600388,163.510620 197.254944,156.309082 194.280777,151.191467 
	C193.102020,149.163223 192.730606,147.817398 193.696060,145.475967 
	C195.694550,140.629166 192.819580,135.634949 187.624924,135.126160 
	C182.419281,134.616287 177.124710,135.014145 171.686935,135.014145 
	C171.686935,139.880524 171.686935,144.191757 171.691544,149.500458 
M147.996124,134.894089 
	C139.219406,134.214005 134.696594,137.546265 133.165451,145.820847 
	C131.511124,154.761154 135.348877,162.315048 142.556900,164.306122 
	C148.792236,166.028534 153.607330,163.647797 156.129684,157.384064 
	C154.629807,156.521774 153.095901,155.639923 151.507385,154.726669 
	C148.393661,158.150955 145.157700,159.508606 141.523575,155.989944 
	C138.573090,153.133224 138.175491,146.049088 140.903259,143.066101 
	C144.629181,138.991577 148.266327,140.984711 151.718948,143.765686 
	C153.377304,142.782257 154.863800,141.900742 157.586655,140.286026 
	C153.997498,138.127670 151.413605,136.573822 147.996124,134.894089 
M100.248024,147.513626 
	C100.248024,152.805252 100.248024,158.096863 100.248024,163.614059 
	C102.450058,163.614059 104.157890,163.614059 106.456459,163.614059 
	C106.456459,159.602707 106.456459,155.885590 106.456459,152.132599 
	C109.627914,151.966583 112.210434,151.831390 114.709991,151.700546 
	C114.709991,149.557510 114.709991,147.941833 114.709991,146.365234 
	C106.077095,145.070282 106.077095,145.070282 107.231720,140.819717 
	C111.700150,140.819717 116.289009,140.819717 121.099449,140.819717 
	C120.987274,138.622299 120.898514,136.883591 120.816536,135.277878 
	C113.775398,135.277878 107.204338,135.277878 100.248222,135.277878 
	C100.248222,139.258926 100.248222,142.891113 100.248024,147.513626 
z"/>
<path fill="#DA0130" opacity="1.000000" stroke="none" 
	d="
M50.944412,74.440048 
	C50.736771,72.887222 50.529129,71.334396 50.694206,69.407242 
	C61.628525,69.032913 72.190125,69.032913 82.985184,69.032913 
	C82.985184,59.351101 82.985184,50.241180 82.985184,41.131260 
	C85.309586,40.241276 87.633980,39.351292 90.634140,38.244488 
	C93.205109,37.325199 95.100319,36.622726 96.995529,35.920250 
	C96.995529,35.920250 96.993782,35.989101 97.350342,36.013973 
	C102.195213,33.341423 106.262001,34.680889 110.336319,37.163223 
	C111.340500,37.775036 112.786842,37.661087 114.029922,37.880775 
	C114.517990,38.199821 115.006058,38.518864 115.549362,39.351906 
	C115.604599,49.504559 115.604599,59.143208 115.604599,69.059418 
	C125.970680,69.059418 136.394424,69.059418 146.889923,69.516495 
	C146.927933,80.319794 146.894180,90.666023 146.402191,101.010544 
	C135.733994,101.008835 125.524002,101.008835 114.955276,101.008835 
	C114.955276,110.568512 114.955276,119.632645 114.493698,128.757980 
	C103.690956,128.771744 93.349792,128.724289 83.006134,128.228455 
	C83.003639,118.909813 83.003639,110.039574 83.003639,100.806740 
	C72.233093,100.806740 62.143215,100.806740 52.169788,100.421906 
	C52.473392,92.598228 52.741077,85.159592 52.759228,77.720345 
	C52.761894,76.628387 51.578842,75.533554 50.944412,74.440048 
z"/>
<path fill="#A40043" opacity="1.000000" stroke="none" 
	d="
M201.619171,262.002502 
	C201.239273,262.324799 200.859375,262.647095 199.872955,262.990723 
	C198.532013,262.925812 197.797607,262.839539 197.044037,262.307434 
	C197.020264,231.343277 197.015625,200.824966 197.473114,170.233276 
	C208.619339,170.205917 219.303421,170.251923 229.986847,170.747925 
	C229.987045,194.677017 229.963669,218.156189 230.035202,241.635086 
	C230.040894,243.504150 230.703308,245.371216 231.060532,247.239212 
	C227.944290,249.434189 224.828064,251.629150 221.015656,253.908447 
	C214.086060,256.662689 207.852615,259.332611 201.619171,262.002502 
z"/>
<path fill="#A30044" opacity="1.000000" stroke="none" 
	d="
M99.016891,263.895935 
	C97.034348,263.351257 95.051804,262.806610 92.568298,261.810486 
	C87.698387,259.282318 83.329445,257.205597 78.660919,254.952057 
	C74.239082,252.149475 70.116821,249.523697 66.037170,246.437225 
	C66.096001,220.748276 66.112206,195.520020 66.583023,170.228149 
	C77.716377,170.208740 88.395126,170.252914 99.076019,170.747086 
	C99.057747,202.096695 99.037315,232.996323 99.016891,263.895935 
z"/>
<path fill="#024B96" opacity="1.000000" stroke="none" 
	d="
M99.430435,263.928314 
	C99.037315,232.996323 99.057747,202.096695 99.533218,170.673859 
	C110.623543,170.198792 121.258820,170.246964 131.898895,170.737366 
	C131.943008,177.746155 131.982330,184.312744 131.903015,191.122559 
	C131.716690,191.532806 131.648987,191.699829 131.267502,191.943863 
	C129.321655,193.719269 127.689583,195.417648 126.030205,197.073257 
	C126.002907,197.030487 126.096741,197.069183 125.802849,197.079590 
	C125.365463,197.429245 125.221962,197.768463 125.055817,198.059952 
	C125.033173,198.012207 125.127983,198.058899 124.778465,198.115555 
	C120.185616,203.420441 116.676201,208.930450 118.003784,216.570816 
	C118.054474,218.315109 118.111549,219.656616 118.108368,221.350006 
	C118.463234,222.772324 118.878380,223.842743 119.166840,225.247513 
	C119.043205,226.058456 119.046249,226.535034 119.118332,227.331970 
	C119.824455,228.796524 120.461540,229.940720 121.126556,231.326630 
	C121.347694,231.870773 121.623604,232.015518 121.983139,232.178192 
	C121.984062,232.353775 122.019218,232.703156 121.791222,232.903870 
	C122.054855,233.392715 122.546478,233.680847 123.019348,233.984741 
	C123.000587,234.000488 123.027817,233.960236 122.870468,234.312241 
	C124.155754,236.103180 125.598381,237.542130 127.019974,238.990845 
	C126.998924,239.000610 127.012344,238.956207 126.965439,239.284317 
	C127.293785,239.737061 127.669022,239.861679 128.021576,239.993713 
	C127.998894,240.001129 128.013107,239.955566 127.969635,240.282211 
	C128.301041,240.729050 128.675919,240.849243 129.024582,240.983276 
	C128.998367,240.997101 129.038193,240.952408 128.917297,241.276672 
	C129.876022,242.712463 130.955627,243.823990 131.982178,245.405731 
	C131.914841,253.140457 131.900574,260.404999 131.448486,267.739807 
	C128.344406,267.927795 125.678116,268.045502 123.011826,268.163239 
	C115.289207,266.762390 107.566589,265.361542 99.430435,263.928314 
z"/>
<path fill="#004C96" opacity="1.000000" stroke="none" 
	d="
M231.373596,247.083771 
	C230.703308,245.371216 230.040894,243.504150 230.035202,241.635086 
	C229.963669,218.156189 229.987045,194.677017 230.450836,170.668365 
	C240.441391,170.138840 249.967255,170.138840 259.615234,170.138840 
	C259.855682,172.560394 260.033234,174.348679 260.151794,176.584610 
	C260.336578,182.083847 260.580353,187.135422 260.824158,192.187012 
	C260.541443,193.229126 260.258759,194.271240 259.616608,195.880096 
	C258.608887,199.333633 258.269440,202.334442 257.253693,205.085571 
	C254.349182,212.952377 251.170074,220.717773 248.098938,228.523041 
	C242.628174,234.658142 237.157425,240.793243 231.373596,247.083771 
z"/>
<path fill="#004C96" opacity="1.000000" stroke="none" 
	d="
M66.128418,170.291748 
	C66.112206,195.520020 66.096001,220.748276 65.761330,246.471344 
	C65.264908,247.016724 65.086945,247.067322 64.908981,247.117935 
	C61.635220,244.296936 58.361458,241.475922 54.895760,238.022736 
	C53.452507,236.273743 52.201183,235.156952 50.949860,234.040146 
	C50.949860,234.040146 50.998856,233.999283 51.108891,233.666718 
	C50.131641,232.230377 49.044357,231.126617 47.957069,230.022873 
	C47.957069,230.022873 47.999439,229.999084 48.133831,229.657043 
	C45.375698,222.590317 42.502552,215.857086 39.549515,209.159058 
	C39.339901,208.683594 38.542938,208.467056 38.019081,208.130127 
	C37.339607,204.043579 36.660133,199.957016 35.995258,195.072815 
	C36.398792,186.216354 36.787731,178.157562 37.634155,170.096069 
	C47.437237,170.159500 56.782825,170.225632 66.128418,170.291748 
z"/>
<path fill="#FDE403" opacity="1.000000" stroke="none" 
	d="
M196.981400,35.949955 
	C196.981400,35.949955 197.437241,35.998188 197.745453,36.330872 
	C199.957428,37.521862 201.861191,38.380165 203.763367,39.690964 
	C203.733246,69.667572 203.704758,99.191689 203.240845,128.768997 
	C199.531097,128.786087 196.256775,128.749985 192.973267,128.265991 
	C192.987564,96.579140 193.011047,65.340187 193.353577,34.120682 
	C194.775543,34.743401 195.878464,35.346676 196.981400,35.949955 
z"/>
<path fill="#FCFBFB" opacity="1.000000" stroke="none" 
	d="
M52.053337,100.806740 
	C62.143215,100.806740 72.233093,100.806740 83.003639,100.806740 
	C83.003639,110.039574 83.003639,118.909813 82.539062,128.310608 
	C70.843910,128.844696 59.613091,128.884537 48.383049,128.808548 
	C46.877991,128.798386 45.376896,128.203140 43.873962,127.878830 
	C47.672672,119.553917 50.514923,110.964630 51.408173,101.321548 
	C51.720490,100.892792 52.053337,100.806740 52.053337,100.806740 
z"/>
<path fill="#FCE204" opacity="1.000000" stroke="none" 
	d="
M222.641144,42.885918 
	C223.451584,42.923363 224.262009,42.960804 225.527298,42.996353 
	C225.982147,42.994457 226.081696,42.997879 226.035858,43.464027 
	C225.967773,72.195900 225.945511,100.461624 225.481277,128.790588 
	C221.812607,128.808975 218.585907,128.764130 215.326019,128.270828 
	C215.285309,99.448135 215.277786,71.073891 215.651123,42.683777 
	C218.235062,42.740574 220.438095,42.813244 222.641144,42.885918 
z"/>
<path fill="#FCFCFC" opacity="1.000000" stroke="none" 
	d="
M82.598808,41.073643 
	C82.985184,50.241180 82.985184,59.351101 82.985184,69.032913 
	C72.190125,69.032913 61.628525,69.032913 50.611473,69.019318 
	C47.884693,62.268734 45.613361,55.531750 43.202576,48.095711 
	C42.653492,46.053261 42.243855,44.709858 41.734833,43.040527 
	C44.696049,43.297558 47.415020,43.533562 50.580448,43.888672 
	C56.824833,44.013271 62.655216,44.392811 68.409355,43.893608 
	C72.286545,43.557243 76.056076,41.979988 79.873772,40.957844 
	C80.653328,40.977238 81.432877,40.996632 82.598808,41.073643 
z"/>
<path fill="#FEEC02" opacity="1.000000" stroke="none" 
	d="
M176.091232,40.998875 
	C176.716446,40.616241 177.341660,40.233612 178.332977,39.469315 
	C179.457092,39.140465 180.215103,39.193279 180.995270,39.697475 
	C181.019592,69.668800 181.021759,99.188736 180.564423,128.773514 
	C176.980682,128.795914 173.856445,128.753479 170.730377,128.264191 
	C170.700958,99.569870 170.673386,71.322395 170.964737,42.893822 
	C172.886185,42.141438 174.488708,41.570156 176.091232,40.998875 
z"/>
<path fill="#FDE703" opacity="1.000000" stroke="none" 
	d="
M149.188828,46.999500 
	C150.602890,46.320305 152.016968,45.641109 154.111877,45.099670 
	C155.908722,45.470043 157.024719,45.702656 158.421371,46.247536 
	C158.738800,73.937843 158.775589,101.315887 158.370483,128.751877 
	C155.021255,128.809814 152.113922,128.809814 149.188828,128.809814 
	C149.188828,101.092506 149.188828,74.046005 149.188828,46.999500 
z"/>
<path fill="#FDFDFD" opacity="1.000000" stroke="none" 
	d="
M146.818161,69.059418 
	C136.394424,69.059418 125.970680,69.059418 115.604599,69.059418 
	C115.604599,59.143208 115.604599,49.504559 115.802658,39.499466 
	C125.765495,43.184418 135.875381,45.523888 146.719025,46.057678 
	C146.894394,54.241745 146.856277,61.650581 146.818161,69.059418 
z"/>
<path fill="#F7E502" opacity="1.000000" stroke="none" 
	d="
M252.851593,46.038944 
	C250.629974,51.932827 247.885742,57.691658 246.319000,63.754757 
	C244.359421,71.338226 242.842606,79.124878 242.146484,86.914253 
	C241.696732,91.947067 242.607803,97.242462 243.716614,102.241043 
	C245.442749,110.022583 247.855453,117.651817 250.043335,126.057632 
	C249.624832,127.479713 249.161682,128.785767 248.652069,128.804153 
	C245.058823,128.933914 241.456039,128.798920 237.841156,128.298676 
	C237.798553,99.930252 237.771118,72.011597 238.220551,44.015503 
	C242.286636,43.934925 245.888504,43.760906 249.457825,44.025688 
	C250.632401,44.112816 251.722748,45.335506 252.851593,46.038944 
z"/>
<path fill="#332701" opacity="1.000000" stroke="none" 
	d="
M237.856293,128.748444 
	C241.456039,128.798920 245.058823,128.933914 248.652069,128.804153 
	C249.161682,128.785767 249.624832,127.479713 250.075882,126.391968 
	C251.258759,127.095299 252.475220,128.176300 253.691696,129.257309 
	C253.441498,129.687927 253.191315,130.118530 252.941116,130.549149 
	C251.191177,130.629608 249.441208,130.781204 247.691315,130.780243 
	C180.918747,130.743668 114.146141,130.709610 47.373966,130.521317 
	C46.090508,130.517700 42.236687,132.897415 43.566391,128.007095 
	C45.376896,128.203140 46.877991,128.798386 48.383049,128.808548 
	C59.613091,128.884537 70.843910,128.844696 82.541557,128.759003 
	C93.349792,128.724289 103.690956,128.771744 114.964340,128.837677 
	C126.165039,128.877884 136.433517,128.899582 147.068985,128.703888 
	C147.622284,122.400131 147.941360,116.313713 147.938797,110.227425 
	C147.937515,107.193596 147.347443,104.160011 146.964172,101.124588 
	C146.904633,101.122856 146.860413,101.012245 146.860413,101.012245 
	C146.894180,90.666023 146.927933,80.319794 146.889923,69.516495 
	C146.856277,61.650581 146.894394,54.241745 147.015594,46.361771 
	C147.754242,46.067513 148.409775,46.244400 149.127075,46.710396 
	C149.188828,74.046005 149.188828,101.092506 149.188828,128.809814 
	C152.113922,128.809814 155.021255,128.809814 158.837143,128.817245 
	C163.407867,128.786804 167.070038,128.748917 170.732224,128.711044 
	C173.856445,128.753479 176.980682,128.795914 181.016510,128.838516 
	C185.612885,128.797089 189.297668,128.755493 192.982452,128.713882 
	C196.256775,128.749985 199.531097,128.786087 203.723633,128.834244 
	C208.214294,128.803955 211.786758,128.761612 215.359207,128.719269 
	C218.585907,128.764130 221.812607,128.808975 225.940704,128.853592 
	C230.513504,128.818375 234.184891,128.783401 237.856293,128.748444 
z"/>
<path fill="#050400" opacity="1.000000" stroke="none" 
	d="
M171.689240,149.001724 
	C171.686935,144.191757 171.686935,139.880524 171.686935,135.014145 
	C177.124710,135.014145 182.419281,134.616287 187.624924,135.126160 
	C192.819580,135.634949 195.694550,140.629166 193.696060,145.475967 
	C192.730606,147.817398 193.102020,149.163223 194.280777,151.191467 
	C197.254944,156.309082 193.600388,163.510620 187.706055,163.995132 
	C182.620682,164.413147 177.473740,164.081894 171.691544,164.081894 
	C171.691544,159.025467 171.691544,154.262955 171.689240,149.001724 
M178.039948,153.742584 
	C178.161713,155.112076 178.283478,156.481552 178.409485,157.898697 
	C181.310379,157.898697 183.653641,158.156525 185.891891,157.783737 
	C186.923264,157.611954 188.145691,156.354340 188.536026,155.310349 
	C188.821457,154.546890 187.906784,152.458847 187.498566,152.451050 
	C184.359406,152.391052 181.213272,152.695419 178.039948,153.742584 
M187.644348,143.509430 
	C186.021057,138.743408 182.099564,141.645065 179.230820,141.183929 
	C178.981857,141.143906 178.340759,143.543335 177.468338,145.950424 
	C181.576950,145.224731 184.392242,144.727478 187.644348,143.509430 
z"/>
<path fill="#090700" opacity="1.000000" stroke="none" 
	d="
M148.412903,134.957031 
	C151.413605,136.573822 153.997498,138.127670 157.586655,140.286026 
	C154.863800,141.900742 153.377304,142.782257 151.718948,143.765686 
	C148.266327,140.984711 144.629181,138.991577 140.903259,143.066101 
	C138.175491,146.049088 138.573090,153.133224 141.523575,155.989944 
	C145.157700,159.508606 148.393661,158.150955 151.507385,154.726669 
	C153.095901,155.639923 154.629807,156.521774 156.129684,157.384064 
	C153.607330,163.647797 148.792236,166.028534 142.556900,164.306122 
	C135.348877,162.315048 131.511124,154.761154 133.165451,145.820847 
	C134.696594,137.546265 139.219406,134.214005 148.412903,134.957031 
z"/>
<path fill="#0A0800" opacity="1.000000" stroke="none" 
	d="
M100.248123,147.018463 
	C100.248222,142.891113 100.248222,139.258926 100.248222,135.277878 
	C107.204338,135.277878 113.775398,135.277878 120.816536,135.277878 
	C120.898514,136.883591 120.987274,138.622299 121.099449,140.819717 
	C116.289009,140.819717 111.700150,140.819717 107.231720,140.819717 
	C106.077095,145.070282 106.077095,145.070282 114.709991,146.365234 
	C114.709991,147.941833 114.709991,149.557510 114.709991,151.700546 
	C112.210434,151.831390 109.627914,151.966583 106.456459,152.132599 
	C106.456459,155.885590 106.456459,159.602707 106.456459,163.614059 
	C104.157890,163.614059 102.450058,163.614059 100.248024,163.614059 
	C100.248024,158.096863 100.248024,152.805252 100.248123,147.018463 
z"/>
<path fill="#000000" opacity="1.000000" stroke="none" 
	d="
M66.583023,170.228149 
	C56.782825,170.225632 47.437237,170.159500 37.405071,169.994598 
	C36.419849,169.725906 36.193272,169.487503 36.038757,169.180603 
	C37.679298,169.032349 39.319798,168.754929 40.960381,168.754440 
	C112.599571,168.732941 184.238770,168.735947 255.877960,168.735992 
	C257.514160,168.735992 259.150360,168.735977 260.995697,168.735977 
	C261.259674,171.155121 261.474762,173.126129 261.414520,175.509857 
	C260.828461,175.988510 260.518982,176.059967 260.210785,176.136963 
	C260.033234,174.348679 259.855682,172.560394 259.615234,170.138840 
	C249.967255,170.138840 240.441391,170.138840 230.451523,170.218384 
	C219.303421,170.251923 208.619339,170.205917 197.009766,170.150757 
	C185.672531,170.195572 175.260773,170.249542 164.397186,170.232773 
	C153.261612,170.206421 142.577850,170.250778 131.894104,170.295135 
	C121.258820,170.246964 110.623543,170.198792 99.531067,170.223846 
	C88.395126,170.252914 77.716377,170.208740 66.583023,170.228149 
z"/>
<path fill="#483A00" opacity="1.000000" stroke="none" 
	d="
M253.228638,46.102608 
	C251.722748,45.335506 250.632401,44.112816 249.457825,44.025688 
	C245.888504,43.760906 242.286636,43.934925 237.790543,43.968330 
	C233.283005,43.665024 229.682343,43.331451 226.081696,42.997879 
	C226.081696,42.997879 225.982147,42.994457 225.932800,43.001572 
	C226.399460,42.677074 226.913757,42.059303 227.431686,42.056240 
	C237.157486,41.998608 246.883698,42.013844 257.529663,42.013844 
	C256.050903,43.578682 254.828293,44.872478 253.228638,46.102608 
z"/>
<path fill="#141307" opacity="1.000000" stroke="none" 
	d="
M248.410919,228.471375 
	C251.170074,220.717773 254.349182,212.952377 257.253693,205.085571 
	C258.269440,202.334442 258.608887,199.333633 259.555359,196.209778 
	C259.575439,199.207245 260.014160,202.721909 258.880737,205.622162 
	C255.855759,213.362411 252.155029,220.838562 248.410919,228.471375 
z"/>
<path fill="#5B4C15" opacity="1.000000" stroke="none" 
	d="
M79.657280,40.827545 
	C76.056076,41.979988 72.286545,43.557243 68.409355,43.893608 
	C62.655216,44.392811 56.824833,44.013271 50.654655,43.674866 
	C50.501682,42.946823 50.720959,42.551697 50.940231,42.156570 
	C59.865021,41.966846 68.790253,41.793091 77.713615,41.550808 
	C78.296631,41.534977 78.865395,40.993961 79.657280,40.827545 
z"/>
<path fill="#3C1B06" opacity="1.000000" stroke="none" 
	d="
M52.169788,100.421906 
	C52.053337,100.806740 51.720490,100.892792 51.550922,100.897255 
	C51.258488,94.046623 51.157646,87.191025 50.997868,80.336784 
	C50.955883,78.535728 50.731365,76.738922 50.767540,74.690109 
	C51.578842,75.533554 52.761894,76.628387 52.759228,77.720345 
	C52.741077,85.159592 52.473392,92.598228 52.169788,100.421906 
z"/>
<path fill="#12160F" opacity="1.000000" stroke="none" 
	d="
M197.063187,262.753296 
	C197.797607,262.839539 198.532013,262.925812 199.632050,263.067993 
	C190.616043,265.069550 181.234406,267.015167 171.419037,268.598755 
	C170.982941,268.036163 170.980576,267.835541 171.313400,267.446930 
	C180.120132,265.757050 188.591660,264.255188 197.063187,262.753296 
z"/>
<path fill="#312102" opacity="1.000000" stroke="none" 
	d="
M222.393524,42.654270 
	C220.438095,42.813244 218.235062,42.740574 215.341187,42.476562 
	C211.021881,41.269638 207.393433,40.254055 203.764969,39.238472 
	C201.861191,38.380165 199.957428,37.521862 197.974258,36.317852 
	C200.757050,36.664036 203.635757,37.294590 206.477814,38.061111 
	C211.711884,39.472782 216.924393,40.964352 222.393524,42.654270 
z"/>
<path fill="#000000" opacity="1.000000" stroke="none" 
	d="
M170.978195,267.634949 
	C170.980576,267.835541 170.982941,268.036163 170.989746,268.537628 
	C155.162506,268.845795 139.330826,268.853088 123.255493,268.511810 
	C125.678116,268.045502 128.344406,267.927795 131.921844,267.823547 
	C143.510864,267.752869 154.188721,267.668762 165.294952,267.670288 
	C167.474945,267.715576 169.226578,267.675262 170.978195,267.634949 
z"/>
<path fill="#231502" opacity="1.000000" stroke="none" 
	d="
M158.140732,45.935272 
	C157.024719,45.702656 155.908722,45.470043 154.468719,45.076981 
	C161.368820,43.360180 168.592926,41.803825 175.954132,40.623177 
	C174.488708,41.570156 172.886185,42.141438 170.598221,42.899078 
	C165.988770,44.035381 162.064743,44.985325 158.140732,45.935272 
z"/>
<path fill="#0C100D" opacity="1.000000" stroke="none" 
	d="
M38.085670,208.432861 
	C38.542938,208.467056 39.339901,208.683594 39.549515,209.159058 
	C42.502552,215.857086 45.375698,222.590317 48.119553,229.676651 
	C44.698006,222.937393 41.425129,215.836502 38.085670,208.432861 
z"/>
<path fill="#1E1102" opacity="1.000000" stroke="none" 
	d="
M180.973114,39.246094 
	C180.215103,39.193279 179.457092,39.140465 178.324661,39.159958 
	C182.492569,36.807777 186.904205,34.047867 191.667953,32.191597 
	C192.878311,31.719969 195.208191,34.121403 197.002533,35.576332 
	C195.878464,35.346676 194.775543,34.743401 192.993042,34.022499 
	C188.533356,35.685287 184.753235,37.465694 180.973114,39.246094 
z"/>
<path fill="#1F0D06" opacity="1.000000" stroke="none" 
	d="
M202.069244,262.020050 
	C207.852615,259.332611 214.086060,256.662689 220.698868,254.040253 
	C214.891922,256.737701 208.705612,259.387634 202.069244,262.020050 
z"/>
<path fill="#060908" opacity="1.000000" stroke="none" 
	d="
M35.707024,169.422928 
	C36.193272,169.487503 36.419849,169.725906 36.947582,169.997314 
	C36.787731,178.157562 36.398792,186.216354 35.932449,194.645721 
	C35.695122,186.565964 35.535206,178.115601 35.707024,169.422928 
z"/>
<path fill="#1B1002" opacity="1.000000" stroke="none" 
	d="
M113.916870,37.558014 
	C112.786842,37.661087 111.340500,37.775036 110.336319,37.163223 
	C106.262001,34.680889 102.195213,33.341423 97.318756,36.000244 
	C100.209152,32.408806 103.745636,30.839676 108.219620,34.107315 
	C109.930107,35.356586 111.933769,36.204460 113.916870,37.558014 
z"/>
<path fill="#2F2A0A" opacity="1.000000" stroke="none" 
	d="
M260.151794,176.584610 
	C260.518982,176.059967 260.828461,175.988510 261.377441,175.917084 
	C261.492828,181.089386 261.369965,186.267181 261.035645,191.815994 
	C260.580353,187.135422 260.336578,182.083847 260.151794,176.584610 
z"/>
<path fill="#1E1908" opacity="1.000000" stroke="none" 
	d="
M50.511921,42.103836 
	C50.720959,42.551697 50.501682,42.946823 50.208199,43.555763 
	C47.415020,43.533562 44.696049,43.297558 41.734833,43.040527 
	C42.243855,44.709858 42.653492,46.053261 42.970604,47.817314 
	C41.413872,46.135834 39.949657,44.033699 37.772903,40.908588 
	C42.712246,41.366993 46.397926,41.709049 50.511921,42.103836 
z"/>
<path fill="#231106" opacity="1.000000" stroke="none" 
	d="
M64.949066,247.464661 
	C65.086945,247.067322 65.264908,247.016724 65.718719,246.932022 
	C70.116821,249.523697 74.239082,252.149475 78.516266,255.173691 
	C78.369720,255.752701 78.068253,255.933273 77.766785,256.113831 
	C73.507576,253.346344 69.248367,250.578873 64.949066,247.464661 
z"/>
<path fill="#291307" opacity="1.000000" stroke="none" 
	d="
M78.006226,256.377014 
	C78.068253,255.933273 78.369720,255.752701 78.815849,255.350494 
	C83.329445,257.205597 87.698387,259.282318 92.223328,261.709625 
	C87.668106,260.253540 82.956886,258.446869 78.006226,256.377014 
z"/>
<path fill="#0C100D" opacity="1.000000" stroke="none" 
	d="
M50.938202,234.384491 
	C52.201183,235.156952 53.452507,236.273743 54.730591,237.723297 
	C53.480419,236.946976 52.203480,235.837906 50.938202,234.384491 
z"/>
<path fill="#1B1002" opacity="1.000000" stroke="none" 
	d="
M96.635590,35.711388 
	C95.100319,36.622726 93.205109,37.325199 90.881271,38.014927 
	C92.393654,37.168964 94.334648,36.335743 96.635590,35.711388 
z"/>
<path fill="#0C100D" opacity="1.000000" stroke="none" 
	d="
M47.951103,230.358795 
	C49.044357,231.126617 50.131641,232.230377 51.087158,233.689606 
	C49.951977,232.928284 48.948559,231.811508 47.951103,230.358795 
z"/>
<path fill="#FDFDFD" opacity="1.000000" stroke="none" 
	d="
M146.701996,128.921265 
	C136.433517,128.899582 126.165039,128.877884 115.425919,128.776489 
	C114.955276,119.632645 114.955276,110.568512 114.955276,101.008835 
	C125.524002,101.008835 135.733994,101.008835 146.402191,101.010544 
	C146.860413,101.012245 146.904633,101.122856 146.952789,101.580971 
	C146.901291,110.999817 146.801651,119.960548 146.701996,128.921265 
z"/>
<path fill="#004C96" opacity="1.000000" stroke="none" 
	d="
M171.313400,267.446930 
	C169.226578,267.675262 167.474945,267.715576 165.300095,267.239197 
	C164.835526,259.503113 164.794205,252.283722 164.976685,244.799713 
	C165.785095,243.670120 166.369675,242.805115 166.978455,241.967285 
	C167.002640,241.994431 166.939957,241.958832 167.263062,241.998871 
	C167.718231,241.677017 167.850296,241.315155 167.991272,240.976654 
	C168.000168,241.000000 167.960037,240.970245 168.281952,241.117294 
	C169.055481,240.798950 169.507095,240.333542 169.969131,239.913055 
	C169.979553,239.957993 169.890579,239.933701 170.178009,239.903625 
	C170.621628,239.545792 170.777802,239.218018 170.946045,238.934631 
	C170.958130,238.979004 170.868271,238.959152 171.207458,238.874725 
	C171.684402,238.179199 171.822159,237.568085 171.979584,236.978729 
	C171.999268,237.000473 171.951401,236.965912 172.303070,237.065277 
	C174.189789,234.597885 175.724854,232.031143 177.505310,229.164062 
	C178.445862,226.340927 179.640259,223.835083 179.726547,221.291626 
	C179.880066,216.766846 181.240921,211.819199 176.969330,207.798965 
	C176.622162,206.952560 176.336914,206.434631 176.017761,205.679291 
	C175.983871,205.441864 175.835403,204.985748 175.882629,204.735077 
	C175.647186,204.363907 175.364532,204.243393 175.114655,204.059906 
	C175.147461,203.996933 175.167206,203.856293 175.153839,203.511917 
	C174.729279,202.454941 174.318100,201.742325 173.947754,201.017914 
	C173.988617,201.006104 173.941940,201.077209 173.946320,200.734329 
	C173.259674,199.610779 172.568649,198.830093 171.922058,198.030457 
	C171.966492,198.011490 171.932571,198.101959 171.919662,197.805054 
	C171.574463,197.358414 171.242188,197.208664 170.951660,197.033005 
	C170.993408,197.007095 170.940308,197.089798 170.937042,196.790039 
	C170.592667,196.346619 170.251526,196.202988 169.951782,196.032867 
	C169.993149,196.006409 169.940704,196.089462 169.936768,195.789948 
	C169.590836,195.347717 169.248810,195.205032 168.949402,195.034912 
	C168.992004,195.007492 168.938599,195.093613 168.931183,194.797058 
	C168.580353,194.357071 168.236923,194.213654 167.937759,194.054184 
	C167.982025,194.038147 167.958313,194.129272 167.877991,193.792114 
	C167.181656,193.322021 166.565659,193.189087 165.974884,193.028427 
	C166.000107,193.000702 165.958969,193.063614 165.988129,192.753067 
	C165.648300,192.315445 165.279312,192.188354 164.959381,192.049545 
	C165.008453,192.037811 164.924179,192.094238 165.007202,191.827606 
	C164.960388,191.223206 164.830566,190.885437 164.760376,190.048431 
	C164.829697,183.133957 164.839355,176.718735 164.849030,170.303497 
	C175.260773,170.249542 185.672531,170.195572 196.547638,170.224121 
	C197.015625,200.824966 197.020264,231.343277 197.044037,262.307465 
	C188.591660,264.255188 180.120132,265.757050 171.313400,267.446930 
z"/>
<path fill="#E9B700" opacity="1.000000" stroke="none" 
	d="
M175.835403,204.985748 
	C175.835403,204.985748 175.983871,205.441864 176.002472,206.022278 
	C176.347839,207.379196 176.674591,208.155716 177.312653,209.078186 
	C177.674866,210.761490 177.725784,212.298843 177.397430,213.874786 
	C176.765839,213.937180 176.513519,213.960968 176.032501,213.782776 
	C175.372971,213.150543 174.942139,212.720276 174.275269,212.068207 
	C173.697495,211.979935 173.355774,212.113449 173.014053,212.246948 
	C173.275070,212.563156 173.536102,212.879349 173.845825,213.564392 
	C174.607895,214.301086 175.321243,214.668930 176.025421,215.013916 
	C176.016235,214.991043 175.971405,214.970322 175.756073,215.273743 
	C175.985504,216.141205 176.430267,216.705231 176.914474,217.649933 
	C176.926773,221.238098 176.899612,224.445572 176.638657,227.842148 
	C175.935715,228.350037 175.466568,228.668839 174.960297,228.642456 
	C172.824173,226.698166 170.725159,225.099060 168.626144,223.499954 
	C168.325867,223.892334 168.025604,224.284714 167.725342,224.677094 
	C169.789230,226.441940 171.853119,228.206787 174.022644,230.361969 
	C173.402649,232.823502 172.677017,234.894714 171.951401,236.965912 
	C171.951401,236.965912 171.999268,237.000473 171.614685,237.067078 
	C171.109512,237.742188 170.988892,238.350662 170.868271,238.959152 
	C170.868271,238.959152 170.958130,238.979004 170.569183,238.794434 
	C170.083694,239.051132 169.987137,239.492416 169.890579,239.933701 
	C169.890579,239.933701 169.979553,239.957993 169.678986,239.665482 
	C168.905640,239.905396 168.432831,240.437820 167.960022,240.970245 
	C167.960037,240.970245 168.000168,241.000000 167.688873,240.985031 
	C167.231689,241.299652 167.085815,241.629242 166.939957,241.958832 
	C166.939957,241.958832 167.002640,241.994431 166.619278,241.906906 
	C164.642899,242.879150 163.049896,243.938919 161.214981,245.230530 
	C158.310272,246.355881 155.647476,247.249390 152.534790,248.069458 
	C149.048920,247.979370 146.012924,247.962708 142.986496,247.975906 
	C142.996048,248.005768 143.053024,247.979568 142.931458,247.651596 
	C140.478745,246.404663 138.147583,245.485703 135.859589,244.154938 
	C134.931915,242.830048 133.961075,241.916946 132.593262,241.019531 
	C131.143585,241.007614 130.090897,240.980011 129.038193,240.952408 
	C129.038193,240.952408 128.998367,240.997101 129.008865,240.694519 
	C128.683945,240.246490 128.348526,240.101028 128.013107,239.955566 
	C128.013107,239.955566 127.998894,240.001129 127.991653,239.709824 
	C127.660385,239.264404 127.336365,239.110306 127.012344,238.956207 
	C127.012344,238.956207 126.998924,239.000610 126.964134,238.663193 
	C125.628838,236.870590 124.328323,235.415421 123.027817,233.960236 
	C123.027817,233.960236 123.000587,234.000488 123.002327,233.685059 
	C122.675781,233.147476 122.347504,232.925308 122.019226,232.703156 
	C122.019218,232.703156 121.984062,232.353775 121.990982,231.986740 
	C121.997910,231.619705 122.001373,231.235931 122.368790,231.137970 
	C125.023422,230.233017 127.310654,229.425995 129.832672,228.476593 
	C130.434891,227.940018 130.802353,227.545822 131.413193,227.043839 
	C131.977844,226.517288 132.299103,226.098557 132.926086,225.465805 
	C133.929169,225.085114 134.626511,224.918427 136.268524,224.525940 
	C134.039993,223.067505 132.575546,222.109116 131.067261,220.880280 
	C130.762909,220.305389 130.502380,220.000992 130.241852,219.696564 
	C130.058014,219.905075 129.874191,220.113571 129.690369,220.322083 
	C130.177170,220.585037 130.663956,220.848007 131.161118,221.431366 
	C131.363770,222.757095 131.556046,223.762436 131.520630,224.884796 
	C130.985321,225.402695 130.677719,225.803604 130.137482,226.364563 
	C129.508072,226.915710 129.111298,227.306808 128.337875,227.791656 
	C124.815155,229.383286 121.773247,229.818893 119.049294,227.011612 
	C119.046249,226.535034 119.043205,226.058456 119.378571,225.004974 
	C119.200859,223.284744 118.684738,222.141434 118.168625,220.998108 
	C118.111549,219.656616 118.054474,218.315109 118.342323,216.368774 
	C120.834160,209.862259 122.981071,203.960571 125.127975,198.058899 
	C125.127983,198.058899 125.033173,198.012207 125.421539,198.189804 
	C125.905510,197.934662 126.001122,197.501923 126.096741,197.069183 
	C126.096741,197.069183 126.002907,197.030487 126.331680,197.287888 
	C127.092842,197.315125 127.525223,197.084961 127.970955,197.192719 
	C128.292587,198.215317 128.600876,198.899979 128.909149,199.584625 
	C129.271225,199.130951 129.633301,198.677277 130.205627,197.934769 
	C131.359268,195.797363 132.302658,193.948807 133.474182,192.008636 
	C133.950912,191.670822 134.067780,191.372940 134.025818,191.011566 
	C133.998703,190.999756 133.997437,191.058899 134.326111,191.046814 
	C135.121338,190.696304 135.587860,190.357864 136.026154,190.009277 
	C135.997925,189.999115 135.996201,190.059113 136.412796,190.065399 
	C139.551483,189.779266 142.273575,189.486832 144.986572,189.548859 
	C142.943756,193.905243 142.943756,193.905243 145.667297,195.022095 
	C146.101685,192.985580 146.534195,190.948624 147.177292,188.573013 
	C153.233307,189.520996 159.078735,190.807617 164.924179,192.094238 
	C164.924179,192.094238 165.008453,192.037811 164.855255,192.381638 
	C165.121033,192.838181 165.540009,192.950897 165.958969,193.063599 
	C165.958969,193.063614 166.000107,193.000702 166.044220,193.401459 
	C166.711655,193.911224 167.334991,194.020248 167.958313,194.129272 
	C167.958313,194.129272 167.982025,194.038147 167.807709,194.420502 
	C168.068466,194.899765 168.503540,194.996689 168.938599,195.093613 
	C168.938599,195.093613 168.992004,195.007492 168.836060,195.394012 
	C169.100296,195.883499 169.520508,195.986481 169.940704,196.089462 
	C169.940704,196.089462 169.993149,196.006409 169.843933,196.391174 
	C170.109909,196.880569 170.525116,196.985184 170.940308,197.089798 
	C170.940308,197.089798 170.993408,197.007095 170.840515,197.398163 
	C171.102600,197.893463 171.517593,197.997711 171.932571,198.101959 
	C171.932571,198.101959 171.966492,198.011490 171.687897,198.338135 
	C172.253510,199.468933 173.097717,200.273071 173.941940,201.077209 
	C173.941940,201.077209 173.988617,201.006104 173.802948,201.365555 
	C174.133926,202.435440 174.650558,203.145874 175.167206,203.856293 
	C175.167206,203.856293 175.147461,203.996933 175.181976,204.247162 
	C175.369705,204.727432 175.576004,204.890213 175.835403,204.985748 
M171.973495,211.163666 
	C172.317688,211.025131 172.661880,210.886597 173.006073,210.748077 
	C172.731842,210.439972 172.457626,210.131851 172.014816,209.347427 
	C171.737305,209.171555 171.459793,208.995697 171.013382,208.344727 
	C170.736023,208.169952 170.458664,207.995178 169.799408,207.217697 
	C169.409500,207.322678 169.019577,207.427658 168.629669,207.532654 
	C168.901337,207.922073 169.173019,208.311493 169.733582,209.076599 
	C169.923935,209.338974 170.161453,209.547668 170.746643,210.089508 
	C170.938828,210.366806 171.187485,210.577484 171.973495,211.163666 
M167.141953,206.762009 
	C167.520004,206.707886 167.898056,206.653778 168.276123,206.599655 
	C168.078094,206.229065 167.880066,205.858490 167.180801,205.118790 
	C166.789246,204.984512 166.397705,204.850220 165.930984,204.206985 
	C162.730591,202.338348 159.530197,200.469727 156.329819,198.601089 
	C156.052551,199.113235 155.775284,199.625381 155.498016,200.137527 
	C158.642380,201.752563 161.786743,203.367615 165.080536,205.591812 
	C165.650879,205.800583 166.221222,206.009338 167.141953,206.762009 
M143.390137,223.237076 
	C142.705887,223.877701 142.021652,224.518311 141.337402,225.158936 
	C141.729965,225.465347 142.122513,225.771759 142.515076,226.078171 
	C143.048538,225.092361 143.582001,224.106552 144.676529,223.004272 
	C145.129333,222.687271 145.582138,222.370270 146.764587,221.875259 
	C147.180435,220.251190 147.596283,218.627121 148.889862,217.001053 
	C151.916397,217.352921 154.942917,217.704803 158.235855,218.448212 
	C158.598099,218.435349 158.960358,218.422501 159.322601,218.409653 
	C158.915314,218.238892 158.508026,218.068146 158.044403,217.284744 
	C156.718781,214.865524 155.248016,213.159943 152.065140,214.814178 
	C150.972443,215.382111 149.370117,214.969498 147.403748,214.709152 
	C146.282425,214.110413 145.161118,213.511658 143.981018,212.881516 
	C144.729950,216.352188 145.332275,219.143417 145.361282,222.018112 
	C144.899734,222.327316 144.438187,222.636520 143.390137,223.237076 
M143.256134,207.109467 
	C142.833786,208.520248 142.411423,209.931015 141.989075,211.341797 
	C142.414597,211.440567 142.840118,211.539352 143.265640,211.638123 
	C143.532135,210.107819 143.798630,208.577499 144.322296,206.901001 
	C144.200287,206.914139 144.078262,206.927277 143.256134,207.109467 
M145.010849,201.694183 
	C145.374023,202.297867 145.737183,202.901566 146.100357,203.505249 
	C146.398300,202.671585 146.696243,201.837936 147.251831,200.395584 
	C146.896179,199.207672 146.540543,198.019760 146.184891,196.831863 
	C145.714981,196.991074 145.245056,197.150299 144.775131,197.309509 
	C144.851959,198.541107 144.928787,199.772690 145.010849,201.694183 
M163.475937,225.977509 
	C163.028854,223.911942 162.581772,221.846390 162.134689,219.780823 
	C161.555618,219.695755 160.976532,219.610703 160.397461,219.525635 
	C163.906021,228.255630 155.609039,230.369949 151.768616,236.106018 
	C157.790237,234.490051 160.878143,231.042084 163.475937,225.977509 
M142.721451,240.476517 
	C144.434296,240.086655 146.147141,239.696793 147.859985,239.306931 
	C147.617966,238.756638 147.375946,238.206329 147.133926,237.656021 
	C145.706268,238.396103 144.278610,239.136185 142.721451,240.476517 
M127.206848,204.945404 
	C128.281860,204.306870 129.356888,203.668335 130.431900,203.029785 
	C130.097321,202.595062 129.762741,202.160339 129.428162,201.725601 
	C128.659042,202.594162 127.889915,203.462723 127.206848,204.945404 
M139.114990,241.818756 
	C139.676544,241.271759 140.238098,240.724762 140.799637,240.177765 
	C140.455902,239.931076 140.112183,239.684402 139.768448,239.437714 
	C139.400818,240.099472 139.033203,240.761215 139.114990,241.818756 
M129.819611,215.887054 
	C129.272614,215.325684 128.725632,214.764297 128.178650,214.202911 
	C127.931702,214.547012 127.684753,214.891129 127.437805,215.235229 
	C128.099777,215.602417 128.761749,215.969589 129.819611,215.887054 
M137.741028,225.518494 
	C137.228363,225.400696 136.715683,225.282913 136.203018,225.165115 
	C136.523819,225.440735 136.844620,225.716354 137.741028,225.518494 
z"/>
<path fill="#A00143" opacity="1.000000" stroke="none" 
	d="
M152.984680,248.142883 
	C155.647476,247.249390 158.310272,246.355881 161.629517,245.237976 
	C163.108276,245.030472 163.930573,245.047409 164.752869,245.064331 
	C164.794205,252.283722 164.835526,259.503113 164.871735,267.153564 
	C154.188721,267.668762 143.510864,267.752869 132.359650,267.753296 
	C131.900574,260.404999 131.914841,253.140457 132.342697,245.473236 
	C136.188538,246.040237 139.620773,247.009903 143.053024,247.979568 
	C143.053024,247.979568 142.996048,248.005768 143.209717,248.323166 
	C146.610474,248.474655 149.797577,248.308762 152.984680,248.142883 
z"/>
<path fill="#A00143" opacity="1.000000" stroke="none" 
	d="
M164.397186,170.232788 
	C164.839355,176.718735 164.829697,183.133957 164.414551,189.889404 
	C161.690216,189.363113 159.437302,188.142288 157.040222,187.696442 
	C149.828781,186.355148 142.530472,185.049438 135.996201,190.059113 
	C135.996201,190.059113 135.997925,189.999115 135.688492,189.916718 
	C134.918518,190.242523 134.457977,190.650711 133.997437,191.058899 
	C133.997437,191.058899 133.998703,190.999756 133.700470,190.892563 
	C132.942032,190.816696 132.481842,190.848007 132.021637,190.879318 
	C131.982330,184.312744 131.943008,177.746155 131.898895,170.737366 
	C142.577850,170.250778 153.261612,170.206421 164.397186,170.232788 
z"/>
<path fill="#191503" opacity="1.000000" stroke="none" 
	d="
M124.778458,198.115555 
	C122.981071,203.960571 120.834160,209.862259 118.348709,215.965973 
	C116.676201,208.930450 120.185616,203.420441 124.778458,198.115555 
z"/>
<path fill="#140E07" opacity="1.000000" stroke="none" 
	d="
M142.931458,247.651596 
	C139.620773,247.009903 136.188538,246.040237 132.395752,245.003052 
	C130.955627,243.823990 129.876022,242.712463 128.917297,241.276672 
	C130.090897,240.980011 131.143585,241.007614 132.687454,241.362961 
	C134.057892,242.649384 134.937164,243.608063 135.816437,244.566742 
	C138.147583,245.485703 140.478745,246.404663 142.931458,247.651596 
z"/>
<path fill="#302600" opacity="1.000000" stroke="none" 
	d="
M119.118332,227.331970 
	C121.773247,229.818893 124.815155,229.383286 128.554428,228.026123 
	C129.297714,228.317551 129.447800,228.468277 129.597885,228.618988 
	C127.310654,229.425995 125.023422,230.233017 122.153305,231.037537 
	C121.570412,231.035049 121.098618,231.084915 121.098618,231.084915 
	C120.461540,229.940720 119.824455,228.796524 119.118332,227.331970 
z"/>
<path fill="#191503" opacity="1.000000" stroke="none" 
	d="
M133.246033,192.100250 
	C132.302658,193.948807 131.359268,195.797363 129.972107,197.763611 
	C129.004776,197.539124 128.481186,197.196960 127.957611,196.854797 
	C127.525223,197.084961 127.092842,197.315125 126.358978,197.330658 
	C127.689583,195.417648 129.321655,193.719269 131.684723,192.002258 
	C132.692474,192.022507 132.969269,192.061386 133.246033,192.100250 
z"/>
<path fill="#140E07" opacity="1.000000" stroke="none" 
	d="
M122.870468,234.312241 
	C124.328323,235.415421 125.628838,236.870590 126.985184,238.653427 
	C125.598381,237.542130 124.155754,236.103180 122.870468,234.312241 
z"/>
<path fill="#E5B300" opacity="1.000000" stroke="none" 
	d="
M118.108360,221.350006 
	C118.684738,222.141434 119.200859,223.284744 119.505249,224.670609 
	C118.878380,223.842743 118.463234,222.772324 118.108360,221.350006 
z"/>
<path fill="#140E07" opacity="1.000000" stroke="none" 
	d="
M121.791229,232.903870 
	C122.347504,232.925308 122.675781,233.147476 123.021088,233.669312 
	C122.546478,233.680847 122.054855,233.392715 121.791229,232.903870 
z"/>
<path fill="#140805" opacity="1.000000" stroke="none" 
	d="
M133.474197,192.008636 
	C132.969269,192.061386 132.692474,192.022507 131.998474,191.925232 
	C131.648987,191.699829 131.716690,191.532806 131.903015,191.122559 
	C132.481842,190.848007 132.942032,190.816696 133.727600,190.904373 
	C134.067780,191.372940 133.950912,191.670822 133.474197,192.008636 
z"/>
<path fill="#191503" opacity="1.000000" stroke="none" 
	d="
M125.802849,197.079590 
	C126.001122,197.501923 125.905510,197.934662 125.444183,198.237549 
	C125.221962,197.768463 125.365463,197.429245 125.802849,197.079590 
z"/>
<path fill="#140E07" opacity="1.000000" stroke="none" 
	d="
M127.969635,240.282211 
	C128.348526,240.101028 128.683945,240.246490 129.035080,240.680695 
	C128.675919,240.849243 128.301041,240.729050 127.969635,240.282211 
z"/>
<path fill="#140E07" opacity="1.000000" stroke="none" 
	d="
M126.965439,239.284317 
	C127.336365,239.110306 127.660385,239.264404 128.014343,239.702423 
	C127.669022,239.861679 127.293785,239.737061 126.965439,239.284317 
z"/>
<path fill="#E7B600" opacity="1.000000" stroke="none" 
	d="
M121.126556,231.326630 
	C121.098618,231.084915 121.570412,231.035049 121.785889,231.135498 
	C122.001373,231.235931 121.997910,231.619705 121.990067,231.811157 
	C121.623604,232.015518 121.347694,231.870773 121.126556,231.326630 
z"/>
<path fill="#DA042F" opacity="1.000000" stroke="none" 
	d="
M180.995270,39.697479 
	C184.753235,37.465694 188.533356,35.685287 192.674011,34.003059 
	C193.011047,65.340187 192.987564,96.579140 192.973267,128.265991 
	C189.297668,128.755493 185.612885,128.797089 181.476013,128.773682 
	C181.021759,99.188736 181.019592,69.668800 180.995270,39.697479 
z"/>
<path fill="#DA002F" opacity="1.000000" stroke="none" 
	d="
M203.763367,39.690964 
	C207.393433,40.254055 211.021881,41.269638 214.960297,42.492435 
	C215.277786,71.073891 215.285309,99.448135 215.326019,128.270828 
	C211.786758,128.761612 208.214294,128.803955 204.159058,128.781052 
	C203.704758,99.191689 203.733246,69.667572 203.763367,39.690964 
z"/>
<path fill="#DB062E" opacity="1.000000" stroke="none" 
	d="
M226.035858,43.464027 
	C229.682343,43.331451 233.283005,43.665024 237.313660,44.045773 
	C237.771118,72.011597 237.798553,99.930252 237.841156,128.298660 
	C234.184891,128.783401 230.513504,128.818375 226.382675,128.790344 
	C225.945511,100.461624 225.967773,72.195900 226.035858,43.464027 
z"/>
<path fill="#DB092E" opacity="1.000000" stroke="none" 
	d="
M158.421371,46.247532 
	C162.064743,44.985325 165.988770,44.035381 170.279297,43.080181 
	C170.673386,71.322395 170.700958,99.569870 170.730377,128.264191 
	C167.070038,128.748917 163.407867,128.786804 159.279022,128.759308 
	C158.775589,101.315887 158.738800,73.937843 158.421371,46.247532 
z"/>
<path fill="#363336" opacity="1.000000" stroke="none" 
	d="
M147.068985,128.703888 
	C146.801651,119.960548 146.901291,110.999817 147.012329,101.582703 
	C147.347443,104.160011 147.937515,107.193596 147.938797,110.227425 
	C147.941360,116.313713 147.622284,122.400131 147.068985,128.703888 
z"/>
<path fill="#DCAD00" opacity="1.000000" stroke="none" 
	d="
M178.054626,153.314636 
	C181.213272,152.695419 184.359406,152.391052 187.498566,152.451050 
	C187.906784,152.458847 188.821457,154.546890 188.536026,155.310349 
	C188.145691,156.354340 186.923264,157.611954 185.891891,157.783737 
	C183.653641,158.156525 181.310379,157.898697 178.409485,157.898697 
	C178.283478,156.481552 178.161713,155.112076 178.054626,153.314636 
z"/>
<path fill="#E7B500" opacity="1.000000" stroke="none" 
	d="
M187.425949,143.869827 
	C184.392242,144.727478 181.576950,145.224731 177.468338,145.950424 
	C178.340759,143.543335 178.981857,141.143906 179.230820,141.183929 
	C182.099564,141.645065 186.021057,138.743408 187.425949,143.869827 
z"/>
<path fill="#140805" opacity="1.000000" stroke="none" 
	d="
M136.412796,190.065399 
	C142.530472,185.049438 149.828781,186.355148 157.040222,187.696442 
	C159.437302,188.142288 161.690216,189.363113 164.354889,190.388657 
	C164.830566,190.885437 164.960388,191.223206 165.007202,191.827606 
	C159.078735,190.807617 153.233307,189.520996 146.850433,188.633987 
	C145.873886,189.087219 145.434769,189.140823 144.995667,189.194412 
	C142.273575,189.486832 139.551483,189.779266 136.412796,190.065399 
z"/>
<path fill="#060D0F" opacity="1.000000" stroke="none" 
	d="
M177.776718,213.836212 
	C177.725784,212.298843 177.674866,210.761490 177.269562,208.875687 
	C176.915176,208.527252 177.031265,208.127457 177.031265,208.127457 
	C181.240921,211.819199 179.880066,216.766846 179.726547,221.291626 
	C179.640259,223.835083 178.445862,226.340927 177.397949,228.712006 
	C176.987610,228.257874 176.930023,227.955475 176.872437,227.653061 
	C176.899612,224.445572 176.926773,221.238098 176.973083,217.310699 
	C177.006577,216.361938 177.020920,216.133057 177.263092,215.979874 
	C177.490891,216.055573 177.967117,215.994614 178.145676,215.934555 
	C178.398849,215.774826 178.558105,215.635529 178.533249,215.582443 
	C178.433594,215.369629 178.276840,215.183548 178.079651,214.793854 
	C178.016296,214.320602 177.935852,214.065979 177.776718,213.836212 
z"/>
<path fill="#0A0D0B" opacity="1.000000" stroke="none" 
	d="
M176.638657,227.842148 
	C176.930023,227.955475 176.987610,228.257874 177.152557,229.012360 
	C175.724854,232.031143 174.189789,234.597885 172.303070,237.065277 
	C172.677017,234.894714 173.402649,232.823502 174.265732,230.277298 
	C174.601257,229.530746 174.799347,229.259186 174.997421,228.987640 
	C175.466568,228.668839 175.935715,228.350037 176.638657,227.842148 
z"/>
<path fill="#0A0D0B" opacity="1.000000" stroke="none" 
	d="
M164.976685,244.799728 
	C163.930573,245.047409 163.108276,245.030472 161.871429,245.006104 
	C163.049896,243.938919 164.642899,242.879150 166.595093,241.879761 
	C166.369675,242.805115 165.785095,243.670120 164.976685,244.799728 
z"/>
<path fill="#140805" opacity="1.000000" stroke="none" 
	d="
M173.946320,200.734329 
	C173.097717,200.273071 172.253510,199.468933 171.643463,198.357101 
	C172.568649,198.830093 173.259674,199.610779 173.946320,200.734329 
z"/>
<path fill="#E5B400" opacity="1.000000" stroke="none" 
	d="
M176.969330,207.798965 
	C177.031265,208.127457 176.915176,208.527252 176.958267,208.729736 
	C176.674591,208.155716 176.347839,207.379196 176.036377,206.259705 
	C176.336914,206.434631 176.622162,206.952560 176.969330,207.798965 
z"/>
<path fill="#140805" opacity="1.000000" stroke="none" 
	d="
M175.153839,203.511917 
	C174.650558,203.145874 174.133926,202.435440 173.762100,201.377365 
	C174.318100,201.742325 174.729279,202.454941 175.153839,203.511917 
z"/>
<path fill="#0A0D0B" opacity="1.000000" stroke="none" 
	d="
M171.207458,238.874725 
	C170.988892,238.350662 171.109512,237.742188 171.595016,237.045349 
	C171.822159,237.568085 171.684402,238.179199 171.207458,238.874725 
z"/>
<path fill="#0A0D0B" opacity="1.000000" stroke="none" 
	d="
M168.281937,241.117279 
	C168.432831,240.437820 168.905640,239.905396 169.668579,239.620544 
	C169.507095,240.333542 169.055481,240.798950 168.281937,241.117279 
z"/>
<path fill="#140805" opacity="1.000000" stroke="none" 
	d="
M167.877991,193.792114 
	C167.334991,194.020248 166.711655,193.911224 166.018982,193.429169 
	C166.565659,193.189087 167.181656,193.322021 167.877991,193.792114 
z"/>
<path fill="#140805" opacity="1.000000" stroke="none" 
	d="
M168.931183,194.797058 
	C168.503540,194.996689 168.068466,194.899765 167.763458,194.436523 
	C168.236923,194.213654 168.580353,194.357071 168.931183,194.797058 
z"/>
<path fill="#140805" opacity="1.000000" stroke="none" 
	d="
M169.936768,195.789948 
	C169.520508,195.986481 169.100296,195.883499 168.793457,195.421432 
	C169.248810,195.205032 169.590836,195.347717 169.936768,195.789948 
z"/>
<path fill="#140805" opacity="1.000000" stroke="none" 
	d="
M170.937042,196.790039 
	C170.525116,196.985184 170.109909,196.880569 169.802551,196.417648 
	C170.251526,196.202988 170.592667,196.346619 170.937042,196.790039 
z"/>
<path fill="#140805" opacity="1.000000" stroke="none" 
	d="
M165.988129,192.753052 
	C165.540009,192.950897 165.121033,192.838181 164.806198,192.393372 
	C165.279312,192.188354 165.648300,192.315445 165.988129,192.753052 
z"/>
<path fill="#140805" opacity="1.000000" stroke="none" 
	d="
M171.919662,197.805054 
	C171.517593,197.997711 171.102600,197.893463 170.798767,197.424072 
	C171.242188,197.208664 171.574463,197.358414 171.919662,197.805054 
z"/>
<path fill="#E5B400" opacity="1.000000" stroke="none" 
	d="
M175.882629,204.735077 
	C175.576004,204.890213 175.369705,204.727432 175.149185,204.310135 
	C175.364532,204.243393 175.647186,204.363907 175.882629,204.735077 
z"/>
<path fill="#0A0D0B" opacity="1.000000" stroke="none" 
	d="
M167.263062,241.998871 
	C167.085815,241.629242 167.231689,241.299652 167.679962,240.961670 
	C167.850296,241.315155 167.718231,241.677017 167.263062,241.998871 
z"/>
<path fill="#0A0D0B" opacity="1.000000" stroke="none" 
	d="
M170.178009,239.903625 
	C169.987137,239.492416 170.083694,239.051132 170.557114,238.750046 
	C170.777802,239.218018 170.621628,239.545792 170.178009,239.903625 
z"/>
<path fill="#E6B400" opacity="1.000000" stroke="none" 
	d="
M163.316986,226.304031 
	C160.878143,231.042084 157.790237,234.490051 151.768616,236.106018 
	C155.609039,230.369949 163.906021,228.255630 160.397461,219.525635 
	C160.976532,219.610703 161.555618,219.695755 162.134689,219.780823 
	C162.581772,221.846390 163.028854,223.911942 163.316986,226.304031 
z"/>
<path fill="#E7B500" opacity="1.000000" stroke="none" 
	d="
M145.934601,221.934647 
	C145.332275,219.143417 144.729950,216.352188 143.981018,212.881516 
	C145.161118,213.511658 146.282425,214.110413 147.702438,215.189941 
	C148.004791,216.114853 148.008453,216.558945 148.012131,217.003052 
	C147.596283,218.627121 147.180435,220.251190 146.376160,221.933350 
	C145.987732,221.991455 145.934601,221.934647 145.934601,221.934647 
z"/>
<path fill="#E7B600" opacity="1.000000" stroke="none" 
	d="
M148.450989,217.002045 
	C148.008453,216.558945 148.004791,216.114853 148.000870,215.337799 
	C149.370117,214.969498 150.972443,215.382111 152.065140,214.814178 
	C155.248016,213.159943 156.718781,214.865524 158.037720,217.629211 
	C158.031021,217.973679 157.969452,218.056686 157.969452,218.056686 
	C154.942917,217.704803 151.916397,217.352921 148.450989,217.002045 
z"/>
<path fill="#E5B400" opacity="1.000000" stroke="none" 
	d="
M164.931107,204.982651 
	C161.786743,203.367615 158.642380,201.752563 155.498016,200.137527 
	C155.775284,199.625381 156.052551,199.113235 156.329819,198.601089 
	C159.530197,200.469727 162.730591,202.338348 165.696915,204.516510 
	C165.285599,204.878220 165.108353,204.930435 164.931107,204.982651 
z"/>
<path fill="#E6B400" opacity="1.000000" stroke="none" 
	d="
M174.960297,228.642456 
	C174.799347,229.259186 174.601257,229.530746 174.160095,229.886963 
	C171.853119,228.206787 169.789230,226.441940 167.725342,224.677094 
	C168.025604,224.284714 168.325867,223.892334 168.626144,223.499954 
	C170.725159,225.099060 172.824173,226.698166 174.960297,228.642456 
z"/>
<path fill="#E5B400" opacity="1.000000" stroke="none" 
	d="
M144.986572,189.548859 
	C145.434769,189.140823 145.873886,189.087219 146.639847,188.972641 
	C146.534195,190.948624 146.101685,192.985580 145.667297,195.022095 
	C142.943756,193.905243 142.943756,193.905243 144.986572,189.548859 
z"/>
<path fill="#E6B400" opacity="1.000000" stroke="none" 
	d="
M142.786194,240.176392 
	C144.278610,239.136185 145.706268,238.396103 147.133926,237.656021 
	C147.375946,238.206329 147.617966,238.756638 147.859985,239.306931 
	C146.147141,239.696793 144.434296,240.086655 142.786194,240.176392 
z"/>
<path fill="#302600" opacity="1.000000" stroke="none" 
	d="
M131.111099,221.150742 
	C132.575546,222.109116 134.039993,223.067505 136.268524,224.525940 
	C134.626511,224.918427 133.929169,225.085114 132.716324,225.228973 
	C132.050003,225.060028 131.899155,224.913910 131.748322,224.767792 
	C131.556046,223.762436 131.363770,222.757095 131.096466,221.386703 
	C131.021423,221.021667 131.111099,221.150742 131.111099,221.150742 
z"/>
<path fill="#E5B400" opacity="1.000000" stroke="none" 
	d="
M145.005615,201.004272 
	C144.928787,199.772690 144.851959,198.541107 144.775131,197.309509 
	C145.245056,197.150299 145.714981,196.991074 146.184891,196.831863 
	C146.540543,198.019760 146.896179,199.207672 146.791626,200.699646 
	C145.889481,201.003891 145.447556,201.004074 145.005615,201.004272 
z"/>
<path fill="#140E07" opacity="1.000000" stroke="none" 
	d="
M152.534790,248.069458 
	C149.797577,248.308762 146.610474,248.474655 143.200165,248.293304 
	C146.012924,247.962708 149.048920,247.979370 152.534790,248.069458 
z"/>
<path fill="#E5B300" opacity="1.000000" stroke="none" 
	d="
M127.163818,204.638336 
	C127.889915,203.462723 128.659042,202.594162 129.428162,201.725601 
	C129.762741,202.160339 130.097321,202.595062 130.431900,203.029785 
	C129.356888,203.668335 128.281860,204.306870 127.163818,204.638336 
z"/>
<path fill="#E7B500" opacity="1.000000" stroke="none" 
	d="
M144.065125,207.047195 
	C143.798630,208.577499 143.532135,210.107819 143.265640,211.638123 
	C142.840118,211.539352 142.414597,211.440567 141.989075,211.341797 
	C142.411423,209.931015 142.833786,208.520248 143.631317,207.053757 
	C144.006516,206.998047 144.065125,207.047195 144.065125,207.047195 
z"/>
<path fill="#E6B400" opacity="1.000000" stroke="none" 
	d="
M135.859589,244.154938 
	C134.937164,243.608063 134.057892,242.649384 133.084427,241.347275 
	C133.961075,241.916946 134.931915,242.830048 135.859589,244.154938 
z"/>
<path fill="#E6B400" opacity="1.000000" stroke="none" 
	d="
M138.890289,241.620865 
	C139.033203,240.761215 139.400818,240.099472 139.768448,239.437714 
	C140.112183,239.684402 140.455902,239.931076 140.799637,240.177765 
	C140.238098,240.724762 139.676544,241.271759 138.890289,241.620865 
z"/>
<path fill="#E7B500" opacity="1.000000" stroke="none" 
	d="
M144.115479,223.120758 
	C143.582001,224.106552 143.048538,225.092361 142.515076,226.078171 
	C142.122513,225.771759 141.729965,225.465347 141.337402,225.158936 
	C142.021652,224.518311 142.705887,223.877701 143.715363,223.136932 
	C144.040573,223.036789 144.115479,223.120758 144.115479,223.120758 
z"/>
<path fill="#E5B300" opacity="1.000000" stroke="none" 
	d="
M129.621674,216.111908 
	C128.761749,215.969589 128.099777,215.602417 127.437805,215.235229 
	C127.684753,214.891129 127.931702,214.547012 128.178650,214.202911 
	C128.725632,214.764297 129.272614,215.325684 129.621674,216.111908 
z"/>
<path fill="#E7B500" opacity="1.000000" stroke="none" 
	d="
M145.008240,201.349213 
	C145.447556,201.004074 145.889481,201.003891 146.662811,201.003998 
	C146.696243,201.837936 146.398300,202.671585 146.100357,203.505249 
	C145.737183,202.901566 145.374023,202.297867 145.008240,201.349213 
z"/>
<path fill="#E5B300" opacity="1.000000" stroke="none" 
	d="
M127.970963,197.192734 
	C128.481186,197.196960 129.004776,197.539124 129.761871,198.052460 
	C129.633301,198.677277 129.271225,199.130951 128.909149,199.584625 
	C128.600876,198.899979 128.292587,198.215317 127.970963,197.192734 
z"/>
<path fill="#211A00" opacity="1.000000" stroke="none" 
	d="
M174.511307,212.290009 
	C174.942139,212.720276 175.372971,213.150543 176.024109,214.056213 
	C176.174484,214.699997 176.104538,214.868393 176.034592,215.036789 
	C175.321243,214.668930 174.607895,214.301086 174.037720,213.348541 
	C174.291046,212.605881 174.401184,212.447952 174.511307,212.290009 
z"/>
<path fill="#E5B400" opacity="1.000000" stroke="none" 
	d="
M176.025421,215.013916 
	C176.104538,214.868393 176.174484,214.699997 176.252823,214.258179 
	C176.513519,213.960968 176.765839,213.937180 177.397430,213.874786 
	C177.935852,214.065979 178.016296,214.320602 177.998642,215.039185 
	C177.975174,215.650391 177.971146,215.822510 177.967117,215.994614 
	C177.967117,215.994614 177.490891,216.055573 177.210510,215.697998 
	C176.610550,215.217056 176.290985,215.093689 175.971405,214.970322 
	C175.971405,214.970322 176.016235,214.991043 176.025421,215.013916 
z"/>
<path fill="#E5B300" opacity="1.000000" stroke="none" 
	d="
M131.086090,221.066315 
	C130.663956,220.848007 130.177170,220.585037 129.690369,220.322083 
	C129.874191,220.113571 130.058014,219.905075 130.241852,219.696564 
	C130.502380,220.000992 130.762909,220.305389 131.067261,220.880280 
	C131.111099,221.150742 131.021423,221.021667 131.086090,221.066315 
z"/>
<path fill="#E7B600" opacity="1.000000" stroke="none" 
	d="
M158.065887,217.935547 
	C158.508026,218.068146 158.915314,218.238892 159.322601,218.409637 
	C158.960358,218.422501 158.598099,218.435349 158.102661,218.252441 
	C157.969452,218.056686 158.031021,217.973679 158.065887,217.935547 
z"/>
<path fill="#302600" opacity="1.000000" stroke="none" 
	d="
M131.169800,227.151642 
	C130.802353,227.545822 130.434891,227.940018 129.832672,228.476593 
	C129.447800,228.468277 129.297714,228.317551 128.931076,227.932373 
	C129.111298,227.306808 129.508072,226.915710 130.320389,226.615707 
	C130.880554,226.855072 131.025177,227.003357 131.169800,227.151642 
z"/>
<path fill="#302600" opacity="1.000000" stroke="none" 
	d="
M137.453217,225.755249 
	C136.844620,225.716354 136.523819,225.440735 136.203018,225.165131 
	C136.715683,225.282913 137.228363,225.400696 137.453217,225.755249 
z"/>
<path fill="#E7B500" opacity="1.000000" stroke="none" 
	d="
M146.011353,222.022369 
	C145.582138,222.370270 145.129333,222.687271 144.395996,223.062515 
	C144.115479,223.120758 144.040573,223.036789 144.008606,222.991257 
	C144.438187,222.636520 144.899734,222.327316 145.647949,221.976379 
	C145.934601,221.934647 145.987732,221.991455 146.011353,222.022369 
z"/>
<path fill="#302600" opacity="1.000000" stroke="none" 
	d="
M130.553040,226.455658 
	C130.677719,225.803604 130.985321,225.402695 131.520615,224.884796 
	C131.899155,224.913910 132.050003,225.060028 132.410599,225.442978 
	C132.299103,226.098557 131.977844,226.517288 131.413193,227.043839 
	C131.025177,227.003357 130.880554,226.855072 130.553040,226.455658 
z"/>
<path fill="#211A00" opacity="1.000000" stroke="none" 
	d="
M175.756073,215.273743 
	C176.290985,215.093689 176.610550,215.217056 176.982697,215.622314 
	C177.020920,216.133057 177.006577,216.361938 176.933624,216.930023 
	C176.430267,216.705231 175.985504,216.141205 175.756073,215.273743 
z"/>
<path fill="#140805" opacity="1.000000" stroke="none" 
	d="
M134.326111,191.046814 
	C134.457977,190.650711 134.918518,190.242523 135.716721,189.926880 
	C135.587860,190.357864 135.121338,190.696304 134.326111,191.046814 
z"/>
<path fill="#211A00" opacity="1.000000" stroke="none" 
	d="
M165.005829,205.287231 
	C165.108353,204.930435 165.285599,204.878220 165.734497,204.770981 
	C166.397705,204.850220 166.789246,204.984512 167.199371,205.474396 
	C167.075806,205.959381 166.933685,206.088745 166.791550,206.218109 
	C166.221222,206.009338 165.650879,205.800583 165.005829,205.287231 
z"/>
<path fill="#E7B500" opacity="1.000000" stroke="none" 
	d="
M143.981384,206.969223 
	C144.078262,206.927277 144.200287,206.914139 144.193710,206.974091 
	C144.065125,207.047195 144.006516,206.998047 143.981384,206.969223 
z"/>
<path fill="#211A00" opacity="1.000000" stroke="none" 
	d="
M167.449982,205.658966 
	C167.880066,205.858490 168.078094,206.229065 168.276123,206.599655 
	C167.898056,206.653778 167.520004,206.707886 166.966751,206.490051 
	C166.933685,206.088745 167.075806,205.959381 167.449982,205.658966 
z"/>
<path fill="#211A00" opacity="1.000000" stroke="none" 
	d="
M169.444687,208.700912 
	C169.173019,208.311493 168.901337,207.922073 168.629669,207.532654 
	C169.019577,207.427658 169.409500,207.322678 169.796112,207.730743 
	C169.676758,208.396164 169.560730,208.548538 169.444687,208.700912 
z"/>
<path fill="#211A00" opacity="1.000000" stroke="none" 
	d="
M170.446167,209.702667 
	C170.161453,209.547668 169.923935,209.338974 169.589142,208.888763 
	C169.560730,208.548538 169.676758,208.396164 169.987061,208.032104 
	C170.458664,207.995178 170.736023,208.169952 170.903641,208.794525 
	C170.677979,209.397110 170.562073,209.549896 170.446167,209.702667 
z"/>
<path fill="#211A00" opacity="1.000000" stroke="none" 
	d="
M170.988098,209.032074 
	C171.459793,208.995697 171.737305,209.171555 171.911804,209.798798 
	C171.703400,210.407288 171.597992,210.564423 171.492599,210.721542 
	C171.187485,210.577484 170.938828,210.366806 170.596405,209.896088 
	C170.562073,209.549896 170.677979,209.397110 170.988098,209.032074 
z"/>
<path fill="#211A00" opacity="1.000000" stroke="none" 
	d="
M171.996094,210.036957 
	C172.457626,210.131851 172.731842,210.439972 173.006073,210.748077 
	C172.661880,210.886597 172.317688,211.025131 171.733047,210.942596 
	C171.597992,210.564423 171.703400,210.407288 171.996094,210.036957 
z"/>
<path fill="#211A00" opacity="1.000000" stroke="none" 
	d="
M173.989029,212.979675 
	C173.536102,212.879349 173.275070,212.563156 173.014053,212.246948 
	C173.355774,212.113449 173.697495,211.979935 174.275269,212.068207 
	C174.401184,212.447952 174.291046,212.605881 173.989029,212.979675 
z"/>
<path fill="#211A00" opacity="1.000000" stroke="none" 
	d="
M178.145676,215.934555 
	C177.971146,215.822510 177.975174,215.650391 178.060211,215.232941 
	C178.276840,215.183548 178.433594,215.369629 178.533249,215.582443 
	C178.558105,215.635529 178.398849,215.774826 178.145676,215.934555 
z"/>
</svg>