<svg version="1.1" id="Layer_1" xmlns="http://www.w3.org/2000/svg" xmlns:xlink="http://www.w3.org/1999/xlink" x="0px" y="0px"
	 width="100%" viewBox="0 0 265 281" enable-background="new 0 0 265 281" xml:space="preserve">
<path fill="#FDFDFD" opacity="1.000000" stroke="none" 
	d="
M266.000000,104.000000 
	C266.000000,163.639572 266.000000,222.779129 266.000000,281.959351 
	C177.734238,281.959351 89.468452,281.959351 1.101333,281.959351 
	C1.101333,188.443878 1.101333,94.887627 1.101333,1.165682 
	C89.333076,1.165682 177.666519,1.165682 266.000000,1.165682 
	C266.000000,35.198025 266.000000,69.349014 266.000000,104.000000 
M5.583393,145.063629 
	C6.363633,152.166611 6.699363,159.351639 7.993061,166.359833 
	C20.557232,234.422241 89.961281,280.824341 157.658432,266.566101 
	C227.712891,251.811417 271.141205,186.945908 258.069885,116.589302 
	C245.397873,48.382000 175.649429,1.958782 107.816681,16.583681 
	C46.253403,29.856867 5.089810,81.218727 5.583393,145.063629 
z"/>
<path fill="#020203" opacity="1.000000" stroke="none" 
	d="
M5.573286,144.617035 
	C5.089810,81.218727 46.253403,29.856867 107.816681,16.583681 
	C175.649429,1.958782 245.397873,48.382000 258.069885,116.589302 
	C271.141205,186.945908 227.712891,251.811417 157.658432,266.566101 
	C89.961281,280.824341 20.557232,234.422241 7.993061,166.359833 
	C6.699363,159.351639 6.363633,152.166611 5.573286,144.617035 
M33.519962,186.885910 
	C55.858566,233.434357 103.877510,258.168274 153.777893,248.829163 
	C223.865601,235.711884 262.722565,158.024963 231.339355,93.760193 
	C203.478470,36.708286 133.055206,14.830352 78.244629,47.154751 
	C43.455425,67.671593 25.154198,98.894081 23.857332,139.632751 
	C23.339647,155.894913 26.758394,171.343613 33.519962,186.885910 
z"/>
<path fill="#0420A0" opacity="1.000000" stroke="none" 
	d="
M33.355740,186.543060 
	C26.758394,171.343613 23.339647,155.894913 23.857332,139.632751 
	C25.154198,98.894081 43.455425,67.671593 78.244629,47.154751 
	C133.055206,14.830352 203.478470,36.708286 231.339355,93.760193 
	C262.722565,158.024963 223.865601,235.711884 153.777893,248.829163 
	C103.877510,258.168274 55.858566,233.434357 33.355740,186.543060 
M157.576614,229.109665 
	C159.820923,227.723190 164.268707,229.267960 164.013428,224.585419 
	C163.726730,219.326279 163.134827,214.083771 162.664734,208.708450 
	C155.795868,210.546066 149.283188,212.288391 142.420410,214.124390 
	C142.420410,165.446503 142.420410,117.540108 142.420410,68.775276 
	C149.848450,70.881317 156.804642,72.853577 164.137695,74.932693 
	C166.504486,69.858017 168.931183,64.654892 171.342224,59.485313 
	C150.018845,47.128563 112.743599,48.126034 94.724304,59.710255 
	C97.169228,64.909203 99.622711,70.126366 101.876953,74.919853 
	C109.475967,72.775757 116.454163,70.806831 123.834366,68.724480 
	C123.834366,117.509689 123.834366,165.458847 123.834366,214.141464 
	C116.863976,212.305450 110.242905,210.561432 103.472252,208.778030 
	C102.993553,213.785385 102.737213,218.447586 102.045731,223.044342 
	C101.534561,226.442413 102.952950,227.609116 106.013336,228.504959 
	C122.885132,233.443726 139.776413,233.859772 157.576614,229.109665 
M181.234222,218.770599 
	C186.963974,215.411285 190.956177,212.141663 190.024124,203.737900 
	C186.464462,171.642197 183.976746,139.426575 181.235855,107.243195 
	C181.036240,104.899292 181.567062,102.259689 182.519714,100.092232 
	C186.311157,91.466103 190.404556,82.972679 194.577026,74.020523 
	C189.507065,70.284760 184.749268,66.779022 179.625961,63.003956 
	C170.173950,83.303955 161.051346,102.875946 151.970398,122.467255 
	C151.565002,123.341850 151.364685,124.391548 151.361771,125.360558 
	C151.322617,138.417053 151.335510,151.473709 151.335510,164.530319 
	C151.625824,164.611633 151.916138,164.692947 152.206467,164.774261 
	C156.374405,155.951218 160.542343,147.128174 164.710297,138.305130 
	C165.030411,138.403351 165.350540,138.501587 165.670670,138.599808 
	C168.133774,166.636993 170.596893,194.674179 173.111893,223.302017 
	C176.002716,221.680099 178.295181,220.393875 181.234222,218.770599 
M115.011978,133.559341 
	C115.726257,127.389374 113.915543,121.913864 111.216972,116.371536 
	C103.648521,100.827461 96.504761,85.076607 89.193687,69.407219 
	C88.309944,67.513168 87.427483,65.618530 86.228813,63.047085 
	C80.967697,66.994766 76.242241,70.540527 71.380539,74.188507 
	C75.634445,83.303955 79.711739,91.840225 83.573227,100.473022 
	C84.416092,102.357353 84.987930,104.624580 84.833633,106.650658 
	C83.859856,119.437500 82.635567,132.205139 81.514206,144.980881 
	C79.664696,166.052399 77.786903,187.121704 76.069824,208.204071 
	C75.927193,209.955368 76.320488,212.585510 77.480789,213.461365 
	C82.198906,217.022858 87.313217,220.059448 92.876495,223.676407 
	C95.431923,194.730896 97.896248,166.817413 100.360565,138.903915 
	C100.716270,138.835358 101.071983,138.766800 101.427689,138.698242 
	C105.669846,147.666016 109.912003,156.633804 114.154160,165.601593 
	C114.440102,165.514542 114.726036,165.427475 115.011971,165.340424 
	C115.011971,155.074341 115.011971,144.808273 115.011978,133.559341 
M62.455444,159.859406 
	C57.384735,139.262894 60.523750,119.999557 71.747169,102.005516 
	C72.360298,101.022514 72.890533,99.389938 72.496330,98.474350 
	C70.089737,92.884773 67.404556,87.415154 64.746475,81.765694 
	C33.413067,115.429802 34.749123,171.637726 67.417511,204.041214 
	C67.044281,191.722229 72.645241,180.013672 65.446068,168.616272 
	C63.986835,166.306076 63.611912,163.310959 62.455444,159.859406 
M197.443985,188.040390 
	C197.925629,193.124710 198.407272,198.209030 198.919312,203.614349 
	C230.963928,172.355560 232.876938,115.509636 201.467850,82.041084 
	C201.247986,82.276321 200.951614,82.475143 200.819717,82.752251 
	C198.749573,87.101791 196.912567,91.579529 194.573135,95.777687 
	C192.981461,98.634003 193.341156,100.670052 194.990891,103.434387 
	C207.681244,124.698715 209.629959,147.022781 199.891602,169.822083 
	C197.404144,175.645645 196.512604,181.104843 197.443985,188.040390 
z"/>
<path fill="#FCFCFE" opacity="1.000000" stroke="none" 
	d="
M157.176025,229.219849 
	C139.776413,233.859772 122.885132,233.443726 106.013336,228.504959 
	C102.952950,227.609116 101.534561,226.442413 102.045731,223.044342 
	C102.737213,218.447586 102.993553,213.785385 103.472252,208.778030 
	C110.242905,210.561432 116.863976,212.305450 123.834366,214.141464 
	C123.834366,165.458847 123.834366,117.509689 123.834366,68.724480 
	C116.454163,70.806831 109.475967,72.775757 101.876953,74.919853 
	C99.622711,70.126366 97.169228,64.909203 94.724304,59.710255 
	C112.743599,48.126034 150.018845,47.128563 171.342224,59.485313 
	C168.931183,64.654892 166.504486,69.858017 164.137695,74.932693 
	C156.804642,72.853577 149.848450,70.881317 142.420410,68.775276 
	C142.420410,117.540108 142.420410,165.446503 142.420410,214.124390 
	C149.283188,212.288391 155.795868,210.546066 162.664734,208.708450 
	C163.134827,214.083771 163.726730,219.326279 164.013428,224.585419 
	C164.268707,229.267960 159.820923,227.723190 157.176025,229.219849 
z"/>
<path fill="#FAFAFD" opacity="1.000000" stroke="none" 
	d="
M180.910950,218.939133 
	C178.295181,220.393875 176.002716,221.680099 173.111893,223.302017 
	C170.596893,194.674179 168.133774,166.636993 165.670670,138.599808 
	C165.350540,138.501587 165.030411,138.403351 164.710297,138.305130 
	C160.542343,147.128174 156.374405,155.951218 152.206467,164.774261 
	C151.916138,164.692947 151.625824,164.611633 151.335510,164.530319 
	C151.335510,151.473709 151.322617,138.417053 151.361771,125.360558 
	C151.364685,124.391548 151.565002,123.341850 151.970398,122.467255 
	C161.051346,102.875946 170.173950,83.303955 179.625961,63.003956 
	C184.749268,66.779022 189.507065,70.284760 194.577026,74.020523 
	C190.404556,82.972679 186.311157,91.466103 182.519714,100.092232 
	C181.567062,102.259689 181.036240,104.899292 181.235855,107.243195 
	C183.976746,139.426575 186.464462,171.642197 190.024124,203.737900 
	C190.956177,212.141663 186.963974,215.411285 180.910950,218.939133 
z"/>
<path fill="#FBFBFD" opacity="1.000000" stroke="none" 
	d="
M115.011978,134.050781 
	C115.011971,144.808273 115.011971,155.074341 115.011971,165.340424 
	C114.726036,165.427475 114.440102,165.514542 114.154160,165.601593 
	C109.912003,156.633804 105.669846,147.666016 101.427689,138.698242 
	C101.071983,138.766800 100.716270,138.835358 100.360565,138.903915 
	C97.896248,166.817413 95.431923,194.730896 92.876495,223.676407 
	C87.313217,220.059448 82.198906,217.022858 77.480789,213.461365 
	C76.320488,212.585510 75.927193,209.955368 76.069824,208.204071 
	C77.786903,187.121704 79.664696,166.052399 81.514206,144.980881 
	C82.635567,132.205139 83.859856,119.437500 84.833633,106.650658 
	C84.987930,104.624580 84.416092,102.357353 83.573227,100.473022 
	C79.711739,91.840225 75.634445,83.303955 71.380539,74.188507 
	C76.242241,70.540527 80.967697,66.994766 86.228813,63.047085 
	C87.427483,65.618530 88.309944,67.513168 89.193687,69.407219 
	C96.504761,85.076607 103.648521,100.827461 111.216972,116.371536 
	C113.915543,121.913864 115.726257,127.389374 115.011978,134.050781 
z"/>
<path fill="#FAFBFD" opacity="1.000000" stroke="none" 
	d="
M62.596275,160.245514 
	C63.611912,163.310959 63.986835,166.306076 65.446068,168.616272 
	C72.645241,180.013672 67.044281,191.722229 67.417511,204.041214 
	C34.749123,171.637726 33.413067,115.429802 64.746475,81.765694 
	C67.404556,87.415154 70.089737,92.884773 72.496330,98.474350 
	C72.890533,99.389938 72.360298,101.022514 71.747169,102.005516 
	C60.523750,119.999557 57.384735,139.262894 62.596275,160.245514 
z"/>
<path fill="#FAFBFD" opacity="1.000000" stroke="none" 
	d="
M197.381546,187.580856 
	C196.512604,181.104843 197.404144,175.645645 199.891602,169.822083 
	C209.629959,147.022781 207.681244,124.698715 194.990891,103.434387 
	C193.341156,100.670052 192.981461,98.634003 194.573135,95.777687 
	C196.912567,91.579529 198.749573,87.101791 200.819717,82.752251 
	C200.951614,82.475143 201.247986,82.276321 201.470215,82.043289 
	C232.876938,115.509636 230.963928,172.355560 198.919312,203.614349 
	C198.407272,198.209030 197.925629,193.124710 197.381546,187.580856 
z"/>
</svg>