<svg version="1.1" id="Layer_1" xmlns="http://www.w3.org/2000/svg" xmlns:xlink="http://www.w3.org/1999/xlink" x="0px" y="0px"
	 width="100%" viewBox="0 0 162 281" enable-background="new 0 0 162 281" xml:space="preserve">
<path fill="#FDFDFD" opacity="1.000000" stroke="none" 
	d="
M1.000000,111.000000 
	C1.000000,74.000008 1.000000,37.500023 1.000000,1.000025 
	C54.999973,1.000016 108.999947,1.000016 162.999939,1.000008 
	C162.999969,94.666618 162.999969,188.333237 162.999985,281.999878 
	C109.000069,281.999939 55.000141,281.999939 1.000107,281.999969 
	C1.000000,225.166672 1.000000,168.333328 1.000000,111.000000 
M20.053921,196.602295 
	C17.357210,197.835907 14.660501,199.069534 10.991639,200.747879 
	C16.395685,209.689056 21.578093,218.263519 27.486204,228.038696 
	C43.280502,219.050476 58.443703,211.124619 72.853409,202.007828 
	C85.303520,194.130783 93.137657,182.263504 95.604538,167.586197 
	C97.005951,159.248184 97.709915,150.701096 97.756348,142.242828 
	C97.975044,102.411728 97.860245,62.578781 97.849121,22.746494 
	C97.848717,21.303143 97.688301,19.859838 97.601852,18.406406 
	C66.360313,18.406406 35.462036,18.406406 4.593133,18.406406 
	C4.593133,27.603535 4.593133,36.480251 4.593133,45.720383 
	C25.242876,45.720383 45.508102,45.720383 65.619965,45.720383 
	C65.912224,46.377075 66.154083,46.666389 66.153473,46.955193 
	C66.079933,81.618797 66.149025,116.283913 65.815933,150.945145 
	C65.689316,164.121414 60.202660,174.947617 48.494907,181.665970 
	C39.431274,186.867004 29.978260,191.389496 20.053921,196.602295 
M159.139221,113.500053 
	C159.139221,81.776588 159.139221,50.053127 159.139221,18.361931 
	C148.360474,18.361931 138.278564,18.361931 127.860764,18.361931 
	C127.860764,26.253078 127.900642,33.884113 127.854095,41.514614 
	C127.607307,81.972145 127.901917,122.443817 126.876465,162.881866 
	C126.211845,189.090775 114.461159,210.141205 92.272789,224.787064 
	C86.732285,228.444199 81.039207,231.901321 75.228241,235.109848 
	C67.534813,239.357758 59.656498,243.270859 50.766220,247.895599 
	C61.061436,253.391876 70.643173,258.593018 80.344749,263.560028 
	C81.366692,264.083252 83.296776,263.596313 84.462639,262.954834 
	C94.346695,257.516479 104.529190,252.503983 113.909523,246.288269 
	C143.625824,226.597244 157.952240,198.212067 158.965607,162.957428 
	C159.429550,146.816650 159.105774,130.653214 159.139221,113.500053 
z"/>
<path fill="#040404" opacity="1.000000" stroke="none" 
	d="
M20.376131,196.407959 
	C29.978260,191.389496 39.431274,186.867004 48.494907,181.665970 
	C60.202660,174.947617 65.689316,164.121414 65.815933,150.945145 
	C66.149025,116.283913 66.079933,81.618797 66.153473,46.955193 
	C66.154083,46.666389 65.912224,46.377075 65.619965,45.720383 
	C45.508102,45.720383 25.242876,45.720383 4.593133,45.720383 
	C4.593133,36.480251 4.593133,27.603535 4.593133,18.406406 
	C35.462036,18.406406 66.360313,18.406406 97.601852,18.406406 
	C97.688301,19.859838 97.848717,21.303143 97.849121,22.746494 
	C97.860245,62.578781 97.975044,102.411728 97.756348,142.242828 
	C97.709915,150.701096 97.005951,159.248184 95.604538,167.586197 
	C93.137657,182.263504 85.303520,194.130783 72.853409,202.007828 
	C58.443703,211.124619 43.280502,219.050476 27.486204,228.038696 
	C21.578093,218.263519 16.395685,209.689056 10.991639,200.747879 
	C14.660501,199.069534 17.357210,197.835907 20.376131,196.407959 
z"/>
<path fill="#010101" opacity="1.000000" stroke="none" 
	d="
M159.139221,114.000061 
	C159.105774,130.653214 159.429550,146.816650 158.965607,162.957428 
	C157.952240,198.212067 143.625824,226.597244 113.909523,246.288269 
	C104.529190,252.503983 94.346695,257.516479 84.462639,262.954834 
	C83.296776,263.596313 81.366692,264.083252 80.344749,263.560028 
	C70.643173,258.593018 61.061436,253.391876 50.766220,247.895599 
	C59.656498,243.270859 67.534813,239.357758 75.228241,235.109848 
	C81.039207,231.901321 86.732285,228.444199 92.272789,224.787064 
	C114.461159,210.141205 126.211845,189.090775 126.876465,162.881866 
	C127.901917,122.443817 127.607307,81.972145 127.854095,41.514614 
	C127.900642,33.884113 127.860764,26.253078 127.860764,18.361931 
	C138.278564,18.361931 148.360474,18.361931 159.139221,18.361931 
	C159.139221,50.053127 159.139221,81.776588 159.139221,114.000061 
z"/>
</svg>