<svg version="1.1" id="Layer_1" xmlns="http://www.w3.org/2000/svg" xmlns:xlink="http://www.w3.org/1999/xlink" x="0px" y="0px"
	 width="100%" viewBox="0 0 170 313" enable-background="new 0 0 170 313" xml:space="preserve">
<path fill="#FEFCFC" opacity="1.000000" stroke="none" 
	d="
M1.000000,99.000000 
	C1.000000,66.000008 1.000000,33.500008 1.000000,1.000009 
	C57.666656,1.000006 114.333313,1.000006 170.999969,1.000003 
	C170.999985,105.333313 170.999985,209.666626 171.000000,313.999939 
	C114.333366,313.999969 57.666725,313.999969 1.000045,314.000000 
	C1.000000,242.500000 1.000000,171.000000 1.000000,99.000000 
M80.719002,57.657360 
	C84.651932,57.335850 88.751350,57.577015 92.455177,56.481152 
	C94.666168,55.826977 96.256744,53.075935 97.931328,51.456009 
	C92.624916,51.456009 88.103279,52.130146 83.872032,51.308617 
	C76.244621,49.827690 68.848335,47.184280 61.242546,45.553242 
	C56.946712,44.632011 52.909412,45.622578 51.821598,50.906593 
	C48.937111,51.013973 45.935646,52.171539 44.838478,48.053303 
	C44.672958,47.432007 42.641983,47.307701 41.017643,46.815147 
	C41.661587,48.923016 42.041733,50.167381 42.261032,50.885231 
	C39.066277,53.277256 36.143898,55.465343 33.221516,57.653427 
	C33.508049,58.076416 33.794582,58.499405 34.081116,58.922394 
	C36.899021,58.264084 39.716923,57.605774 42.534828,56.947464 
	C42.938610,57.437016 43.342392,57.926567 43.746178,58.416122 
	C42.061970,60.333145 40.377762,62.250172 38.740704,64.113533 
	C41.800987,66.581413 39.879456,68.461037 36.455872,69.651375 
	C30.631023,65.620811 26.565001,71.565063 21.416363,72.332405 
	C22.921371,73.474648 24.520643,74.621620 26.082180,74.572365 
	C28.420094,74.498619 30.731489,73.584167 33.567276,73.648376 
	C31.582752,75.132133 29.391975,76.409737 27.658308,78.144234 
	C24.435040,81.369041 25.464291,84.584068 29.980057,86.047775 
	C32.493992,81.915642 35.010025,77.780060 36.841866,74.769089 
	C40.543316,76.382820 43.437042,78.494339 46.423435,78.634743 
	C48.281212,78.722092 50.279236,75.826378 51.737045,74.653488 
	C47.673134,73.186409 44.333004,71.980621 40.868496,70.729935 
	C44.080498,65.368874 52.780106,62.186501 58.733456,63.825108 
	C62.867786,64.963043 65.198486,68.344528 63.956116,72.580803 
	C63.196491,75.170982 61.624073,77.810890 59.707180,79.713692 
	C55.699665,83.691742 51.079372,87.045273 46.970360,90.929901 
	C40.221222,97.310493 32.691490,103.180061 27.239754,110.557465 
	C12.728406,130.194519 17.716871,154.063278 38.281166,167.177109 
	C49.266743,174.182602 61.531620,177.871262 74.279091,179.785202 
	C77.824707,180.317535 79.455246,181.805405 79.728798,184.903870 
	C80.189354,190.120667 80.310196,195.367477 80.584137,200.804214 
	C81.996979,199.782837 83.670784,198.572784 84.806999,197.751389 
	C88.628975,210.237686 92.466431,222.774567 96.596291,236.266708 
	C94.039108,235.550797 91.576973,235.302902 89.566116,234.218323 
	C82.698021,230.513931 78.291992,236.212921 73.040367,238.424271 
	C72.317947,238.728470 72.511627,241.208313 72.253006,242.860931 
	C75.217117,241.503006 77.255859,240.569016 78.589249,239.958160 
	C78.720032,242.629272 78.822258,244.717178 78.987251,248.086838 
	C87.026794,239.580429 109.010201,238.494125 120.223244,245.203873 
	C120.986763,243.440201 122.755371,241.188248 122.212852,240.180588 
	C121.388283,238.649063 119.057877,237.707932 117.180763,237.038223 
	C115.852020,236.564163 114.205307,236.842560 112.717964,236.977402 
	C107.892418,237.414902 104.591209,235.515182 103.283089,230.769119 
	C101.695175,225.007935 100.072212,219.243820 98.835419,213.402420 
	C97.838005,208.691635 97.391487,203.864227 96.697243,199.065552 
	C100.636635,199.917542 103.702423,200.580582 106.766785,201.243317 
	C106.971397,200.210861 107.086403,199.981003 107.021179,199.904251 
	C106.492790,199.282394 105.975304,198.639740 105.371910,198.094894 
	C98.418503,191.816162 95.824608,183.753708 96.473480,174.714142 
	C96.680939,171.824020 95.837616,170.327194 93.983528,168.351105 
	C87.751030,161.708481 81.518776,155.005096 76.008636,147.774597 
	C73.759895,144.823761 73.361122,140.463120 72.120689,136.743896 
	C72.636414,136.528046 73.152130,136.312195 73.667854,136.096359 
	C77.098373,146.417419 83.764664,154.315796 91.712524,161.309799 
	C94.834641,164.057205 97.759399,167.041656 100.645332,170.041946 
	C106.437447,176.063583 109.421257,183.284988 109.563667,191.664398 
	C109.581306,192.702164 109.738777,193.737564 109.831459,194.774063 
	C111.212273,192.818939 111.837494,190.812363 112.020081,188.766281 
	C113.018738,177.575653 109.255745,168.123993 101.146530,160.451004 
	C95.100258,154.729980 88.750053,149.325684 82.802704,143.506927 
	C80.595726,141.347687 79.150810,138.409546 77.358360,135.826599 
	C98.436989,151.241196 114.887451,153.522995 120.769775,141.089142 
	C110.435226,140.735748 100.370880,139.417694 90.813522,133.665405 
	C100.329712,131.604523 102.426735,130.326859 104.411217,125.534531 
	C102.390732,125.534531 100.428253,125.625053 98.478035,125.509178 
	C96.511261,125.392311 94.556648,125.070564 92.596710,124.838585 
	C99.064781,122.622131 106.133766,122.039070 109.615715,114.201973 
	C103.600121,114.950829 98.241600,115.617889 92.883080,116.284950 
	C109.680557,109.017128 110.068794,108.746864 110.276909,103.032318 
	C107.548065,103.973541 104.949509,105.021805 102.264351,105.751297 
	C99.802452,106.420143 97.247101,106.744987 94.732925,107.221405 
	C101.140480,102.895927 110.017204,101.968140 111.423233,91.373291 
	C106.233498,93.333862 101.972496,94.943581 97.711502,96.553291 
	C100.659927,93.228897 104.305443,91.241081 107.475822,88.667854 
	C118.048904,80.086266 129.137543,71.982300 138.739166,62.402855 
	C149.759415,51.408077 157.994919,38.197491 162.283585,22.923435 
	C163.955292,16.969662 162.054230,12.075856 158.137756,7.724273 
	C157.453293,8.097191 157.222397,8.153118 157.210449,8.239362 
	C153.255249,36.804028 138.865356,59.239346 116.547874,76.866135 
	C109.499908,82.432755 102.081039,87.553757 94.629471,92.578476 
	C87.453651,97.417244 82.540192,103.644608 79.685432,111.912643 
	C78.098328,116.509262 75.405624,120.890327 72.436821,124.777046 
	C70.832794,126.877045 67.599762,127.732758 65.101639,129.149811 
	C64.913170,128.776901 64.724701,128.404007 64.536232,128.031097 
	C71.180862,122.205070 71.443718,122.277008 74.129051,112.465141 
	C77.684639,99.473419 84.596565,88.843552 95.008575,80.384773 
	C98.628304,77.444092 102.429123,74.646889 105.639450,71.297455 
	C113.445778,63.152889 121.300095,55.007019 128.452957,46.301220 
	C132.719528,41.108334 134.658524,34.544899 134.036682,27.570946 
	C133.550903,22.122858 130.034912,18.602226 125.014496,18.601852 
	C129.091461,25.465452 126.605843,31.900652 123.585869,38.113045 
	C116.660698,52.358795 106.053604,63.681648 93.657745,73.150352 
	C79.384514,84.053123 69.763985,97.430229 66.925026,115.468704 
	C66.502754,118.151787 63.963577,120.501709 62.403748,123.005760 
	C61.326199,120.064323 59.368538,117.132393 59.336651,114.179665 
	C59.242222,105.434769 63.566399,98.265663 68.967903,91.722031 
	C72.996368,86.841766 77.350754,82.209801 81.114677,77.136848 
	C86.511292,69.863403 86.021172,64.634232 79.932457,58.052456 
	C79.932457,58.052456 79.881653,58.083538 80.719002,57.657360 
M68.124611,198.102859 
	C70.014015,199.144684 71.903427,200.186493 73.863457,201.267258 
	C72.060745,194.575104 70.436760,188.546448 68.762924,182.332733 
	C63.753620,180.671082 58.294121,178.860077 52.958771,177.090271 
	C51.350273,184.031586 49.776917,190.821259 48.032829,198.347687 
	C51.277046,196.772720 53.885132,195.506561 57.081776,193.954681 
	C56.372032,196.108658 56.023056,197.876160 55.241261,199.425217 
	C50.237408,209.339920 45.302757,219.295700 40.010693,229.056519 
	C36.708244,235.147659 35.520840,235.184738 28.717226,233.268112 
	C26.314232,232.591187 23.522383,232.519806 21.073238,233.005264 
	C18.748850,233.465988 16.681665,235.114410 14.426746,236.063171 
	C11.550922,237.273163 10.453430,238.887222 12.403018,241.510025 
	C14.952660,240.387741 17.309065,239.350525 19.665468,238.313293 
	C18.550928,241.594009 15.776681,244.026627 20.310261,246.167557 
	C26.479324,239.477646 51.406891,238.456573 58.614826,245.248795 
	C59.293465,242.931396 60.671803,240.769241 60.149391,239.268967 
	C59.659760,237.862808 57.262424,236.583191 55.519680,236.266983 
	C52.245930,235.672974 48.838852,235.813812 44.770535,235.613831 
	C52.074047,222.099289 63.867493,212.449402 68.124611,198.102859 
M111.070328,297.389313 
	C104.865082,288.834534 104.634079,279.390533 107.513466,269.778290 
	C110.011513,261.439117 117.025536,256.854828 124.527222,258.583252 
	C128.090225,259.404205 131.368668,261.460236 134.683792,262.916260 
	C135.357651,253.240479 137.073441,252.906906 125.335190,252.098389 
	C107.499207,250.869873 95.130478,265.282227 97.337708,283.901062 
	C99.307945,300.520874 110.520401,310.364990 125.723358,308.822571 
	C134.224014,307.960175 135.108170,306.971405 135.109406,298.326294 
	C124.512253,304.517517 119.081215,304.427521 111.070328,297.389313 
M110.608551,154.872833 
	C104.286812,152.509079 97.965073,150.145340 91.643333,147.781586 
	C113.810715,164.827255 133.322754,182.915421 126.665382,215.016541 
	C132.118622,207.819916 135.551666,200.025040 135.940887,191.180740 
	C136.674149,174.518570 128.769897,163.080933 110.608551,154.872833 
M65.898033,267.470947 
	C65.898033,265.016907 65.898033,262.562897 65.898033,259.220001 
	C71.611908,259.854401 76.729744,260.422607 81.742935,260.979218 
	C81.742935,259.059814 81.742935,256.630981 81.742935,254.113220 
	C73.103310,254.113220 64.775490,254.113220 57.288746,254.113220 
	C57.288746,271.831726 57.288746,289.191742 57.288746,306.808533 
	C60.318874,306.808533 63.580303,306.808533 66.423355,306.808533 
	C66.423355,298.562134 66.423355,290.508301 66.423355,281.770844 
	C70.183693,282.238739 73.889351,282.699829 77.728584,283.177551 
	C77.728584,280.506500 77.728584,277.545746 77.728584,274.868530 
	C73.926933,275.222717 70.209427,275.569061 65.898178,275.970734 
	C65.898178,272.997192 65.898178,270.714508 65.898033,267.470947 
M5.447814,254.310364 
	C8.132973,271.780090 6.894362,289.276184 6.110365,307.060120 
	C12.107334,307.060120 18.417049,307.060150 24.726763,307.060089 
	C32.301731,307.060028 33.168686,306.112000 33.080349,298.737152 
	C27.220348,299.439026 21.272099,300.151459 15.278721,300.869293 
	C15.278721,284.601837 15.278721,269.411102 15.278721,253.868439 
	C12.435184,253.868439 9.311950,253.868439 5.447814,254.310364 
M136.480911,74.014099 
	C129.797104,78.660583 123.049919,83.220741 116.489975,88.035965 
	C115.356461,88.868011 114.753242,90.715775 114.378532,92.212883 
	C113.926292,94.019730 113.978912,95.952934 113.768127,98.339561 
	C127.277184,90.836372 139.799744,82.405327 150.019379,71.131538 
	C154.868576,65.782143 158.545288,59.347111 162.543900,53.266281 
	C163.483780,51.836971 163.577042,49.850945 164.105530,47.957115 
	C154.799194,56.768459 145.922394,65.173126 136.480911,74.014099 
M140.156403,42.538383 
	C142.271362,35.379505 141.662140,31.510601 138.890228,29.211594 
	C136.384323,35.386929 134.755737,42.603500 130.853394,48.248135 
	C125.329903,56.237724 118.461487,63.401249 111.547394,70.295555 
	C105.078392,76.746048 97.774857,82.356194 90.903412,88.409744 
	C89.698921,89.470856 88.814285,90.895050 87.781937,92.151566 
	C97.204086,86.609222 105.920029,80.558533 114.292778,74.065308 
	C125.062065,65.713531 134.160751,55.847179 140.156403,42.538383 
M142.027130,91.533638 
	C150.611053,82.898216 153.137161,78.571144 152.559036,74.716927 
	C143.385162,81.550766 134.026993,88.918808 124.234016,95.654732 
	C119.096458,99.188499 112.369904,100.878021 112.577774,108.936340 
	C112.584587,109.200401 112.578636,109.464783 112.578636,109.741112 
	C120.189171,107.767281 132.587845,100.173126 142.027130,91.533638 
M123.513268,108.090836 
	C113.201569,113.046577 113.201569,113.046577 109.529579,121.837379 
	C125.006126,119.250717 145.065430,103.612862 144.969818,94.785866 
	C138.214172,99.025070 131.210266,103.420059 123.513268,108.090836 
M129.627823,117.227005 
	C123.608795,119.560715 117.569893,121.845291 111.585884,124.265602 
	C110.232437,124.813026 108.706848,125.569908 107.896706,126.690376 
	C106.318825,128.872635 105.191002,131.380295 103.941925,133.635574 
	C114.314415,135.148392 136.983353,121.011658 137.465729,112.350655 
	C135.056351,113.881256 132.673141,115.395226 129.627823,117.227005 
M166.252304,37.392986 
	C166.486038,33.539837 166.719788,29.686689 166.953537,25.833540 
	C166.383652,25.771063 165.813766,25.708586 165.243881,25.646109 
	C159.046219,42.035164 149.230194,56.011322 137.309250,68.714745 
	C148.562698,60.094666 159.173004,50.925850 166.252304,37.392986 
M126.878059,130.450516 
	C126.255867,130.315918 125.518456,129.894165 125.029060,130.090530 
	C119.272789,132.400208 113.553688,134.802521 108.158043,137.042084 
	C115.981598,140.172592 122.392891,138.292023 126.878059,130.450516 
M87.647636,308.214813 
	C88.289276,307.277832 89.534042,306.280334 89.447327,305.416504 
	C89.265442,303.604584 88.719818,301.602051 87.639351,300.208160 
	C87.137444,299.560669 84.268394,299.627930 83.818054,300.288544 
	C82.811691,301.764771 81.816261,304.153290 82.376289,305.540405 
	C82.947258,306.954590 85.385803,307.614777 87.647636,308.214813 
M41.637009,307.800629 
	C43.454845,307.513763 46.289837,307.801056 46.851933,306.805298 
	C47.693573,305.314362 47.310421,302.794373 46.687149,300.972412 
	C46.420021,300.191528 43.329933,299.409668 43.083702,299.751831 
	C41.869381,301.439178 41.095413,303.472626 40.367146,305.457733 
	C40.206768,305.894897 40.863548,306.631866 41.637009,307.800629 
M147.565414,299.344147 
	C144.202621,299.860535 143.079819,302.185944 143.817551,305.053497 
	C144.189636,306.499725 145.754364,308.040710 147.164459,308.652924 
	C147.895447,308.970276 150.511673,307.284424 150.466141,306.629333 
	C150.304840,304.309204 149.368149,302.041931 148.702484,299.761292 
	C148.671783,299.656097 148.420197,299.615387 147.565414,299.344147 
z"/>
<path fill="#D2262F" opacity="1.000000" stroke="none" 
	d="
M36.973797,70.155251 
	C39.879456,68.461037 41.800987,66.581413 38.740704,64.113533 
	C40.377762,62.250172 42.061970,60.333145 43.746178,58.416122 
	C43.342392,57.926567 42.938610,57.437016 42.534828,56.947464 
	C39.716923,57.605774 36.899021,58.264084 34.081116,58.922394 
	C33.794582,58.499405 33.508049,58.076416 33.221516,57.653427 
	C36.143898,55.465343 39.066277,53.277256 42.261032,50.885231 
	C42.041733,50.167381 41.661587,48.923016 41.017643,46.815147 
	C42.641983,47.307701 44.672958,47.432007 44.838478,48.053303 
	C45.935646,52.171539 48.937111,51.013973 51.821598,50.906593 
	C52.909412,45.622578 56.946712,44.632011 61.242546,45.553242 
	C68.848335,47.184280 76.244621,49.827690 83.872032,51.308617 
	C88.103279,52.130146 92.624916,51.456009 97.931328,51.456009 
	C96.256744,53.075935 94.666168,55.826977 92.455177,56.481152 
	C88.751350,57.577015 84.651932,57.335850 80.412872,57.721550 
	C79.955803,57.763218 79.804855,57.740692 79.653915,57.718163 
	C79.763786,57.819374 79.873650,57.920582 79.983521,58.021790 
	C86.021172,64.634232 86.511292,69.863403 81.114677,77.136848 
	C77.350754,82.209801 72.996368,86.841766 68.967903,91.722031 
	C63.566399,98.265663 59.242222,105.434769 59.336651,114.179665 
	C59.368538,117.132393 61.326199,120.064323 62.403748,123.005760 
	C63.963577,120.501709 66.502754,118.151787 66.925026,115.468704 
	C69.763985,97.430229 79.384514,84.053123 93.657745,73.150352 
	C106.053604,63.681648 116.660698,52.358795 123.585869,38.113045 
	C126.605843,31.900652 129.091461,25.465452 125.014496,18.601852 
	C130.034912,18.602226 133.550903,22.122858 134.036682,27.570946 
	C134.658524,34.544899 132.719528,41.108334 128.452957,46.301220 
	C121.300095,55.007019 113.445778,63.152889 105.639450,71.297455 
	C102.429123,74.646889 98.628304,77.444092 95.008575,80.384773 
	C84.596565,88.843552 77.684639,99.473419 74.129051,112.465141 
	C71.443718,122.277008 71.180862,122.205070 64.536232,128.031097 
	C64.724701,128.404007 64.913170,128.776901 65.101639,129.149811 
	C67.599762,127.732758 70.832794,126.877045 72.436821,124.777046 
	C75.405624,120.890327 78.098328,116.509262 79.685432,111.912643 
	C82.540192,103.644608 87.453651,97.417244 94.629471,92.578476 
	C102.081039,87.553757 109.499908,82.432755 116.547874,76.866135 
	C138.865356,59.239346 153.255249,36.804028 157.210449,8.239362 
	C157.222397,8.153118 157.453293,8.097191 158.137756,7.724273 
	C162.054230,12.075856 163.955292,16.969662 162.283585,22.923435 
	C157.994919,38.197491 149.759415,51.408077 138.739166,62.402855 
	C129.137543,71.982300 118.048904,80.086266 107.475822,88.667854 
	C104.305443,91.241081 100.659927,93.228897 97.711502,96.553291 
	C101.972496,94.943581 106.233498,93.333862 111.423233,91.373291 
	C110.017204,101.968140 101.140480,102.895927 94.732925,107.221405 
	C97.247101,106.744987 99.802452,106.420143 102.264351,105.751297 
	C104.949509,105.021805 107.548065,103.973541 110.276909,103.032318 
	C110.068794,108.746864 109.680557,109.017128 92.883080,116.284950 
	C98.241600,115.617889 103.600121,114.950829 109.615715,114.201973 
	C106.133766,122.039070 99.064781,122.622131 92.596710,124.838585 
	C94.556648,125.070564 96.511261,125.392311 98.478035,125.509178 
	C100.428253,125.625053 102.390732,125.534531 104.411217,125.534531 
	C102.426735,130.326859 100.329712,131.604523 90.813522,133.665405 
	C100.370880,139.417694 110.435226,140.735748 120.769775,141.089142 
	C114.887451,153.522995 98.436989,151.241196 77.358360,135.826599 
	C79.150810,138.409546 80.595726,141.347687 82.802704,143.506927 
	C88.750053,149.325684 95.100258,154.729980 101.146530,160.451004 
	C109.255745,168.123993 113.018738,177.575653 112.020081,188.766281 
	C111.837494,190.812363 111.212273,192.818939 109.831459,194.774063 
	C109.738777,193.737564 109.581306,192.702164 109.563667,191.664398 
	C109.421257,183.284988 106.437447,176.063583 100.645332,170.041946 
	C97.759399,167.041656 94.834641,164.057205 91.712524,161.309799 
	C83.764664,154.315796 77.098373,146.417419 73.667854,136.096359 
	C73.152130,136.312195 72.636414,136.528046 72.120689,136.743896 
	C73.361122,140.463120 73.759895,144.823761 76.008636,147.774597 
	C81.518776,155.005096 87.751030,161.708481 93.983528,168.351105 
	C95.837616,170.327194 96.680939,171.824020 96.473480,174.714142 
	C95.824608,183.753708 98.418503,191.816162 105.371910,198.094894 
	C105.975304,198.639740 106.492790,199.282394 107.021179,199.904251 
	C107.086403,199.981003 106.971397,200.210861 106.766785,201.243317 
	C103.702423,200.580582 100.636635,199.917542 96.697243,199.065552 
	C97.391487,203.864227 97.838005,208.691635 98.835419,213.402420 
	C100.072212,219.243820 101.695175,225.007935 103.283089,230.769119 
	C104.591209,235.515182 107.892418,237.414902 112.717964,236.977402 
	C114.205307,236.842560 115.852020,236.564163 117.180763,237.038223 
	C119.057877,237.707932 121.388283,238.649063 122.212852,240.180588 
	C122.755371,241.188248 120.986763,243.440201 120.223244,245.203873 
	C109.010201,238.494125 87.026794,239.580429 78.987251,248.086838 
	C78.822258,244.717178 78.720032,242.629272 78.589249,239.958160 
	C77.255859,240.569016 75.217117,241.503006 72.253006,242.860931 
	C72.511627,241.208313 72.317947,238.728470 73.040367,238.424271 
	C78.291992,236.212921 82.698021,230.513931 89.566116,234.218323 
	C91.576973,235.302902 94.039108,235.550797 96.596291,236.266708 
	C92.466431,222.774567 88.628975,210.237686 84.806999,197.751389 
	C83.670784,198.572784 81.996979,199.782837 80.584137,200.804214 
	C80.310196,195.367477 80.189354,190.120667 79.728798,184.903870 
	C79.455246,181.805405 77.824707,180.317535 74.279091,179.785202 
	C61.531620,177.871262 49.266743,174.182602 38.281166,167.177109 
	C17.716871,154.063278 12.728406,130.194519 27.239754,110.557465 
	C32.691490,103.180061 40.221222,97.310493 46.970360,90.929901 
	C51.079372,87.045273 55.699665,83.691742 59.707180,79.713692 
	C61.624073,77.810890 63.196491,75.170982 63.956116,72.580803 
	C65.198486,68.344528 62.867786,64.963043 58.733456,63.825108 
	C52.780106,62.186501 44.080498,65.368874 40.868496,70.729935 
	C44.333004,71.980621 47.673134,73.186409 51.737045,74.653488 
	C50.279236,75.826378 48.281212,78.722092 46.423435,78.634743 
	C43.437042,78.494339 40.543316,76.382820 36.841866,74.769089 
	C35.010025,77.780060 32.493992,81.915642 29.980057,86.047775 
	C25.464291,84.584068 24.435040,81.369041 27.658308,78.144234 
	C29.391975,76.409737 31.582752,75.132133 33.286018,73.324661 
	C33.004761,73.000938 32.996140,73.056549 33.233860,73.398254 
	C34.323841,73.157837 35.176098,72.575714 36.266518,71.850128 
	C36.661049,71.189529 36.817425,70.672386 36.973797,70.155251 
M47.641876,105.031815 
	C38.221149,116.308159 35.857140,128.750961 42.321693,142.145447 
	C46.814552,151.454605 54.600178,157.106339 64.569633,159.932358 
	C45.467167,144.369324 40.539860,125.609360 50.413837,102.862411 
	C49.650272,103.395706 48.886711,103.929001 47.641876,105.031815 
M47.323757,61.830273 
	C49.400902,60.987503 51.478043,60.144730 53.555183,59.301960 
	C53.423649,58.711887 53.292110,58.121815 53.160572,57.531738 
	C51.166325,57.283943 49.172081,57.036148 46.510788,56.705471 
	C46.510788,58.735107 46.510788,60.269955 47.323757,61.830273 
z"/>
<path fill="#D22831" opacity="1.000000" stroke="none" 
	d="
M67.743469,198.001923 
	C63.867493,212.449402 52.074047,222.099289 44.770535,235.613831 
	C48.838852,235.813812 52.245930,235.672974 55.519680,236.266983 
	C57.262424,236.583191 59.659760,237.862808 60.149391,239.268967 
	C60.671803,240.769241 59.293465,242.931396 58.614826,245.248795 
	C51.406891,238.456573 26.479324,239.477646 20.310261,246.167557 
	C15.776681,244.026627 18.550928,241.594009 19.665468,238.313293 
	C17.309065,239.350525 14.952660,240.387741 12.403018,241.510025 
	C10.453430,238.887222 11.550922,237.273163 14.426746,236.063171 
	C16.681665,235.114410 18.748850,233.465988 21.073238,233.005264 
	C23.522383,232.519806 26.314232,232.591187 28.717226,233.268112 
	C35.520840,235.184738 36.708244,235.147659 40.010693,229.056519 
	C45.302757,219.295700 50.237408,209.339920 55.241261,199.425217 
	C56.023056,197.876160 56.372032,196.108658 57.081776,193.954681 
	C53.885132,195.506561 51.277046,196.772720 48.032829,198.347687 
	C49.776917,190.821259 51.350273,184.031586 52.958771,177.090271 
	C58.294121,178.860077 63.753620,180.671082 68.762924,182.332733 
	C70.436760,188.546448 72.060745,194.575104 73.863457,201.267258 
	C71.903427,200.186493 70.014015,199.144684 67.743469,198.001923 
z"/>
<path fill="#D22832" opacity="1.000000" stroke="none" 
	d="
M111.318291,297.662781 
	C119.081215,304.427521 124.512253,304.517517 135.109406,298.326294 
	C135.108170,306.971405 134.224014,307.960175 125.723358,308.822571 
	C110.520401,310.364990 99.307945,300.520874 97.337708,283.901062 
	C95.130478,265.282227 107.499207,250.869873 125.335190,252.098389 
	C137.073441,252.906906 135.357651,253.240479 134.683792,262.916260 
	C131.368668,261.460236 128.090225,259.404205 124.527222,258.583252 
	C117.025536,256.854828 110.011513,261.439117 107.513466,269.778290 
	C104.634079,279.390533 104.865082,288.834534 111.318291,297.662781 
z"/>
<path fill="#D22730" opacity="1.000000" stroke="none" 
	d="
M110.970978,154.988846 
	C128.769897,163.080933 136.674149,174.518570 135.940887,191.180740 
	C135.551666,200.025040 132.118622,207.819916 126.665382,215.016541 
	C133.322754,182.915421 113.810715,164.827255 91.643333,147.781586 
	C97.965073,150.145340 104.286812,152.509079 110.970978,154.988846 
z"/>
<path fill="#D22932" opacity="1.000000" stroke="none" 
	d="
M65.898102,267.951385 
	C65.898178,270.714508 65.898178,272.997192 65.898178,275.970734 
	C70.209427,275.569061 73.926933,275.222717 77.728584,274.868530 
	C77.728584,277.545746 77.728584,280.506500 77.728584,283.177551 
	C73.889351,282.699829 70.183693,282.238739 66.423355,281.770844 
	C66.423355,290.508301 66.423355,298.562134 66.423355,306.808533 
	C63.580303,306.808533 60.318874,306.808533 57.288746,306.808533 
	C57.288746,289.191742 57.288746,271.831726 57.288746,254.113220 
	C64.775490,254.113220 73.103310,254.113220 81.742935,254.113220 
	C81.742935,256.630981 81.742935,259.059814 81.742935,260.979218 
	C76.729744,260.422607 71.611908,259.854401 65.898033,259.220001 
	C65.898033,262.562897 65.898033,265.016907 65.898102,267.951385 
z"/>
<path fill="#D22932" opacity="1.000000" stroke="none" 
	d="
M5.818265,254.089401 
	C9.311950,253.868439 12.435184,253.868439 15.278721,253.868439 
	C15.278721,269.411102 15.278721,284.601837 15.278721,300.869293 
	C21.272099,300.151459 27.220348,299.439026 33.080349,298.737152 
	C33.168686,306.112000 32.301731,307.060028 24.726763,307.060089 
	C18.417049,307.060150 12.107334,307.060120 6.110365,307.060120 
	C6.894362,289.276184 8.132973,271.780090 5.818265,254.089401 
z"/>
<path fill="#D32932" opacity="1.000000" stroke="none" 
	d="
M136.763245,73.795944 
	C145.922394,65.173126 154.799194,56.768459 164.105530,47.957115 
	C163.577042,49.850945 163.483780,51.836971 162.543900,53.266281 
	C158.545288,59.347111 154.868576,65.782143 150.019379,71.131538 
	C139.799744,82.405327 127.277184,90.836372 113.768127,98.339561 
	C113.978912,95.952934 113.926292,94.019730 114.378532,92.212883 
	C114.753242,90.715775 115.356461,88.868011 116.489975,88.035965 
	C123.049919,83.220741 129.797104,78.660583 136.763245,73.795944 
z"/>
<path fill="#D32C36" opacity="1.000000" stroke="none" 
	d="
M140.053986,42.912247 
	C134.160751,55.847179 125.062065,65.713531 114.292778,74.065308 
	C105.920029,80.558533 97.204086,86.609222 87.781937,92.151566 
	C88.814285,90.895050 89.698921,89.470856 90.903412,88.409744 
	C97.774857,82.356194 105.078392,76.746048 111.547394,70.295555 
	C118.461487,63.401249 125.329903,56.237724 130.853394,48.248135 
	C134.755737,42.603500 136.384323,35.386929 138.890228,29.211594 
	C141.662140,31.510601 142.271362,35.379505 140.053986,42.912247 
z"/>
<path fill="#D32932" opacity="1.000000" stroke="none" 
	d="
M141.775040,91.781448 
	C132.587845,100.173126 120.189171,107.767281 112.578636,109.741112 
	C112.578636,109.464783 112.584587,109.200401 112.577774,108.936340 
	C112.369904,100.878021 119.096458,99.188499 124.234016,95.654732 
	C134.026993,88.918808 143.385162,81.550766 152.559036,74.716927 
	C153.137161,78.571144 150.611053,82.898216 141.775040,91.781448 
z"/>
<path fill="#D32A33" opacity="1.000000" stroke="none" 
	d="
M123.859802,107.952942 
	C131.210266,103.420059 138.214172,99.025070 144.969818,94.785866 
	C145.065430,103.612862 125.006126,119.250717 109.529579,121.837379 
	C113.201569,113.046577 113.201569,113.046577 123.859802,107.952942 
z"/>
<path fill="#D32A33" opacity="1.000000" stroke="none" 
	d="
M129.958893,117.068100 
	C132.673141,115.395226 135.056351,113.881256 137.465729,112.350655 
	C136.983353,121.011658 114.314415,135.148392 103.941925,133.635574 
	C105.191002,131.380295 106.318825,128.872635 107.896706,126.690376 
	C108.706848,125.569908 110.232437,124.813026 111.585884,124.265602 
	C117.569893,121.845291 123.608795,119.560715 129.958893,117.068100 
z"/>
<path fill="#D4313A" opacity="1.000000" stroke="none" 
	d="
M166.143890,37.782494 
	C159.173004,50.925850 148.562698,60.094666 137.309250,68.714745 
	C149.230194,56.011322 159.046219,42.035164 165.243881,25.646109 
	C165.813766,25.708586 166.383652,25.771063 166.953537,25.833540 
	C166.719788,29.686689 166.486038,33.539837 166.143890,37.782494 
z"/>
<path fill="#D5333C" opacity="1.000000" stroke="none" 
	d="
M126.899323,130.829224 
	C122.392891,138.292023 115.981598,140.172592 108.158043,137.042084 
	C113.553688,134.802521 119.272789,132.400208 125.029060,130.090530 
	C125.518456,129.894165 126.255867,130.315918 126.899323,130.829224 
z"/>
<path fill="#D63740" opacity="1.000000" stroke="none" 
	d="
M36.714836,69.903313 
	C36.817425,70.672386 36.661049,71.189529 35.895966,71.753021 
	C34.523548,72.218430 33.759842,72.637489 32.996140,73.056549 
	C32.996140,73.056549 33.004761,73.000938 33.029461,73.014114 
	C30.731489,73.584167 28.420094,74.498619 26.082180,74.572365 
	C24.520643,74.621620 22.921371,73.474648 21.416363,72.332405 
	C26.565001,71.565063 30.631023,65.620811 36.714836,69.903313 
z"/>
<path fill="#D4323B" opacity="1.000000" stroke="none" 
	d="
M87.327156,308.409973 
	C85.385803,307.614777 82.947258,306.954590 82.376289,305.540405 
	C81.816261,304.153290 82.811691,301.764771 83.818054,300.288544 
	C84.268394,299.627930 87.137444,299.560669 87.639351,300.208160 
	C88.719818,301.602051 89.265442,303.604584 89.447327,305.416504 
	C89.534042,306.280334 88.289276,307.277832 87.327156,308.409973 
z"/>
<path fill="#D43039" opacity="1.000000" stroke="none" 
	d="
M41.390526,307.515686 
	C40.863548,306.631866 40.206768,305.894897 40.367146,305.457733 
	C41.095413,303.472626 41.869381,301.439178 43.083702,299.751831 
	C43.329933,299.409668 46.420021,300.191528 46.687149,300.972412 
	C47.310421,302.794373 47.693573,305.314362 46.851933,306.805298 
	C46.289837,307.801056 43.454845,307.513763 41.390526,307.515686 
z"/>
<path fill="#D32C35" opacity="1.000000" stroke="none" 
	d="
M147.918442,299.444397 
	C148.420197,299.615387 148.671783,299.656097 148.702484,299.761292 
	C149.368149,302.041931 150.304840,304.309204 150.466141,306.629333 
	C150.511673,307.284424 147.895447,308.970276 147.164459,308.652924 
	C145.754364,308.040710 144.189636,306.499725 143.817551,305.053497 
	C143.079819,302.185944 144.202621,299.860535 147.918442,299.444397 
z"/>
<path fill="#FCF4F5" opacity="1.000000" stroke="none" 
	d="
M47.882515,104.747055 
	C48.886711,103.929001 49.650272,103.395706 50.413837,102.862411 
	C40.539860,125.609360 45.467167,144.369324 64.569633,159.932358 
	C54.600178,157.106339 46.814552,151.454605 42.321693,142.145447 
	C35.857140,128.750961 38.221149,116.308159 47.882515,104.747055 
z"/>
<path fill="#FAE7E8" opacity="1.000000" stroke="none" 
	d="
M46.917274,61.817535 
	C46.510788,60.269955 46.510788,58.735107 46.510788,56.705471 
	C49.172081,57.036148 51.166325,57.283943 53.160572,57.531738 
	C53.292110,58.121815 53.423649,58.711887 53.555183,59.301960 
	C51.478043,60.144730 49.400902,60.987503 46.917274,61.817535 
z"/>
<path fill="#FEFCFC" opacity="1.000000" stroke="none" 
	d="
M33.233860,73.398254 
	C33.759842,72.637489 34.523548,72.218430 35.657806,71.896484 
	C35.176098,72.575714 34.323841,73.157837 33.233860,73.398254 
z"/>
<path fill="#FEFCFC" opacity="1.000000" stroke="none" 
	d="
M79.957993,58.037125 
	C79.873650,57.920582 79.763786,57.819374 79.653915,57.718163 
	C79.804855,57.740692 79.955803,57.763218 79.994202,57.934639 
	C79.881653,58.083538 79.932457,58.052456 79.957993,58.037125 
z"/>
</svg>