<svg version="1.1" id="Layer_1" xmlns="http://www.w3.org/2000/svg" xmlns:xlink="http://www.w3.org/1999/xlink" x="0px" y="0px"
	 width="100%" viewBox="0 0 314 313" enable-background="new 0 0 314 313" xml:space="preserve">
<path fill="#FDFDFE" opacity="1.000000" stroke="none" 
	d="
M1.000000,81.000000 
	C1.000000,54.000011 1.000000,27.500025 1.000000,1.000028 
	C105.666603,1.000019 210.333206,1.000019 314.999878,1.000010 
	C314.999908,105.333221 314.999908,209.666443 314.999939,313.999756 
	C210.333496,313.999817 105.666992,313.999817 1.000243,313.999908 
	C1.000000,236.500000 1.000000,159.000000 1.000000,81.000000 
M306.143860,192.714111 
	C310.878357,173.747742 311.793976,154.624161 309.193146,135.223618 
	C298.060272,52.179379 219.686752,-6.904835 136.534760,5.199905 
	C47.989426,18.089773 -10.284865,102.541313 9.091096,189.892227 
	C26.785498,269.662323 107.731827,322.731506 187.381058,305.492004 
	C248.963226,292.162994 288.451904,254.144058 306.143860,192.714111 
z"/>
<path fill="#223867" opacity="1.000000" stroke="none" 
	d="
M306.072205,193.118195 
	C288.451904,254.144058 248.963226,292.162994 187.381058,305.492004 
	C107.731827,322.731506 26.785498,269.662323 9.091096,189.892227 
	C-10.284865,102.541313 47.989426,18.089773 136.534760,5.199905 
	C219.686752,-6.904835 298.060272,52.179379 309.193146,135.223618 
	C311.793976,154.624161 310.878357,173.747742 306.072205,193.118195 
M267.330963,58.190113 
	C230.441040,19.368868 185.437744,3.104661 132.580688,12.025990 
	C51.533932,25.705240 -1.386701,102.816521 13.879273,183.713165 
	C27.971830,258.391663 97.437729,310.428558 174.452637,301.736847 
	C214.102921,297.262085 247.057602,279.313629 272.160187,248.172363 
	C298.076324,216.021866 308.591949,178.996384 303.701294,137.996292 
	C300.114197,107.924438 287.834808,81.494682 267.330963,58.190113 
z"/>
<path fill="#86A9D5" opacity="1.000000" stroke="none" 
	d="
M267.558594,58.461479 
	C287.834808,81.494682 300.114197,107.924438 303.701294,137.996292 
	C308.591949,178.996384 298.076324,216.021866 272.160187,248.172363 
	C247.057602,279.313629 214.102921,297.262085 174.452637,301.736847 
	C97.437729,310.428558 27.971830,258.391663 13.879273,183.713165 
	C-1.386701,102.816521 51.533932,25.705240 132.580688,12.025990 
	C185.437744,3.104661 230.441040,19.368868 267.558594,58.461479 
M292.617950,201.035904 
	C300.183014,178.149628 302.110809,154.809845 297.760803,131.086838 
	C283.535004,53.505615 210.179871,3.002275 132.075394,16.906631 
	C55.942368,30.460024 4.245568,104.963829 18.196653,181.025101 
	C32.085796,256.748718 102.450012,307.785461 178.822723,295.929138 
	C234.796509,287.239624 272.423798,254.785294 292.617950,201.035904 
z"/>
<path fill="#223766" opacity="1.000000" stroke="none" 
	d="
M292.459656,201.399994 
	C272.423798,254.785294 234.796509,287.239624 178.822723,295.929138 
	C102.450012,307.785461 32.085796,256.748718 18.196653,181.025101 
	C4.245568,104.963829 55.942368,30.460024 132.075394,16.906631 
	C210.179871,3.002275 283.535004,53.505615 297.760803,131.086838 
	C302.110809,154.809845 300.183014,178.149628 292.459656,201.399994 
M32.245174,208.186523 
	C57.901051,266.162109 114.517075,298.715302 176.009796,290.848602 
	C250.445236,281.326080 303.267853,211.794586 292.831543,137.073593 
	C282.284485,61.559574 210.333801,9.207475 134.941742,22.191235 
	C49.233284,36.951653 -0.504904,126.467094 32.245174,208.186523 
z"/>
<path fill="#FBFCFC" opacity="1.000000" stroke="none" 
	d="
M32.122150,207.823471 
	C-0.504904,126.467094 49.233284,36.951653 134.941742,22.191235 
	C210.333801,9.207475 282.284485,61.559574 292.831543,137.073593 
	C303.267853,211.794586 250.445236,281.326080 176.009796,290.848602 
	C114.517075,298.715302 57.901051,266.162109 32.122150,207.823471 
M265.999146,159.997635 
	C265.999146,159.997635 266.033783,160.028412 265.802948,160.685455 
	C263.870331,161.140335 261.937744,161.595215 260.005127,162.050095 
	C259.998779,162.596603 259.992432,163.143127 259.986053,163.689636 
	C262.172607,163.843307 265.245667,164.956299 266.348419,163.937210 
	C268.241791,162.187424 269.650146,159.161713 269.841522,156.566849 
	C269.986145,154.605972 268.339081,151.948288 266.674683,150.627335 
	C265.652679,149.816223 262.741058,150.412048 261.335571,151.355621 
	C260.136383,152.160690 258.935577,155.378021 259.362152,155.773438 
	C261.242767,157.516708 263.712128,158.624878 265.999146,159.997635 
M237.003540,207.473587 
	C258.089111,173.776718 256.841034,132.626495 234.030701,101.411568 
	C231.685455,98.202202 230.295303,94.191109 228.971619,90.375244 
	C228.078094,87.799461 227.288406,86.251930 224.151657,85.796288 
	C221.029297,85.342705 217.663101,84.136162 215.154327,82.257538 
	C181.588455,57.122566 136.260437,56.883186 102.438286,81.652092 
	C99.645439,83.697357 96.032745,85.159683 92.617752,85.672318 
	C88.990875,86.216759 87.722900,87.621918 86.840538,91.045143 
	C85.798737,95.086906 84.252945,99.275330 81.867615,102.652969 
	C42.312298,158.663574 75.115067,237.549118 142.644028,248.987549 
	C152.205460,250.607101 161.039825,251.603195 171.077408,249.662888 
	C198.751938,244.313248 220.705902,231.311615 237.003540,207.473587 
M61.290897,112.281769 
	C58.681351,110.971703 56.071804,109.661629 52.234413,107.735146 
	C56.757652,107.173248 60.075687,106.761070 63.789249,106.299751 
	C62.114830,102.969429 60.710682,100.176674 58.686493,96.150688 
	C63.747921,98.729462 67.544159,100.663635 71.683304,102.772514 
	C72.468987,101.316795 73.213974,99.936470 74.098358,98.297874 
	C67.072487,94.599030 60.367649,91.069199 53.771358,87.596512 
	C47.285984,93.737831 55.944355,97.293625 55.818245,102.136101 
	C51.592480,104.505531 44.366261,99.859978 42.754353,108.415169 
	C49.422855,111.912590 56.109436,115.419495 63.049450,119.059311 
	C63.905579,117.517212 64.598694,116.268730 65.440376,114.752663 
	C64.123848,113.979294 63.025105,113.333855 61.290897,112.281769 
M87.644630,58.886528 
	C90.749161,63.959217 93.853691,69.031906 97.062500,74.274994 
	C98.695122,73.196335 99.907036,72.395630 101.345787,71.445061 
	C98.984970,67.607735 96.731392,63.944729 94.410828,60.172840 
	C101.568138,59.513733 106.964706,67.828743 114.997726,63.599667 
	C110.778229,56.634998 106.841675,50.137375 102.686241,43.278454 
	C101.022774,44.429283 99.769119,45.296593 98.466133,46.198036 
	C100.625648,49.868294 102.507851,53.067223 104.515213,56.478889 
	C97.333443,57.759727 92.145988,48.652344 84.879242,54.206169 
	C85.755600,55.737869 86.487206,57.016563 87.644630,58.886528 
M268.447601,96.131310 
	C267.752777,94.880699 267.057983,93.630089 266.234253,92.147430 
	C259.205566,95.684700 252.464081,99.077431 245.356689,102.654312 
	C246.371872,104.420372 247.134521,105.747093 247.895721,107.071320 
	C250.282990,106.003555 252.222916,105.135872 254.162842,104.268196 
	C254.672577,104.444710 255.182327,104.621223 255.692062,104.797745 
	C255.175034,106.967499 255.163544,109.459389 254.030914,111.236900 
	C251.963074,114.482109 251.709946,117.204903 254.767197,120.261002 
	C256.293304,117.646805 257.776154,115.106735 259.405975,112.314888 
	C260.064209,112.600311 260.634888,112.810471 261.171600,113.086555 
	C264.559204,114.829071 267.624420,114.178619 270.310181,111.690186 
	C273.155701,109.053719 273.096619,105.861298 271.640656,102.565514 
	C270.771545,100.598122 269.768097,98.690048 268.447601,96.131310 
M79.005989,88.473045 
	C76.462288,84.522972 80.502075,83.257996 82.234283,81.352432 
	C83.245667,80.239815 85.672462,79.410988 87.045830,79.827675 
	C90.479996,80.869629 91.813835,79.310249 93.113739,76.441269 
	C85.849571,73.789993 78.887535,71.161362 71.845016,68.769722 
	C70.743515,68.395660 68.896492,68.682365 68.083496,69.421593 
	C67.258255,70.171959 66.644913,72.123711 67.043472,73.096886 
	C69.961067,80.220825 73.156494,87.230988 76.264267,94.277039 
	C76.754326,94.319328 77.244377,94.361618 77.734436,94.403900 
	C78.248077,92.655273 78.761726,90.906647 79.005989,88.473045 
M181.478806,42.811478 
	C181.283249,41.282627 181.087692,39.753777 180.852402,37.914257 
	C185.602524,38.823814 189.453964,39.561291 193.305405,40.298771 
	C193.704086,39.814796 194.102783,39.330818 194.501480,38.846844 
	C193.477753,37.645645 192.655716,35.726490 191.394104,35.372082 
	C186.824509,34.088379 182.107361,33.329960 177.164200,32.315506 
	C175.469116,40.119343 173.863937,47.509304 172.185181,55.237957 
	C178.268875,56.541821 183.863419,57.740841 189.876556,59.029579 
	C189.967072,57.132332 190.032181,55.767456 190.094849,54.453896 
	C185.904587,53.487190 182.193771,52.631096 178.300735,51.732964 
	C178.658447,50.136555 178.976044,48.719231 179.290787,47.314575 
	C188.226776,48.590630 188.226776,48.590630 189.580780,44.557850 
	C187.149033,44.029911 184.737701,43.506405 181.478806,42.811478 
M238.738449,93.730415 
	C239.914398,95.119415 241.090347,96.508415 242.438324,98.100632 
	C243.630875,97.081673 244.687805,96.178596 245.899200,95.143524 
	C243.171783,91.810143 240.662354,88.743187 237.994186,85.482208 
	C239.199127,84.445007 240.285034,83.510269 241.220505,82.705032 
	C244.958984,84.043022 245.425446,91.568420 251.699890,87.340530 
	C249.591675,84.692291 247.542007,82.117622 245.290573,79.289482 
	C246.529297,78.356483 247.644135,77.516815 248.900803,76.570297 
	C251.701813,79.782600 254.268036,82.725655 256.983521,85.839890 
	C258.268036,84.704269 259.207733,83.873489 260.378204,82.838676 
	C256.536407,78.239845 252.887619,73.872055 249.111023,69.351265 
	C242.756256,74.641541 236.941498,79.482262 231.024872,84.407799 
	C233.633377,87.572235 235.953110,90.386345 238.738449,93.730415 
M149.924377,34.730095 
	C150.310135,30.467060 147.981384,30.650547 145.180450,31.567675 
	C145.180450,39.345081 145.180450,46.909027 145.180450,54.804523 
	C147.031006,54.689030 148.429153,54.601772 150.216904,54.490200 
	C150.216904,51.270191 150.216904,48.361588 150.216904,45.242897 
	C153.532944,45.242897 156.436722,45.242897 159.956680,45.242897 
	C159.956680,48.353233 159.956680,51.251812 159.956680,54.434639 
	C162.000748,54.214169 163.401627,54.063076 164.589615,53.934940 
	C164.589615,46.111858 164.589615,38.691490 164.589615,30.850622 
	C162.594559,30.969532 161.046600,31.061794 159.172867,31.173471 
	C159.172867,34.320641 159.172867,37.054832 159.172867,40.027851 
	C156.060852,40.027851 153.298111,40.027851 150.222229,40.027851 
	C150.130051,38.548588 150.039932,37.102177 149.924377,34.730095 
M212.968796,49.536610 
	C215.425125,52.938675 216.591858,50.097260 218.299927,48.676926 
	C215.452377,44.217812 211.867325,41.141376 206.733490,42.108398 
	C204.611084,42.508179 202.076523,44.787094 201.188812,46.841869 
	C199.241287,51.349751 203.323517,53.505333 205.920303,56.225346 
	C206.983826,57.339317 207.316101,59.151382 207.981033,60.645870 
	C206.188126,60.331142 204.373276,60.102093 202.615158,59.651600 
	C202.058319,59.508915 201.638092,58.789268 201.180649,58.309540 
	C198.542557,55.542866 198.545120,55.540428 195.224121,58.046440 
	C197.692017,62.485912 201.098389,66.060257 206.402863,65.859695 
	C208.722748,65.772003 211.875580,63.920910 212.952545,61.945206 
	C213.889801,60.225838 212.928146,56.966599 211.891541,54.831604 
	C211.021515,53.039722 208.699799,52.005093 207.289948,50.398945 
	C206.662689,49.684334 206.697159,48.388840 206.431274,47.356995 
	C207.505783,47.220135 208.668640,46.765263 209.630859,47.032589 
	C210.668884,47.320980 211.519165,48.285107 212.968796,49.536610 
M136.140869,258.002716 
	C134.690445,257.680847 133.251785,257.157715 131.787567,257.072235 
	C125.707771,256.717194 120.571190,260.312653 118.893593,265.947113 
	C117.239769,271.501740 119.510948,277.486053 124.290916,280.168518 
	C129.882141,283.306244 135.366486,282.432800 139.963593,277.660736 
	C138.631912,274.053833 136.563049,274.751221 133.845352,276.259338 
	C130.608658,278.055450 127.083076,277.090027 125.680138,274.004547 
	C124.551605,271.522552 124.468369,267.848175 125.459320,265.301270 
	C126.696037,262.122681 130.101181,261.255829 133.536194,262.491119 
	C134.745270,262.925903 135.861145,263.619843 137.218872,264.294495 
	C138.218399,263.108459 139.145111,262.008820 140.273331,260.670044 
	C138.978928,259.757385 137.929123,259.017181 136.140869,258.002716 
M121.436424,47.980442 
	C121.494560,40.687073 124.280800,38.641712 132.746048,39.938316 
	C133.244598,38.689381 133.765808,37.383659 134.280716,36.093742 
	C126.963036,32.814068 119.723656,35.333355 116.867348,41.875130 
	C114.262352,47.841297 117.101212,55.405701 122.899986,57.949669 
	C129.179077,60.704357 136.309647,57.848282 139.284485,50.425369 
	C137.078125,50.783966 135.098206,50.526535 133.973755,51.387016 
	C128.600845,55.498615 124.920326,54.804848 121.436424,47.980442 
M168.624268,268.520935 
	C168.624268,266.736755 168.624268,264.952576 168.624268,262.964508 
	C171.317291,262.687561 173.521683,262.460876 176.016617,262.204315 
	C175.849976,260.387909 175.722290,258.996155 175.595367,257.612732 
	C168.819092,257.612732 162.435318,257.612732 155.744446,257.612732 
	C155.821289,259.371399 155.883362,260.792053 155.953659,262.400787 
	C158.356705,262.561096 160.465607,262.701813 163.047058,262.874023 
	C163.047058,269.055756 163.047058,275.134491 163.047058,281.588440 
	C165.109177,281.474731 166.665344,281.388916 168.624115,281.280884 
	C168.624115,277.079590 168.624115,273.288513 168.624268,268.520935 
M186.736221,261.762329 
	C185.206192,258.132629 182.868759,256.139801 178.340591,257.905701 
	C182.128113,265.430847 189.712006,271.461792 186.575424,281.626251 
	C189.182571,281.429810 190.725464,281.313568 193.099625,281.134674 
	C189.543930,270.985962 198.040771,265.425598 201.070892,257.816254 
	C192.879745,255.139908 193.826294,264.193390 189.430817,266.329407 
	C188.617661,264.983978 187.845459,263.706268 186.736221,261.762329 
M234.668930,56.880619 
	C232.042603,54.878704 229.416275,52.876785 226.564987,50.703392 
	C225.537643,52.008236 224.655838,53.128235 223.723633,54.312244 
	C225.591354,55.983444 227.256607,57.473465 228.959457,58.997128 
	C225.134460,64.028458 221.544754,68.750313 217.763855,73.723640 
	C219.326004,74.783005 220.621811,75.661751 222.076019,76.647919 
	C226.013596,71.576508 229.704941,66.822258 233.370361,62.101379 
	C235.517258,63.591312 237.247910,64.792374 239.193573,66.142647 
	C240.149994,64.748650 240.927872,63.614868 241.791840,62.355606 
	C239.436218,60.531422 237.346451,58.913132 234.668930,56.880619 
M145.342789,266.566711 
	C145.342789,271.355927 145.342789,276.145142 145.342789,281.170288 
	C147.508026,281.170288 149.184280,281.170288 150.664764,281.170288 
	C150.664764,273.015198 150.664764,265.267426 150.664764,257.208069 
	C148.714569,257.380859 147.154907,257.519043 145.342926,257.679596 
	C145.342926,260.640137 145.342926,263.119568 145.342789,266.566711 
M44.054344,158.916885 
	C43.077301,163.817841 46.422489,164.851517 49.918003,164.610001 
	C53.583702,164.356720 54.930698,161.929260 53.689602,158.186432 
	C53.323879,157.083496 54.383678,155.272797 53.816547,154.519150 
	C52.512600,152.786407 50.812710,150.721542 48.901958,150.227005 
	C46.209904,149.530212 44.122131,151.231918 44.072308,154.398773 
	C44.052536,155.655472 44.247910,156.915558 44.054344,158.916885 
M283.066956,152.803986 
	C283.054321,150.808319 282.219299,148.937042 280.253998,150.705826 
	C277.319580,153.346817 275.007599,156.679367 272.603149,159.514511 
	C276.461914,161.289703 279.311646,162.600708 283.350128,164.458557 
	C283.256744,160.825729 283.164185,157.225281 283.066956,152.803986 
M39.845245,162.974869 
	C39.845245,158.777328 39.845245,154.579803 39.845245,149.701157 
	C37.481007,150.448074 35.885067,150.952271 35.267780,151.147293 
	C35.937756,154.476151 36.355309,157.131149 37.037334,159.716385 
	C37.430607,161.207123 35.508896,164.217484 39.845245,162.974869 
z"/>
<path fill="#233865" opacity="1.000000" stroke="none" 
	d="
M236.809341,207.778442 
	C220.705902,231.311615 198.751938,244.313248 171.077408,249.662888 
	C161.039825,251.603195 152.205460,250.607101 142.644028,248.987549 
	C75.115067,237.549118 42.312298,158.663574 81.867615,102.652969 
	C84.252945,99.275330 85.798737,95.086906 86.840538,91.045143 
	C87.722900,87.621918 88.990875,86.216759 92.617752,85.672318 
	C96.032745,85.159683 99.645439,83.697357 102.438286,81.652092 
	C136.260437,56.883186 181.588455,57.122566 215.154327,82.257538 
	C217.663101,84.136162 221.029297,85.342705 224.151657,85.796288 
	C227.288406,86.251930 228.078094,87.799461 228.971619,90.375244 
	C230.295303,94.191109 231.685455,98.202202 234.030701,101.411568 
	C256.841034,132.626495 258.089111,173.776718 236.809341,207.778442 
M106.936264,222.455872 
	C106.616905,222.303299 106.297546,222.150726 105.789497,221.578262 
	C105.634277,221.285385 105.392921,221.113495 105.055901,220.355438 
	C88.074127,199.877289 81.658394,175.941422 82.043167,149.808548 
	C82.194977,139.498199 82.494568,129.190048 82.907570,118.117218 
	C83.191032,115.834488 83.474495,113.551765 83.876083,110.317741 
	C52.915928,158.432907 79.067619,219.916458 122.094078,235.862518 
	C116.691925,231.406036 112.261116,227.750839 107.900475,223.533066 
	C107.590973,223.362534 107.281471,223.192001 106.995247,223.000610 
	C106.995247,223.000610 106.979591,223.021988 106.936264,222.455872 
M208.002441,224.000000 
	C208.002441,224.000000 208.024368,224.018372 207.472092,224.073502 
	C207.304520,224.384155 207.136932,224.694824 206.424301,225.381073 
	C202.367599,228.762527 198.310898,232.143982 194.133118,235.626343 
	C205.541000,235.959122 229.223419,213.813034 238.228012,193.962448 
	C251.420166,164.880432 249.037430,136.719208 231.918869,109.705872 
	C232.335876,112.445396 232.752869,115.184929 233.034332,118.810524 
	C233.320480,131.427078 234.090652,144.055389 233.784241,156.657532 
	C233.268982,177.848999 227.774582,197.626465 214.990219,214.964905 
	C213.542175,216.928741 212.267700,219.020584 210.419067,221.297623 
	C209.958038,221.870636 209.497025,222.443649 208.466766,223.047791 
	C208.317093,223.372131 208.167404,223.696472 208.002441,224.000000 
M227.185638,145.119186 
	C227.100677,142.746994 227.015717,140.374802 227.074448,137.093048 
	C225.130432,122.959991 223.258896,108.815964 221.123871,94.711815 
	C220.922897,93.384117 219.210693,91.460167 217.951584,91.241035 
	C198.105743,87.787125 178.128647,85.737663 157.038254,86.270760 
	C137.530319,87.862328 118.017517,89.400040 98.525269,91.164764 
	C97.204025,91.284386 95.121445,92.972176 94.938797,94.166954 
	C92.811157,108.084618 90.980667,122.047707 88.887962,136.921539 
	C88.938736,144.614929 88.989502,152.308319 88.903770,160.911591 
	C88.805038,183.277512 96.476494,202.663986 111.719009,218.919296 
	C124.487778,232.536499 139.849503,242.135010 158.747787,247.171234 
	C174.274338,242.414398 188.163498,234.592865 199.798859,223.369904 
	C210.777374,212.780563 219.829681,200.681595 223.356857,185.237640 
	C223.356857,185.237640 223.260468,185.253876 223.706985,185.012680 
	C223.751251,184.683960 223.795532,184.355225 224.130447,183.282944 
	C224.589676,180.917892 225.048904,178.552841 225.795776,175.600342 
	C225.830872,174.732864 225.865967,173.865372 226.111435,172.213669 
	C226.335114,169.799896 226.558777,167.386108 226.898010,164.502029 
	C226.898010,164.502029 226.814972,164.024902 226.983658,163.200165 
	C226.966141,161.801132 226.948639,160.402100 227.126450,158.093063 
	C227.099899,154.061890 227.073334,150.030716 227.185638,145.119186 
M119.871864,82.126221 
	C132.158981,81.727394 144.445663,81.028412 156.733353,81.010559 
	C170.178696,80.991013 183.624969,81.600914 197.817352,82.161850 
	C200.274384,82.510933 202.731400,82.860023 206.585129,83.407547 
	C176.782913,62.710533 134.113495,65.522392 110.903648,83.383728 
	C114.104385,82.826118 116.534004,82.402847 119.871864,82.126221 
z"/>
<path fill="#263B68" opacity="1.000000" stroke="none" 
	d="
M61.608627,112.485092 
	C63.025105,113.333855 64.123848,113.979294 65.440376,114.752663 
	C64.598694,116.268730 63.905579,117.517212 63.049450,119.059311 
	C56.109436,115.419495 49.422855,111.912590 42.754353,108.415169 
	C44.366261,99.859978 51.592480,104.505531 55.818245,102.136101 
	C55.944355,97.293625 47.285984,93.737831 53.771358,87.596512 
	C60.367649,91.069199 67.072487,94.599030 74.098358,98.297874 
	C73.213974,99.936470 72.468987,101.316795 71.683304,102.772514 
	C67.544159,100.663635 63.747921,98.729462 58.686493,96.150688 
	C60.710682,100.176674 62.114830,102.969429 63.789249,106.299751 
	C60.075687,106.761070 56.757652,107.173248 52.234413,107.735146 
	C56.071804,109.661629 58.681351,110.971703 61.608627,112.485092 
z"/>
<path fill="#253A67" opacity="1.000000" stroke="none" 
	d="
M87.431717,58.590889 
	C86.487206,57.016563 85.755600,55.737869 84.879242,54.206169 
	C92.145988,48.652344 97.333443,57.759727 104.515213,56.478889 
	C102.507851,53.067223 100.625648,49.868294 98.466133,46.198036 
	C99.769119,45.296593 101.022774,44.429283 102.686241,43.278454 
	C106.841675,50.137375 110.778229,56.634998 114.997726,63.599667 
	C106.964706,67.828743 101.568138,59.513733 94.410828,60.172840 
	C96.731392,63.944729 98.984970,67.607735 101.345787,71.445061 
	C99.907036,72.395630 98.695122,73.196335 97.062500,74.274994 
	C93.853691,69.031906 90.749161,63.959217 87.431717,58.590889 
z"/>
<path fill="#253A67" opacity="1.000000" stroke="none" 
	d="
M268.636322,96.443314 
	C269.768097,98.690048 270.771545,100.598122 271.640656,102.565514 
	C273.096619,105.861298 273.155701,109.053719 270.310181,111.690186 
	C267.624420,114.178619 264.559204,114.829071 261.171600,113.086555 
	C260.634888,112.810471 260.064209,112.600311 259.405975,112.314888 
	C257.776154,115.106735 256.293304,117.646805 254.767197,120.261002 
	C251.709946,117.204903 251.963074,114.482109 254.030914,111.236900 
	C255.163544,109.459389 255.175034,106.967499 255.692062,104.797745 
	C255.182327,104.621223 254.672577,104.444710 254.162842,104.268196 
	C252.222916,105.135872 250.282990,106.003555 247.895721,107.071320 
	C247.134521,105.747093 246.371872,104.420372 245.356689,102.654312 
	C252.464081,99.077431 259.205566,95.684700 266.234253,92.147430 
	C267.057983,93.630089 267.752777,94.880699 268.636322,96.443314 
M262.354004,99.959457 
	C261.152313,100.690994 259.950623,101.422531 257.496918,102.916229 
	C260.534302,105.300018 262.777649,107.060631 265.020996,108.821266 
	C265.828644,107.698387 267.564911,106.120155 267.277588,105.534164 
	C266.227570,103.392754 264.503021,101.582100 262.354004,99.959457 
z"/>
<path fill="#293E6A" opacity="1.000000" stroke="none" 
	d="
M79.140678,88.815536 
	C78.761726,90.906647 78.248077,92.655273 77.734436,94.403900 
	C77.244377,94.361618 76.754326,94.319328 76.264267,94.277039 
	C73.156494,87.230988 69.961067,80.220825 67.043472,73.096886 
	C66.644913,72.123711 67.258255,70.171959 68.083496,69.421593 
	C68.896492,68.682365 70.743515,68.395660 71.845016,68.769722 
	C78.887535,71.161362 85.849571,73.789993 93.113739,76.441269 
	C91.813835,79.310249 90.479996,80.869629 87.045830,79.827675 
	C85.672462,79.410988 83.245667,80.239815 82.234283,81.352432 
	C80.502075,83.257996 76.462288,84.522972 79.140678,88.815536 
z"/>
<path fill="#273C69" opacity="1.000000" stroke="none" 
	d="
M181.902588,42.897186 
	C184.737701,43.506405 187.149033,44.029911 189.580780,44.557850 
	C188.226776,48.590630 188.226776,48.590630 179.290787,47.314575 
	C178.976044,48.719231 178.658447,50.136555 178.300735,51.732964 
	C182.193771,52.631096 185.904587,53.487190 190.094849,54.453896 
	C190.032181,55.767456 189.967072,57.132332 189.876556,59.029579 
	C183.863419,57.740841 178.268875,56.541821 172.185181,55.237957 
	C173.863937,47.509304 175.469116,40.119343 177.164200,32.315506 
	C182.107361,33.329960 186.824509,34.088379 191.394104,35.372082 
	C192.655716,35.726490 193.477753,37.645645 194.501480,38.846844 
	C194.102783,39.330818 193.704086,39.814796 193.305405,40.298771 
	C189.453964,39.561291 185.602524,38.823814 180.852402,37.914257 
	C181.087692,39.753777 181.283249,41.282627 181.902588,42.897186 
z"/>
<path fill="#263B68" opacity="1.000000" stroke="none" 
	d="
M238.505646,93.465431 
	C235.953110,90.386345 233.633377,87.572235 231.024872,84.407799 
	C236.941498,79.482262 242.756256,74.641541 249.111023,69.351265 
	C252.887619,73.872055 256.536407,78.239845 260.378204,82.838676 
	C259.207733,83.873489 258.268036,84.704269 256.983521,85.839890 
	C254.268036,82.725655 251.701813,79.782600 248.900803,76.570297 
	C247.644135,77.516815 246.529297,78.356483 245.290573,79.289482 
	C247.542007,82.117622 249.591675,84.692291 251.699890,87.340530 
	C245.425446,91.568420 244.958984,84.043022 241.220505,82.705032 
	C240.285034,83.510269 239.199127,84.445007 237.994186,85.482208 
	C240.662354,88.743187 243.171783,91.810143 245.899200,95.143524 
	C244.687805,96.178596 243.630875,97.081673 242.438324,98.100632 
	C241.090347,96.508415 239.914398,95.119415 238.505646,93.465431 
z"/>
<path fill="#273C69" opacity="1.000000" stroke="none" 
	d="
M149.937088,35.192932 
	C150.039932,37.102177 150.130051,38.548588 150.222229,40.027851 
	C153.298111,40.027851 156.060852,40.027851 159.172867,40.027851 
	C159.172867,37.054832 159.172867,34.320641 159.172867,31.173471 
	C161.046600,31.061794 162.594559,30.969532 164.589615,30.850622 
	C164.589615,38.691490 164.589615,46.111858 164.589615,53.934940 
	C163.401627,54.063076 162.000748,54.214169 159.956680,54.434639 
	C159.956680,51.251812 159.956680,48.353233 159.956680,45.242897 
	C156.436722,45.242897 153.532944,45.242897 150.216904,45.242897 
	C150.216904,48.361588 150.216904,51.270191 150.216904,54.490200 
	C148.429153,54.601772 147.031006,54.689030 145.180450,54.804523 
	C145.180450,46.909027 145.180450,39.345081 145.180450,31.567675 
	C147.981384,30.650547 150.310135,30.467060 149.937088,35.192932 
z"/>
<path fill="#263B68" opacity="1.000000" stroke="none" 
	d="
M212.710083,49.245529 
	C211.519165,48.285107 210.668884,47.320980 209.630859,47.032589 
	C208.668640,46.765263 207.505783,47.220135 206.431274,47.356995 
	C206.697159,48.388840 206.662689,49.684334 207.289948,50.398945 
	C208.699799,52.005093 211.021515,53.039722 211.891541,54.831604 
	C212.928146,56.966599 213.889801,60.225838 212.952545,61.945206 
	C211.875580,63.920910 208.722748,65.772003 206.402863,65.859695 
	C201.098389,66.060257 197.692017,62.485912 195.224121,58.046440 
	C198.545120,55.540428 198.542557,55.542866 201.180649,58.309540 
	C201.638092,58.789268 202.058319,59.508915 202.615158,59.651600 
	C204.373276,60.102093 206.188126,60.331142 207.981018,60.645874 
	C207.316101,59.151382 206.983826,57.339317 205.920303,56.225346 
	C203.323517,53.505333 199.241287,51.349751 201.188812,46.841869 
	C202.076523,44.787094 204.611084,42.508179 206.733490,42.108398 
	C211.867325,41.141376 215.452377,44.217812 218.299927,48.676926 
	C216.591858,50.097260 215.425125,52.938675 212.710083,49.245529 
z"/>
<path fill="#273C69" opacity="1.000000" stroke="none" 
	d="
M136.510101,258.139832 
	C137.929123,259.017181 138.978928,259.757385 140.273331,260.670044 
	C139.145111,262.008820 138.218399,263.108459 137.218872,264.294495 
	C135.861145,263.619843 134.745270,262.925903 133.536194,262.491119 
	C130.101181,261.255829 126.696037,262.122681 125.459320,265.301270 
	C124.468369,267.848175 124.551605,271.522552 125.680138,274.004547 
	C127.083076,277.090027 130.608658,278.055450 133.845352,276.259338 
	C136.563049,274.751221 138.631912,274.053833 139.963593,277.660736 
	C135.366486,282.432800 129.882141,283.306244 124.290916,280.168518 
	C119.510948,277.486053 117.239769,271.501740 118.893593,265.947113 
	C120.571190,260.312653 125.707771,256.717194 131.787567,257.072235 
	C133.251785,257.157715 134.690445,257.680847 136.510101,258.139832 
z"/>
<path fill="#263B68" opacity="1.000000" stroke="none" 
	d="
M121.565018,48.339149 
	C124.920326,54.804848 128.600845,55.498615 133.973755,51.387016 
	C135.098206,50.526535 137.078125,50.783966 139.284485,50.425369 
	C136.309647,57.848282 129.179077,60.704357 122.899986,57.949669 
	C117.101212,55.405701 114.262352,47.841297 116.867348,41.875130 
	C119.723656,35.333355 126.963036,32.814068 134.280716,36.093742 
	C133.765808,37.383659 133.244598,38.689381 132.746048,39.938316 
	C124.280800,38.641712 121.494560,40.687073 121.565018,48.339149 
z"/>
<path fill="#354872" opacity="1.000000" stroke="none" 
	d="
M168.624191,269.009155 
	C168.624115,273.288513 168.624115,277.079590 168.624115,281.280884 
	C166.665344,281.388916 165.109177,281.474731 163.047058,281.588440 
	C163.047058,275.134491 163.047058,269.055756 163.047058,262.874023 
	C160.465607,262.701813 158.356705,262.561096 155.953659,262.400787 
	C155.883362,260.792053 155.821289,259.371399 155.744446,257.612732 
	C162.435318,257.612732 168.819092,257.612732 175.595367,257.612732 
	C175.722290,258.996155 175.849976,260.387909 176.016617,262.204315 
	C173.521683,262.460876 171.317291,262.687561 168.624268,262.964508 
	C168.624268,264.952576 168.624268,266.736755 168.624191,269.009155 
z"/>
<path fill="#293E6A" opacity="1.000000" stroke="none" 
	d="
M186.904739,262.095459 
	C187.845459,263.706268 188.617661,264.983978 189.430817,266.329407 
	C193.826294,264.193390 192.879745,255.139908 201.070892,257.816254 
	C198.040771,265.425598 189.543930,270.985962 193.099625,281.134674 
	C190.725464,281.313568 189.182571,281.429810 186.575424,281.626251 
	C189.712006,271.461792 182.128113,265.430847 178.340591,257.905701 
	C182.868759,256.139801 185.206192,258.132629 186.904739,262.095459 
z"/>
<path fill="#263B68" opacity="1.000000" stroke="none" 
	d="
M234.962814,57.087730 
	C237.346451,58.913132 239.436218,60.531422 241.791840,62.355606 
	C240.927872,63.614868 240.149994,64.748650 239.193573,66.142647 
	C237.247910,64.792374 235.517258,63.591312 233.370361,62.101379 
	C229.704941,66.822258 226.013596,71.576508 222.076019,76.647919 
	C220.621811,75.661751 219.326004,74.783005 217.763855,73.723640 
	C221.544754,68.750313 225.134460,64.028458 228.959457,58.997128 
	C227.256607,57.473465 225.591354,55.983444 223.723633,54.312244 
	C224.655838,53.128235 225.537643,52.008236 226.564987,50.703392 
	C229.416275,52.876785 232.042603,54.878704 234.962814,57.087730 
z"/>
<path fill="#344871" opacity="1.000000" stroke="none" 
	d="
M145.342865,266.082886 
	C145.342926,263.119568 145.342926,260.640137 145.342926,257.679596 
	C147.154907,257.519043 148.714569,257.380859 150.664764,257.208069 
	C150.664764,265.267426 150.664764,273.015198 150.664764,281.170288 
	C149.184280,281.170288 147.508026,281.170288 145.342789,281.170288 
	C145.342789,276.145142 145.342789,271.355927 145.342865,266.082886 
z"/>
<path fill="#97B7DD" opacity="1.000000" stroke="none" 
	d="
M44.199837,158.545502 
	C44.247910,156.915558 44.052536,155.655472 44.072308,154.398773 
	C44.122131,151.231918 46.209904,149.530212 48.901958,150.227005 
	C50.812710,150.721542 52.512600,152.786407 53.816547,154.519150 
	C54.383678,155.272797 53.323879,157.083496 53.689602,158.186432 
	C54.930698,161.929260 53.583702,164.356720 49.918003,164.610001 
	C46.422489,164.851517 43.077301,163.817841 44.199837,158.545502 
z"/>
<path fill="#99B8DE" opacity="1.000000" stroke="none" 
	d="
M265.968201,159.963120 
	C263.712128,158.624878 261.242767,157.516708 259.362152,155.773438 
	C258.935577,155.378021 260.136383,152.160690 261.335571,151.355621 
	C262.741058,150.412048 265.652679,149.816223 266.674683,150.627335 
	C268.339081,151.948288 269.986145,154.605972 269.841522,156.566849 
	C269.650146,159.161713 268.241791,162.187424 266.348419,163.937210 
	C265.245667,164.956299 262.172607,163.843307 259.986053,163.689636 
	C259.992432,163.143127 259.998779,162.596603 260.005127,162.050095 
	C261.937744,161.595215 263.870331,161.140335 266.078613,160.306000 
	C266.225555,159.938736 266.096893,159.950928 265.968201,159.963120 
z"/>
<path fill="#95B5DD" opacity="1.000000" stroke="none" 
	d="
M283.069305,153.214417 
	C283.164185,157.225281 283.256744,160.825729 283.350128,164.458557 
	C279.311646,162.600708 276.461914,161.289703 272.603149,159.514511 
	C275.007599,156.679367 277.319580,153.346817 280.253998,150.705826 
	C282.219299,148.937042 283.054321,150.808319 283.069305,153.214417 
z"/>
<path fill="#92B3DD" opacity="1.000000" stroke="none" 
	d="
M39.608452,163.347885 
	C35.508896,164.217484 37.430607,161.207123 37.037334,159.716385 
	C36.355309,157.131149 35.937756,154.476151 35.267780,151.147293 
	C35.885067,150.952271 37.481007,150.448074 39.845245,149.701157 
	C39.845245,154.579803 39.845245,158.777328 39.608452,163.347885 
z"/>
<path fill="#DBAD2A" opacity="1.000000" stroke="none" 
	d="
M226.782440,164.972336 
	C226.558777,167.386108 226.335114,169.799896 225.667068,172.670212 
	C225.317841,174.147095 225.412979,175.167450 225.508118,176.187790 
	C225.048904,178.552841 224.589676,180.917892 223.790833,183.803406 
	C223.220840,184.599579 223.157242,184.909576 223.260468,185.253876 
	C223.260468,185.253876 223.356857,185.237640 222.905487,185.176392 
	C221.221939,185.054626 219.989761,184.994125 218.764313,184.612762 
	C218.775085,183.864944 218.779114,183.437958 218.928650,182.639053 
	C220.144272,176.698273 221.214386,171.129410 222.392319,164.999481 
	C215.645660,164.999481 209.785904,164.999481 203.466400,164.929810 
	C196.005615,164.906204 189.004562,164.952271 181.538803,164.928864 
	C173.702667,164.906311 166.331223,164.953232 158.735138,164.886688 
	C158.363846,164.691635 158.217209,164.610046 158.055023,164.177109 
	C158.035843,162.880402 158.032227,161.935074 158.236557,160.887955 
	C158.705124,160.599289 158.884644,160.353210 159.279190,160.031815 
	C160.109055,159.855774 160.642792,159.695877 161.176529,159.535980 
	C160.798813,159.359909 160.421112,159.183838 159.898987,158.651733 
	C155.835541,157.422470 151.916489,156.549225 147.997650,155.325592 
	C147.999176,153.807892 148.000488,152.640594 148.447372,151.378693 
	C151.950806,151.242630 155.008682,151.201187 158.200699,151.364014 
	C158.868546,151.432541 159.402237,151.296814 160.393951,151.223007 
	C166.655365,150.637878 172.458755,149.990829 178.262161,149.343796 
	C178.234604,148.461838 178.207062,147.579865 178.179520,146.697906 
	C172.128754,146.469299 166.077972,146.240692 159.744476,146.020660 
	C158.997192,146.297028 158.532654,146.564774 157.707855,146.771179 
	C156.222946,147.137939 155.098297,147.566040 153.725739,147.800720 
	C153.861145,146.811569 154.034012,145.600479 154.659836,145.283432 
	C162.067947,141.530212 168.291428,136.562515 172.158295,129.386597 
	C172.496872,135.337769 173.971283,140.412140 178.492081,145.350067 
	C178.492081,133.448410 178.492081,122.444099 178.492081,111.421425 
	C177.394424,111.094284 176.256195,110.755058 173.747406,110.007355 
	C176.575180,109.065933 178.026978,108.582603 180.159637,107.872604 
	C180.159637,113.201988 180.159637,117.980621 180.115402,123.243256 
	C180.071167,129.865356 180.071167,136.003448 180.071167,143.242859 
	C183.239487,139.153839 185.762665,136.171738 187.970001,132.971741 
	C190.189377,129.754303 192.094360,126.320000 194.163086,123.423691 
	C195.045990,129.480148 195.902908,135.093658 196.812469,141.051971 
	C191.834808,142.943207 186.000046,145.160095 180.165268,147.376984 
	C180.334869,147.964355 180.504486,148.551727 180.674103,149.139099 
	C185.621613,148.497650 190.569122,147.856216 196.545197,147.081421 
	C194.884918,149.467133 193.596909,150.954941 192.739166,152.659286 
	C191.982620,154.162582 191.128448,156.032013 191.443893,157.497269 
	C191.621231,158.321075 194.070175,159.100342 195.513077,159.132980 
	C203.165176,159.306183 210.823608,159.296539 218.477753,159.194321 
	C219.834442,159.176224 221.181320,158.421936 222.858856,158.013199 
	C224.433716,158.346878 225.682419,158.674973 226.931137,159.003067 
	C226.948639,160.402100 226.966141,161.801132 226.761200,163.700165 
	C226.340683,164.522583 226.421921,164.779984 226.782440,164.972336 
M180.095383,157.953461 
	C174.502472,155.392792 169.055267,156.323730 163.638458,159.537659 
	C169.268951,159.537659 174.899460,159.537659 181.178238,159.778000 
	C181.632004,159.452194 182.085770,159.126373 182.539520,158.800552 
	C181.973755,158.572037 181.407974,158.343506 180.095383,157.953461 
M186.933350,159.821426 
	C187.875504,159.319794 188.817673,158.818161 189.759827,158.316528 
	C188.850372,157.890839 187.940933,157.465134 187.031509,157.039429 
	C186.776688,157.860626 186.521881,158.681824 186.933350,159.821426 
z"/>
<path fill="#8BB0DA" opacity="1.000000" stroke="none" 
	d="
M210.912735,221.053070 
	C212.267700,219.020584 213.542175,216.928741 214.990219,214.964905 
	C227.774582,197.626465 233.268982,177.848999 233.784241,156.657532 
	C234.090652,144.055389 233.320480,131.427078 233.358002,118.597809 
	C239.573639,129.441040 242.498306,141.372437 242.850998,153.758789 
	C243.482407,175.934158 236.359848,195.610352 221.819504,212.367569 
	C218.824814,215.818832 214.580872,218.186142 210.912735,221.053070 
z"/>
<path fill="#8CB0DA" opacity="1.000000" stroke="none" 
	d="
M82.726860,118.880898 
	C82.494568,129.190048 82.194977,139.498199 82.043167,149.808548 
	C81.658394,175.941422 88.074127,199.877289 104.694901,220.749130 
	C101.230934,218.439484 97.775200,216.045807 95.084518,212.980560 
	C81.569496,197.584091 74.181999,179.765259 73.705437,159.059860 
	C73.377884,144.828979 75.741524,131.381989 82.726860,118.880898 
z"/>
<path fill="#E5B965" opacity="1.000000" stroke="none" 
	d="
M157.955780,247.115952 
	C139.849503,242.135010 124.487778,232.536499 111.719009,218.919296 
	C96.476494,202.663986 88.805038,183.277512 89.304184,160.507629 
	C91.138206,161.736511 92.571823,163.369339 94.033386,165.262573 
	C94.108070,165.691208 94.154808,165.859421 94.161346,166.435211 
	C94.365723,168.310928 94.680161,169.771317 94.844612,171.248398 
	C98.760391,206.419174 121.677132,228.592422 156.224548,240.469849 
	C156.968811,240.867920 157.515671,241.058075 158.042694,241.664978 
	C158.000488,243.759781 157.978134,245.437866 157.955780,247.115952 
z"/>
<path fill="#F1F3F6" opacity="1.000000" stroke="none" 
	d="
M210.665894,221.175339 
	C214.580872,218.186142 218.824814,215.818832 221.819504,212.367569 
	C236.359848,195.610352 243.482407,175.934158 242.850998,153.758789 
	C242.498306,141.372437 239.573639,129.441040 233.425781,118.154770 
	C232.752869,115.184929 232.335876,112.445396 231.918869,109.705872 
	C249.037430,136.719208 251.420166,164.880432 238.228012,193.962448 
	C229.223419,213.813034 205.541000,235.959122 194.133118,235.626343 
	C198.310898,232.143982 202.367599,228.762527 206.969971,225.152527 
	C207.685211,224.622101 207.854782,224.320236 208.024368,224.018372 
	C208.024368,224.018372 208.002441,224.000000 208.284012,223.973389 
	C208.722397,223.636749 208.879211,223.326721 209.036011,223.016663 
	C209.497025,222.443649 209.958038,221.870636 210.665894,221.175339 
z"/>
<path fill="#EEF1F4" opacity="1.000000" stroke="none" 
	d="
M82.817215,118.499054 
	C75.741524,131.381989 73.377884,144.828979 73.705437,159.059860 
	C74.181999,179.765259 81.569496,197.584091 95.084518,212.980560 
	C97.775200,216.045807 101.230934,218.439484 104.699661,221.102707 
	C105.392921,221.113495 105.634277,221.285385 105.912033,222.065338 
	C106.349571,222.708923 106.664581,222.865448 106.979599,223.021973 
	C106.979591,223.021988 106.995247,223.000610 107.010193,223.262390 
	C107.293526,223.714645 107.561913,223.905151 107.830299,224.095657 
	C112.261116,227.750839 116.691925,231.406036 122.094078,235.862518 
	C79.067619,219.916458 52.915928,158.432907 83.876083,110.317741 
	C83.474495,113.551765 83.191032,115.834488 82.817215,118.499054 
z"/>
<path fill="#8BB0DA" opacity="1.000000" stroke="none" 
	d="
M197.070831,81.936493 
	C183.624969,81.600914 170.178696,80.991013 156.733353,81.010559 
	C144.445663,81.028412 132.158981,81.727394 119.626106,81.772141 
	C129.314331,78.419098 139.067749,74.216858 149.223068,72.693054 
	C165.965973,70.180794 182.172211,73.408699 197.070831,81.936493 
z"/>
<path fill="#D7AA2A" opacity="1.000000" stroke="none" 
	d="
M158.351776,247.143585 
	C157.978134,245.437866 158.000488,243.759781 158.399658,241.551300 
	C163.740417,238.832718 168.704376,236.644531 173.986450,234.375397 
	C179.314651,231.287186 184.324722,228.279922 189.653870,225.165298 
	C193.349152,222.083023 196.725327,219.108139 200.400970,215.978638 
	C204.218674,211.018448 207.736954,206.212845 211.514374,201.165039 
	C214.101547,195.593079 216.429565,190.263351 218.757584,184.933624 
	C219.989761,184.994125 221.221939,185.054626 222.914810,185.224365 
	C219.829681,200.681595 210.777374,212.780563 199.798859,223.369904 
	C188.163498,234.592865 174.274338,242.414398 158.351776,247.143585 
z"/>
<path fill="#D7AA2A" opacity="1.000000" stroke="none" 
	d="
M157.941498,86.471779 
	C178.128647,85.737663 198.105743,87.787125 217.951584,91.241035 
	C219.210693,91.460167 220.922897,93.384117 221.123871,94.711815 
	C223.258896,108.815964 225.130432,122.959991 226.654175,137.508514 
	C224.877655,137.615234 223.521408,137.306473 222.080002,136.562256 
	C220.683411,124.239449 219.189697,112.367950 218.151398,100.456764 
	C217.743591,95.778572 215.402466,94.327621 211.221237,94.000839 
	C193.501190,92.615929 175.790802,91.107796 158.065582,89.326859 
	C158.016678,88.163284 157.979080,87.317528 157.941498,86.471779 
z"/>
<path fill="#E5B965" opacity="1.000000" stroke="none" 
	d="
M157.489868,86.371269 
	C157.979080,87.317528 158.016678,88.163284 157.599472,89.418060 
	C139.496231,91.243210 121.848312,92.665642 104.198975,94.070343 
	C100.480804,94.366272 98.279633,95.776138 97.881706,100.015762 
	C96.722572,112.365562 95.181252,124.679489 93.445671,136.957336 
	C91.758224,136.604370 90.414886,136.301575 89.071548,135.998779 
	C90.980667,122.047707 92.811157,108.084618 94.938797,94.166954 
	C95.121445,92.972176 97.204025,91.284386 98.525269,91.164764 
	C118.017517,89.400040 137.530319,87.862328 157.489868,86.371269 
z"/>
<path fill="#F0F2F5" opacity="1.000000" stroke="none" 
	d="
M197.444092,82.049164 
	C182.172211,73.408699 165.965973,70.180794 149.223068,72.693054 
	C139.067749,74.216858 129.314331,78.419098 119.171989,81.698814 
	C116.534004,82.402847 114.104385,82.826118 110.903648,83.383728 
	C134.113495,65.522392 176.782913,62.710533 206.585129,83.407547 
	C202.731400,82.860023 200.274384,82.510933 197.444092,82.049164 
z"/>
<path fill="#EBBF59" opacity="1.000000" stroke="none" 
	d="
M88.979752,136.460159 
	C90.414886,136.301575 91.758224,136.604370 93.497612,137.417786 
	C93.893661,144.814102 93.893661,151.699829 93.893661,159.411545 
	C102.507568,159.411545 110.741081,159.411545 118.970772,159.728546 
	C117.992996,161.535568 117.019058,163.025604 115.586006,164.621094 
	C108.086411,164.818420 101.045929,164.910294 94.005440,165.002167 
	C92.571823,163.369339 91.138206,161.736511 89.372437,160.052704 
	C88.989502,152.308319 88.938736,144.614929 88.979752,136.460159 
z"/>
<path fill="#D7AA2A" opacity="1.000000" stroke="none" 
	d="
M227.028793,158.548065 
	C225.682419,158.674973 224.433716,158.346878 222.795990,157.600555 
	C222.518021,153.455658 222.629074,149.729004 223.170624,146.001526 
	C224.749680,146.000320 225.898224,145.999924 227.046768,145.999542 
	C227.073334,150.030716 227.099899,154.061890 227.028793,158.548065 
z"/>
<path fill="#DBAD2A" opacity="1.000000" stroke="none" 
	d="
M227.116211,145.559357 
	C225.898224,145.999924 224.749680,146.000320 223.030762,145.630737 
	C222.361984,142.506424 222.263565,139.752060 222.165161,136.997711 
	C223.521408,137.306473 224.877655,137.615234 226.582321,137.963303 
	C227.015717,140.374802 227.100677,142.746994 227.116211,145.559357 
z"/>
<path fill="#D7AA2A" opacity="1.000000" stroke="none" 
	d="
M225.651947,175.894073 
	C225.412979,175.167450 225.317841,174.147095 225.561890,173.062317 
	C225.865967,173.865372 225.830872,174.732864 225.651947,175.894073 
z"/>
<path fill="#8BB0DA" opacity="1.000000" stroke="none" 
	d="
M207.748230,224.045929 
	C207.854782,224.320236 207.685211,224.622101 207.242493,224.964722 
	C207.136932,224.694824 207.304520,224.384155 207.748230,224.045929 
z"/>
<path fill="#8BB0DA" opacity="1.000000" stroke="none" 
	d="
M208.751404,223.032227 
	C208.879211,223.326721 208.722397,223.636749 208.291656,223.983795 
	C208.167404,223.696472 208.317093,223.372131 208.751404,223.032227 
z"/>
<path fill="#8CB0DA" opacity="1.000000" stroke="none" 
	d="
M107.865387,223.814362 
	C107.561913,223.905151 107.293526,223.714645 106.998550,223.272812 
	C107.281471,223.192001 107.590973,223.362534 107.865387,223.814362 
z"/>
<path fill="#8CB0DA" opacity="1.000000" stroke="none" 
	d="
M106.957932,222.738922 
	C106.664581,222.865448 106.349571,222.708923 106.006378,222.275269 
	C106.297546,222.150726 106.616905,222.303299 106.957932,222.738922 
z"/>
<path fill="#D7AA2A" opacity="1.000000" stroke="none" 
	d="
M226.840225,164.737183 
	C226.421921,164.779984 226.340683,164.522583 226.676849,164.112534 
	C226.814972,164.024902 226.898010,164.502029 226.840225,164.737183 
z"/>
<path fill="#D7AA2A" opacity="1.000000" stroke="none" 
	d="
M223.483734,185.133270 
	C223.157242,184.909576 223.220840,184.599579 223.645508,184.175201 
	C223.795532,184.355225 223.751251,184.683960 223.483734,185.133270 
z"/>
<path fill="#EDEFF2" opacity="1.000000" stroke="none" 
	d="
M262.693298,99.803154 
	C264.503021,101.582100 266.227570,103.392754 267.277588,105.534164 
	C267.564911,106.120155 265.828644,107.698387 265.020996,108.821259 
	C262.777649,107.060631 260.534302,105.300018 257.496918,102.916229 
	C259.950623,101.422531 261.152313,100.690994 262.693298,99.803154 
z"/>
<path fill="#FBFCFC" opacity="1.000000" stroke="none" 
	d="
M265.983673,159.980377 
	C266.096893,159.950928 266.225555,159.938736 266.194031,159.977478 
	C266.033783,160.028412 265.999146,159.997635 265.983673,159.980377 
z"/>
<path fill="#FEFDFB" opacity="1.000000" stroke="none" 
	d="
M222.080002,136.562271 
	C222.263565,139.752060 222.361984,142.506424 222.600266,145.631561 
	C222.629074,149.729004 222.518021,153.455658 222.469849,157.594971 
	C221.181320,158.421936 219.834442,159.176224 218.477753,159.194321 
	C210.823608,159.296539 203.165176,159.306183 195.513077,159.132980 
	C194.070175,159.100342 191.621231,158.321075 191.443893,157.497269 
	C191.128448,156.032013 191.982620,154.162582 192.739166,152.659286 
	C193.596909,150.954941 194.884918,149.467133 196.545197,147.081421 
	C190.569122,147.856216 185.621613,148.497650 180.674103,149.139099 
	C180.504486,148.551727 180.334869,147.964355 180.165268,147.376984 
	C186.000046,145.160095 191.834808,142.943207 196.812469,141.051971 
	C195.902908,135.093658 195.045990,129.480148 194.390656,123.156036 
	C194.657013,121.096565 194.721756,119.747704 194.794189,118.238823 
	C189.514175,119.869751 184.836899,121.314499 180.159637,122.759247 
	C180.159637,117.980621 180.159637,113.201988 180.159637,107.872604 
	C178.026978,108.582603 176.575180,109.065933 173.747406,110.007355 
	C176.256195,110.755058 177.394424,111.094284 178.492081,111.421425 
	C178.492081,122.444099 178.492081,133.448410 178.492081,145.350067 
	C173.971283,140.412140 172.496872,135.337769 172.374298,129.149658 
	C172.339508,127.343803 172.142319,126.177116 171.996902,124.649696 
	C170.784851,121.361023 169.521027,118.433083 168.497238,115.294792 
	C168.489609,113.730309 168.241913,112.376167 167.848816,110.681740 
	C167.143997,107.894485 166.584579,105.447517 166.247101,102.804291 
	C166.516098,102.448204 166.595352,102.289497 166.601028,102.128212 
	C166.606506,101.972229 166.514069,101.674004 166.502335,101.675865 
	C164.475586,101.997276 162.452209,102.340057 160.577850,102.656822 
	C160.046295,100.668007 159.552643,98.820930 159.058975,96.973862 
	C158.602234,97.039490 158.145477,97.105125 157.688736,97.170753 
	C157.425919,100.300430 159.627228,104.090752 154.314331,105.482010 
	C148.106079,107.107750 146.921539,110.477875 149.021759,117.313965 
	C149.040314,118.181099 149.065872,118.676399 148.922165,119.479866 
	C146.189087,124.130768 147.907104,128.001068 150.059631,132.128204 
	C150.033737,132.640182 150.028778,132.845047 149.822906,133.362564 
	C149.073166,136.423355 148.524307,139.171494 147.680786,141.721161 
	C146.572128,138.359436 145.758133,135.196167 145.061554,131.762772 
	C145.018707,130.672180 144.858414,129.851730 144.715149,128.672150 
	C143.812668,125.213615 142.893188,122.114220 141.849762,118.662369 
	C139.811798,118.567123 137.819199,118.567314 135.996765,119.124252 
	C125.929977,122.200699 123.957993,125.199066 126.137802,134.075287 
	C126.104195,135.088058 126.119621,135.667007 126.049530,136.603973 
	C124.418159,141.301346 125.419228,144.913269 129.401962,147.791656 
	C131.247482,147.235794 132.743088,146.661789 134.841232,145.856522 
	C134.721268,147.882523 134.637436,149.298126 134.195587,150.633423 
	C128.875717,149.781631 123.913857,149.010132 118.649002,148.104340 
	C117.058830,147.970062 115.771652,147.970062 114.484467,147.970062 
	C114.434860,148.217300 114.385254,148.464539 114.335648,148.711777 
	C115.661446,149.279755 116.987236,149.847733 118.389290,150.495575 
	C118.465546,150.575439 118.670906,150.656677 118.837173,150.911911 
	C120.731506,153.875214 122.459564,156.583282 123.753326,159.247650 
	C121.870888,159.273163 120.422745,159.342361 118.974602,159.411545 
	C110.741081,159.411545 102.507568,159.411545 93.893661,159.411545 
	C93.893661,151.699829 93.893661,144.814102 93.841721,137.467926 
	C95.181252,124.679489 96.722572,112.365562 97.881706,100.015762 
	C98.279633,95.776138 100.480804,94.366272 104.198975,94.070343 
	C121.848312,92.665642 139.496231,91.243210 157.610779,89.735886 
	C175.790802,91.107796 193.501190,92.615929 211.221237,94.000839 
	C215.402466,94.327621 217.743591,95.778572 218.151398,100.456764 
	C219.189697,112.367950 220.683411,124.239449 222.080002,136.562271 
M123.367790,124.889503 
	C122.478302,125.677635 121.588814,126.465767 120.525017,127.349174 
	C120.525017,127.349174 120.471329,127.540428 119.811943,127.691574 
	C114.345528,131.399155 110.900360,136.648468 107.759949,142.917557 
	C110.954765,143.182297 113.531548,143.395813 116.829399,143.871902 
	C118.087097,144.091904 119.344795,144.311890 120.251358,144.470459 
	C120.956200,139.258759 121.631386,134.266327 122.777313,128.794434 
	C123.182953,127.528130 123.588600,126.261833 124.332603,124.877060 
	C124.224525,124.921074 124.116447,124.965088 123.367790,124.889503 
z"/>
<path fill="#8AB0DB" opacity="1.000000" stroke="none" 
	d="
M211.255234,201.407257 
	C207.736954,206.212845 204.218674,211.018448 200.341232,215.625031 
	C196.591614,211.167648 193.342941,206.784637 189.753098,202.701614 
	C187.852951,200.540436 185.359451,198.900955 183.236160,196.688507 
	C183.609802,194.804199 184.608154,192.312836 184.030807,191.868378 
	C180.980331,189.520172 177.533051,187.687454 174.155792,185.288055 
	C169.045410,178.266815 164.002609,171.633469 158.959793,165.000137 
	C166.331223,164.953232 173.702667,164.906311 181.680756,165.231857 
	C191.943359,177.538635 201.599289,189.472946 211.255234,201.407257 
z"/>
<path fill="#AFC7E6" opacity="1.000000" stroke="none" 
	d="
M211.514374,201.165039 
	C201.599289,189.472946 191.943359,177.538635 182.145462,165.301331 
	C189.004562,164.952271 196.005615,164.906204 203.522003,165.276337 
	C208.952621,171.465347 213.867889,177.238159 218.783157,183.010971 
	C218.779114,183.437958 218.775085,183.864944 218.764313,184.612778 
	C216.429565,190.263351 214.101547,195.593079 211.514374,201.165039 
z"/>
<path fill="#ECBD61" opacity="1.000000" stroke="none" 
	d="
M147.975464,141.919632 
	C148.524307,139.171494 149.073166,136.423355 150.196228,133.312775 
	C153.127396,132.152740 155.525421,131.457825 157.832520,130.535477 
	C162.210770,128.785126 166.536926,126.904495 171.148026,125.032928 
	C171.589264,124.995399 171.767181,125.002914 171.945114,125.010422 
	C172.142319,126.177116 172.339508,127.343803 172.320679,128.747437 
	C168.291428,136.562515 162.067947,141.530212 154.659836,145.283432 
	C154.034012,145.600479 153.861145,146.811569 153.546616,148.064011 
	C152.068375,147.640533 150.521378,146.760361 148.973419,145.536270 
	C148.640137,144.101456 148.307800,143.010544 147.975464,141.919632 
z"/>
<path fill="#ACC5E5" opacity="1.000000" stroke="none" 
	d="
M158.735138,164.886688 
	C164.002609,171.633469 169.045410,178.266815 173.777740,185.158661 
	C168.199753,181.259033 162.932281,177.100861 158.249802,173.404495 
	C154.953461,175.494522 152.006790,177.362854 149.022583,178.867249 
	C145.639999,174.010513 142.294937,169.517715 139.230988,164.921143 
	C139.689850,164.726105 139.867584,164.634872 140.499084,164.643433 
	C146.658752,164.671616 152.364670,164.600052 158.070587,164.528473 
	C158.217209,164.610046 158.363846,164.691635 158.735138,164.886688 
z"/>
<path fill="#ECBB5E" opacity="1.000000" stroke="none" 
	d="
M180.115402,123.243256 
	C184.836899,121.314499 189.514175,119.869751 194.794189,118.238823 
	C194.721756,119.747704 194.657013,121.096565 194.364685,122.713074 
	C192.094360,126.320000 190.189377,129.754303 187.970001,132.971741 
	C185.762665,136.171738 183.239487,139.153839 180.071167,143.242859 
	C180.071167,136.003448 180.071167,129.865356 180.115402,123.243256 
z"/>
<path fill="#8CB0D9" opacity="1.000000" stroke="none" 
	d="
M218.928650,182.639053 
	C213.867889,177.238159 208.952621,171.465347 203.981750,165.346008 
	C209.785904,164.999481 215.645660,164.999481 222.392319,164.999481 
	C221.214386,171.129410 220.144272,176.698273 218.928650,182.639053 
z"/>
<path fill="#FDFCF7" opacity="1.000000" stroke="none" 
	d="
M148.974365,145.880173 
	C150.521378,146.760361 152.068375,147.640533 153.794525,148.257446 
	C155.098297,147.566040 156.222946,147.137939 157.689011,147.203735 
	C158.042465,148.851669 158.054504,150.005692 158.066559,151.159729 
	C155.008682,151.201187 151.950806,151.242630 148.030762,151.267105 
	C145.448807,151.255249 143.729050,151.260345 141.608429,151.171219 
	C139.839935,151.035416 138.472275,150.993851 137.009903,150.511948 
	C136.284760,147.003357 137.230576,145.421555 140.663223,145.703857 
	C143.419800,145.930573 146.202988,145.833542 148.974365,145.880173 
z"/>
<path fill="#FCFAF2" opacity="1.000000" stroke="none" 
	d="
M160.027206,146.012070 
	C166.077972,146.240692 172.128754,146.469299 178.179520,146.697906 
	C178.207062,147.579865 178.234604,148.461838 178.262161,149.343796 
	C172.458755,149.990829 166.655365,150.637878 160.405792,150.792694 
	C159.982162,148.871002 160.004684,147.441544 160.027206,146.012070 
z"/>
<path fill="#EBBF59" opacity="1.000000" stroke="none" 
	d="
M158.055023,164.177124 
	C152.364670,164.600052 146.658752,164.671616 140.514526,164.269501 
	C142.822372,163.196564 145.618011,162.758926 148.296570,161.938904 
	C149.965942,161.427841 151.458420,160.339005 153.433990,159.412170 
	C155.220840,159.328781 156.604004,159.342682 158.001556,159.546814 
	C158.015930,159.737045 158.047531,160.117279 158.032501,160.335175 
	C158.017456,160.553055 158.028610,160.989731 158.028610,160.989731 
	C158.032227,161.935074 158.035843,162.880402 158.055023,164.177124 
z"/>
<path fill="#F9F4E2" opacity="1.000000" stroke="none" 
	d="
M180.529953,159.537659 
	C174.899460,159.537659 169.268951,159.537659 163.638458,159.537659 
	C169.055267,156.323730 174.502472,155.392792 180.456207,158.279144 
	C180.743271,158.922531 180.647583,159.233475 180.529953,159.537659 
z"/>
<path fill="#FBF7E9" opacity="1.000000" stroke="none" 
	d="
M157.987167,159.356567 
	C156.604004,159.342682 155.220840,159.328781 152.977844,159.297058 
	C148.331100,159.306137 144.544205,159.333008 140.808762,159.004303 
	C140.901306,158.414459 140.942383,158.180176 141.338135,157.924255 
	C143.113480,157.233353 144.534134,156.564117 146.299194,155.901276 
	C147.094864,155.830429 147.546143,155.753204 147.997437,155.675980 
	C151.916489,156.549225 155.835541,157.422470 159.549820,158.673950 
	C158.892426,159.153656 158.439789,159.255112 157.987167,159.356567 
z"/>
<path fill="#D7AA2A" opacity="1.000000" stroke="none" 
	d="
M147.997650,155.325592 
	C147.546143,155.753204 147.094864,155.830429 146.079361,155.652863 
	C144.346527,154.020538 143.177902,152.643005 142.009277,151.265457 
	C143.729050,151.260345 145.448807,151.255249 147.585205,151.361725 
	C148.000488,152.640594 147.999176,153.807892 147.997650,155.325592 
z"/>
<path fill="#D7AA2A" opacity="1.000000" stroke="none" 
	d="
M186.600220,159.662231 
	C186.521881,158.681824 186.776688,157.860626 187.031494,157.039429 
	C187.940933,157.465134 188.850372,157.890839 189.759827,158.316528 
	C188.817673,158.818161 187.875504,159.319794 186.600220,159.662231 
z"/>
<path fill="#E0B43D" opacity="1.000000" stroke="none" 
	d="
M159.744476,146.020660 
	C160.004684,147.441544 159.982162,148.871002 159.947784,150.730789 
	C159.402237,151.296814 158.868546,151.432541 158.200684,151.363998 
	C158.054504,150.005692 158.042465,148.851669 158.049286,147.265076 
	C158.532654,146.564774 158.997192,146.297028 159.744476,146.020660 
z"/>
<path fill="#E5B965" opacity="1.000000" stroke="none" 
	d="
M158.001556,159.546814 
	C158.439789,159.255112 158.892426,159.153656 159.694214,159.029968 
	C160.421112,159.183838 160.798813,159.359909 161.176529,159.535980 
	C160.642792,159.695877 160.109055,159.855774 159.043976,160.029602 
	C158.512665,160.043533 158.047531,160.117279 158.047531,160.117279 
	C158.047531,160.117279 158.015930,159.737045 158.001556,159.546814 
z"/>
<path fill="#E5B965" opacity="1.000000" stroke="none" 
	d="
M180.854095,159.657837 
	C180.647583,159.233475 180.743271,158.922531 180.829620,158.359909 
	C181.407974,158.343506 181.973755,158.572037 182.539520,158.800552 
	C182.085770,159.126373 181.632004,159.452194 180.854095,159.657837 
z"/>
<path fill="#D7AA2A" opacity="1.000000" stroke="none" 
	d="
M158.032501,160.335175 
	C158.047531,160.117279 158.512665,160.043533 158.747864,160.045746 
	C158.884644,160.353210 158.705124,160.599289 158.236557,160.887955 
	C158.028610,160.989731 158.017456,160.553055 158.032501,160.335175 
z"/>
<path fill="#8BB0DA" opacity="1.000000" stroke="none" 
	d="
M156.027145,240.261948 
	C121.677132,228.592422 98.760391,206.419174 94.844612,171.248398 
	C94.680161,169.771317 94.365723,168.310928 94.437317,166.596130 
	C95.710236,167.274841 96.759377,168.122772 97.609772,169.137299 
	C108.783676,182.467545 119.873077,195.869247 131.131973,209.127090 
	C133.278671,211.654922 136.066956,213.637894 138.712616,215.966217 
	C139.028961,216.258148 139.093597,216.484207 139.062225,217.102814 
	C139.459488,218.044220 139.854401,218.621201 140.319382,219.580322 
	C139.953323,223.556625 141.560120,224.861633 145.009705,224.452789 
	C145.811279,226.183716 146.512238,227.634567 147.450653,228.910812 
	C150.259644,232.731155 153.161514,236.483231 156.027145,240.261948 
z"/>
<path fill="#AEC6E6" opacity="1.000000" stroke="none" 
	d="
M138.559235,215.872238 
	C136.066956,213.637894 133.278671,211.654922 131.131973,209.127090 
	C119.873077,195.869247 108.783676,182.467545 97.609772,169.137299 
	C96.759377,168.122772 95.710236,167.274841 94.477509,166.188553 
	C94.154808,165.859421 94.108070,165.691208 94.033386,165.262573 
	C101.045929,164.910294 108.086411,164.818420 115.581398,164.743896 
	C116.035896,164.761230 115.984650,164.998856 116.020699,165.346466 
	C118.281425,168.539383 120.512627,171.379639 122.729370,174.231125 
	C126.848938,179.530273 130.960083,184.835983 134.804535,190.370667 
	C132.723297,191.415146 130.061951,191.276291 131.368195,194.796066 
	C133.949982,201.752884 136.182388,208.839371 138.559235,215.872238 
z"/>
<path fill="#ADC5E4" opacity="1.000000" stroke="none" 
	d="
M156.224548,240.469849 
	C153.161514,236.483231 150.259644,232.731155 147.450653,228.910812 
	C146.512238,227.634567 145.811279,226.183716 145.351074,224.290985 
	C152.117218,223.987747 158.534058,224.206223 165.014023,224.745667 
	C167.940872,228.196533 170.804596,231.326431 173.668335,234.456329 
	C168.704376,236.644531 163.740417,238.832718 158.419495,241.134583 
	C157.515671,241.058075 156.968811,240.867920 156.224548,240.469849 
z"/>
<path fill="#AEC6E5" opacity="1.000000" stroke="none" 
	d="
M183.133820,197.025940 
	C185.359451,198.900955 187.852951,200.540436 189.753098,202.701614 
	C193.342941,206.784637 196.591614,211.167648 200.041779,215.779617 
	C196.725327,219.108139 193.349152,222.083023 189.326569,224.990143 
	C185.170303,221.266861 181.660416,217.611359 178.088226,213.551636 
	C179.728546,207.773575 181.431183,202.399765 183.133820,197.025940 
z"/>
<path fill="#8AADD7" opacity="1.000000" stroke="none" 
	d="
M178.150513,213.955872 
	C181.660416,217.611359 185.170303,221.266861 189.007492,225.097519 
	C184.324722,228.279922 179.314651,231.287186 173.986450,234.375381 
	C170.804596,231.326431 167.940872,228.196533 165.378159,224.587830 
	C167.705872,224.100189 169.775620,224.337357 171.743652,223.993088 
	C172.986069,223.775742 174.605682,222.961411 175.130447,221.939514 
	C176.421921,219.424530 177.178711,216.634995 178.150513,213.955872 
z"/>
<path fill="#E5B965" opacity="1.000000" stroke="none" 
	d="
M140.757294,159.359894 
	C144.544205,159.333008 148.331100,159.306137 152.574158,159.394348 
	C151.458420,160.339005 149.965942,161.427841 148.296570,161.938904 
	C145.618011,162.758926 142.822372,163.196564 140.060760,164.169724 
	C139.867584,164.634872 139.689850,164.726105 138.770538,164.866516 
	C130.680862,164.943420 123.332756,164.971130 115.984650,164.998840 
	C115.984650,164.998856 116.035896,164.761230 116.040504,164.638428 
	C117.019058,163.025604 117.992996,161.535568 118.970772,159.728546 
	C120.422745,159.342361 121.870888,159.273163 124.065033,159.479477 
	C130.126450,159.623291 135.441864,159.491592 140.757294,159.359894 
z"/>
<path fill="#ECBD62" opacity="1.000000" stroke="none" 
	d="
M150.080566,131.821106 
	C147.907104,128.001068 146.189087,124.130768 149.284302,119.387329 
	C154.884079,116.975586 159.952454,114.964554 165.014343,112.983025 
	C165.007858,113.012527 164.949432,112.997101 165.274445,112.994217 
	C166.384079,112.700897 167.168732,112.410461 167.948242,111.844955 
	C167.960175,111.387260 167.977203,111.204643 167.994232,111.022026 
	C168.241913,112.376167 168.489609,113.730309 168.202728,115.525757 
	C164.075012,119.000923 160.431503,121.978363 156.924469,125.108673 
	C156.058273,125.881821 155.635590,127.151833 154.887787,128.386566 
	C154.526779,128.799026 154.245148,128.893265 153.795181,128.702301 
	C153.458344,128.808655 153.247986,129.075180 152.876770,129.574432 
	C151.837479,130.478470 150.959030,131.149780 150.080566,131.821106 
z"/>
<path fill="#EDBE63" opacity="1.000000" stroke="none" 
	d="
M144.698135,129.031281 
	C144.858414,129.851730 145.018707,130.672180 144.793030,131.954437 
	C140.906418,135.794189 137.377075,139.143082 133.917450,142.562515 
	C132.228638,144.231705 130.669739,146.032349 129.052032,147.773499 
	C125.419228,144.913269 124.418159,141.301346 126.401123,136.480240 
	C132.515594,133.692703 138.192963,131.386887 144.075027,129.031097 
	C144.279724,128.981125 144.698135,129.031281 144.698135,129.031281 
z"/>
<path fill="#EBBE63" opacity="1.000000" stroke="none" 
	d="
M149.028778,116.942123 
	C146.921539,110.477875 148.106079,107.107750 154.314331,105.482010 
	C159.627228,104.090752 157.425919,100.300430 157.688736,97.170753 
	C158.145477,97.105125 158.602234,97.039490 159.058975,96.973862 
	C159.552643,98.820930 160.046295,100.668007 160.577850,102.656822 
	C162.452209,102.340057 164.475586,101.997276 166.502335,101.675865 
	C166.514069,101.674004 166.606506,101.972229 166.601028,102.128212 
	C166.595352,102.289497 166.516098,102.448204 165.970062,102.988251 
	C162.338333,106.226883 159.186829,109.065178 156.082657,111.954323 
	C154.956299,113.002663 153.942978,114.172462 152.671844,115.525658 
	C151.319992,116.157013 150.174393,116.549568 149.028778,116.942123 
z"/>
<path fill="#E0B43D" opacity="1.000000" stroke="none" 
	d="
M129.401947,147.791656 
	C130.669739,146.032349 132.228638,144.231705 133.917450,142.562515 
	C137.377075,139.143082 140.906418,135.794189 144.675598,132.224579 
	C145.758133,135.196167 146.572128,138.359436 147.680786,141.721161 
	C148.307800,143.010544 148.640137,144.101456 148.973419,145.536270 
	C146.202988,145.833542 143.419800,145.930573 140.663223,145.703857 
	C137.230576,145.421555 136.284760,147.003357 136.581512,150.519806 
	C135.683090,150.883240 135.118347,150.798477 134.553604,150.713715 
	C134.637436,149.298126 134.721268,147.882523 134.841232,145.856522 
	C132.743088,146.661789 131.247482,147.235794 129.401947,147.791656 
z"/>
<path fill="#DBAD2A" opacity="1.000000" stroke="none" 
	d="
M134.195587,150.633423 
	C135.118347,150.798477 135.683090,150.883240 136.676239,150.960144 
	C138.472275,150.993851 139.839935,151.035416 141.608429,151.171219 
	C143.177902,152.643005 144.346527,154.020538 145.734985,155.646484 
	C144.534134,156.564117 143.113480,157.233353 141.059235,157.655945 
	C135.127151,156.923370 130.195633,155.945786 125.997650,151.976379 
	C124.488625,150.549515 121.165901,151.040787 118.670906,150.656677 
	C118.670906,150.656677 118.465546,150.575439 118.635986,149.974609 
	C118.854950,148.995392 118.903473,148.617020 118.951996,148.238632 
	C123.913857,149.010132 128.875717,149.781631 134.195587,150.633423 
z"/>
<path fill="#ECBD61" opacity="1.000000" stroke="none" 
	d="
M126.186836,133.641464 
	C123.957993,125.199066 125.929977,122.200699 135.996765,119.124252 
	C137.819199,118.567314 139.811798,118.567123 141.548416,118.808197 
	C138.261261,122.198975 135.056076,124.997925 132.086716,128.027985 
	C130.822632,129.317917 130.051880,131.091278 128.975418,132.768295 
	C128.729065,133.028534 128.541977,133.073929 128.109314,133.080963 
	C127.571548,133.213089 127.336769,133.394852 126.931984,133.694870 
	C126.517166,133.687408 126.352005,133.664444 126.186836,133.641464 
z"/>
<path fill="#EBBF59" opacity="1.000000" stroke="none" 
	d="
M118.837173,150.911911 
	C121.165901,151.040787 124.488625,150.549515 125.997650,151.976379 
	C130.195633,155.945786 135.127151,156.923370 140.704559,157.677582 
	C140.942383,158.180176 140.901306,158.414459 140.808762,159.004303 
	C135.441864,159.491592 130.126450,159.623291 124.499329,159.523163 
	C122.459564,156.583282 120.731506,153.875214 118.837173,150.911911 
z"/>
<path fill="#DBAD2A" opacity="1.000000" stroke="none" 
	d="
M155.009018,128.193436 
	C155.635590,127.151833 156.058273,125.881821 156.924469,125.108673 
	C160.431503,121.978363 164.075012,119.000923 167.962677,115.736099 
	C169.521027,118.433083 170.784851,121.361023 171.996902,124.649696 
	C171.767181,125.002914 171.589264,124.995399 170.735443,125.051437 
	C165.042694,126.141144 160.025864,127.167297 155.009018,128.193436 
z"/>
<path fill="#ECBF65" opacity="1.000000" stroke="none" 
	d="
M116.108330,143.609329 
	C113.531548,143.395813 110.954765,143.182297 107.759949,142.917557 
	C110.900360,136.648468 114.345528,131.399155 120.280548,127.990860 
	C118.988342,133.331741 114.591019,137.574646 116.108330,143.609329 
z"/>
<path fill="#DBAC28" opacity="1.000000" stroke="none" 
	d="
M129.056946,132.644958 
	C130.051880,131.091278 130.822632,129.317917 132.086716,128.027985 
	C135.056076,124.997925 138.261261,122.198975 141.672363,119.160660 
	C142.893188,122.114220 143.812668,125.213615 144.715149,128.672150 
	C144.698135,129.031281 144.279724,128.981125 143.668976,129.058395 
	C138.391129,130.305435 133.724045,131.475204 129.056946,132.644958 
z"/>
<path fill="#DBAD2A" opacity="1.000000" stroke="none" 
	d="
M152.878082,115.286842 
	C153.942978,114.172462 154.956299,113.002663 156.082657,111.954323 
	C159.186829,109.065178 162.338333,106.226883 165.748123,103.184509 
	C166.584579,105.447517 167.143997,107.894485 167.848816,110.681740 
	C167.977203,111.204643 167.960175,111.387260 167.609650,111.877869 
	C166.500595,112.456284 165.725021,112.726692 164.949432,112.997101 
	C164.949432,112.997101 165.007858,113.012527 164.595764,112.846260 
	C160.415146,113.548943 156.646622,114.417892 152.878082,115.286842 
z"/>
<path fill="#DCAF2F" opacity="1.000000" stroke="none" 
	d="
M116.468864,143.740616 
	C114.591019,137.574646 118.988342,133.331741 120.610245,127.915283 
	C120.471329,127.540428 120.525017,127.349174 120.883377,127.642151 
	C121.596680,128.381393 121.951630,128.827652 122.306572,129.273911 
	C121.631386,134.266327 120.956200,139.258759 120.251358,144.470459 
	C119.344795,144.311890 118.087097,144.091904 116.468864,143.740616 
z"/>
<path fill="#F9F4E2" opacity="1.000000" stroke="none" 
	d="
M154.887787,128.386566 
	C160.025864,127.167297 165.042694,126.141144 170.472137,125.096489 
	C166.536926,126.904495 162.210770,128.785126 157.832520,130.535477 
	C155.525421,131.457825 153.127396,132.152740 150.397110,133.000122 
	C150.028778,132.845047 150.033737,132.640182 150.059631,132.128204 
	C150.959030,131.149780 151.837479,130.478470 153.099258,129.456879 
	C153.628937,129.025223 153.775299,128.943832 153.921661,128.862457 
	C154.245148,128.893265 154.526779,128.799026 154.887787,128.386566 
z"/>
<path fill="#F9F4E2" opacity="1.000000" stroke="none" 
	d="
M128.975418,132.768295 
	C133.724045,131.475204 138.391129,130.305435 143.464279,129.108368 
	C138.192963,131.386887 132.515594,133.692703 126.486641,136.122253 
	C126.119621,135.667007 126.104195,135.088058 126.137802,134.075287 
	C126.352005,133.664444 126.517166,133.687408 127.166672,133.694641 
	C127.908180,133.493256 128.135391,133.276215 128.332642,133.027817 
	C128.541977,133.073929 128.729065,133.028534 128.975418,132.768295 
z"/>
<path fill="#F9F4E2" opacity="1.000000" stroke="none" 
	d="
M152.671844,115.525650 
	C156.646622,114.417892 160.415146,113.548943 164.602264,112.816757 
	C159.952454,114.964554 154.884079,116.975586 149.453552,119.079155 
	C149.065872,118.676399 149.040314,118.181099 149.021759,117.313965 
	C150.174393,116.549568 151.319992,116.157013 152.671844,115.525650 
z"/>
<path fill="#EBBF59" opacity="1.000000" stroke="none" 
	d="
M118.649002,148.104340 
	C118.903473,148.617020 118.854950,148.995392 118.559738,149.894745 
	C116.987236,149.847733 115.661446,149.279755 114.335648,148.711777 
	C114.385254,148.464539 114.434860,148.217300 114.484467,147.970062 
	C115.771652,147.970062 117.058830,147.970062 118.649002,148.104340 
z"/>
<path fill="#ECBF65" opacity="1.000000" stroke="none" 
	d="
M122.541946,129.034180 
	C121.951630,128.827652 121.596680,128.381393 120.970535,127.594513 
	C121.588814,126.465767 122.478302,125.677635 123.684143,124.945000 
	C124.000504,125.000496 123.994255,124.995537 123.994247,124.995537 
	C123.588600,126.261833 123.182953,127.528130 122.541946,129.034180 
z"/>
<path fill="#ECBF65" opacity="1.000000" stroke="none" 
	d="
M124.004440,125.004799 
	C124.116447,124.965088 124.224525,124.921074 124.163429,124.936295 
	C123.994255,124.995537 124.000504,125.000496 124.004440,125.004799 
z"/>
<path fill="#28345F" opacity="1.000000" stroke="none" 
	d="
M178.088211,213.551636 
	C177.178711,216.634995 176.421921,219.424530 175.130447,221.939514 
	C174.605682,222.961411 172.986069,223.775742 171.743652,223.993088 
	C169.775620,224.337357 167.705872,224.100189 165.315033,224.266861 
	C158.534058,224.206223 152.117218,223.987747 145.359009,223.931091 
	C141.560120,224.861633 139.953323,223.556625 140.357819,219.208939 
	C139.904083,217.883057 139.481995,217.310730 139.059906,216.738388 
	C139.093597,216.484207 139.028961,216.258148 138.712616,215.966217 
	C136.182388,208.839371 133.949982,201.752884 131.368195,194.796066 
	C130.061951,191.276291 132.723297,191.415146 135.162415,190.362259 
	C137.853897,188.639191 140.006744,187.264023 141.958160,185.645966 
	C144.411636,183.611603 146.700317,181.378525 149.060104,179.231186 
	C152.006790,177.362854 154.953461,175.494522 158.249802,173.404495 
	C162.932281,177.100861 168.199753,181.259033 173.845306,185.546570 
	C177.533051,187.687454 180.980331,189.520172 184.030807,191.868378 
	C184.608154,192.312836 183.609802,194.804199 183.236160,196.688507 
	C181.431183,202.399765 179.728546,207.773575 178.088211,213.551636 
M174.407990,195.317444 
	C174.955490,193.883316 175.954132,192.445221 175.941544,191.016022 
	C175.924011,189.024384 162.910706,181.115204 160.850677,181.556519 
	C160.536865,181.623734 160.251999,181.826111 159.481812,181.672958 
	C158.607071,181.887909 157.732330,182.102859 156.227829,181.939194 
	C152.354279,180.800415 140.863586,188.593063 139.278992,192.938919 
	C137.735550,193.173950 136.192093,193.408997 134.648651,193.644028 
	C134.647919,194.082153 134.647186,194.520279 134.646439,194.958405 
	C136.091568,195.629913 137.536697,196.301437 138.478806,197.455231 
	C138.471863,199.525711 138.154846,201.655426 138.536240,203.651718 
	C139.016251,206.164200 140.368011,208.515076 140.806808,211.029373 
	C141.622498,215.703064 143.111923,216.581116 147.981964,215.410126 
	C148.026825,215.675674 148.071686,215.941208 148.137222,216.939178 
	C148.735901,220.569229 150.772461,221.425217 154.254822,220.622177 
	C156.438202,220.118683 158.878250,220.128143 161.099838,220.509369 
	C166.522430,221.439865 167.560425,220.670868 167.936066,215.035217 
	C168.286545,215.025909 168.637024,215.016617 169.650299,215.284149 
	C173.695190,216.875565 174.899490,214.431137 175.668106,211.156967 
	C176.256226,208.651672 176.701035,206.021790 177.825348,203.752380 
	C180.106186,199.148499 179.317230,197.440933 174.000641,196.327957 
	C174.000641,196.327957 173.946991,195.888046 174.407990,195.317444 
M178.785477,195.845840 
	C179.163132,194.817627 179.540787,193.789413 179.918442,192.761200 
	C179.387680,192.650604 178.856918,192.540024 178.326157,192.429443 
	C178.265854,193.562424 178.205551,194.695419 178.785477,195.845840 
z"/>
<path fill="#8AB0DB" opacity="1.000000" stroke="none" 
	d="
M149.022583,178.867249 
	C146.700317,181.378525 144.411636,183.611603 141.958160,185.645966 
	C140.006744,187.264023 137.853897,188.639191 135.432602,190.130585 
	C130.960083,184.835983 126.848938,179.530273 122.729370,174.231125 
	C120.512627,171.379639 118.281425,168.539383 116.020699,165.346451 
	C123.332756,164.971130 130.680862,164.943420 138.489410,164.970306 
	C142.294937,169.517715 145.639999,174.010513 149.022583,178.867249 
z"/>
<path fill="#AEC6E6" opacity="1.000000" stroke="none" 
	d="
M139.062225,217.102814 
	C139.481995,217.310730 139.904083,217.883057 140.287750,218.826782 
	C139.854401,218.621201 139.459488,218.044220 139.062225,217.102814 
z"/>
<path fill="#F9F4E2" opacity="1.000000" stroke="none" 
	d="
M165.274445,112.994217 
	C165.725021,112.726692 166.500595,112.456284 167.614777,112.152946 
	C167.168732,112.410461 166.384079,112.700897 165.274445,112.994217 
z"/>
<path fill="#DBAD2A" opacity="1.000000" stroke="none" 
	d="
M153.795181,128.702301 
	C153.775299,128.943832 153.628937,129.025223 153.260101,129.224152 
	C153.247986,129.075180 153.458344,128.808655 153.795181,128.702301 
z"/>
<path fill="#DBAC28" opacity="1.000000" stroke="none" 
	d="
M128.109314,133.080963 
	C128.135391,133.276215 127.908180,133.493256 127.416321,133.679138 
	C127.336769,133.394852 127.571548,133.213089 128.109314,133.080963 
z"/>
<path fill="#BC1E21" opacity="1.000000" stroke="none" 
	d="
M167.414749,215.041260 
	C167.560425,220.670868 166.522430,221.439865 161.099838,220.509369 
	C158.878250,220.128143 156.438202,220.118683 154.254822,220.622177 
	C150.772461,221.425217 148.735901,220.569229 148.354645,216.357971 
	C150.074646,212.832611 150.969025,215.383713 152.290543,216.395721 
	C153.572174,216.580414 154.622787,216.532120 155.673416,216.483810 
	C155.711258,216.068680 155.749100,215.653549 155.786942,215.238434 
	C154.820221,214.839752 153.853485,214.441071 152.608109,213.822906 
	C153.289368,211.132828 154.249268,208.662262 155.492310,206.002380 
	C156.832809,205.492706 157.890152,205.172333 159.205109,204.904755 
	C159.635300,204.988205 159.807907,205.018845 160.115540,205.299683 
	C160.777649,206.085922 161.304733,206.621979 161.913696,207.445038 
	C162.540543,208.284439 163.085526,208.836807 163.729675,209.774765 
	C165.469009,214.284500 162.246323,214.691818 159.796906,216.295792 
	C162.336182,215.877609 164.875473,215.459427 167.414749,215.041260 
z"/>
<path fill="#B81F22" opacity="1.000000" stroke="none" 
	d="
M147.855545,214.612167 
	C143.111923,216.581116 141.622498,215.703064 140.806808,211.029373 
	C140.368011,208.515076 139.016251,206.164200 138.536240,203.651718 
	C138.154846,201.655426 138.471863,199.525711 139.098450,197.209137 
	C141.010422,197.493271 142.302734,198.023468 143.303192,198.718079 
	C143.190842,200.373474 143.370361,201.864471 143.645752,203.593292 
	C144.006744,204.262833 144.271866,204.694550 144.604599,205.526413 
	C145.733322,208.821747 146.794434,211.716965 147.855545,214.612167 
z"/>
<path fill="#B71F22" opacity="1.000000" stroke="none" 
	d="
M174.028687,196.769348 
	C179.317230,197.440933 180.106186,199.148499 177.825348,203.752380 
	C176.701035,206.021790 176.256226,208.651672 175.668106,211.156967 
	C174.899490,214.431137 173.695190,216.875565 169.192596,214.849121 
	C169.833344,211.569901 170.931778,208.725739 172.021606,205.776260 
	C172.013031,205.670959 172.038498,205.458801 172.062912,205.086823 
	C172.061401,204.467667 172.035492,204.220505 172.011292,203.987915 
	C172.013016,204.002472 171.987549,204.015015 172.328430,203.891937 
	C173.122437,201.435684 173.575562,199.102524 174.028687,196.769348 
z"/>
<path fill="#B81F22" opacity="1.000000" stroke="none" 
	d="
M139.941193,192.984299 
	C140.863586,188.593063 152.354279,180.800415 156.586273,182.512604 
	C156.970596,184.123810 156.996490,185.161606 156.651398,186.125549 
	C154.776688,186.628754 153.272964,187.205841 151.549622,187.959625 
	C151.065063,188.625687 150.800125,189.115036 150.192444,189.700684 
	C147.481125,191.362183 145.112564,192.927383 142.037643,194.959366 
	C141.963242,194.889282 140.952225,193.936783 139.941193,192.984299 
z"/>
<path fill="#B91F22" opacity="1.000000" stroke="none" 
	d="
M159.953751,181.965988 
	C160.251999,181.826111 160.536865,181.623734 160.850677,181.556519 
	C162.910706,181.115204 175.924011,189.024384 175.941544,191.016022 
	C175.954132,192.445221 174.955490,193.883316 173.884430,195.601166 
	C172.969757,195.894241 172.578659,195.903595 172.135925,195.533752 
	C172.551300,190.750900 168.691528,191.022415 166.116486,189.435959 
	C163.978226,188.156677 161.976715,187.199448 159.691925,186.047531 
	C159.590363,184.557220 159.772049,183.261612 159.953751,181.965988 
z"/>
<path fill="#3A2F52" opacity="1.000000" stroke="none" 
	d="
M159.717773,181.819473 
	C159.772049,183.261612 159.590363,184.557220 159.696716,186.327576 
	C159.983383,187.178329 159.981979,187.554337 159.769806,188.287567 
	C159.377686,190.236893 159.052155,191.828003 159.041214,193.421265 
	C159.004059,198.838730 160.078308,199.575882 165.453125,198.491150 
	C162.856934,200.853149 160.437393,202.822739 162.345947,206.674805 
	C162.174683,206.835968 161.831818,207.158020 161.831818,207.158020 
	C161.304733,206.621979 160.777649,206.085922 160.160812,204.924500 
	C160.080231,202.966019 160.089417,201.632935 160.098602,200.299835 
	C159.200043,200.454742 158.301483,200.609650 157.402908,200.764557 
	C157.917770,202.127029 158.432648,203.489502 158.947510,204.851959 
	C157.890152,205.172333 156.832809,205.492706 155.300858,205.825638 
	C154.699387,205.720444 154.572525,205.602707 154.590454,205.180542 
	C153.121475,202.572662 151.507706,200.269211 150.287201,198.030014 
	C152.726395,197.795624 156.495346,197.651962 156.538422,197.173141 
	C156.816467,194.082291 156.280823,190.918213 156.126678,187.572189 
	C156.501633,186.977264 156.762009,186.588333 157.022385,186.199402 
	C156.996490,185.161606 156.970596,184.123810 156.901154,182.701904 
	C157.732330,182.102859 158.607071,181.887909 159.717773,181.819473 
z"/>
<path fill="#3E2F50" opacity="1.000000" stroke="none" 
	d="
M139.610092,192.961609 
	C140.952225,193.936783 141.963242,194.889282 142.037643,194.959366 
	C145.112564,192.927383 147.481125,191.362183 150.355957,189.844238 
	C150.862198,189.891495 151.183960,190.184479 150.992126,190.469849 
	C144.609589,194.470154 144.566452,194.693268 149.115875,198.248886 
	C147.293762,198.749908 145.758545,198.984787 144.066010,199.053375 
	C143.908691,198.887115 143.595047,198.553665 143.595047,198.553665 
	C142.302734,198.023468 141.010422,197.493271 139.349976,196.968002 
	C137.536697,196.301437 136.091568,195.629913 134.646439,194.958405 
	C134.647186,194.520279 134.647919,194.082153 134.648651,193.644028 
	C136.192093,193.408997 137.735550,193.173950 139.610092,192.961609 
z"/>
<path fill="#3A2F52" opacity="1.000000" stroke="none" 
	d="
M172.030212,205.881561 
	C170.931778,208.725739 169.833344,211.569901 168.861206,214.710693 
	C168.637024,215.016617 168.286545,215.025909 167.675415,215.038239 
	C164.875473,215.459427 162.336182,215.877609 159.796906,216.295792 
	C162.246323,214.691818 165.469009,214.284500 163.872711,209.631058 
	C163.916565,209.101761 164.211472,208.823425 164.497162,209.023315 
	C167.339111,211.774780 169.138474,211.842728 170.045471,207.821594 
	C170.216309,207.064224 171.344025,206.522690 172.030212,205.881561 
z"/>
<path fill="#3A2F52" opacity="1.000000" stroke="none" 
	d="
M147.918762,215.011139 
	C146.794434,211.716965 145.733322,208.821747 144.918976,205.490112 
	C145.373611,205.038208 145.581467,205.022736 145.890945,205.389893 
	C146.710556,207.453583 147.428543,209.134613 148.146515,210.815674 
	C149.385162,209.776306 150.626526,208.740173 151.861496,207.696472 
	C152.727402,206.964645 153.584579,206.222488 154.445663,205.484955 
	C154.572525,205.602707 154.699387,205.720444 155.017700,206.014938 
	C154.249268,208.662262 153.289368,211.132828 152.633865,214.126373 
	C152.645355,215.153809 152.352448,215.658279 152.059540,216.162735 
	C150.969025,215.383713 150.074646,212.832611 148.344315,215.991760 
	C148.071686,215.941208 148.026825,215.675674 147.918762,215.011139 
z"/>
<path fill="#3A2F52" opacity="1.000000" stroke="none" 
	d="
M172.187546,195.912933 
	C172.578659,195.903595 172.969757,195.894241 173.653931,195.886459 
	C173.946991,195.888046 174.000641,196.327957 174.014664,196.548645 
	C173.575562,199.102524 173.122437,201.435684 172.254410,203.463760 
	C172.389053,200.458740 172.114532,198.510544 168.526886,198.896774 
	C167.552887,199.001617 166.496872,198.344528 165.837723,197.943527 
	C167.480911,197.237976 168.764893,196.626038 170.405289,196.003967 
	C171.236969,195.966873 171.712265,195.939911 172.187546,195.912933 
z"/>
<path fill="#3A2F52" opacity="1.000000" stroke="none" 
	d="
M178.465363,195.837128 
	C178.205551,194.695419 178.265854,193.562424 178.326157,192.429443 
	C178.856918,192.540024 179.387680,192.650604 179.918442,192.761200 
	C179.540787,193.789413 179.163132,194.817627 178.465363,195.837128 
z"/>
<path fill="#3D3353" opacity="1.000000" stroke="none" 
	d="
M159.205109,204.904770 
	C158.432648,203.489502 157.917770,202.127029 157.402908,200.764557 
	C158.301483,200.609650 159.200043,200.454742 160.098602,200.299835 
	C160.089417,201.632935 160.080231,202.966019 160.025772,204.674316 
	C159.807907,205.018845 159.635300,204.988205 159.205109,204.904770 
z"/>
<path fill="#B71F22" opacity="1.000000" stroke="none" 
	d="
M152.290558,216.395721 
	C152.352448,215.658279 152.645355,215.153809 152.912506,214.345871 
	C153.853485,214.441071 154.820221,214.839752 155.786942,215.238434 
	C155.749100,215.653549 155.711258,216.068680 155.673416,216.483810 
	C154.622787,216.532120 153.572174,216.580414 152.290558,216.395721 
z"/>
<path fill="#3A2F52" opacity="1.000000" stroke="none" 
	d="
M163.773529,209.245468 
	C163.085526,208.836807 162.540543,208.284439 161.913696,207.445038 
	C161.831818,207.158020 162.174683,206.835968 162.564362,206.866119 
	C163.373199,207.538666 163.792343,208.181046 164.211472,208.823425 
	C164.211472,208.823425 163.916565,209.101761 163.773529,209.245468 
z"/>
<path fill="#3E2F50" opacity="1.000000" stroke="none" 
	d="
M143.549866,203.355469 
	C143.370361,201.864471 143.190842,200.373474 143.303192,198.718079 
	C143.595047,198.553665 143.908691,198.887115 144.002914,199.409546 
	C144.143661,200.891769 144.190186,201.851547 144.065399,202.947876 
	C143.894104,203.084442 143.549866,203.355469 143.549866,203.355469 
z"/>
<path fill="#3E2F50" opacity="1.000000" stroke="none" 
	d="
M145.789307,205.007263 
	C145.581467,205.022736 145.373611,205.038208 144.851379,205.089996 
	C144.271866,204.694550 144.006744,204.262833 143.645752,203.593292 
	C143.549866,203.355469 143.894104,203.084442 144.289566,203.110214 
	C145.053131,203.759750 145.421219,204.383499 145.789307,205.007263 
z"/>
<path fill="#BD1E20" opacity="1.000000" stroke="none" 
	d="
M164.497162,209.023315 
	C163.792343,208.181046 163.373199,207.538666 162.735641,206.704956 
	C160.437393,202.822739 162.856934,200.853149 165.447464,198.505295 
	C165.479111,198.073715 165.478516,198.037125 165.478516,198.037140 
	C166.496872,198.344528 167.552887,199.001617 168.526886,198.896774 
	C172.114532,198.510544 172.389053,200.458740 171.913528,203.586838 
	C171.987549,204.015015 172.013016,204.002472 171.700958,204.038727 
	C171.605453,204.536255 171.821976,204.997528 172.038498,205.458801 
	C172.038498,205.458801 172.013031,205.670959 172.021622,205.776276 
	C171.344025,206.522690 170.216309,207.064224 170.045471,207.821594 
	C169.138474,211.842728 167.339111,211.774780 164.497162,209.023315 
z"/>
<path fill="#3A2F52" opacity="1.000000" stroke="none" 
	d="
M172.062912,205.086823 
	C171.821976,204.997528 171.605453,204.536255 171.699249,204.024170 
	C172.035492,204.220505 172.061401,204.467667 172.062912,205.086823 
z"/>
<path fill="#3E2F50" opacity="1.000000" stroke="none" 
	d="
M156.651398,186.125549 
	C156.762009,186.588333 156.501633,186.977264 155.767761,187.596085 
	C154.404190,188.092468 153.514114,188.358978 152.410736,188.414444 
	C152.054688,188.063232 151.911957,187.923065 151.769226,187.782913 
	C153.272964,187.205841 154.776688,186.628754 156.651398,186.125549 
z"/>
<path fill="#3E2F50" opacity="1.000000" stroke="none" 
	d="
M150.698700,189.747955 
	C150.800125,189.115036 151.065063,188.625687 151.549622,187.959625 
	C151.911957,187.923065 152.054688,188.063232 152.239716,188.619507 
	C151.915985,189.418549 151.549973,189.801514 151.183960,190.184479 
	C151.183960,190.184479 150.862198,189.891495 150.698700,189.747955 
z"/>
<path fill="#452E4D" opacity="1.000000" stroke="none" 
	d="
M172.135925,195.533752 
	C171.712265,195.939911 171.236969,195.966873 170.410553,195.631195 
	C168.525772,193.700424 166.992111,192.132278 165.656281,190.361725 
	C165.987122,190.025574 166.120178,189.891800 166.253220,189.758011 
	C168.691528,191.022415 172.551300,190.750900 172.135925,195.533752 
z"/>
<path fill="#452E4D" opacity="1.000000" stroke="none" 
	d="
M159.980576,187.930328 
	C159.981979,187.554337 159.983383,187.178329 159.979996,186.522278 
	C161.976715,187.199448 163.978226,188.156677 166.116486,189.435959 
	C166.120178,189.891800 165.987122,190.025574 165.385803,190.152802 
	C163.271896,189.407623 161.626236,188.668976 159.980576,187.930328 
z"/>
<path fill="#BC1E21" opacity="1.000000" stroke="none" 
	d="
M145.890945,205.389893 
	C145.421219,204.383499 145.053131,203.759750 144.460876,202.973663 
	C144.190186,201.851547 144.143661,200.891769 144.160233,199.575821 
	C145.758545,198.984787 147.293762,198.749908 149.237305,198.248016 
	C149.645645,197.980988 149.893936,197.965744 149.893936,197.965744 
	C151.507706,200.269211 153.121475,202.572662 154.590454,205.180542 
	C153.584579,206.222488 152.727402,206.964645 151.861496,207.696472 
	C150.626526,208.740173 149.385162,209.776306 148.146515,210.815674 
	C147.428543,209.134613 146.710556,207.453583 145.890945,205.389893 
z"/>
<path fill="#BE1E20" opacity="1.000000" stroke="none" 
	d="
M150.287201,198.030014 
	C149.893936,197.965744 149.645645,197.980988 149.524216,197.981873 
	C144.566452,194.693268 144.609589,194.470154 150.992126,190.469849 
	C151.549973,189.801514 151.915985,189.418549 152.453033,188.830536 
	C153.514114,188.358978 154.404190,188.092468 155.653168,187.802063 
	C156.280823,190.918213 156.816467,194.082291 156.538422,197.173141 
	C156.495346,197.651962 152.726395,197.795624 150.287201,198.030014 
z"/>
<path fill="#C01D1F" opacity="1.000000" stroke="none" 
	d="
M159.769806,188.287567 
	C161.626236,188.668976 163.271896,189.407623 165.188004,190.355194 
	C166.992111,192.132278 168.525772,193.700424 170.054169,195.641327 
	C168.764893,196.626038 167.480911,197.237976 165.837723,197.943512 
	C165.478516,198.037125 165.479111,198.073715 165.484772,198.059570 
	C160.078308,199.575882 159.004059,198.838730 159.041214,193.421265 
	C159.052155,191.828003 159.377686,190.236893 159.769806,188.287567 
z"/>
</svg>