<svg version="1.1" id="Layer_1" xmlns="http://www.w3.org/2000/svg" xmlns:xlink="http://www.w3.org/1999/xlink" x="0px" y="0px"
	 width="100%" viewBox="0 0 310 313" enable-background="new 0 0 310 313" xml:space="preserve">
<path fill="#FDFEFE" opacity="1.000000" stroke="none" 
	d="
M311.000000,109.000000 
	C311.000000,177.666672 311.000000,245.833328 311.000000,314.000000 
	C207.666672,314.000000 104.333336,314.000000 1.000000,314.000000 
	C1.000000,209.666672 1.000000,105.333336 1.000000,1.000000 
	C104.333336,1.000000 207.666672,1.000000 311.000000,1.000000 
	C311.000000,36.833332 311.000000,72.666664 311.000000,109.000000 
M32.658493,243.835709 
	C70.965378,294.698181 121.637566,316.099945 184.411819,304.945007 
	C261.248596,291.291168 318.479126,216.329453 303.500305,131.805054 
	C288.312531,46.101440 206.922165,-7.492238 122.405998,11.076693 
	C59.618374,24.871674 11.039780,80.451614 6.108841,144.404922 
	C3.338457,180.336288 11.837365,213.394882 32.658493,243.835709 
z"/>
<path fill="#2F5884" opacity="1.000000" stroke="none" 
	d="
M32.437790,243.549866 
	C11.837365,213.394882 3.338457,180.336288 6.108841,144.404922 
	C11.039780,80.451614 59.618374,24.871674 122.405998,11.076693 
	C206.922165,-7.492238 288.312531,46.101440 303.500305,131.805054 
	C318.479126,216.329453 261.248596,291.291168 184.411819,304.945007 
	C121.637566,316.099945 70.965378,294.698181 32.437790,243.549866 
M239.279129,271.797333 
	C285.991058,234.810349 305.031006,186.857529 293.747192,128.318588 
	C279.485992,54.333511 204.876175,4.425689 131.109390,18.248289 
	C52.901218,32.903126 2.332811,106.458473 16.954891,184.294128 
	C36.020527,285.783508 154.917984,332.914093 239.279129,271.797333 
z"/>
<path fill="#F7F9FA" opacity="1.000000" stroke="none" 
	d="
M238.980225,271.991577 
	C154.917984,332.914093 36.020527,285.783508 16.954891,184.294128 
	C2.332811,106.458473 52.901218,32.903126 131.109390,18.248289 
	C204.876175,4.425689 279.485992,54.333511 293.747192,128.318588 
	C305.031006,186.857529 285.991058,234.810349 238.980225,271.991577 
M85.327194,272.225311 
	C112.327202,288.731873 141.551758,294.744751 172.923615,291.050842 
	C251.070953,281.849335 305.524139,203.022644 286.416595,126.653328 
	C268.024994,53.145218 197.522598,10.004757 123.633644,27.046309 
	C64.206383,40.752457 19.456455,98.336502 21.377325,159.161697 
	C22.907383,207.611633 44.192848,245.203110 85.327194,272.225311 
z"/>
<path fill="#2B5582" opacity="1.000000" stroke="none" 
	d="
M85.002930,272.060852 
	C44.192848,245.203110 22.907383,207.611633 21.377325,159.161697 
	C19.456455,98.336502 64.206383,40.752457 123.633644,27.046309 
	C197.522598,10.004757 268.024994,53.145218 286.416595,126.653328 
	C305.524139,203.022644 251.070953,281.849335 172.923615,291.050842 
	C141.551758,294.744751 112.327202,288.731873 85.002930,272.060852 
M239.717209,227.602585 
	C236.418365,227.405624 233.119507,227.208664 229.820663,227.011719 
	C229.635361,227.580643 229.450058,228.149551 229.264755,228.718475 
	C232.538788,231.597214 235.812836,234.475952 239.086884,237.354675 
	C239.650879,236.744888 240.214874,236.135101 240.778870,235.525314 
	C238.610504,233.932755 236.442139,232.340179 234.273773,230.747620 
	C234.463715,230.365952 234.653656,229.984268 234.843613,229.602600 
	C238.647888,229.602600 242.452164,229.602600 246.256439,229.602600 
	C246.390442,229.226715 246.524429,228.850830 246.658417,228.474960 
	C243.471771,225.517899 240.285110,222.560837 237.098450,219.603790 
	C236.692947,220.013519 236.287445,220.423264 235.881927,220.832993 
	C237.662094,222.816666 239.442261,224.800339 240.894135,227.113403 
	C240.894135,227.113403 240.576431,227.453018 239.717209,227.602585 
M122.632416,234.899612 
	C137.558640,241.287857 153.126266,243.311203 169.071457,240.649429 
	C213.767090,233.188248 242.814865,192.816574 239.272263,150.358154 
	C235.129974,100.712685 186.891418,64.655205 138.068420,75.573868 
	C102.385162,83.553993 75.790527,113.167969 72.180092,148.942642 
	C68.508026,185.327988 88.086792,219.028885 122.632416,234.899612 
M177.499847,34.964836 
	C168.327927,28.139658 158.046951,32.623936 148.398315,31.241470 
	C148.398315,43.646240 148.398315,55.191616 148.398315,66.943535 
	C150.870132,66.758453 152.939316,66.603516 155.497467,66.411964 
	C155.497467,62.611710 155.497467,59.385944 155.497467,56.447876 
	C161.871002,54.552689 165.959488,56.460423 168.233597,62.140923 
	C170.412918,67.584732 174.673584,69.728508 180.701828,69.643349 
	C177.819336,64.881294 175.035797,60.282715 172.252350,55.684273 
	C182.565353,49.685783 184.268600,43.445454 177.499847,34.964836 
M226.345505,55.119228 
	C217.633270,55.794315 214.329926,61.710400 218.687164,69.174828 
	C220.007156,71.436111 222.002838,73.302742 223.687180,75.351669 
	C225.793839,77.914368 228.081390,80.357277 229.906754,83.106880 
	C230.561646,84.093369 230.677505,86.437897 230.009781,87.063179 
	C229.055023,87.957268 226.831497,88.533241 225.723221,88.016106 
	C223.227463,86.851570 220.705246,85.272369 218.881973,83.243462 
	C215.798981,79.812759 213.248764,75.903275 210.264130,71.913834 
	C208.854248,73.010315 207.332291,74.193954 205.495224,75.622665 
	C209.763077,84.281960 215.280746,91.306633 224.282455,94.910812 
	C228.411636,96.564095 232.510574,96.449966 235.730789,92.834831 
	C238.983597,89.183113 238.676224,84.984924 236.231049,81.281136 
	C233.413681,77.013535 229.751678,73.310562 226.809647,69.114754 
	C225.646133,67.455437 225.433792,65.129181 224.788361,63.106594 
	C226.922638,63.309448 229.716125,62.725143 231.070450,63.859329 
	C235.549393,67.610229 239.508957,71.981331 243.938538,76.383438 
	C244.704651,75.803772 246.120209,74.732719 247.774750,73.480843 
	C243.428055,64.226761 237.119965,57.685993 226.345505,55.119228 
M93.408951,57.125923 
	C87.345596,52.075504 80.973175,51.627621 75.961517,56.568745 
	C70.540062,61.913910 65.600143,67.747475 60.169273,73.674606 
	C68.868439,81.612823 77.297852,89.304886 85.321602,96.626770 
	C87.302155,94.921188 88.981537,93.474960 90.779739,91.926414 
	C88.189499,89.463280 85.805435,87.196198 83.206749,84.725021 
	C86.401947,81.155708 89.415306,77.875977 92.331734,74.512207 
	C97.215935,68.878838 97.615456,64.230286 93.408951,57.125923 
M108.819664,44.461536 
	C108.021172,56.160191 107.222679,67.858841 106.349373,80.653542 
	C109.677986,77.745621 114.729263,78.124832 113.937309,72.847031 
	C113.189476,67.863274 115.517387,65.557808 120.049362,64.566269 
	C121.985672,64.142632 123.903656,63.473888 125.708839,62.650848 
	C128.276947,61.479969 130.283676,61.973827 131.650009,64.362556 
	C134.528946,69.395729 138.493027,68.895332 143.362167,66.826782 
	C134.831833,57.422138 126.663460,48.221100 118.177521,39.322906 
	C117.183357,38.280449 114.420486,38.667889 112.510559,38.816521 
	C109.724792,39.033314 108.463699,40.762577 108.819664,44.461536 
M188.424942,70.792526 
	C190.228790,72.390564 192.032623,73.988602 194.357803,76.048492 
	C199.309128,64.080315 203.768387,53.301579 208.305038,42.335762 
	C205.755569,41.282307 203.806274,40.476845 201.466400,39.509995 
	C197.136444,49.959629 192.957687,60.044395 188.424942,70.792526 
M213.845123,255.664291 
	C211.946198,252.158722 210.047287,248.653152 208.148361,245.147568 
	C207.675797,245.274963 207.203247,245.402344 206.730682,245.529739 
	C206.421051,248.507324 206.111420,251.484924 205.752853,254.933151 
	C202.991623,253.177292 200.513107,251.601212 198.034592,250.025131 
	C197.614243,250.418228 197.193909,250.811325 196.773560,251.204422 
	C198.690002,255.233856 200.606445,259.263275 202.522888,263.292725 
	C203.047272,263.074127 203.571655,262.855530 204.096054,262.636963 
	C203.359406,260.477783 202.622757,258.318604 201.618347,255.374603 
	C204.151138,256.733704 205.899124,257.671692 207.806000,258.694916 
	C208.054947,256.568756 208.255249,254.858078 208.455551,253.147415 
	C210.391495,254.220459 211.232956,255.689255 212.241455,257.032654 
	C212.351639,257.179443 213.423294,256.604401 213.845123,255.664291 
M181.973495,259.793823 
	C183.012054,262.991608 184.050629,266.189423 185.089203,269.387207 
	C185.564178,269.222321 186.039154,269.057434 186.514145,268.892548 
	C186.282898,267.184601 186.051666,265.476624 185.568344,261.906799 
	C189.479431,263.676849 192.264297,264.937195 194.606918,265.997375 
	C194.266312,263.965851 193.954712,261.841797 193.543152,259.737305 
	C193.217712,258.073212 192.864868,255.047073 192.360001,255.012329 
	C189.558075,254.819565 186.641907,255.100861 183.906952,255.786591 
	C182.992126,256.015991 182.496170,257.915924 181.973495,259.793823 
M73.199417,219.775406 
	C68.024673,220.334305 69.523018,223.332550 70.938751,226.164261 
	C72.027031,228.341034 73.316727,230.417084 74.516846,232.537933 
	C73.809502,233.051849 73.102158,233.565781 72.394814,234.079712 
	C70.008591,231.396942 67.622368,228.714172 65.236145,226.031403 
	C65.580742,228.828415 66.431404,231.622543 68.309074,233.172623 
	C70.007011,234.574295 72.826660,234.617157 75.151688,235.259186 
	C75.056107,232.969574 75.343353,230.575104 74.753410,228.420883 
	C74.202980,226.410965 72.720383,224.656326 71.648102,222.789322 
	C72.170677,222.364090 72.693253,221.938858 73.215828,221.513626 
	C75.553894,223.711014 77.891968,225.908401 80.230034,228.105804 
	C80.636734,227.666382 81.043434,227.226959 81.450134,226.787537 
	C78.966812,224.489044 76.483490,222.190552 73.199417,219.775406 
M162.028702,266.545502 
	C160.123413,266.324615 158.218124,266.103729 156.312851,265.882812 
	C156.247498,266.332672 156.182144,266.782562 156.116791,267.232422 
	C157.428314,267.750244 158.739838,268.268036 160.051361,268.785858 
	C160.036636,269.312561 160.021927,269.839233 160.007202,270.365936 
	C157.719711,270.365936 155.150757,270.989929 153.249939,270.132599 
	C152.103882,269.615692 151.112564,266.510406 151.579987,265.061035 
	C153.341583,259.598450 157.838852,262.282257 162.771713,262.914673 
	C159.329697,259.201630 156.483261,258.402405 153.143585,260.048370 
	C149.735611,261.727966 148.252380,264.669434 149.293335,268.322418 
	C150.397049,272.195679 153.398499,273.907501 157.335861,273.547363 
	C160.928818,273.218689 162.662659,271.119476 162.028702,266.545502 
M99.894073,255.243439 
	C100.741264,253.643738 101.588463,252.044037 102.931969,249.507172 
	C104.010353,254.557007 104.819397,258.345551 105.628433,262.134094 
	C106.152267,262.231598 106.676109,262.329102 107.199944,262.426605 
	C109.212654,258.469727 111.225357,254.512863 113.238068,250.556000 
	C112.743660,250.266830 112.249245,249.977661 111.754837,249.688507 
	C110.283928,252.029282 108.813019,254.370056 106.979507,257.287872 
	C105.972206,252.725525 105.121643,248.873062 104.271072,245.020615 
	C103.761322,245.012543 103.251572,245.004456 102.741821,244.996384 
	C100.750290,248.947067 98.758751,252.897766 96.767220,256.848450 
	C97.102684,257.083130 97.438148,257.317810 97.773613,257.552490 
	C98.367317,256.985901 98.961021,256.419312 99.894073,255.243439 
M83.680328,241.864777 
	C84.194214,244.256378 84.708092,246.647980 85.221977,249.039566 
	C87.156128,244.989685 88.438980,240.916046 89.356918,236.761795 
	C89.502411,236.103333 87.637466,234.222733 87.319969,234.357956 
	C83.332329,236.056488 79.458466,238.022095 74.692551,240.338791 
	C78.389755,240.779800 80.745445,241.060776 83.680328,241.864777 
M223.609787,242.912140 
	C221.914169,241.886703 220.310852,240.594955 218.479767,239.960464 
	C217.693314,239.687912 215.484955,240.928940 215.532166,241.229706 
	C216.214767,245.579529 217.171326,249.886383 218.062241,254.203522 
	C218.558884,254.408905 219.055511,254.614288 219.552155,254.819687 
	C218.051682,245.958542 222.473251,245.084137 228.987106,246.367767 
	C227.403381,245.331406 225.819656,244.295044 223.609787,242.912140 
M178.763062,270.421936 
	C176.884476,270.220520 174.965561,270.191437 173.139877,269.764099 
	C171.636734,269.412170 170.244141,268.588013 168.802551,267.973145 
	C168.999695,267.527557 169.196838,267.081940 169.393982,266.636353 
	C170.629501,266.153259 171.865036,265.670166 173.498047,265.031647 
	C171.396164,264.001526 169.825394,263.231659 166.994705,261.844330 
	C171.340546,260.669342 174.080658,259.928497 176.820786,259.187653 
	C176.694916,258.695618 176.569046,258.203613 176.443192,257.711578 
	C172.983078,258.225861 169.522964,258.740143 165.832870,259.288574 
	C166.573120,264.078369 167.216568,268.241913 167.912598,272.745667 
	C171.727036,272.088013 174.964066,271.529907 178.763062,270.421936 
M118.760078,254.983368 
	C118.869537,256.373627 119.269020,257.816986 119.026138,259.142700 
	C118.565948,261.654480 117.737305,264.098785 117.061729,266.571106 
	C117.525467,266.711517 117.989204,266.851898 118.452942,266.992279 
	C119.782356,263.586304 121.111771,260.180328 122.380104,256.930847 
	C124.042984,256.930847 125.420654,256.930847 126.798325,256.930847 
	C126.913620,256.500519 127.028923,256.070190 127.144218,255.639862 
	C123.702263,254.428818 120.260307,253.217758 116.818352,252.006714 
	C116.618439,252.496918 116.418533,252.987137 116.218620,253.477341 
	C116.839218,253.888626 117.459816,254.299911 118.760078,254.983368 
M91.433739,253.042603 
	C93.900764,249.363220 96.367798,245.683853 98.834824,242.004471 
	C98.146278,241.607224 97.457733,241.209976 96.769188,240.812729 
	C94.751488,244.849930 92.733788,248.887115 91.433739,253.042603 
M224.259323,233.389557 
	C227.066559,236.774414 229.873779,240.159286 232.681000,243.544144 
	C233.247803,243.009079 233.814621,242.474030 234.381424,241.938965 
	C231.193924,238.938766 228.006409,235.938583 224.259323,233.389557 
z"/>
<path fill="#F8F7F8" opacity="1.000000" stroke="none" 
	d="
M122.284164,234.743439 
	C88.086792,219.028885 68.508026,185.327988 72.180092,148.942642 
	C75.790527,113.167969 102.385162,83.553993 138.068420,75.573868 
	C186.891418,64.655205 235.129974,100.712685 239.272263,150.358154 
	C242.814865,192.816574 213.767090,233.188248 169.071457,240.649429 
	C153.126266,243.311203 137.558640,241.287857 122.284164,234.743439 
M192.517166,89.913551 
	C184.618546,85.786064 176.494263,82.411102 167.407196,81.787369 
	C165.084305,117.806152 196.830948,178.207077 224.750381,191.545547 
	C241.786438,158.603760 231.917603,112.212669 192.517166,89.913551 
M124.749557,149.193008 
	C136.676437,128.388184 143.815872,106.236687 144.165848,81.331779 
	C117.815308,86.279472 98.569870,99.888084 86.862144,123.276131 
	C75.535149,145.903610 76.055725,168.835892 86.727684,192.295380 
	C102.334465,180.117767 114.674706,166.151520 124.749557,149.193008 
M212.066391,193.455627 
	C203.496933,183.107315 194.793991,172.864563 186.462097,162.328384 
	C184.628189,160.009293 183.152100,158.795563 180.104828,158.824631 
	C163.961060,158.978653 147.814194,158.982635 131.670517,158.823883 
	C128.490509,158.792633 126.623909,159.647995 124.898399,162.468399 
	C116.497681,176.199738 106.100533,188.249435 93.533409,198.377991 
	C92.816048,198.956161 92.302994,199.787811 91.627968,200.579971 
	C97.667740,209.284637 104.662758,216.576080 113.780289,222.308258 
	C115.201958,194.973099 130.302734,178.594467 153.814346,178.224747 
	C180.391541,177.806839 195.124741,192.463837 197.601532,222.366379 
	C206.726227,216.495712 214.004776,209.311737 219.873428,200.228867 
	C217.336212,198.036438 214.963486,195.986130 212.066391,193.455627 
M140.006653,186.320297 
	C123.939217,196.047455 119.138313,210.802338 127.138062,226.612732 
	C128.065765,228.446198 130.066315,230.340683 131.978668,230.976852 
	C147.768982,236.229813 163.664352,236.205994 179.488251,231.013702 
	C180.942215,230.536606 182.661499,229.583008 183.373154,228.343063 
	C187.193390,221.686768 188.983902,214.622650 187.482330,206.820877 
	C184.095520,189.223892 160.967102,175.419571 140.006653,186.320297 
M174.393616,156.282166 
	C176.836624,156.282166 179.279633,156.282166 182.712387,156.282166 
	C169.591431,132.425293 163.800079,107.459785 163.145142,81.033020 
	C157.915421,81.033020 153.193405,81.033020 149.316757,81.033020 
	C147.205521,94.285309 146.076263,107.253242 142.893600,119.695938 
	C139.717850,132.111542 134.484741,144.000900 130.095917,156.282410 
	C144.190079,156.282410 158.807022,156.282410 174.393616,156.282166 
z"/>
<path fill="#F4F6F8" opacity="1.000000" stroke="none" 
	d="
M177.764572,35.223030 
	C184.268600,43.445454 182.565353,49.685783 172.252350,55.684273 
	C175.035797,60.282715 177.819336,64.881294 180.701828,69.643349 
	C174.673584,69.728508 170.412918,67.584732 168.233597,62.140923 
	C165.959488,56.460423 161.871002,54.552689 155.497467,56.447876 
	C155.497467,59.385944 155.497467,62.611710 155.497467,66.411964 
	C152.939316,66.603516 150.870132,66.758453 148.398315,66.943535 
	C148.398315,55.191616 148.398315,43.646240 148.398315,31.241470 
	C158.046951,32.623936 168.327927,28.139658 177.764572,35.223030 
M171.572189,48.588001 
	C172.339020,46.250717 173.850800,43.829441 173.600189,41.606876 
	C173.443665,40.218636 170.728607,38.277473 168.988113,38.074772 
	C164.626434,37.566811 160.165985,37.907032 155.615570,37.907032 
	C155.615570,41.941456 155.615570,45.466450 155.615570,48.953224 
	C160.910614,48.953224 165.842789,48.953224 171.572189,48.588001 
z"/>
<path fill="#F7F8FA" opacity="1.000000" stroke="none" 
	d="
M226.745575,55.166985 
	C237.119965,57.685993 243.428055,64.226761 247.774750,73.480843 
	C246.120209,74.732719 244.704651,75.803772 243.938538,76.383438 
	C239.508957,71.981331 235.549393,67.610229 231.070450,63.859329 
	C229.716125,62.725143 226.922638,63.309448 224.788361,63.106594 
	C225.433792,65.129181 225.646133,67.455437 226.809647,69.114754 
	C229.751678,73.310562 233.413681,77.013535 236.231049,81.281136 
	C238.676224,84.984924 238.983597,89.183113 235.730789,92.834831 
	C232.510574,96.449966 228.411636,96.564095 224.282455,94.910812 
	C215.280746,91.306633 209.763077,84.281960 205.495224,75.622665 
	C207.332291,74.193954 208.854248,73.010315 210.264130,71.913834 
	C213.248764,75.903275 215.798981,79.812759 218.881973,83.243462 
	C220.705246,85.272369 223.227463,86.851570 225.723221,88.016106 
	C226.831497,88.533241 229.055023,87.957268 230.009781,87.063179 
	C230.677505,86.437897 230.561646,84.093369 229.906754,83.106880 
	C228.081390,80.357277 225.793839,77.914368 223.687180,75.351669 
	C222.002838,73.302742 220.007156,71.436111 218.687164,69.174828 
	C214.329926,61.710400 217.633270,55.794315 226.745575,55.166985 
z"/>
<path fill="#F6F8FA" opacity="1.000000" stroke="none" 
	d="
M93.649269,57.408871 
	C97.615456,64.230286 97.215935,68.878838 92.331734,74.512207 
	C89.415306,77.875977 86.401947,81.155708 83.206749,84.725021 
	C85.805435,87.196198 88.189499,89.463280 90.779739,91.926414 
	C88.981537,93.474960 87.302155,94.921188 85.321602,96.626770 
	C77.297852,89.304886 68.868439,81.612823 60.169273,73.674606 
	C65.600143,67.747475 70.540062,61.913910 75.961517,56.568745 
	C80.973175,51.627621 87.345596,52.075504 93.649269,57.408871 
M84.918701,73.338448 
	C85.582458,72.597069 86.264091,71.870827 86.906937,71.111732 
	C89.981651,67.481041 90.262100,63.712341 87.428123,61.515846 
	C83.906036,58.786018 80.993309,60.177113 78.375885,63.149807 
	C75.640381,66.256599 72.818687,69.287506 69.799263,72.610672 
	C72.708038,75.246048 75.475395,77.753304 78.389168,80.393204 
	C80.611191,77.994652 82.521072,75.933037 84.918701,73.338448 
z"/>
<path fill="#F6F8F9" opacity="1.000000" stroke="none" 
	d="
M108.840736,44.025524 
	C108.463699,40.762577 109.724792,39.033314 112.510559,38.816521 
	C114.420486,38.667889 117.183357,38.280449 118.177521,39.322906 
	C126.663460,48.221100 134.831833,57.422138 143.362167,66.826782 
	C138.493027,68.895332 134.528946,69.395729 131.650009,64.362556 
	C130.283676,61.973827 128.276947,61.479969 125.708839,62.650848 
	C123.903656,63.473888 121.985672,64.142632 120.049362,64.566269 
	C115.517387,65.557808 113.189476,67.863274 113.937309,72.847031 
	C114.729263,78.124832 109.677986,77.745621 106.349373,80.653542 
	C107.222679,67.858841 108.021172,56.160191 108.840736,44.025524 
M114.942581,50.025959 
	C114.942581,53.241562 114.942581,56.457165 114.942581,60.127701 
	C118.425179,58.828751 121.367432,57.731342 124.824120,56.442055 
	C121.439339,52.657482 118.583176,49.463959 115.145493,45.620235 
	C115.045135,47.564713 115.003242,48.376434 114.942581,50.025959 
z"/>
<path fill="#F7F8FA" opacity="1.000000" stroke="none" 
	d="
M188.601929,70.460846 
	C192.957687,60.044395 197.136444,49.959629 201.466400,39.509995 
	C203.806274,40.476845 205.755569,41.282307 208.305038,42.335762 
	C203.768387,53.301579 199.309128,64.080315 194.357803,76.048492 
	C192.032623,73.988602 190.228790,72.390564 188.601929,70.460846 
z"/>
<path fill="#E0E6ED" opacity="1.000000" stroke="none" 
	d="
M213.947067,256.014221 
	C213.423294,256.604401 212.351639,257.179443 212.241455,257.032654 
	C211.232956,255.689255 210.391495,254.220459 208.455551,253.147415 
	C208.255249,254.858078 208.054947,256.568756 207.806000,258.694916 
	C205.899124,257.671692 204.151138,256.733704 201.618347,255.374603 
	C202.622757,258.318604 203.359406,260.477783 204.096054,262.636963 
	C203.571655,262.855530 203.047272,263.074127 202.522888,263.292725 
	C200.606445,259.263275 198.690002,255.233856 196.773560,251.204422 
	C197.193909,250.811325 197.614243,250.418228 198.034592,250.025131 
	C200.513107,251.601212 202.991623,253.177292 205.752853,254.933151 
	C206.111420,251.484924 206.421051,248.507324 206.730682,245.529739 
	C207.203247,245.402344 207.675797,245.274963 208.148361,245.147568 
	C210.047287,248.653152 211.946198,252.158722 213.947067,256.014221 
z"/>
<path fill="#E0E6EC" opacity="1.000000" stroke="none" 
	d="
M181.891129,259.423035 
	C182.496170,257.915924 182.992126,256.015991 183.906952,255.786591 
	C186.641907,255.100861 189.558075,254.819565 192.360001,255.012329 
	C192.864868,255.047073 193.217712,258.073212 193.543152,259.737305 
	C193.954712,261.841797 194.266312,263.965851 194.606918,265.997375 
	C192.264297,264.937195 189.479431,263.676849 185.568344,261.906799 
	C186.051666,265.476624 186.282898,267.184601 186.514145,268.892548 
	C186.039154,269.057434 185.564178,269.222321 185.089203,269.387207 
	C184.050629,266.189423 183.012054,262.991608 181.891129,259.423035 
M184.059341,258.740143 
	C184.933899,263.603729 187.795059,260.169403 189.683609,259.885345 
	C190.426376,259.773621 190.939758,258.136871 191.557632,257.194611 
	C189.911835,257.129181 188.259247,256.950378 186.623276,257.048523 
	C185.861832,257.094208 185.132645,257.677429 184.059341,258.740143 
z"/>
<path fill="#E4E9EF" opacity="1.000000" stroke="none" 
	d="
M241.222427,226.784012 
	C239.442261,224.800339 237.662094,222.816666 235.881927,220.832993 
	C236.287445,220.423264 236.692947,220.013519 237.098450,219.603790 
	C240.285110,222.560837 243.471771,225.517899 246.658417,228.474960 
	C246.524429,228.850830 246.390442,229.226715 246.256439,229.602600 
	C242.452164,229.602600 238.647888,229.602600 234.843613,229.602600 
	C234.653656,229.984268 234.463715,230.365952 234.273773,230.747620 
	C236.442139,232.340179 238.610504,233.932755 240.778870,235.525314 
	C240.214874,236.135101 239.650879,236.744888 239.086884,237.354675 
	C235.812836,234.475952 232.538788,231.597214 229.264755,228.718475 
	C229.450058,228.149551 229.635361,227.580643 229.820663,227.011719 
	C233.119507,227.208664 236.418365,227.405624 240.359177,227.653625 
	C241.295731,227.617905 241.590302,227.531143 241.884888,227.444366 
	C241.664062,227.224258 241.443237,227.004135 241.222427,226.784012 
z"/>
<path fill="#E5EAEF" opacity="1.000000" stroke="none" 
	d="
M73.599792,219.833740 
	C76.483490,222.190552 78.966812,224.489044 81.450134,226.787537 
	C81.043434,227.226959 80.636734,227.666382 80.230034,228.105804 
	C77.891968,225.908401 75.553894,223.711014 73.215828,221.513626 
	C72.693253,221.938858 72.170677,222.364090 71.648102,222.789322 
	C72.720383,224.656326 74.202980,226.410965 74.753410,228.420883 
	C75.343353,230.575104 75.056107,232.969574 75.151688,235.259186 
	C72.826660,234.617157 70.007011,234.574295 68.309074,233.172623 
	C66.431404,231.622543 65.580742,228.828415 65.236145,226.031403 
	C67.622368,228.714172 70.008591,231.396942 72.394814,234.079712 
	C73.102158,233.565781 73.809502,233.051849 74.516846,232.537933 
	C73.316727,230.417084 72.027031,228.341034 70.938751,226.164261 
	C69.523018,223.332550 68.024673,220.334305 73.599792,219.833740 
z"/>
<path fill="#DDE4EB" opacity="1.000000" stroke="none" 
	d="
M162.100037,266.981110 
	C162.662659,271.119476 160.928818,273.218689 157.335861,273.547363 
	C153.398499,273.907501 150.397049,272.195679 149.293335,268.322418 
	C148.252380,264.669434 149.735611,261.727966 153.143585,260.048370 
	C156.483261,258.402405 159.329697,259.201630 162.771713,262.914673 
	C157.838852,262.282257 153.341583,259.598450 151.579987,265.061035 
	C151.112564,266.510406 152.103882,269.615692 153.249939,270.132599 
	C155.150757,270.989929 157.719711,270.365936 160.007202,270.365936 
	C160.021927,269.839233 160.036636,269.312561 160.051361,268.785858 
	C158.739838,268.268036 157.428314,267.750244 156.116791,267.232422 
	C156.182144,266.782562 156.247498,266.332672 156.312851,265.882812 
	C158.218124,266.103729 160.123413,266.324615 162.100037,266.981110 
z"/>
<path fill="#DDE4EB" opacity="1.000000" stroke="none" 
	d="
M99.724396,255.548080 
	C98.961021,256.419312 98.367317,256.985901 97.773613,257.552490 
	C97.438148,257.317810 97.102684,257.083130 96.767220,256.848450 
	C98.758751,252.897766 100.750290,248.947067 102.741821,244.996384 
	C103.251572,245.004456 103.761322,245.012543 104.271072,245.020615 
	C105.121643,248.873062 105.972206,252.725525 106.979507,257.287872 
	C108.813019,254.370056 110.283928,252.029282 111.754837,249.688507 
	C112.249245,249.977661 112.743660,250.266830 113.238068,250.556000 
	C111.225357,254.512863 109.212654,258.469727 107.199944,262.426605 
	C106.676109,262.329102 106.152267,262.231598 105.628433,262.134094 
	C104.819397,258.345551 104.010353,254.557007 102.931969,249.507172 
	C101.588463,252.044037 100.741264,253.643738 99.724396,255.548080 
z"/>
<path fill="#E4E9EF" opacity="1.000000" stroke="none" 
	d="
M83.390732,241.603271 
	C80.745445,241.060776 78.389755,240.779800 74.692551,240.338791 
	C79.458466,238.022095 83.332329,236.056488 87.319969,234.357956 
	C87.637466,234.222733 89.502411,236.103333 89.356918,236.761795 
	C88.438980,240.916046 87.156128,244.989685 85.221977,249.039566 
	C84.708092,246.647980 84.194214,244.256378 83.390732,241.603271 
z"/>
<path fill="#E2E8EE" opacity="1.000000" stroke="none" 
	d="
M223.922852,243.085419 
	C225.819656,244.295044 227.403381,245.331406 228.987106,246.367767 
	C222.473251,245.084137 218.051682,245.958542 219.552155,254.819687 
	C219.055511,254.614288 218.558884,254.408905 218.062241,254.203522 
	C217.171326,249.886383 216.214767,245.579529 215.532166,241.229706 
	C215.484955,240.928940 217.693314,239.687912 218.479767,239.960464 
	C220.310852,240.594955 221.914169,241.886703 223.922852,243.085419 
z"/>
<path fill="#E3E8EE" opacity="1.000000" stroke="none" 
	d="
M178.482086,270.696869 
	C174.964066,271.529907 171.727036,272.088013 167.912598,272.745667 
	C167.216568,268.241913 166.573120,264.078369 165.832870,259.288574 
	C169.522964,258.740143 172.983078,258.225861 176.443192,257.711578 
	C176.569046,258.203613 176.694916,258.695618 176.820786,259.187653 
	C174.080658,259.928497 171.340546,260.669342 166.994705,261.844330 
	C169.825394,263.231659 171.396164,264.001526 173.498047,265.031647 
	C171.865036,265.670166 170.629501,266.153259 169.393982,266.636353 
	C169.196838,267.081940 168.999695,267.527557 168.802551,267.973145 
	C170.244141,268.588013 171.636734,269.412170 173.139877,269.764099 
	C174.965561,270.191437 176.884476,270.220520 178.482086,270.696869 
z"/>
<path fill="#DFE5EB" opacity="1.000000" stroke="none" 
	d="
M118.420242,254.847290 
	C117.459816,254.299911 116.839218,253.888626 116.218620,253.477341 
	C116.418533,252.987137 116.618439,252.496918 116.818352,252.006714 
	C120.260307,253.217758 123.702263,254.428818 127.144218,255.639862 
	C127.028923,256.070190 126.913620,256.500519 126.798325,256.930847 
	C125.420654,256.930847 124.042984,256.930847 122.380104,256.930847 
	C121.111771,260.180328 119.782356,263.586304 118.452942,266.992279 
	C117.989204,266.851898 117.525467,266.711517 117.061729,266.571106 
	C117.737305,264.098785 118.565948,261.654480 119.026138,259.142700 
	C119.269020,257.816986 118.869537,256.373627 118.420242,254.847290 
z"/>
<path fill="#E2E8EE" opacity="1.000000" stroke="none" 
	d="
M91.074913,252.983459 
	C92.733788,248.887115 94.751488,244.849930 96.769188,240.812729 
	C97.457733,241.209976 98.146278,241.607224 98.834824,242.004471 
	C96.367798,245.683853 93.900764,249.363220 91.074913,252.983459 
z"/>
<path fill="#E0E6ED" opacity="1.000000" stroke="none" 
	d="
M224.539124,233.163971 
	C228.006409,235.938583 231.193924,238.938766 234.381424,241.938965 
	C233.814621,242.474030 233.247803,243.009079 232.681000,243.544144 
	C229.873779,240.159286 227.066559,236.774414 224.539124,233.163971 
z"/>
<path fill="#2B5582" opacity="1.000000" stroke="none" 
	d="
M192.848328,90.074158 
	C231.917603,112.212669 241.786438,158.603760 224.750381,191.545547 
	C196.830948,178.207077 165.084305,117.806152 167.407196,81.787369 
	C176.494263,82.411102 184.618546,85.786064 192.848328,90.074158 
z"/>
<path fill="#2A5581" opacity="1.000000" stroke="none" 
	d="
M124.542282,149.495590 
	C114.674706,166.151520 102.334465,180.117767 86.727684,192.295380 
	C76.055725,168.835892 75.535149,145.903610 86.862144,123.276131 
	C98.569870,99.888084 117.815308,86.279472 144.165848,81.331779 
	C143.815872,106.236687 136.676437,128.388184 124.542282,149.495590 
z"/>
<path fill="#D53E44" opacity="1.000000" stroke="none" 
	d="
M212.328583,193.695740 
	C214.963486,195.986130 217.336212,198.036438 219.873428,200.228867 
	C214.004776,209.311737 206.726227,216.495712 197.601532,222.366379 
	C195.124741,192.463837 180.391541,177.806839 153.814346,178.224747 
	C130.302734,178.594467 115.201958,194.973099 113.780289,222.308258 
	C104.662758,216.576080 97.667740,209.284637 91.627968,200.579971 
	C92.302994,199.787811 92.816048,198.956161 93.533409,198.377991 
	C106.100533,188.249435 116.497681,176.199738 124.898399,162.468399 
	C126.623909,159.647995 128.490509,158.792633 131.670517,158.823883 
	C147.814194,158.982635 163.961060,158.978653 180.104828,158.824631 
	C183.152100,158.795563 184.628189,160.009293 186.462097,162.328384 
	C194.793991,172.864563 203.496933,183.107315 212.328583,193.695740 
z"/>
<path fill="#2C5681" opacity="1.000000" stroke="none" 
	d="
M140.350769,186.169861 
	C160.967102,175.419571 184.095520,189.223892 187.482330,206.820877 
	C188.983902,214.622650 187.193390,221.686768 183.373154,228.343063 
	C182.661499,229.583008 180.942215,230.536606 179.488251,231.013702 
	C163.664352,236.205994 147.768982,236.229813 131.978668,230.976852 
	C130.066315,230.340683 128.065765,228.446198 127.138062,226.612732 
	C119.138313,210.802338 123.939217,196.047455 140.350769,186.169861 
M150.830566,207.521683 
	C152.422577,210.639206 154.014587,213.756729 155.542633,216.748978 
	C162.216537,208.261139 162.531784,200.120346 155.957779,192.175598 
	C155.328537,192.057663 154.699295,191.939728 154.070053,191.821793 
	C152.896194,196.816010 151.722336,201.810211 150.830566,207.521683 
M164.808899,212.149170 
	C165.615860,213.027435 166.765656,213.783859 167.133240,214.818253 
	C167.499924,215.850113 167.082687,217.160522 167.009140,218.348816 
	C168.532806,218.166946 170.374161,218.463028 171.514786,217.704895 
	C173.978592,216.067230 174.819656,213.570251 173.073700,210.810608 
	C170.914276,207.397415 167.587463,206.718384 164.484421,208.693542 
	C162.003372,210.272736 160.276627,213.037003 158.215088,215.275299 
	C158.592422,215.635941 158.969742,215.996567 159.347076,216.357193 
	C160.942444,215.054932 162.537796,213.752686 164.808899,212.149170 
M137.996140,215.029358 
	C141.036423,219.654175 142.297836,219.946732 145.727753,216.791214 
	C145.079712,215.595093 144.426590,214.389618 143.773483,213.184143 
	C144.119308,212.687668 144.465118,212.191208 144.810944,211.694748 
	C147.454788,213.289993 150.098648,214.885239 152.742493,216.480484 
	C151.720230,213.851151 150.458893,211.313263 148.411667,210.008957 
	C146.412598,208.735352 143.300140,207.780762 141.261063,208.454758 
	C139.657181,208.984924 138.943130,212.207062 137.996140,215.029358 
z"/>
<path fill="#D53D43" opacity="1.000000" stroke="none" 
	d="
M173.908783,156.282288 
	C158.807022,156.282410 144.190079,156.282410 130.095917,156.282410 
	C134.484741,144.000900 139.717850,132.111542 142.893600,119.695938 
	C146.076263,107.253242 147.205521,94.285309 149.316757,81.033020 
	C153.193405,81.033020 157.915421,81.033020 163.145142,81.033020 
	C163.800079,107.459785 169.591431,132.425293 182.712387,156.282166 
	C179.279633,156.282166 176.836624,156.282166 173.908783,156.282288 
z"/>
<path fill="#2E5884" opacity="1.000000" stroke="none" 
	d="
M171.173584,48.770615 
	C165.842789,48.953224 160.910614,48.953224 155.615570,48.953224 
	C155.615570,45.466450 155.615570,41.941456 155.615570,37.907032 
	C160.165985,37.907032 164.626434,37.566811 168.988113,38.074772 
	C170.728607,38.277473 173.443665,40.218636 173.600189,41.606876 
	C173.850800,43.829441 172.339020,46.250717 171.173584,48.770615 
z"/>
<path fill="#2F5884" opacity="1.000000" stroke="none" 
	d="
M84.674828,73.604935 
	C82.521072,75.933037 80.611191,77.994652 78.389168,80.393204 
	C75.475395,77.753304 72.708038,75.246048 69.799263,72.610672 
	C72.818687,69.287506 75.640381,66.256599 78.375885,63.149807 
	C80.993309,60.177113 83.906036,58.786018 87.428123,61.515846 
	C90.262100,63.712341 89.981651,67.481041 86.906937,71.111732 
	C86.264091,71.870827 85.582458,72.597069 84.674828,73.604935 
z"/>
<path fill="#305A85" opacity="1.000000" stroke="none" 
	d="
M114.951965,49.607059 
	C115.003242,48.376434 115.045135,47.564713 115.145493,45.620235 
	C118.583176,49.463959 121.439339,52.657482 124.824120,56.442055 
	C121.367432,57.731342 118.425179,58.828751 114.942581,60.127701 
	C114.942581,56.457165 114.942581,53.241562 114.951965,49.607059 
z"/>
<path fill="#38608A" opacity="1.000000" stroke="none" 
	d="
M184.224091,258.378601 
	C185.132645,257.677429 185.861832,257.094208 186.623276,257.048523 
	C188.259247,256.950378 189.911835,257.129181 191.557617,257.194611 
	C190.939758,258.136871 190.426376,259.773621 189.683609,259.885345 
	C187.795059,260.169403 184.933899,263.603729 184.224091,258.378601 
z"/>
<path fill="#2B5582" opacity="1.000000" stroke="none" 
	d="
M241.058289,226.948700 
	C241.443237,227.004135 241.664062,227.224258 241.884888,227.444366 
	C241.590302,227.531143 241.295731,227.617905 240.788788,227.578857 
	C240.576431,227.453018 240.894135,227.113403 241.058289,226.948700 
z"/>
<path fill="#B79E5C" opacity="1.000000" stroke="none" 
	d="
M150.689514,207.163055 
	C151.722336,201.810211 152.896194,196.816010 154.070053,191.821793 
	C154.699295,191.939728 155.328537,192.057663 155.957779,192.175598 
	C162.531784,200.120346 162.216537,208.261139 155.542633,216.748978 
	C154.014587,213.756729 152.422577,210.639206 150.689514,207.163055 
z"/>
<path fill="#B39C5D" opacity="1.000000" stroke="none" 
	d="
M164.471039,212.299805 
	C162.537796,213.752686 160.942444,215.054932 159.347076,216.357193 
	C158.969742,215.996567 158.592422,215.635941 158.215088,215.275299 
	C160.276627,213.037003 162.003372,210.272736 164.484421,208.693542 
	C167.587463,206.718384 170.914276,207.397415 173.073700,210.810608 
	C174.819656,213.570251 173.978592,216.067230 171.514786,217.704895 
	C170.374161,218.463028 168.532806,218.166946 167.009140,218.348816 
	C167.082687,217.160522 167.499924,215.850113 167.133240,214.818253 
	C166.765656,213.783859 165.615860,213.027435 164.471039,212.299805 
z"/>
<path fill="#B69E5C" opacity="1.000000" stroke="none" 
	d="
M137.914978,214.631378 
	C138.943130,212.207062 139.657181,208.984924 141.261063,208.454758 
	C143.300140,207.780762 146.412598,208.735352 148.411667,210.008957 
	C150.458893,211.313263 151.720230,213.851151 152.742493,216.480484 
	C150.098648,214.885239 147.454788,213.289993 144.810944,211.694748 
	C144.465118,212.191208 144.119308,212.687668 143.773483,213.184143 
	C144.426590,214.389618 145.079712,215.595093 145.727753,216.791214 
	C142.297836,219.946732 141.036423,219.654175 137.914978,214.631378 
z"/>
</svg>