<svg version="1.1" id="Layer_1" xmlns="http://www.w3.org/2000/svg" xmlns:xlink="http://www.w3.org/1999/xlink" x="0px" y="0px"
	 width="100%" viewBox="0 0 242 333" enable-background="new 0 0 242 333" xml:space="preserve">
<path fill="#FCFDFD" opacity="1.000000" stroke="none" 
	d="
M1.000000,93.000000 
	C1.000000,62.000004 1.000000,31.500008 1.000000,1.000008 
	C81.666649,1.000005 162.333298,1.000005 242.999969,1.000003 
	C242.999969,111.999969 242.999969,222.999939 242.999985,333.999939 
	C162.333374,333.999939 81.666740,333.999939 1.000054,333.999969 
	C1.000000,253.833328 1.000000,173.666672 1.000000,93.000000 
M135.092545,19.931185 
	C135.092545,19.931185 135.090897,19.890331 135.233551,18.991358 
	C134.667007,18.966265 134.100479,18.941170 133.508118,18.367855 
	C132.994949,18.298531 132.481796,18.229206 131.228027,18.027233 
	C127.930214,17.045736 125.057587,15.578116 123.888626,12.461460 
	C125.714493,10.853562 127.099823,9.633609 128.892593,8.054854 
	C126.871674,7.191336 125.825127,6.793731 124.823502,6.304236 
	C123.418564,5.617647 121.633537,3.934602 120.747009,4.329574 
	C118.882080,5.160444 116.854584,6.819004 116.158348,8.625278 
	C115.752243,9.678864 117.790565,11.674655 118.729111,13.246534 
	C119.164124,13.922445 118.126671,15.794131 116.561386,16.507252 
	C113.509209,17.897783 110.161629,18.639887 106.216881,19.727434 
	C105.508621,19.858551 104.800369,19.989666 103.414955,20.021370 
	C101.920013,20.876671 100.425072,21.731974 98.242752,22.674606 
	C97.571068,22.816874 96.899376,22.959143 95.480446,23.031225 
	C94.648232,24.346428 93.816025,25.661633 92.777184,26.981600 
	C92.777184,26.981600 92.720474,27.180353 91.948021,27.022385 
	C90.682312,27.524866 89.416611,28.027349 88.080315,28.708815 
	C88.080315,28.708815 88.053619,28.899353 87.295097,28.999939 
	C85.259209,32.633114 82.469048,34.858353 78.013885,34.021980 
	C78.013885,34.021980 78.062912,34.014740 77.814301,33.394634 
	C76.905426,33.557110 75.996552,33.719589 74.704887,34.664028 
	C74.780121,34.944313 74.855362,35.224602 74.357452,35.300194 
	C71.966362,35.593685 69.575279,35.887177 66.518944,36.144291 
	C65.908157,36.757065 65.297371,37.369835 64.016006,38.069416 
	C63.600044,39.045433 63.184078,40.021450 62.128754,41.002949 
	C61.411926,41.290821 60.695099,41.578697 59.299751,41.952675 
	C58.586102,42.661896 57.872448,43.371117 56.968536,44.808128 
	C57.020245,45.556675 57.071953,46.305225 56.997833,47.366478 
	C56.997833,47.366478 57.004173,47.703491 56.323990,47.858528 
	C55.537754,48.198925 54.751518,48.539322 53.248692,48.973515 
	C52.871002,49.669369 52.493309,50.365223 51.976719,51.746613 
	C51.959332,52.445820 51.941944,53.145031 51.323868,54.151020 
	C47.454811,57.841423 47.165634,62.678188 46.461769,68.019226 
	C46.314426,68.948288 46.167080,69.877342 45.406868,71.156494 
	C43.719727,73.878059 42.406242,76.665672 43.149067,80.137970 
	C43.149067,82.478851 43.149067,84.819733 43.149067,87.160606 
	C43.908192,87.213699 44.667316,87.266792 45.426441,87.319885 
	C45.944080,84.539993 46.461720,81.760109 47.048363,78.499634 
	C47.048363,78.499634 47.180500,78.032455 47.700661,77.985275 
	C48.126900,77.723305 48.553143,77.461327 49.760048,77.038765 
	C51.467445,78.009468 54.752426,79.486389 54.629414,79.869743 
	C53.748665,82.614532 52.174404,85.136787 51.128334,87.140175 
	C54.359467,88.846764 58.228600,90.890327 62.082943,93.605095 
	C63.034340,94.139214 63.985737,94.673340 65.285286,95.809517 
	C65.777153,96.657410 66.321381,97.479591 66.752518,98.357323 
	C69.893929,104.752831 69.680664,104.060623 76.181664,102.134972 
	C87.230309,98.862267 98.479904,96.071083 109.818840,94.054886 
	C115.868172,92.979233 122.308533,93.602188 128.522873,94.089737 
	C135.318497,94.622902 142.179565,95.374374 148.788147,96.962616 
	C156.424698,98.797928 163.789474,101.743401 171.343506,103.964417 
	C172.531998,104.313843 174.774597,103.826836 175.350143,102.951202 
	C176.626099,101.009979 177.152802,98.576286 178.718811,96.123108 
	C179.801849,94.891579 180.884888,93.660057 182.516464,92.015457 
	C184.328339,91.294060 186.140213,90.572662 188.733704,89.692513 
	C189.494339,89.461647 190.248886,89.053543 191.016556,89.027115 
	C199.417542,88.737953 201.822510,85.770004 200.458496,77.188080 
	C199.626007,75.052681 198.793518,72.917282 198.005539,70.016228 
	C197.508621,69.323593 197.011703,68.630959 196.712311,67.401962 
	C196.478836,65.672775 196.245361,63.943592 196.609192,61.857979 
	C196.442642,60.867569 196.276093,59.877163 195.913315,58.368099 
	C195.601944,58.177441 195.290573,57.986778 194.981659,57.127834 
	C193.943207,56.091255 192.904739,55.054676 192.090286,53.314461 
	C192.108978,52.578136 192.127670,51.841812 192.654877,50.763664 
	C191.693817,50.482155 190.732773,50.200645 189.415710,49.910679 
	C189.415710,49.910679 189.059921,49.895405 188.814133,49.265259 
	C188.286163,48.124905 187.086197,46.790840 187.349197,45.878502 
	C188.364243,42.357285 186.128830,43.007034 184.013809,42.345600 
	C183.036179,41.872944 182.058548,41.400288 180.875214,40.403976 
	C180.298279,39.966148 179.721344,39.528324 178.340820,38.877705 
	C178.064377,38.896687 177.787918,38.915672 177.559433,38.648769 
	C177.447052,38.427452 177.282745,38.377392 177.023239,37.690678 
	C176.034195,37.513466 175.045135,37.336254 173.478790,36.916187 
	C172.007706,36.446606 170.536606,35.977024 169.193176,34.687881 
	C169.093735,34.429909 168.994308,34.171936 168.699753,33.280842 
	C167.780411,33.526375 166.861069,33.771908 165.994614,34.018715 
	C165.994614,34.018715 166.008652,33.967754 165.319458,33.979012 
	C161.863037,34.441284 158.924622,34.051891 157.904190,29.925028 
	C157.791992,29.471289 156.645935,29.273186 155.947937,28.737009 
	C155.947937,28.737009 155.852371,28.536253 155.940918,27.796398 
	C155.902481,27.551012 155.864059,27.305624 155.725006,26.305134 
	C154.466003,26.143787 153.207001,25.982443 151.761841,25.122335 
	C150.477890,24.483484 149.193954,23.844633 147.206955,22.887812 
	C146.180695,22.879410 145.154434,22.871008 143.786316,22.322451 
	C142.869476,21.436245 141.952621,20.550039 141.013779,18.984776 
	C138.024811,17.044245 137.085220,17.118437 135.842743,19.447882 
	C135.842743,19.447882 135.914886,19.478321 135.349579,19.443586 
	C135.250412,19.604218 135.151230,19.764847 135.092545,19.931185 
M91.186882,100.714821 
	C33.317497,115.881622 -4.964569,175.051910 5.266009,233.517532 
	C16.654966,298.603058 76.003593,341.286530 141.018661,331.150787 
	C213.376724,319.870270 258.032745,244.446320 233.445145,175.242538 
	C214.030869,120.599464 155.203171,84.370773 91.186882,100.714821 
z"/>
<path fill="#EFB718" opacity="1.000000" stroke="none" 
	d="
M106.936371,19.650509 
	C110.161629,18.639887 113.509209,17.897783 116.561386,16.507252 
	C118.126671,15.794131 119.164124,13.922445 118.729111,13.246534 
	C117.790565,11.674655 115.752243,9.678864 116.158348,8.625278 
	C116.854584,6.819004 118.882080,5.160444 120.747009,4.329574 
	C121.633537,3.934602 123.418564,5.617647 124.823502,6.304236 
	C125.825127,6.793731 126.871674,7.191336 128.892593,8.054854 
	C127.099823,9.633609 125.714493,10.853562 123.888626,12.461460 
	C125.057587,15.578116 127.930214,17.045736 131.604645,18.299809 
	C131.981277,18.572382 131.994156,18.984865 131.731125,19.038254 
	C131.651764,19.408609 131.835434,19.725576 132.022018,20.011593 
	C132.024933,19.980642 131.964310,19.966879 131.967377,20.308311 
	C132.166733,21.503017 132.362991,22.356289 132.559265,23.209560 
	C132.781738,22.811085 133.004211,22.412607 133.424927,21.824276 
	C133.748230,21.108000 133.873260,20.581581 134.280991,20.077295 
	C134.739441,20.029730 134.915176,19.960032 135.090897,19.890331 
	C135.090897,19.890331 135.092545,19.931185 135.096375,20.275944 
	C135.125198,20.851456 135.150192,21.082207 135.123917,21.658581 
	C135.138092,22.854683 135.203552,23.705162 135.305115,25.024666 
	C136.126297,23.373123 136.695358,22.228674 137.592651,21.132023 
	C138.629776,20.775183 139.338638,20.370544 140.040100,19.975100 
	C140.032715,19.984295 140.011398,19.974464 140.256027,19.859001 
	C140.679031,19.716972 140.857407,19.690405 141.035782,19.663834 
	C141.952621,20.550039 142.869476,21.436245 144.114075,22.937073 
	C145.605118,23.447042 146.768402,23.342390 148.056702,23.489222 
	C148.260376,23.910635 148.338989,24.080564 148.265213,24.570797 
	C148.112808,25.784523 148.112808,26.677944 148.112808,27.571367 
	C148.291260,27.587542 148.469696,27.603714 148.648148,27.619888 
	C148.765823,26.962788 148.883499,26.305687 149.292068,25.750362 
	C150.067627,26.209955 150.552277,26.567770 151.244370,27.083916 
	C151.624100,27.266232 151.796402,27.290218 151.973236,27.497507 
	C151.977753,27.680809 152.025024,28.044470 152.200073,28.417797 
	C153.380615,29.140001 154.386108,29.488878 155.425751,29.848743 
	C155.459885,29.859730 155.671600,29.814730 155.788574,29.614529 
	C155.905548,29.414330 155.979401,28.956512 155.979401,28.956514 
	C156.645935,29.273186 157.791992,29.471289 157.904190,29.925028 
	C158.924622,34.051891 161.863037,34.441284 165.667648,34.240051 
	C166.023880,34.678757 166.031937,34.856430 165.777634,35.035538 
	C165.469467,35.244709 165.423660,35.452450 165.377853,35.660187 
	C165.575119,35.427162 165.772385,35.194141 166.371567,34.966671 
	C167.537491,35.150627 168.301514,35.329037 169.065521,35.507446 
	C170.536606,35.977024 172.007706,36.446606 173.959946,37.325294 
	C175.316238,37.989132 176.191376,38.243858 177.066513,38.498585 
	C177.282745,38.377392 177.447052,38.427452 177.700623,39.076103 
	C177.974823,40.107773 178.107819,40.712105 178.540543,42.678375 
	C178.891708,40.591999 179.018066,39.841244 179.144424,39.090492 
	C179.721344,39.528324 180.298279,39.966148 180.951996,41.006584 
	C181.015167,42.064880 181.001572,42.520573 180.732544,43.155750 
	C180.200302,44.090740 179.923477,44.846245 179.646667,45.601749 
	C180.257431,45.723072 180.868195,45.844395 181.478958,45.965717 
	C181.645660,44.974850 181.812347,43.983982 182.351517,43.000542 
	C183.221237,43.027866 183.718460,43.047764 184.215698,43.067657 
	C186.128830,43.007034 188.364243,42.357285 187.349197,45.878502 
	C187.086197,46.790840 188.286163,48.124905 188.693649,49.647247 
	C188.409698,50.067043 188.246246,50.104851 187.747345,50.108299 
	C186.989380,50.708378 186.566864,51.342815 186.116272,52.324509 
	C186.877945,55.450722 188.559326,55.562870 191.008530,54.147892 
	C191.482544,54.054844 191.674408,54.036476 191.866272,54.018101 
	C192.904739,55.054676 193.943207,56.091255 194.940643,57.636177 
	C194.899628,58.144520 194.969955,58.492649 194.955063,58.981895 
	C194.719711,60.390526 194.499268,61.309914 194.223999,62.305897 
	C194.169174,62.382492 194.290344,62.768642 194.290344,62.768642 
	C194.290344,62.768642 194.671692,62.775082 194.977493,62.555122 
	C195.506805,62.220654 195.730316,62.106136 195.959137,62.049713 
	C195.964478,62.107803 196.011902,62.214405 196.011902,62.214405 
	C196.245361,63.943592 196.478836,65.672775 196.774475,67.974182 
	C197.211426,69.291565 197.586243,70.036720 197.961060,70.781876 
	C198.793518,72.917282 199.626007,75.052681 200.037079,77.662910 
	C199.115601,78.734810 198.615524,79.331871 197.917114,79.618484 
	C195.427948,76.680420 192.635971,75.517410 189.985458,78.309036 
	C186.929337,81.527870 188.837921,84.121239 191.731873,86.380096 
	C190.340378,87.701035 189.146225,88.776146 187.952087,89.851257 
	C186.140213,90.572662 184.328339,91.294060 181.876282,92.336868 
	C176.814941,91.154167 172.393753,89.650047 167.633530,87.996414 
	C163.054077,86.547302 158.893158,84.778793 154.557053,84.043678 
	C144.910645,82.408287 135.176575,81.290031 125.233734,79.966995 
	C124.500198,79.969444 124.011154,79.965889 123.014816,79.972519 
	C121.831108,79.975929 121.154686,79.969154 120.233414,79.967834 
	C119.498787,79.969765 119.009018,79.966248 118.118195,79.985359 
	C116.772171,80.319206 115.827179,80.630424 114.433952,80.962799 
	C110.984108,81.052299 107.982513,81.120659 104.577789,81.151749 
	C100.413971,81.829552 96.653275,82.544617 92.474564,83.303787 
	C88.126373,84.513931 84.171646,85.603943 80.271706,86.863564 
	C74.194183,88.826515 68.153831,90.904602 62.097729,92.933899 
	C58.228600,90.890327 54.359467,88.846764 51.128334,87.140175 
	C52.174404,85.136787 53.748665,82.614532 54.629414,79.869743 
	C54.752426,79.486389 51.467445,78.009468 49.065350,77.059662 
	C47.973934,77.397858 47.577217,77.715157 47.180496,78.032455 
	C47.180500,78.032455 47.048363,78.499634 46.719681,78.807465 
	C45.545353,79.390663 44.699703,79.666016 43.854053,79.941376 
	C42.406242,76.665672 43.719727,73.878059 46.028854,70.803978 
	C46.776829,69.488884 46.902813,68.526314 47.028801,67.563736 
	C47.165634,62.678188 47.454811,57.841423 52.110065,54.229767 
	C53.212601,54.478004 53.528942,54.647491 54.090328,54.876293 
	C55.512066,53.869427 56.688759,52.803246 57.892738,51.463722 
	C57.630630,50.761906 57.341236,50.333439 57.021587,49.539722 
	C56.995617,48.684143 56.999897,48.193817 57.004173,47.703491 
	C57.004173,47.703491 56.997833,47.366478 57.270168,47.194077 
	C57.542503,47.021679 57.962460,47.012756 58.291534,47.127842 
	C58.852936,47.237202 59.085258,47.231472 59.542816,47.479736 
	C62.108158,48.296688 63.927822,48.077335 63.895611,44.717316 
	C63.641571,43.934277 63.347687,43.448284 63.028160,42.690727 
	C63.008724,42.237411 63.014927,42.055664 63.324272,41.772720 
	C64.057823,40.737400 64.488235,39.803276 64.920448,38.902176 
	C64.922249,38.935204 64.947060,38.996525 64.927467,39.319180 
	C65.043297,40.196297 65.178719,40.750763 65.422745,41.749882 
	C65.924477,40.504436 66.225517,39.757175 66.640549,38.975777 
	C66.754547,38.941631 66.985924,38.543083 67.272278,38.334450 
	C68.167961,37.988148 68.777283,37.850475 69.386604,37.712803 
	C69.358803,37.515446 69.330994,37.318092 69.303192,37.120735 
	C68.533188,37.068047 67.763176,37.015354 67.049026,36.769146 
	C67.104889,36.575626 67.184189,36.180668 67.184189,36.180668 
	C69.575279,35.887177 71.966362,35.593685 74.969414,35.221210 
	C76.391724,34.752457 77.202072,34.362686 78.012421,33.972916 
	C82.469048,34.858353 85.259209,32.633114 87.664833,29.141354 
	C88.034569,29.282766 88.043274,29.664627 88.051346,29.653893 
	C88.059418,29.643160 88.065048,29.676746 88.042435,30.064993 
	C88.480202,31.668682 88.940582,32.884125 89.875374,35.352100 
	C91.368073,32.829319 92.143356,31.519016 92.772446,29.629974 
	C92.481827,28.680418 92.337410,28.309599 92.333496,27.849041 
	C92.671829,27.615471 92.753990,27.422487 92.720474,27.180353 
	C92.720474,27.180353 92.777184,26.981600 93.220940,27.021873 
	C94.119507,27.013680 94.574310,26.965214 95.356934,26.831345 
	C95.765854,25.870476 95.846962,24.995010 95.986763,24.099463 
	C96.045448,24.079378 96.029106,23.956402 96.365433,23.961941 
	C97.444550,23.507408 98.187340,23.047338 98.930130,22.587273 
	C100.425072,21.731974 101.920013,20.876671 103.915108,20.332588 
	C105.255630,20.312708 106.096001,19.981609 106.936371,19.650509 
M167.592575,57.121899 
	C167.743011,56.985592 167.893463,56.849285 168.543167,56.754375 
	C168.696121,56.821362 168.849075,56.888351 168.939514,57.725552 
	C169.110672,59.832729 168.543961,62.465130 169.597031,63.944572 
	C172.312210,67.759102 170.439560,70.221786 167.797028,72.416191 
	C166.416458,73.562653 164.376495,73.915115 162.633820,74.625092 
	C167.516113,80.798042 168.266220,80.706123 172.465576,74.261414 
	C174.297241,71.450363 177.046295,70.758125 179.548203,73.312851 
	C181.085495,74.882622 181.939713,77.121338 182.993683,79.750099 
	C182.993683,80.622124 182.993683,81.494148 182.993683,82.366173 
	C183.325317,82.377350 183.656967,82.388527 183.988602,82.399704 
	C183.988602,81.226257 183.988602,80.052818 184.280075,78.249809 
	C189.050262,70.764496 188.663162,64.950027 183.023926,58.149574 
	C180.676514,52.584251 176.309921,49.117779 170.861221,47.058559 
	C169.869217,46.683651 168.255005,47.955112 166.401779,48.149670 
	C166.227295,47.782074 166.052795,47.414474 165.940262,46.305454 
	C164.935577,45.550140 163.930908,44.794823 162.926224,44.039509 
	C162.325836,45.019688 161.725449,45.999870 161.133179,47.704964 
	C163.073975,48.334011 165.014771,48.963058 167.538437,50.038452 
	C167.976318,51.080166 168.414200,52.121880 168.188217,53.018085 
	C167.962830,52.996056 167.737427,52.974030 166.821228,52.943771 
	C164.274612,53.023144 161.908920,53.235767 164.052032,57.492020 
	C165.051163,57.330177 166.050293,57.168335 166.994308,56.991398 
	C166.994308,56.991398 166.987946,57.048183 167.592575,57.121899 
M124.981918,28.259399 
	C124.252129,27.874855 123.522339,27.490313 122.239304,27.080307 
	C121.592690,27.388676 120.946083,27.697046 119.657570,27.933376 
	C119.391472,28.256645 119.125366,28.579914 118.341331,28.696241 
	C117.561600,28.738342 116.781868,28.780445 115.186531,28.973482 
	C113.443573,29.315529 111.714233,29.772774 109.955421,29.980705 
	C99.455368,31.222054 92.640900,37.019150 88.441826,47.218777 
	C88.251450,47.851597 88.128601,48.514721 87.860321,49.112579 
	C84.986694,55.516171 85.226982,56.298092 91.244362,59.853420 
	C95.325722,62.264858 95.616043,66.910316 91.912476,69.975555 
	C91.202904,70.562828 90.636078,71.322571 90.003395,72.002747 
	C90.088448,72.549805 90.173492,73.096863 90.258545,73.643921 
	C92.281639,73.643921 94.844383,74.400093 96.184784,73.443489 
	C97.699448,72.362526 98.701042,69.793732 98.876358,67.780579 
	C99.157219,64.555275 99.990494,61.648327 103.458794,62.110203 
	C105.439133,62.373924 107.290901,64.869858 108.845627,66.667648 
	C110.121635,68.143135 110.672195,71.306595 111.905426,71.507721 
	C113.715462,71.802917 115.847519,70.123650 118.424454,69.041122 
	C111.709023,64.995728 110.342331,60.356636 113.943581,56.644115 
	C115.741859,54.790287 117.396011,52.796661 119.647072,51.104599 
	C121.391098,51.071293 123.135117,51.037983 125.189049,51.622116 
	C126.887306,53.353947 128.508469,55.170540 130.299820,56.800034 
	C134.070511,60.230030 133.734222,64.151451 129.348099,66.929993 
	C128.558762,67.430038 127.818222,68.007133 126.040123,69.268951 
	C128.188889,70.255043 130.134201,71.817719 130.899536,71.368790 
	C132.903870,70.193100 134.424927,68.169373 136.077499,66.425735 
	C137.401657,65.028580 138.520126,62.529610 139.940857,62.367397 
	C141.602341,62.177704 143.774094,63.700752 145.173782,65.051445 
	C145.960815,65.810944 145.466400,67.771759 145.856857,69.101013 
	C146.341599,70.751137 146.793030,73.287598 147.890152,73.681091 
	C149.647797,74.311485 151.924393,73.494965 154.860947,73.202408 
	C149.154236,67.398293 148.884689,62.363277 153.129883,59.572567 
	C159.442001,55.423100 159.728516,53.587936 155.559937,46.772594 
	C151.322021,36.266682 140.392517,28.850115 126.881844,28.613407 
	C126.322395,28.713606 125.762955,28.813805 124.981918,28.259399 
M104.591240,75.041115 
	C105.211380,74.941109 105.831520,74.841103 106.451660,74.741096 
	C106.101540,74.080521 105.610886,72.815575 105.424438,72.858925 
	C104.336197,73.111954 103.319260,73.671638 101.545631,74.090996 
	C101.498131,74.616364 101.450630,75.141731 101.403130,75.667099 
	C102.244522,75.484566 103.085907,75.302032 104.591240,75.041115 
M76.776978,56.675571 
	C78.140678,56.209671 79.504379,55.743771 80.868080,55.277874 
	C79.664101,54.490425 78.460114,53.702972 76.944611,52.471035 
	C76.338799,52.729122 75.732979,52.987209 75.023323,52.507778 
	C76.161804,50.111736 78.244377,47.550583 72.362221,45.601322 
	C68.593796,49.742199 64.377144,54.375603 60.013596,59.761818 
	C56.949093,66.225616 55.038990,72.679550 60.056843,79.800385 
	C60.167320,80.619148 60.277798,81.437904 60.388275,82.256668 
	C60.552082,82.235748 60.715893,82.214828 60.879700,82.193909 
	C60.879700,81.125854 60.879700,80.057800 61.223862,78.352707 
	C63.050259,76.236252 65.393181,72.090927 66.602371,72.398781 
	C69.734848,73.196259 72.367874,75.955544 76.156189,78.598564 
	C77.260605,77.988029 79.602043,76.693672 81.943489,75.399307 
	C74.325813,74.315544 71.383522,67.314087 76.400352,61.513477 
	C75.867363,59.390732 75.425949,57.632725 75.674614,56.052658 
	C75.911354,56.069061 76.148094,56.085461 76.776978,56.675571 
M81.235382,61.302200 
	C80.771942,61.766644 80.354012,62.290585 79.837456,62.685570 
	C77.112083,64.769569 78.008400,67.108177 79.795097,68.968575 
	C81.502426,70.746346 83.907463,72.361115 85.963440,69.420074 
	C87.006302,67.928284 88.314178,65.115494 87.681297,64.281113 
	C86.471184,62.685711 83.958801,62.078075 81.235382,61.302200 
M158.984818,69.938393 
	C162.433456,70.624832 164.648468,68.909164 164.713669,65.744698 
	C164.744324,64.257233 162.842972,61.983734 161.321686,61.431683 
	C159.948212,60.933262 156.698120,61.923550 156.392426,62.911980 
	C155.700745,65.148499 154.421783,68.366653 158.984818,69.938393 
M117.855133,62.582401 
	C118.947227,64.696754 120.371178,67.335709 122.917915,65.283897 
	C124.570374,63.952572 125.348480,61.102493 125.671661,58.813362 
	C125.771332,58.107346 122.945633,56.090084 121.694641,56.273926 
	C118.872070,56.688721 116.417953,58.263103 117.855133,62.582401 
M118.469070,73.081940 
	C118.064941,73.852158 117.660812,74.622383 117.177338,75.543831 
	C120.468712,75.543831 123.319756,75.543831 126.253418,75.543831 
	C123.949249,69.688751 122.920776,69.297020 118.469070,73.081940 
M82.579674,37.007080 
	C83.349632,37.994652 84.119598,38.982220 84.889557,39.969791 
	C85.535400,39.327255 86.181252,38.684723 86.827095,38.042191 
	C85.581627,37.513275 84.336159,36.984360 82.579674,37.007080 
M173.970810,84.619202 
	C174.594406,84.072090 175.217987,83.524979 175.841583,82.977867 
	C174.868988,82.698097 173.896378,82.418327 172.923798,82.138557 
	C173.069656,82.823448 173.215515,83.508347 173.970810,84.619202 
z"/>
<path fill="#125C9D" opacity="1.000000" stroke="none" 
	d="
M91.569695,100.571701 
	C155.203171,84.370773 214.030869,120.599464 233.445145,175.242538 
	C258.032745,244.446320 213.376724,319.870270 141.018661,331.150787 
	C76.003593,341.286530 16.654966,298.603058 5.266009,233.517532 
	C-4.964569,175.051910 33.317497,115.881622 91.569695,100.571701 
M214.594070,146.942841 
	C186.485077,110.947632 149.588898,94.683083 104.471939,101.531807 
	C40.434116,111.252701 -1.079882,169.753250 8.902414,233.788040 
	C18.533667,295.570953 80.266701,339.202576 141.746323,327.679321 
	C225.775177,311.929626 264.265747,217.286377 214.594070,146.942841 
z"/>
<path fill="#ECB61A" opacity="1.000000" stroke="none" 
	d="
M123.522102,79.962326 
	C124.011154,79.965889 124.500198,79.969444 125.015343,80.431541 
	C125.736641,81.239807 126.397224,81.773849 127.132195,81.911903 
	C140.286331,84.382805 153.449493,86.805748 166.886948,89.477936 
	C169.115967,90.481705 171.222931,90.996620 172.979218,92.080002 
	C174.822906,93.217316 176.330521,94.899391 177.985016,96.343399 
	C177.152802,98.576286 176.626099,101.009979 175.350143,102.951202 
	C174.774597,103.826836 172.531998,104.313843 171.343506,103.964417 
	C163.789474,101.743401 156.424698,98.797928 148.788147,96.962616 
	C142.179565,95.374374 135.318497,94.622902 128.522873,94.089737 
	C122.308533,93.602188 115.868172,92.979233 109.818840,94.054886 
	C98.479904,96.071083 87.230309,98.862267 76.181664,102.134972 
	C69.680664,104.060623 69.893929,104.752831 66.752518,98.357323 
	C66.321381,97.479591 65.777153,96.657410 65.207031,95.142258 
	C74.415062,91.264252 83.701347,88.053520 93.386368,84.855118 
	C97.198097,84.200890 100.611092,83.534340 104.444527,82.911858 
	C108.566109,82.580620 112.267242,82.205315 116.408302,81.881775 
	C117.405228,81.276611 117.962234,80.619667 118.519241,79.962723 
	C119.009018,79.966248 119.498787,79.969765 120.004265,80.404343 
	C122.617599,82.469147 123.273857,82.305542 123.522102,79.962326 
M146.395447,88.155701 
	C146.398209,88.818626 146.114517,89.757790 146.447083,90.102661 
	C150.807236,94.624168 156.030167,95.139252 161.862244,93.331955 
	C157.159882,87.909546 156.016037,87.509819 146.395447,88.155701 
M87.330055,88.833794 
	C85.520615,90.103477 83.711174,91.373154 81.441505,92.965775 
	C90.792549,95.358788 93.878471,94.471367 99.025970,87.798096 
	C94.921211,88.016312 91.423988,88.202225 87.330055,88.833794 
M117.125557,85.437195 
	C116.718941,86.368767 115.714294,87.828262 115.998390,88.150093 
	C118.778999,91.299995 126.114159,90.298523 129.725266,85.067810 
	C125.059128,85.067810 121.427658,85.067810 117.125557,85.437195 
z"/>
<path fill="#145A93" opacity="1.000000" stroke="none" 
	d="
M92.987640,84.842789 
	C83.701347,88.053520 74.415062,91.264252 65.032951,94.841225 
	C63.985737,94.673340 63.034340,94.139214 62.090336,93.269501 
	C68.153831,90.904602 74.194183,88.826515 80.271706,86.863564 
	C84.171646,85.603943 88.126373,84.513931 92.496933,83.699799 
	C92.954079,84.315392 92.970856,84.579094 92.987640,84.842789 
z"/>
<path fill="#D5AC26" opacity="1.000000" stroke="none" 
	d="
M188.342896,89.771881 
	C189.146225,88.776146 190.340378,87.701035 192.101913,86.268066 
	C196.060852,85.351593 198.487823,83.914703 198.115463,79.928932 
	C198.615524,79.331871 199.115601,78.734810 199.845322,77.946983 
	C201.822510,85.770004 199.417542,88.737953 191.016556,89.027115 
	C190.248886,89.053543 189.494339,89.461647 188.342896,89.771881 
z"/>
<path fill="#2B658B" opacity="1.000000" stroke="none" 
	d="
M178.351913,96.233253 
	C176.330521,94.899391 174.822906,93.217316 172.979218,92.080002 
	C171.222931,90.996620 169.115967,90.481705 167.155701,89.349487 
	C167.422989,88.703377 167.697784,88.424652 167.972580,88.145920 
	C172.393753,89.650047 176.814941,91.154167 181.602020,92.543404 
	C180.884888,93.660057 179.801849,94.891579 178.351913,96.233253 
z"/>
<path fill="#F1F5F9" opacity="1.000000" stroke="none" 
	d="
M43.501560,80.039673 
	C44.699703,79.666016 45.545353,79.390663 46.685181,79.047760 
	C46.461720,81.760109 45.944080,84.539993 45.426441,87.319885 
	C44.667316,87.266792 43.908192,87.213699 43.149067,87.160606 
	C43.149067,84.819733 43.149067,82.478851 43.501560,80.039673 
z"/>
<path fill="#E9F0F7" opacity="1.000000" stroke="none" 
	d="
M190.726364,54.222576 
	C188.559326,55.562870 186.877945,55.450722 186.357269,52.201439 
	C187.111801,51.201633 187.597290,50.672150 188.082779,50.142662 
	C188.246246,50.104851 188.409698,50.067043 188.816544,49.962322 
	C189.059921,49.895405 189.415710,49.910679 189.755219,50.090477 
	C190.094727,50.270271 190.460663,50.577209 190.460663,50.577209 
	C190.460663,50.577209 190.933609,50.510414 190.927765,50.978073 
	C190.856735,52.371346 190.791550,53.296959 190.726364,54.222576 
z"/>
<path fill="#597C7C" opacity="1.000000" stroke="none" 
	d="
M151.036942,26.925587 
	C150.552277,26.567770 150.067627,26.209955 149.243988,25.571499 
	C148.742554,24.944071 148.580078,24.597284 148.417603,24.250494 
	C148.338989,24.080564 148.260376,23.910635 148.046204,23.492640 
	C147.910675,23.244574 147.910004,23.205782 147.910004,23.205780 
	C149.193954,23.844633 150.477890,24.483484 151.662689,25.619417 
	C151.315887,26.339235 151.140350,26.608931 151.036942,26.925587 
z"/>
<path fill="#487996" opacity="1.000000" stroke="none" 
	d="
M141.024780,19.324306 
	C140.857407,19.690405 140.679031,19.716972 140.068222,19.521118 
	C138.351364,19.331749 137.066940,19.364796 135.782516,19.397844 
	C137.085220,17.118437 138.024811,17.044245 141.024780,19.324306 
z"/>
<path fill="#B59F38" opacity="1.000000" stroke="none" 
	d="
M95.029121,26.916748 
	C94.574310,26.965214 94.119507,27.013680 93.324249,27.019489 
	C93.816025,25.661633 94.648232,24.346428 95.833145,23.286892 
	C96.185852,23.542561 96.029106,23.956402 96.029106,23.956402 
	C96.029106,23.956402 96.045448,24.079378 95.734177,24.277966 
	C95.291634,25.289953 95.160378,26.103352 95.029121,26.916748 
z"/>
<path fill="#A89940" opacity="1.000000" stroke="none" 
	d="
M63.021133,41.873917 
	C63.014927,42.055664 63.008724,42.237411 62.672974,42.714279 
	C62.107674,43.034702 61.871925,43.060001 61.317989,43.133217 
	C60.576191,43.260174 60.152584,43.339226 59.810165,43.033382 
	C59.920330,42.387848 59.949299,42.127213 59.978271,41.866573 
	C60.695099,41.578697 61.411926,41.290821 62.534203,41.212646 
	C62.939648,41.422348 63.021133,41.873917 63.021133,41.873917 
z"/>
<path fill="#A89940" opacity="1.000000" stroke="none" 
	d="
M184.114746,42.706627 
	C183.718460,43.047764 183.221237,43.027866 182.103699,43.002605 
	C181.483383,42.997242 180.987991,42.976261 180.987976,42.976261 
	C181.001572,42.520573 181.015167,42.064880 181.054840,41.268410 
	C182.058548,41.400288 183.036179,41.872944 184.114746,42.706627 
z"/>
<path fill="#A89940" opacity="1.000000" stroke="none" 
	d="
M56.664085,47.781010 
	C56.999897,48.193817 56.995617,48.684143 56.692657,49.573006 
	C56.174976,49.996532 55.955975,50.021519 55.414604,50.090408 
	C54.662800,50.178688 54.233360,50.223068 53.865517,49.922989 
	C53.939831,49.345592 53.952557,49.112659 53.965286,48.879723 
	C54.751518,48.539322 55.537754,48.198925 56.664085,47.781010 
z"/>
<path fill="#145A93" opacity="1.000000" stroke="none" 
	d="
M151.244370,27.083916 
	C151.140350,26.608931 151.315887,26.339235 151.755768,25.968798 
	C153.207001,25.982443 154.466003,26.143787 155.385681,26.645554 
	C154.020462,27.095383 152.994583,27.204794 151.968704,27.314205 
	C151.796402,27.290218 151.624100,27.266232 151.244370,27.083916 
z"/>
<path fill="#F8BB13" opacity="1.000000" stroke="none" 
	d="
M92.334244,27.101368 
	C92.753990,27.422487 92.671829,27.615471 91.918983,27.879976 
	C90.292946,28.177044 89.221924,28.353437 88.150902,28.529831 
	C89.416611,28.027349 90.682312,27.524866 92.334244,27.101368 
z"/>
<path fill="#E0B120" opacity="1.000000" stroke="none" 
	d="
M131.994156,18.984865 
	C131.994156,18.984865 131.981277,18.572382 131.974945,18.366131 
	C132.481796,18.229206 132.994949,18.298531 133.640137,18.925501 
	C133.847534,19.673817 133.922913,19.864487 133.998291,20.055161 
	C133.873260,20.581581 133.748230,21.108000 133.341843,21.506945 
	C132.695099,20.908606 132.329712,20.437742 131.964310,19.966879 
	C131.964310,19.966879 132.024933,19.980642 132.042023,19.746548 
	C132.037445,19.336588 132.015808,19.160727 131.994156,18.984865 
z"/>
<path fill="#3C7194" opacity="1.000000" stroke="none" 
	d="
M63.324272,41.772720 
	C63.021133,41.873917 62.939648,41.422348 62.853882,41.209908 
	C63.184078,40.021450 63.600044,39.045433 64.382385,38.254639 
	C64.748756,38.439861 64.918648,38.869152 64.918648,38.869152 
	C64.488235,39.803276 64.057823,40.737400 63.324272,41.772720 
z"/>
<path fill="#D9AE24" opacity="1.000000" stroke="none" 
	d="
M151.973236,27.497509 
	C152.994583,27.204794 154.020462,27.095383 155.435974,27.023106 
	C155.864059,27.305624 155.902481,27.551012 155.529144,28.024460 
	C154.086594,28.183172 153.055801,28.113821 152.025024,28.044472 
	C152.025024,28.044470 151.977753,27.680809 151.973236,27.497509 
z"/>
<path fill="#4D767F" opacity="1.000000" stroke="none" 
	d="
M152.200073,28.417797 
	C153.055801,28.113821 154.086594,28.183172 155.484863,28.394388 
	C155.852371,28.536253 155.947937,28.737009 155.963669,28.846760 
	C155.979401,28.956512 155.905548,29.414330 155.713379,29.544598 
	C155.521210,29.674866 155.391617,29.837753 155.391617,29.837753 
	C154.386108,29.488878 153.380615,29.140001 152.200073,28.417797 
z"/>
<path fill="#F2B916" opacity="1.000000" stroke="none" 
	d="
M135.812622,19.422863 
	C137.066940,19.364796 138.351364,19.331749 139.823593,19.636581 
	C140.011398,19.974464 140.032715,19.984295 139.630798,19.989159 
	C138.139008,19.982302 137.049149,19.970581 135.947861,19.838757 
	C135.936432,19.718651 135.914886,19.478321 135.914886,19.478321 
	C135.914886,19.478321 135.842743,19.447882 135.812622,19.422863 
z"/>
<path fill="#597C7C" opacity="1.000000" stroke="none" 
	d="
M106.576630,19.688972 
	C106.096001,19.981609 105.255630,20.312708 104.253685,20.382294 
	C104.800369,19.989666 105.508621,19.858551 106.576630,19.688972 
z"/>
<path fill="#4D767F" opacity="1.000000" stroke="none" 
	d="
M88.115608,28.619324 
	C89.221924,28.353437 90.292946,28.177044 91.778481,27.969717 
	C92.337410,28.309599 92.481827,28.680418 92.235580,29.243523 
	C90.597275,29.544548 89.349640,29.653284 88.144493,29.703199 
	C88.186981,29.644377 88.043274,29.664627 88.043274,29.664627 
	C88.043274,29.664627 88.034569,29.282766 88.044098,29.091061 
	C88.053619,28.899353 88.080315,28.708815 88.115608,28.619324 
z"/>
<path fill="#C8A72D" opacity="1.000000" stroke="none" 
	d="
M190.933609,50.510414 
	C190.933609,50.510414 190.460663,50.577209 190.460663,50.577209 
	C190.460663,50.577209 190.094727,50.270271 189.933228,50.094704 
	C190.732773,50.200645 191.693817,50.482155 192.056671,50.869041 
	C191.283508,50.819744 191.108551,50.665077 190.933609,50.510414 
z"/>
<path fill="#C8A72D" opacity="1.000000" stroke="none" 
	d="
M59.639011,41.909622 
	C59.949299,42.127213 59.920330,42.387848 59.717339,43.116451 
	C59.363186,43.678162 59.202000,43.652206 58.896896,43.711777 
	C58.566372,43.965969 58.398708,44.014938 57.962975,44.067413 
	C57.516201,44.074055 57.337498,44.077194 57.158794,44.080338 
	C57.872448,43.371117 58.586102,42.661896 59.639011,41.909622 
z"/>
<path fill="#547B85" opacity="1.000000" stroke="none" 
	d="
M96.365433,23.961941 
	C96.029106,23.956402 96.185852,23.542561 96.206772,23.321985 
	C96.899376,22.959143 97.571068,22.816874 98.586441,22.630938 
	C98.187340,23.047338 97.444550,23.507408 96.365433,23.961941 
z"/>
<path fill="#547B85" opacity="1.000000" stroke="none" 
	d="
M147.558472,23.046797 
	C147.910004,23.205782 147.910675,23.244574 147.921173,23.241156 
	C146.768402,23.342390 145.605118,23.447042 144.285004,23.207150 
	C145.154434,22.871008 146.180695,22.879410 147.558472,23.046797 
z"/>
<path fill="#C8A72D" opacity="1.000000" stroke="none" 
	d="
M64.920448,38.902176 
	C64.918648,38.869152 64.748756,38.439861 64.717667,38.211235 
	C65.297371,37.369835 65.908157,36.757065 66.851562,36.162479 
	C67.184189,36.180668 67.104889,36.575626 67.091782,37.164711 
	C67.047760,38.016888 67.016846,38.279987 66.985924,38.543083 
	C66.985924,38.543083 66.754547,38.941631 66.244965,38.995327 
	C65.472610,39.031525 65.209839,39.014023 64.947060,38.996525 
	C64.947060,38.996525 64.922249,38.935204 64.920448,38.902176 
z"/>
<path fill="#C8A72D" opacity="1.000000" stroke="none" 
	d="
M196.109528,58.886757 
	C196.276093,59.877163 196.442642,60.867569 196.310547,62.036194 
	C196.011902,62.214405 195.964478,62.107803 195.970825,61.689354 
	C195.941895,60.553997 195.906631,59.837097 195.931152,59.062096 
	C195.990967,59.004002 196.109528,58.886757 196.109528,58.886757 
z"/>
<path fill="#828955" opacity="1.000000" stroke="none" 
	d="
M46.745285,67.791481 
	C46.902813,68.526314 46.776829,69.488884 46.335289,70.628937 
	C46.167080,69.877342 46.314426,68.948288 46.745285,67.791481 
z"/>
<path fill="#75835C" opacity="1.000000" stroke="none" 
	d="
M197.983307,70.399048 
	C197.586243,70.036720 197.211426,69.291565 196.675705,68.242371 
	C197.011703,68.630959 197.508621,69.323593 197.983307,70.399048 
z"/>
<path fill="#597972" opacity="1.000000" stroke="none" 
	d="
M78.013153,33.997448 
	C77.202072,34.362686 76.391724,34.752457 75.255989,35.323555 
	C74.855362,35.224602 74.780121,34.944313 75.266037,34.313305 
	C76.572426,33.979965 77.317673,33.997353 78.062912,34.014740 
	C78.062912,34.014740 78.013885,34.021980 78.013153,33.997448 
z"/>
<path fill="#597972" opacity="1.000000" stroke="none" 
	d="
M166.039993,35.034103 
	C166.031937,34.856430 166.023880,34.678757 166.012238,34.234421 
	C166.008652,33.967754 165.994614,34.018715 166.337982,34.007263 
	C167.419174,33.968529 168.157028,33.941246 168.894867,33.913963 
	C168.994308,34.171936 169.093735,34.429909 169.129349,35.097664 
	C168.301514,35.329037 167.537491,35.150627 166.388306,34.985729 
	C166.003143,34.999237 166.039993,35.034103 166.039993,35.034103 
z"/>
<path fill="#E0B120" opacity="1.000000" stroke="none" 
	d="
M57.063667,44.444233 
	C57.337498,44.077194 57.516201,44.074055 57.901619,44.432724 
	C58.059711,45.533939 58.011086,46.273346 57.962460,47.012756 
	C57.962460,47.012756 57.542503,47.021679 57.333084,47.037727 
	C57.071953,46.305225 57.020245,45.556675 57.063667,44.444233 
z"/>
<path fill="#75835C" opacity="1.000000" stroke="none" 
	d="
M178.742615,38.984100 
	C179.018066,39.841244 178.891708,40.591999 178.540543,42.678375 
	C178.107819,40.712105 177.974823,40.107773 177.676651,39.219051 
	C177.787918,38.915672 178.064377,38.896687 178.742615,38.984100 
z"/>
<path fill="#5F7A6A" opacity="1.000000" stroke="none" 
	d="
M177.044876,38.094631 
	C176.191376,38.243858 175.316238,37.989132 174.248596,37.446724 
	C175.045135,37.336254 176.034195,37.513466 177.044876,38.094631 
z"/>
<path fill="#D9AE24" opacity="1.000000" stroke="none" 
	d="
M53.606987,48.926620 
	C53.952557,49.112659 53.939831,49.345592 53.843140,49.942089 
	C53.759178,50.305653 53.734894,50.299358 53.335114,50.500496 
	C52.662090,50.821449 52.388851,50.941265 52.115616,51.061077 
	C52.493309,50.365223 52.871002,49.669369 53.606987,48.926620 
z"/>
<path fill="#4D767F" opacity="1.000000" stroke="none" 
	d="
M190.927765,50.978073 
	C191.108551,50.665077 191.283508,50.819744 191.802399,51.039951 
	C192.127670,51.841812 192.108978,52.578136 191.978271,53.666283 
	C191.674408,54.036476 191.482544,54.054844 191.008530,54.147892 
	C190.791550,53.296959 190.856735,52.371346 190.927765,50.978073 
z"/>
<path fill="#597972" opacity="1.000000" stroke="none" 
	d="
M52.046165,51.403847 
	C52.388851,50.941265 52.662090,50.821449 53.098427,51.049080 
	C53.456108,52.536678 53.650696,53.676830 53.845280,54.816982 
	C53.528942,54.647491 53.212601,54.478004 52.410408,54.076378 
	C51.941944,53.145031 51.959332,52.445820 52.046165,51.403847 
z"/>
<path fill="#F8BB13" opacity="1.000000" stroke="none" 
	d="
M168.797302,33.597404 
	C168.157028,33.941246 167.419174,33.968529 166.311523,34.006622 
	C166.861069,33.771908 167.780411,33.526375 168.797302,33.597404 
z"/>
<path fill="#F8BB13" opacity="1.000000" stroke="none" 
	d="
M77.938606,33.704689 
	C77.317673,33.997353 76.572426,33.979965 75.457428,33.922325 
	C75.996552,33.719589 76.905426,33.557110 77.938606,33.704689 
z"/>
<path fill="#F1F5F9" opacity="1.000000" stroke="none" 
	d="
M47.440578,78.008865 
	C47.577217,77.715157 47.973934,77.397858 48.675018,77.139954 
	C48.553143,77.461327 48.126900,77.723305 47.440578,78.008865 
z"/>
<path fill="#487996" opacity="1.000000" stroke="none" 
	d="
M134.280991,20.077293 
	C133.922913,19.864487 133.847534,19.673817 133.653046,19.199612 
	C134.100479,18.941170 134.667007,18.966265 135.162231,19.440845 
	C134.915176,19.960032 134.739441,20.029730 134.280991,20.077293 
z"/>
<path fill="#E0B120" opacity="1.000000" stroke="none" 
	d="
M135.175186,21.312960 
	C135.150192,21.082207 135.125198,20.851456 135.076141,20.273090 
	C135.151230,19.764847 135.250412,19.604218 135.632233,19.460953 
	C135.914886,19.478321 135.936432,19.718651 136.061218,20.081434 
	C136.216431,20.619963 136.246826,20.795710 136.002991,21.060902 
	C135.544205,21.204552 135.359695,21.258755 135.175186,21.312960 
z"/>
<path fill="#C8A72D" opacity="1.000000" stroke="none" 
	d="
M194.969955,58.492649 
	C194.969955,58.492649 194.899628,58.144520 194.939423,57.970322 
	C195.290573,57.986778 195.601944,58.177441 196.011414,58.627426 
	C196.109528,58.886757 195.990967,59.004002 195.669281,58.958237 
	C195.221725,58.772530 195.095840,58.632591 194.969955,58.492649 
z"/>
<path fill="#E83250" opacity="1.000000" stroke="none" 
	d="
M119.115349,50.866264 
	C117.396011,52.796661 115.741859,54.790287 113.943581,56.644115 
	C110.342331,60.356636 111.709023,64.995728 118.424454,69.041122 
	C115.847519,70.123650 113.715462,71.802917 111.905426,71.507721 
	C110.672195,71.306595 110.121635,68.143135 108.845627,66.667648 
	C107.290901,64.869858 105.439133,62.373924 103.458794,62.110203 
	C99.990494,61.648327 99.157219,64.555275 98.876358,67.780579 
	C98.701042,69.793732 97.699448,72.362526 96.184784,73.443489 
	C94.844383,74.400093 92.281639,73.643921 90.258545,73.643921 
	C90.173492,73.096863 90.088448,72.549805 90.003395,72.002747 
	C90.636078,71.322571 91.202904,70.562828 91.912476,69.975555 
	C95.616043,66.910316 95.325722,62.264858 91.244362,59.853420 
	C85.226982,56.298092 84.986694,55.516171 87.860321,49.112579 
	C88.128601,48.514721 88.251450,47.851597 89.118637,47.078606 
	C99.267708,43.768024 109.079941,43.908546 118.930389,44.215469 
	C119.000900,44.835838 119.023216,45.192593 118.774223,45.811432 
	C118.374840,47.032162 118.246773,47.990803 118.124969,49.230022 
	C118.459274,49.962486 118.787315,50.414375 119.115349,50.866264 
z"/>
<path fill="#E8324F" opacity="1.000000" stroke="none" 
	d="
M155.066849,47.166161 
	C159.728516,53.587936 159.442001,55.423100 153.129883,59.572567 
	C148.884689,62.363277 149.154236,67.398293 154.860947,73.202408 
	C151.924393,73.494965 149.647797,74.311485 147.890152,73.681091 
	C146.793030,73.287598 146.341599,70.751137 145.856857,69.101013 
	C145.466400,67.771759 145.960815,65.810944 145.173782,65.051445 
	C143.774094,63.700752 141.602341,62.177704 139.940857,62.367397 
	C138.520126,62.529610 137.401657,65.028580 136.077499,66.425735 
	C134.424927,68.169373 132.903870,70.193100 130.899536,71.368790 
	C130.134201,71.817719 128.188889,70.255043 126.040123,69.268951 
	C127.818222,68.007133 128.558762,67.430038 129.348099,66.929993 
	C133.734222,64.151451 134.070511,60.230030 130.299820,56.800034 
	C128.508469,55.170540 126.887306,53.353947 125.171814,51.058128 
	C125.397835,49.989880 125.641098,49.485622 125.921051,48.618244 
	C125.606377,47.393623 125.255028,46.532120 124.924873,45.422646 
	C124.976364,44.842422 125.046387,44.518761 125.466835,44.196457 
	C126.187141,44.132378 126.596764,44.075531 127.471664,44.024002 
	C137.224930,42.958755 146.125793,45.236275 155.066849,47.166161 
z"/>
<path fill="#F7F9FB" opacity="1.000000" stroke="none" 
	d="
M118.882187,43.951855 
	C109.079941,43.908546 99.267708,43.768024 89.391876,46.860794 
	C92.640900,37.019150 99.455368,31.222054 109.955421,29.980705 
	C111.714233,29.772774 113.443573,29.315529 115.869064,29.025331 
	C117.011932,29.703272 117.472282,30.329361 117.939377,30.969414 
	C117.946129,30.983376 117.975739,30.992630 117.781136,31.073309 
	C117.498970,31.263199 117.314346,31.419641 117.340553,31.473495 
	C117.458160,31.715181 117.635712,31.927696 117.847687,32.148071 
	C117.903725,32.145412 117.914917,32.033756 117.909721,32.470711 
	C117.918617,34.365509 117.932709,35.823349 117.927979,37.602165 
	C117.933762,38.568336 117.958351,39.213539 117.777496,40.023582 
	C118.008286,40.555458 118.444519,40.922493 118.911957,41.620941 
	C118.922844,42.618858 118.902512,43.285358 118.882187,43.951855 
z"/>
<path fill="#F8FAFC" opacity="1.000000" stroke="none" 
	d="
M155.313385,46.969376 
	C146.125793,45.236275 137.224930,42.958755 127.288063,43.653786 
	C126.694969,42.192654 126.750763,41.107059 126.884140,39.670132 
	C126.717812,38.447231 126.473907,37.575668 126.251900,36.312073 
	C126.197701,34.615074 126.121597,33.310104 126.023071,32.010502 
	C126.000648,32.015869 126.046860,32.026493 126.282761,31.970596 
	C126.350754,31.556959 126.182846,31.199221 126.098801,30.583326 
	C126.495773,29.889299 126.808876,29.453426 127.121986,29.017553 
	C140.392517,28.850115 151.322021,36.266682 155.313385,46.969376 
z"/>
<path fill="#E73350" opacity="1.000000" stroke="none" 
	d="
M182.989868,58.870419 
	C188.663162,64.950027 189.050262,70.764496 183.915558,78.624939 
	C183.551056,79.000076 183.100662,79.059677 183.100662,79.059677 
	C181.939713,77.121338 181.085495,74.882622 179.548203,73.312851 
	C177.046295,70.758125 174.297241,71.450363 172.465576,74.261414 
	C168.266220,80.706123 167.516113,80.798042 162.634094,74.625641 
	C164.376495,73.915115 166.416458,73.562653 167.797028,72.416191 
	C170.439560,70.221786 172.312210,67.759102 169.597031,63.944572 
	C168.543961,62.465130 169.110672,59.832729 168.970795,57.367279 
	C169.002060,57.009007 168.948776,57.016880 169.154221,56.938641 
	C169.648453,56.716785 169.807007,56.484360 170.238281,56.077328 
	C174.757416,56.951164 178.873642,57.910789 182.989868,58.870419 
z"/>
<path fill="#E8334F" opacity="1.000000" stroke="none" 
	d="
M60.178757,79.073181 
	C55.038990,72.679550 56.949093,66.225616 60.479080,59.384308 
	C65.538887,57.660049 70.133209,56.313301 74.808372,55.188869 
	C74.889214,55.411186 74.984543,55.874718 74.984543,55.874718 
	C75.425949,57.632725 75.867363,59.390732 76.400352,61.513477 
	C71.383522,67.314087 74.325813,74.315544 81.943489,75.399307 
	C79.602043,76.693672 77.260605,77.988029 76.156189,78.598564 
	C72.367874,75.955544 69.734848,73.196259 66.602371,72.398781 
	C65.393181,72.090927 63.050259,76.236252 60.876839,78.693268 
	C60.529816,79.033829 60.178757,79.073181 60.178757,79.073181 
z"/>
<path fill="#F2F6FA" opacity="1.000000" stroke="none" 
	d="
M183.006897,58.509995 
	C178.873642,57.910789 174.757416,56.951164 170.116684,56.011887 
	C169.592178,56.032242 169.315231,56.015026 169.232407,55.661903 
	C169.050415,54.593719 168.951248,53.878658 168.852081,53.163597 
	C168.414200,52.121880 167.976318,51.080166 167.262512,49.628197 
	C166.999390,48.964958 166.979874,48.714500 166.928024,48.466553 
	C168.255005,47.955112 169.869217,46.683651 170.861221,47.058559 
	C176.309921,49.117779 180.676514,52.584251 183.006897,58.509995 
z"/>
<path fill="#EFF4F8" opacity="1.000000" stroke="none" 
	d="
M74.727524,54.966553 
	C70.133209,56.313301 65.538887,57.660049 60.552532,59.007900 
	C64.377144,54.375603 68.593796,49.742199 72.362221,45.601322 
	C78.244377,47.550583 76.161804,50.111736 75.003708,53.160507 
	C74.898567,54.197674 74.813049,54.582111 74.727524,54.966553 
z"/>
<path fill="#1F5F8D" opacity="1.000000" stroke="none" 
	d="
M167.633530,87.996414 
	C167.697784,88.424652 167.422989,88.703377 166.879456,89.110550 
	C153.449493,86.805748 140.286331,84.382805 127.132195,81.911903 
	C126.397224,81.773849 125.736641,81.239807 125.259827,80.425537 
	C135.176575,81.290031 144.910645,82.408287 154.557053,84.043678 
	C158.893158,84.778793 163.054077,86.547302 167.633530,87.996414 
z"/>
<path fill="#EDF2F8" opacity="1.000000" stroke="none" 
	d="
M81.611137,61.181351 
	C83.958801,62.078075 86.471184,62.685711 87.681297,64.281113 
	C88.314178,65.115494 87.006302,67.928284 85.963440,69.420074 
	C83.907463,72.361115 81.502426,70.746346 79.795097,68.968575 
	C78.008400,67.108177 77.112083,64.769569 79.837456,62.685570 
	C80.354012,62.290585 80.771942,61.766644 81.611137,61.181351 
z"/>
<path fill="#EEF3F8" opacity="1.000000" stroke="none" 
	d="
M158.614532,69.819824 
	C154.421783,68.366653 155.700745,65.148499 156.392426,62.911980 
	C156.698120,61.923550 159.948212,60.933262 161.321686,61.431683 
	C162.842972,61.983734 164.744324,64.257233 164.713669,65.744698 
	C164.648468,68.909164 162.433456,70.624832 158.614532,69.819824 
z"/>
<path fill="#F0F5F9" opacity="1.000000" stroke="none" 
	d="
M197.917114,79.618484 
	C198.487823,83.914703 196.060852,85.351593 192.299255,86.022247 
	C188.837921,84.121239 186.929337,81.527870 189.985458,78.309036 
	C192.635971,75.517410 195.427948,76.680420 197.917114,79.618484 
z"/>
<path fill="#F9FBFC" opacity="1.000000" stroke="none" 
	d="
M117.633606,62.275719 
	C116.417953,58.263103 118.872070,56.688721 121.694641,56.273926 
	C122.945633,56.090084 125.771332,58.107346 125.671661,58.813362 
	C125.348480,61.102493 124.570374,63.952572 122.917915,65.283897 
	C120.371178,67.335709 118.947227,64.696754 117.633606,62.275719 
z"/>
<path fill="#596474" opacity="1.000000" stroke="none" 
	d="
M118.736389,72.826355 
	C122.920776,69.297020 123.949249,69.688751 126.253418,75.543831 
	C123.319756,75.543831 120.468712,75.543831 117.177338,75.543831 
	C117.660812,74.622383 118.064941,73.852158 118.736389,72.826355 
z"/>
<path fill="#1F5F8D" opacity="1.000000" stroke="none" 
	d="
M93.386368,84.855118 
	C92.970856,84.579094 92.954079,84.315392 92.914940,83.655685 
	C96.653275,82.544617 100.413971,81.829552 104.468643,81.368073 
	C104.516426,82.037041 104.270248,82.452415 104.024078,82.867783 
	C100.611092,83.534340 97.198097,84.200890 93.386368,84.855118 
z"/>
<path fill="#E5EDF5" opacity="1.000000" stroke="none" 
	d="
M54.090328,54.876293 
	C53.650696,53.676830 53.456108,52.536678 53.498207,50.847942 
	C53.734894,50.299358 53.759178,50.305653 53.781551,50.286552 
	C54.233360,50.223068 54.662800,50.178688 55.596748,50.304050 
	C56.689320,50.894886 57.277386,51.315979 57.865448,51.737068 
	C56.688759,52.803246 55.512066,53.869427 54.090328,54.876293 
z"/>
<path fill="#E9F0F7" opacity="1.000000" stroke="none" 
	d="
M88.102005,29.762022 
	C89.349640,29.653284 90.597275,29.544548 92.381775,29.822262 
	C92.143356,31.519016 91.368073,32.829319 89.875374,35.352100 
	C88.940582,32.884125 88.480202,31.668682 88.053307,30.080942 
	C88.086784,29.708645 88.102005,29.762022 88.102005,29.762022 
z"/>
<path fill="#E9F0F7" opacity="1.000000" stroke="none" 
	d="
M59.059765,43.506546 
	C59.202000,43.652206 59.363186,43.678162 59.636150,43.501347 
	C60.152584,43.339226 60.576191,43.260174 61.506947,43.369576 
	C62.627987,44.043468 63.241875,44.528915 63.855762,45.014362 
	C63.927822,48.077335 62.108158,48.296688 59.398922,47.030609 
	C59.039783,45.387177 59.049774,44.446861 59.059765,43.506546 
z"/>
<path fill="#F2F6FA" opacity="1.000000" stroke="none" 
	d="
M164.021133,56.746037 
	C161.908920,53.235767 164.274612,53.023144 167.303772,53.318329 
	C167.838867,54.475704 167.891403,55.258514 167.713531,56.128101 
	C167.211700,56.429394 167.046631,56.707165 166.987946,57.048183 
	C166.987946,57.048183 166.994308,56.991398 166.640198,56.989769 
	C165.531097,56.907436 164.776123,56.826736 164.021133,56.746037 
z"/>
<path fill="#F8FAFC" opacity="1.000000" stroke="none" 
	d="
M120.299469,28.005413 
	C120.946083,27.697046 121.592690,27.388676 122.728271,27.425323 
	C123.463287,29.013662 123.709351,30.256985 123.971924,31.507381 
	C123.988449,31.514460 123.984955,31.478741 123.616714,31.617432 
	C122.473038,31.828808 121.697594,31.901491 120.759918,31.661747 
	C120.498283,30.234684 120.398872,29.120049 120.299469,28.005413 
z"/>
<path fill="#F9FBFC" opacity="1.000000" stroke="none" 
	d="
M161.125076,46.980053 
	C161.725449,45.999870 162.325836,45.019688 162.926224,44.039509 
	C163.930908,44.794823 164.935577,45.550140 165.609100,46.810440 
	C163.893661,47.203636 162.509369,47.091843 161.125076,46.980053 
z"/>
<path fill="#F8FAFC" opacity="1.000000" stroke="none" 
	d="
M77.256134,52.915520 
	C78.460114,53.702972 79.664101,54.490425 80.868080,55.277870 
	C79.504379,55.743771 78.140678,56.209671 76.473862,56.049427 
	C76.532547,54.587360 76.894341,53.751442 77.256134,52.915520 
z"/>
<path fill="#F9FBFC" opacity="1.000000" stroke="none" 
	d="
M82.835182,36.731262 
	C84.336159,36.984360 85.581627,37.513275 86.827095,38.042191 
	C86.181252,38.684723 85.535400,39.327255 84.889557,39.969791 
	C84.119598,38.982220 83.349632,37.994652 82.835182,36.731262 
z"/>
<path fill="#145A93" opacity="1.000000" stroke="none" 
	d="
M104.444519,82.911850 
	C104.270248,82.452415 104.516426,82.037041 104.871758,81.405334 
	C107.982513,81.120659 110.984108,81.052299 114.655975,81.056747 
	C115.618324,81.291473 115.832375,81.524963 115.968384,81.830002 
	C112.267242,82.205315 108.566109,82.580620 104.444519,82.911850 
z"/>
<path fill="#75835C" opacity="1.000000" stroke="none" 
	d="
M125.884361,48.981365 
	C125.641098,49.485622 125.397835,49.989880 125.016861,50.749405 
	C123.135117,51.037983 121.391098,51.071293 119.381210,50.985432 
	C118.787315,50.414375 118.459274,49.962486 118.322250,49.236031 
	C118.513260,48.961460 118.908798,48.977634 119.170212,49.006809 
	C119.604454,49.062923 119.777290,49.089867 120.186371,49.344986 
	C121.623985,49.449203 122.825363,49.325249 124.287659,49.137947 
	C124.723709,49.037674 124.898849,49.000740 125.276520,48.970818 
	C125.479057,48.977829 125.884361,48.981365 125.884361,48.981365 
z"/>
<path fill="#C7375A" opacity="1.000000" stroke="none" 
	d="
M173.666107,84.406219 
	C173.215515,83.508347 173.069656,82.823448 172.923798,82.138565 
	C173.896378,82.418327 174.868988,82.698097 175.841583,82.977859 
	C175.217987,83.524979 174.594406,84.072090 173.666107,84.406219 
z"/>
<path fill="#678C99" opacity="1.000000" stroke="none" 
	d="
M161.129120,47.342506 
	C162.509369,47.091843 163.893661,47.203636 165.578125,47.181152 
	C166.052795,47.414474 166.227295,47.782074 166.664902,48.308113 
	C166.979874,48.714500 166.999390,48.964958 166.971085,49.405022 
	C165.014771,48.963058 163.073975,48.334011 161.129120,47.342506 
z"/>
<path fill="#D43656" opacity="1.000000" stroke="none" 
	d="
M102.278236,74.127777 
	C103.319260,73.671638 104.336197,73.111954 105.424438,72.858925 
	C105.610886,72.815575 106.101540,74.080521 106.451660,74.741089 
	C105.831520,74.841103 105.211380,74.941109 104.002747,75.033844 
	C103.035583,74.726974 102.656914,74.427376 102.278236,74.127777 
z"/>
<path fill="#6A8FA1" opacity="1.000000" stroke="none" 
	d="
M180.732559,43.155750 
	C180.987991,42.976261 181.483383,42.997242 181.731201,42.995178 
	C181.812347,43.983982 181.645660,44.974850 181.478958,45.965717 
	C180.868195,45.844395 180.257431,45.723072 179.646667,45.601749 
	C179.923477,44.846245 180.200302,44.090740 180.732559,43.155750 
z"/>
<path fill="#73596E" opacity="1.000000" stroke="none" 
	d="
M183.047180,79.404892 
	C183.100662,79.059677 183.551056,79.000076 183.769836,78.939728 
	C183.988602,80.052818 183.988602,81.226257 183.988602,82.399704 
	C183.656967,82.388527 183.325317,82.377350 182.993683,82.366173 
	C182.993683,81.494148 182.993683,80.622124 183.047180,79.404892 
z"/>
<path fill="#5187B7" opacity="1.000000" stroke="none" 
	d="
M119.978516,27.969395 
	C120.398872,29.120049 120.498283,30.234684 120.762390,31.821613 
	C120.927101,32.293907 120.978386,32.609531 120.663315,32.421356 
	C119.883247,32.117229 119.418243,32.001278 118.692719,31.915775 
	C118.259766,31.975401 118.087341,32.004578 117.914917,32.033756 
	C117.914917,32.033756 117.903725,32.145412 117.918365,31.862160 
	C117.947243,31.383482 117.961494,31.188055 117.975739,30.992630 
	C117.975739,30.992630 117.946129,30.983376 118.250694,30.876730 
	C118.656593,30.147783 118.757919,29.525480 118.859253,28.903179 
	C119.125366,28.579914 119.391472,28.256645 119.978516,27.969395 
z"/>
<path fill="#A89940" opacity="1.000000" stroke="none" 
	d="
M123.984955,31.478741 
	C123.984955,31.478741 123.988449,31.514460 124.265457,31.273987 
	C124.762817,30.327009 124.983162,29.620506 125.203506,28.914001 
	C125.762955,28.813805 126.322395,28.713606 127.001915,28.815479 
	C126.808876,29.453426 126.495773,29.889299 126.042480,30.881512 
	C125.950485,31.634068 125.998672,31.830280 126.046860,32.026493 
	C126.046860,32.026493 126.000648,32.015869 125.694946,31.956894 
	C125.170815,31.935480 124.952370,31.973043 124.598862,32.042725 
	C124.463799,32.074837 124.186668,32.056828 124.091049,31.928074 
	C123.995438,31.799322 123.984955,31.478741 123.984955,31.478741 
z"/>
<path fill="#A89940" opacity="1.000000" stroke="none" 
	d="
M118.600296,28.799709 
	C118.757919,29.525480 118.656593,30.147783 118.243942,30.862768 
	C117.472282,30.329361 117.011932,29.703272 116.276863,28.949863 
	C116.781868,28.780445 117.561600,28.738342 118.600296,28.799709 
z"/>
<path fill="#708B82" opacity="1.000000" stroke="none" 
	d="
M77.100372,52.693275 
	C76.894341,53.751442 76.532547,54.587360 76.277794,55.762569 
	C76.148094,56.085461 75.911354,56.069061 75.329575,55.963688 
	C74.984543,55.874718 74.889214,55.411186 74.808365,55.188869 
	C74.813049,54.582111 74.898567,54.197674 75.055626,53.529266 
	C75.732979,52.987209 76.338799,52.729122 77.100372,52.693275 
z"/>
<path fill="#1F5F8D" opacity="1.000000" stroke="none" 
	d="
M116.408302,81.881783 
	C115.832375,81.524963 115.618324,81.291473 115.104218,81.035599 
	C115.827179,80.630424 116.772171,80.319206 118.118195,79.985352 
	C117.962234,80.619667 117.405228,81.276611 116.408302,81.881783 
z"/>
<path fill="#6A8FA1" opacity="1.000000" stroke="none" 
	d="
M125.092712,28.586700 
	C124.983162,29.620506 124.762817,30.327009 124.248940,31.266911 
	C123.709351,30.256985 123.463287,29.013662 123.004890,27.438055 
	C123.522339,27.490313 124.252129,27.874855 125.092712,28.586700 
z"/>
<path fill="#5E89A3" opacity="1.000000" stroke="none" 
	d="
M135.123917,21.658581 
	C135.359695,21.258755 135.544205,21.204552 136.249481,21.086163 
	C136.770233,21.021976 137.264404,21.084229 137.264404,21.084227 
	C136.695358,22.228674 136.126297,23.373123 135.305115,25.024666 
	C135.203552,23.705162 135.138092,22.854683 135.123917,21.658581 
z"/>
<path fill="#597972" opacity="1.000000" stroke="none" 
	d="
M167.943939,56.041328 
	C167.891403,55.258514 167.838867,54.475704 167.649185,53.322445 
	C167.737427,52.974030 167.962830,52.996056 168.520157,53.090843 
	C168.951248,53.878658 169.050415,54.593719 169.072540,55.887455 
	C168.979919,56.649712 168.964340,56.833298 168.948776,57.016880 
	C168.948776,57.016880 169.002060,57.009007 169.002045,56.982178 
	C168.849075,56.888351 168.696121,56.821362 168.273773,56.565800 
	C168.004364,56.377224 167.943939,56.041328 167.943939,56.041328 
z"/>
<path fill="#5E89A3" opacity="1.000000" stroke="none" 
	d="
M131.967377,20.308311 
	C132.329712,20.437742 132.695099,20.908606 133.143585,21.696800 
	C133.004211,22.412607 132.781738,22.811085 132.559265,23.209560 
	C132.362991,22.356289 132.166733,21.503017 131.967377,20.308311 
z"/>
<path fill="#90406C" opacity="1.000000" stroke="none" 
	d="
M101.911934,74.109383 
	C102.656914,74.427376 103.035583,74.726974 103.670776,75.073044 
	C103.085907,75.302032 102.244522,75.484566 101.403130,75.667099 
	C101.450630,75.141731 101.498131,74.616364 101.911934,74.109383 
z"/>
<path fill="#597C7C" opacity="1.000000" stroke="none" 
	d="
M137.592651,21.132025 
	C137.264404,21.084229 136.770233,21.021976 136.523743,20.996716 
	C136.246826,20.795710 136.216431,20.619963 136.072662,20.201538 
	C137.049149,19.970581 138.139008,19.982302 139.638184,19.979961 
	C139.338638,20.370544 138.629776,20.775183 137.592651,21.132025 
z"/>
<path fill="#62467C" opacity="1.000000" stroke="none" 
	d="
M60.117798,79.436783 
	C60.178757,79.073181 60.529816,79.033829 60.704758,79.011787 
	C60.879700,80.057800 60.879700,81.125854 60.879700,82.193909 
	C60.715893,82.214828 60.552082,82.235748 60.388275,82.256668 
	C60.277798,81.437904 60.167320,80.619148 60.117798,79.436783 
z"/>
<path fill="#1F5F8D" opacity="1.000000" stroke="none" 
	d="
M123.014816,79.972519 
	C123.273857,82.305542 122.617599,82.469147 120.249115,80.398888 
	C121.154686,79.969154 121.831108,79.975929 123.014816,79.972519 
z"/>
<path fill="#5D90BE" opacity="1.000000" stroke="none" 
	d="
M148.265198,24.570799 
	C148.580078,24.597284 148.742554,24.944071 148.953094,25.469723 
	C148.883499,26.305687 148.765823,26.962788 148.648148,27.619888 
	C148.469696,27.603714 148.291260,27.587542 148.112808,27.571367 
	C148.112808,26.677944 148.112808,25.784523 148.265198,24.570799 
z"/>
<path fill="#828955" opacity="1.000000" stroke="none" 
	d="
M194.955063,58.981895 
	C195.095840,58.632591 195.221725,58.772530 195.609482,59.016331 
	C195.906631,59.837097 195.941895,60.553997 195.965485,61.631264 
	C195.730316,62.106136 195.506805,62.220654 195.033875,62.307384 
	C194.615921,62.262836 194.447372,62.246067 194.278824,62.229301 
	C194.499268,61.309914 194.719711,60.390526 194.955063,58.981895 
z"/>
<path fill="#5E89A3" opacity="1.000000" stroke="none" 
	d="
M95.356934,26.831345 
	C95.160378,26.103352 95.291634,25.289953 95.675491,24.298050 
	C95.846962,24.995010 95.765854,25.870476 95.356934,26.831345 
z"/>
<path fill="#5F7A6A" opacity="1.000000" stroke="none" 
	d="
M67.272278,38.334450 
	C67.016846,38.279987 67.047760,38.016888 67.035927,37.358231 
	C67.763176,37.015354 68.533188,37.068047 69.303192,37.120735 
	C69.330994,37.318092 69.358803,37.515446 69.386604,37.712803 
	C68.777283,37.850475 68.167961,37.988148 67.272278,38.334450 
z"/>
<path fill="#4D767F" opacity="1.000000" stroke="none" 
	d="
M58.896896,43.711777 
	C59.049774,44.446861 59.039783,45.387177 59.173687,46.776619 
	C59.085258,47.231472 58.852936,47.237202 58.291534,47.127842 
	C58.011086,46.273346 58.059711,45.533939 58.169693,44.429222 
	C58.398708,44.014938 58.566372,43.965969 58.896896,43.711777 
z"/>
<path fill="#7096AB" opacity="1.000000" stroke="none" 
	d="
M63.895611,44.717316 
	C63.241875,44.528915 62.627987,44.043468 61.825138,43.321663 
	C61.871925,43.060001 62.107674,43.034702 62.698612,42.985847 
	C63.347687,43.448284 63.641571,43.934277 63.895611,44.717316 
z"/>
<path fill="#828955" opacity="1.000000" stroke="none" 
	d="
M64.927467,39.319180 
	C65.209839,39.014023 65.472610,39.031525 66.130966,39.029472 
	C66.225517,39.757175 65.924477,40.504436 65.422745,41.749882 
	C65.178719,40.750763 65.043297,40.196297 64.927467,39.319180 
z"/>
<path fill="#5E89A3" opacity="1.000000" stroke="none" 
	d="
M164.036591,57.119026 
	C164.776123,56.826736 165.531097,56.907436 166.667755,56.997314 
	C166.050293,57.168335 165.051163,57.330177 164.036591,57.119026 
z"/>
<path fill="#6A8FA1" opacity="1.000000" stroke="none" 
	d="
M57.892738,51.463722 
	C57.277386,51.315979 56.689320,50.894886 55.919117,50.260155 
	C55.955975,50.021519 56.174976,49.996532 56.722908,49.938263 
	C57.341236,50.333439 57.630630,50.761906 57.892738,51.463722 
z"/>
<path fill="#7096AB" opacity="1.000000" stroke="none" 
	d="
M187.747345,50.108303 
	C187.597290,50.672150 187.111801,51.201633 186.385315,51.854183 
	C186.566864,51.342815 186.989380,50.708378 187.747345,50.108303 
z"/>
<path fill="#5E89A3" opacity="1.000000" stroke="none" 
	d="
M167.713531,56.128101 
	C167.943939,56.041328 168.004364,56.377224 168.024139,56.545097 
	C167.893463,56.849285 167.743011,56.985592 167.290253,57.085041 
	C167.046631,56.707165 167.211700,56.429394 167.713531,56.128101 
z"/>
<path fill="#F8BB13" opacity="1.000000" stroke="none" 
	d="
M88.144493,29.703199 
	C88.102005,29.762022 88.086784,29.708645 88.075912,29.692696 
	C88.065048,29.676746 88.059418,29.643160 88.051346,29.653893 
	C88.043274,29.664627 88.186981,29.644377 88.144493,29.703199 
z"/>
<path fill="#5E89A3" opacity="1.000000" stroke="none" 
	d="
M131.731125,19.038254 
	C132.015808,19.160727 132.037445,19.336588 132.039093,19.777496 
	C131.835434,19.725576 131.651764,19.408609 131.731125,19.038254 
z"/>
<path fill="#D9AE24" opacity="1.000000" stroke="none" 
	d="
M155.425751,29.848742 
	C155.391617,29.837753 155.521210,29.674866 155.596405,29.744797 
	C155.671600,29.814730 155.459885,29.859730 155.425751,29.848742 
z"/>
<path fill="#C8A72D" opacity="1.000000" stroke="none" 
	d="
M194.728088,62.527344 
	C194.671692,62.775082 194.290344,62.768642 194.290344,62.768642 
	C194.290344,62.768642 194.169174,62.382492 194.223999,62.305897 
	C194.447372,62.246067 194.615921,62.262836 194.728088,62.527344 
z"/>
<path fill="#597972" opacity="1.000000" stroke="none" 
	d="
M165.986389,34.980179 
	C165.772385,35.194141 165.575119,35.427162 165.377853,35.660187 
	C165.423660,35.452450 165.469467,35.244709 165.777634,35.035538 
	C166.039993,35.034103 166.003143,34.999237 165.986389,34.980179 
z"/>
<path fill="#F8BB13" opacity="1.000000" stroke="none" 
	d="
M214.803192,147.235321 
	C264.265747,217.286377 225.775177,311.929626 141.746323,327.679321 
	C80.266701,339.202576 18.533667,295.570953 8.902414,233.788040 
	C-1.079882,169.753250 40.434116,111.252701 104.471939,101.531807 
	C149.588898,94.683083 186.485077,110.947632 214.803192,147.235321 
M182.950302,129.539902 
	C159.497635,113.111374 133.499908,106.638611 105.310059,111.356743 
	C46.984692,121.118660 9.298062,174.554108 18.918407,233.040009 
	C28.184692,289.373413 85.279381,329.270325 141.099991,317.482330 
	C185.520721,308.101776 214.520905,280.871490 224.151718,236.460754 
	C233.568146,193.038605 218.499710,157.295105 182.950302,129.539902 
z"/>
<path fill="#115995" opacity="1.000000" stroke="none" 
	d="
M146.774414,88.118889 
	C156.016037,87.509819 157.159882,87.909546 161.862244,93.331955 
	C156.030167,95.139252 150.807236,94.624168 146.447083,90.102661 
	C146.114517,89.757790 146.398209,88.818626 146.774414,88.118889 
z"/>
<path fill="#115995" opacity="1.000000" stroke="none" 
	d="
M87.628410,88.610962 
	C91.423988,88.202225 94.921211,88.016312 99.025970,87.798096 
	C93.878471,94.471367 90.792549,95.358788 81.441505,92.965775 
	C83.711174,91.373154 85.520615,90.103477 87.628410,88.610962 
z"/>
<path fill="#E63350" opacity="1.000000" stroke="none" 
	d="
M117.460876,85.252502 
	C121.427658,85.067810 125.059128,85.067810 129.725266,85.067810 
	C126.114159,90.298523 118.778999,91.299995 115.998390,88.150093 
	C115.714294,87.828262 116.718941,86.368767 117.460876,85.252502 
z"/>
<path fill="#F2B916" opacity="1.000000" stroke="none" 
	d="
M118.930389,44.215469 
	C118.902512,43.285358 118.922844,42.618858 119.208855,41.487534 
	C119.691490,41.026077 119.908440,41.029457 120.292191,41.308517 
	C121.603256,41.411469 122.747513,41.238735 124.252075,41.168961 
	C124.793625,42.249180 124.974884,43.226433 125.156143,44.203690 
	C125.046387,44.518761 124.976364,44.842422 124.910889,45.497334 
	C124.875702,45.819988 124.954445,45.945507 124.710495,45.825859 
	C124.294907,45.648136 124.123268,45.590061 123.689301,45.404358 
	C122.303459,45.358128 121.179932,45.439529 119.801888,45.637074 
	C119.371780,45.816071 119.196182,45.878933 119.077560,45.846912 
	C119.134537,45.752026 119.045540,45.549351 119.045540,45.549351 
	C119.023216,45.192593 119.000900,44.835838 118.930389,44.215469 
z"/>
<path fill="#A89940" opacity="1.000000" stroke="none" 
	d="
M118.908798,48.977634 
	C118.908798,48.977634 118.513260,48.961460 118.315979,48.955452 
	C118.246773,47.990803 118.374840,47.032162 118.774223,45.811432 
	C119.045540,45.549351 119.134537,45.752026 119.063995,46.227089 
	C118.965233,47.460644 118.937019,48.219139 118.908798,48.977634 
z"/>
<path fill="#72929A" opacity="1.000000" stroke="none" 
	d="
M125.466835,44.196457 
	C124.974884,43.226433 124.793625,42.249180 124.206314,41.054409 
	C123.800255,40.836895 123.766708,40.592484 123.769547,40.423325 
	C123.772392,40.254166 123.980339,39.987236 124.221931,39.986008 
	C124.463524,39.984776 124.946617,39.994389 125.204819,40.009045 
	C125.635155,40.013931 125.807289,40.004166 126.186478,39.992958 
	C126.393524,39.991512 126.806564,40.021465 126.806564,40.021465 
	C126.750763,41.107059 126.694969,42.192654 126.822769,43.648468 
	C126.596764,44.075531 126.187141,44.132378 125.466835,44.196457 
z"/>
<path fill="#A89940" opacity="1.000000" stroke="none" 
	d="
M125.921051,48.618244 
	C125.884361,48.981365 125.479057,48.977829 125.250244,48.594978 
	C124.999100,47.456589 124.976776,46.701046 124.954445,45.945507 
	C124.954445,45.945507 124.875702,45.819988 124.889694,45.745300 
	C125.255028,46.532120 125.606377,47.393623 125.921051,48.618244 
z"/>
<path fill="#1F5F8D" opacity="1.000000" stroke="none" 
	d="
M117.909721,32.470711 
	C118.087341,32.004578 118.259766,31.975401 118.707787,32.345596 
	C119.010559,34.164402 119.037727,35.583843 118.773621,37.025452 
	C118.303825,37.125481 118.125313,37.203339 117.946808,37.281193 
	C117.932709,35.823349 117.918617,34.365509 117.909721,32.470711 
z"/>
<path fill="#A89940" opacity="1.000000" stroke="none" 
	d="
M117.927986,37.602165 
	C118.125313,37.203339 118.303825,37.125481 118.744934,37.024330 
	C119.007530,37.001030 119.017097,36.943974 119.006088,37.325954 
	C119.021362,38.470905 119.047661,39.233879 118.797348,39.992798 
	C118.341476,39.945412 118.162216,39.902077 117.982948,39.858738 
	C117.958351,39.213539 117.933762,38.568336 117.927986,37.602165 
z"/>
<path fill="#72929A" opacity="1.000000" stroke="none" 
	d="
M117.777496,40.023582 
	C118.162216,39.902077 118.341476,39.945412 119.034698,39.987885 
	C119.548653,39.987026 120.025032,39.982376 120.137573,40.096725 
	C120.250114,40.211071 120.279228,40.530621 120.255142,40.660576 
	C120.231049,40.790531 120.125397,41.032837 120.125397,41.032837 
	C119.908440,41.029457 119.691490,41.026077 119.177643,41.156113 
	C118.444519,40.922493 118.008286,40.555458 117.777496,40.023582 
z"/>
<path fill="#72929A" opacity="1.000000" stroke="none" 
	d="
M117.781136,31.073309 
	C117.961494,31.188055 117.947243,31.383482 117.862320,31.864822 
	C117.635712,31.927696 117.458160,31.715181 117.340553,31.473495 
	C117.314346,31.419641 117.498970,31.263199 117.781136,31.073309 
z"/>
<path fill="#3C7194" opacity="1.000000" stroke="none" 
	d="
M124.733932,32.010609 
	C124.952370,31.973043 125.170815,31.935480 125.717369,31.951527 
	C126.121597,33.310104 126.197701,34.615074 126.228943,36.411079 
	C126.184090,36.902119 126.018044,37.015568 125.755096,36.999954 
	C125.316902,36.987656 125.141663,36.990967 124.903091,36.978203 
	C124.839745,36.962128 124.737999,36.880066 124.804398,36.475639 
	C124.825180,34.717682 124.779556,33.364143 124.733932,32.010609 
z"/>
<path fill="#135C9D" opacity="1.000000" stroke="none" 
	d="
M126.884140,39.670132 
	C126.806564,40.021465 126.393524,39.991512 126.191757,39.620388 
	C125.999336,38.504700 126.008682,37.760132 126.018036,37.015568 
	C126.018044,37.015568 126.184090,36.902119 126.207047,36.803112 
	C126.473907,37.575668 126.717812,38.447231 126.884140,39.670132 
z"/>
<path fill="#72929A" opacity="1.000000" stroke="none" 
	d="
M126.282761,31.970596 
	C125.998672,31.830280 125.950485,31.634068 125.958618,31.139668 
	C126.182846,31.199221 126.350754,31.556959 126.282761,31.970596 
z"/>
<path fill="#EFB718" opacity="1.000000" stroke="none" 
	d="
M169.154221,56.938641 
	C168.964340,56.833298 168.979919,56.649712 169.155365,56.240578 
	C169.315231,56.015026 169.592178,56.032242 169.713776,56.097679 
	C169.807007,56.484360 169.648453,56.716785 169.154221,56.938641 
z"/>
<path fill="#5F7A6A" opacity="1.000000" stroke="none" 
	d="
M120.924622,32.134041 
	C121.697594,31.901491 122.473038,31.828808 123.616714,31.617432 
	C123.984955,31.478741 123.995438,31.799322 123.869690,32.132545 
	C122.822090,32.513691 121.900238,32.561611 120.978386,32.609535 
	C120.978386,32.609531 120.927101,32.293907 120.924622,32.134041 
z"/>
<path fill="#EDF2F8" opacity="1.000000" stroke="none" 
	d="
M120.056404,45.520935 
	C121.179932,45.439529 122.303459,45.358128 123.695908,45.861839 
	C123.985474,47.365063 124.006111,48.283180 124.026749,49.201294 
	C122.825363,49.325249 121.623985,49.449203 120.177795,48.892151 
	C119.974129,47.314411 120.015266,46.417671 120.056404,45.520935 
z"/>
<path fill="#5D90BE" opacity="1.000000" stroke="none" 
	d="
M124.287659,49.137947 
	C124.006111,48.283180 123.985474,47.365063 123.958229,45.989471 
	C124.123268,45.590061 124.294907,45.648136 124.710495,45.825859 
	C124.976776,46.701046 124.999100,47.456589 125.047714,48.587967 
	C124.898849,49.000740 124.723709,49.037674 124.287659,49.137947 
z"/>
<path fill="#5187B7" opacity="1.000000" stroke="none" 
	d="
M119.801888,45.637074 
	C120.015266,46.417671 119.974129,47.314411 119.941559,48.663979 
	C119.777290,49.089867 119.604454,49.062923 119.170212,49.006809 
	C118.937019,48.219139 118.965233,47.460644 119.007019,46.321976 
	C119.196182,45.878933 119.371780,45.816071 119.801888,45.637074 
z"/>
<path fill="#EFB718" opacity="1.000000" stroke="none" 
	d="
M120.663315,32.421360 
	C121.900238,32.561611 122.822090,32.513691 123.965302,32.261299 
	C124.186668,32.056828 124.463799,32.074837 124.598862,32.042725 
	C124.779556,33.364143 124.825180,34.717682 124.621635,36.357285 
	C124.372467,36.643353 123.945999,36.531334 123.679718,36.417061 
	C122.295708,36.374279 121.177971,36.445774 119.802353,36.631042 
	C119.368683,36.811207 119.192886,36.877590 119.017097,36.943974 
	C119.017097,36.943974 119.007530,37.001030 119.036217,37.002155 
	C119.037727,35.583843 119.010559,34.164402 118.968323,32.315144 
	C119.418243,32.001278 119.883247,32.117229 120.663315,32.421360 
z"/>
<path fill="#135C9D" opacity="1.000000" stroke="none" 
	d="
M183.238800,129.753342 
	C218.499710,157.295105 233.568146,193.038605 224.151718,236.460754 
	C214.520905,280.871490 185.520721,308.101776 141.099991,317.482330 
	C85.279381,329.270325 28.184692,289.373413 18.918407,233.040009 
	C9.298062,174.554108 46.984692,121.118660 105.310059,111.356743 
	C133.499908,106.638611 159.497635,113.111374 183.238800,129.753342 
M48.855549,284.640320 
	C73.580330,309.454498 103.440079,320.046844 137.977997,314.588623 
	C193.526108,305.809998 230.256912,254.822922 222.132828,199.121323 
	C213.869034,142.461868 157.254395,103.004395 101.528015,115.554977 
	C63.378201,124.146996 37.164078,147.267914 25.503580,184.513428 
	C13.905477,221.559662 22.300377,255.154068 48.855549,284.640320 
z"/>
<path fill="#597972" opacity="1.000000" stroke="none" 
	d="
M123.846016,40.951447 
	C122.747513,41.238735 121.603256,41.411469 120.292191,41.308517 
	C120.125397,41.032837 120.231049,40.790531 120.586731,40.804012 
	C121.883842,40.742489 122.825272,40.667484 123.766708,40.592484 
	C123.766708,40.592484 123.800255,40.836895 123.846016,40.951447 
z"/>
<path fill="#F7F9FB" opacity="1.000000" stroke="none" 
	d="
M123.769547,40.423325 
	C122.825272,40.667484 121.883842,40.742489 120.610817,40.674057 
	C120.279228,40.530621 120.250114,40.211071 120.110313,39.664299 
	C120.000420,38.250771 120.030327,37.384022 120.060242,36.517269 
	C121.177971,36.445774 122.295708,36.374279 123.674255,36.850063 
	C123.950157,38.260639 123.965248,39.123940 123.980331,39.987236 
	C123.980339,39.987236 123.772392,40.254166 123.769547,40.423325 
z"/>
<path fill="#5D90BE" opacity="1.000000" stroke="none" 
	d="
M124.221924,39.986008 
	C123.965248,39.123940 123.950157,38.260639 123.940536,36.964340 
	C123.945999,36.531334 124.372467,36.643353 124.555237,36.761711 
	C124.737999,36.880066 124.839745,36.962128 124.918686,37.353699 
	C124.980629,38.494976 124.963623,39.244682 124.946625,39.994389 
	C124.946617,39.994389 124.463524,39.984776 124.221924,39.986008 
z"/>
<path fill="#A89940" opacity="1.000000" stroke="none" 
	d="
M125.204819,40.009045 
	C124.963623,39.244682 124.980629,38.494976 124.982033,37.369774 
	C125.141663,36.990967 125.316902,36.987656 125.755096,36.999954 
	C126.008682,37.760132 125.999336,38.504700 125.984703,39.621834 
	C125.807289,40.004166 125.635155,40.013931 125.204819,40.009045 
z"/>
<path fill="#5187B7" opacity="1.000000" stroke="none" 
	d="
M119.802353,36.631042 
	C120.030327,37.384022 120.000420,38.250771 119.997772,39.549950 
	C120.025032,39.982376 119.548653,39.987026 119.311302,39.991936 
	C119.047661,39.233879 119.021362,38.470905 119.006088,37.325954 
	C119.192886,36.877590 119.368683,36.811207 119.802353,36.631042 
z"/>
<path fill="#FAFBFD" opacity="1.000000" stroke="none" 
	d="
M48.608452,284.385681 
	C22.300377,255.154068 13.905477,221.559662 25.503580,184.513428 
	C37.164078,147.267914 63.378201,124.146996 101.528015,115.554977 
	C157.254395,103.004395 213.869034,142.461868 222.132828,199.121323 
	C230.256912,254.822922 193.526108,305.809998 137.977997,314.588623 
	C103.440079,320.046844 73.580330,309.454498 48.608452,284.385681 
M44.220604,155.756226 
	C14.572628,195.332291 20.361086,247.754868 49.023407,276.736389 
	C53.406765,272.721344 57.790031,268.706390 62.160011,264.703613 
	C40.610497,241.573395 37.303703,212.015366 47.058182,187.538300 
	C49.865608,190.368195 52.749348,192.852692 55.063187,195.786621 
	C56.209682,197.240387 57.040863,199.632156 56.771336,201.411194 
	C51.734493,234.657181 69.794106,264.395844 101.768173,275.217377 
	C102.817818,275.572662 103.830200,276.038025 105.155930,276.571045 
	C105.155930,282.056244 105.155930,287.303986 105.155930,292.560425 
	C111.189095,292.560425 116.772972,292.560425 122.864197,292.560425 
	C122.864197,287.712677 122.864197,283.128265 122.864197,278.323914 
	C125.307510,278.129944 127.421898,278.396271 129.190292,277.735992 
	C133.568329,276.101349 136.241959,278.037994 139.072754,281.094513 
	C145.069534,287.569519 151.499344,293.643097 157.509415,300.106445 
	C159.906036,302.683807 161.736374,303.165619 165.087326,301.498962 
	C213.306213,277.516968 233.085007,218.827698 208.878143,170.746552 
	C199.733261,152.582458 186.150024,138.628754 170.079712,129.779556 
	C162.297516,136.753693 155.133530,142.986404 148.217331,149.482925 
	C146.067032,151.502716 144.437988,152.356995 141.318466,151.358688 
	C128.280380,147.186142 115.051125,147.212555 102.015816,151.305557 
	C98.642113,152.364899 96.991432,151.358536 94.731705,149.235703 
	C87.944153,142.859360 80.878677,136.778885 73.349953,130.073837 
	C63.121727,135.625595 53.013363,144.371002 44.220604,155.756226 
z"/>
<path fill="#08569D" opacity="1.000000" stroke="none" 
	d="
M44.447929,155.479172 
	C53.013363,144.371002 63.121727,135.625595 73.349953,130.073837 
	C80.878677,136.778885 87.944153,142.859360 94.731705,149.235703 
	C96.991432,151.358536 98.642113,152.364899 102.015816,151.305557 
	C115.051125,147.212555 128.280380,147.186142 141.318466,151.358688 
	C144.437988,152.356995 146.067032,151.502716 148.217331,149.482925 
	C155.133530,142.986404 162.297516,136.753693 170.079712,129.779556 
	C186.150024,138.628754 199.733261,152.582458 208.878143,170.746552 
	C233.085007,218.827698 213.306213,277.516968 165.087326,301.498962 
	C161.736374,303.165619 159.906036,302.683807 157.509415,300.106445 
	C151.499344,293.643097 145.069534,287.569519 139.072754,281.094513 
	C136.241959,278.037994 133.568329,276.101349 129.190292,277.735992 
	C127.421898,278.396271 125.307510,278.129944 122.864197,278.323914 
	C122.864197,283.128265 122.864197,287.712677 122.864197,292.560425 
	C116.772972,292.560425 111.189095,292.560425 105.155930,292.560425 
	C105.155930,287.303986 105.155930,282.056244 105.155930,276.571045 
	C103.830200,276.038025 102.817818,275.572662 101.768173,275.217377 
	C69.794106,264.395844 51.734493,234.657181 56.771336,201.411194 
	C57.040863,199.632156 56.209682,197.240387 55.063187,195.786621 
	C52.749348,192.852692 49.865608,190.368195 47.058182,187.538300 
	C37.303703,212.015366 40.610497,241.573395 62.160011,264.703613 
	C57.790031,268.706390 53.406765,272.721344 49.023407,276.736389 
	C20.361086,247.754868 14.572628,195.332291 44.447929,155.479172 
M38.878468,207.448318 
	C41.151718,182.697311 52.600708,163.096298 71.253029,148.308334 
	C76.533363,153.097641 81.435692,157.544083 86.390793,162.038406 
	C39.007030,196.993103 58.230675,261.371643 108.202011,273.922394 
	C108.202011,278.857208 108.202011,283.941132 108.202011,288.962646 
	C112.164505,288.962646 115.571739,288.962646 119.419846,288.962646 
	C119.419846,284.175903 119.419846,279.742828 119.419846,275.134796 
	C138.824265,274.679810 155.072632,268.036652 168.331360,253.862991 
	C165.192307,250.763565 162.373016,247.979874 159.530457,245.173172 
	C148.321274,255.769958 135.826996,263.160919 119.695282,262.808411 
	C119.695282,256.730713 119.695282,251.349045 119.695282,245.409744 
	C126.310509,245.409744 132.552505,245.409744 138.675354,245.409744 
	C138.675354,241.921326 138.675354,239.008789 138.675354,235.594589 
	C132.108673,235.594589 125.876068,235.594589 119.604233,235.594589 
	C119.604233,230.821945 119.604233,226.567963 119.604233,221.899750 
	C126.165070,221.899750 132.432800,221.899750 138.822174,221.899750 
	C138.822174,218.936890 138.822174,216.401688 138.822174,213.852295 
	C128.505646,213.852295 118.564201,213.852295 108.003128,213.852295 
	C108.003128,229.433807 108.003128,244.779907 108.003128,260.223389 
	C89.931236,256.869781 74.927544,240.838593 71.401375,221.665115 
	C67.894783,202.597992 77.591141,181.169449 94.083153,171.141205 
	C103.490517,180.066742 112.851273,188.948074 122.459793,198.064484 
	C130.936249,189.149521 139.596375,180.041367 149.993759,169.106079 
	C155.670578,174.853485 160.865723,180.113220 166.060852,185.372955 
	C165.640396,185.892853 165.219925,186.412735 164.799469,186.932632 
	C167.636566,184.459671 170.473663,181.986710 175.040344,178.006149 
	C168.768906,172.380447 163.004974,167.209976 157.028229,161.848602 
	C161.709137,157.297501 166.416656,152.720520 171.124664,148.143478 
	C184.659348,156.606796 196.859238,174.324615 201.617569,193.513245 
	C208.089722,219.613068 203.017365,243.324219 185.580856,263.789215 
	C188.874695,267.103271 191.767822,270.014160 194.660873,272.924988 
	C232.106644,229.247513 217.851532,159.849808 170.349731,134.247757 
	C162.864594,140.985565 155.741440,147.277145 148.780502,153.743347 
	C146.908920,155.481903 145.494827,156.298508 142.728622,155.324661 
	C128.747955,150.402618 114.601273,150.491348 100.613327,155.252808 
	C97.635406,156.266479 96.091377,155.524200 94.204933,153.502701 
	C87.856613,146.699890 81.369087,140.026978 75.017090,133.390335 
	C23.052290,162.762863 13.379594,233.377762 49.226944,271.493011 
	C51.947376,269.192963 54.680874,266.881866 57.349689,264.625458 
	C42.183891,244.424164 36.988209,228.504318 38.878468,207.448318 
M152.821716,178.585007 
	C151.519165,177.591904 150.216614,176.598816 148.649261,175.403839 
	C143.567657,180.740921 138.679565,185.874771 133.678650,191.127106 
	C152.978958,211.001816 171.931793,230.518723 191.012543,250.167358 
	C213.111389,214.130173 194.390717,167.665863 171.621201,152.921387 
	C168.447174,155.958405 165.365036,158.907516 162.572983,161.579041 
	C167.708954,167.441956 172.905426,173.373917 178.362305,179.603165 
	C172.939499,184.306488 168.338135,188.297379 164.056976,192.010529 
	C160.320145,187.489166 156.839798,183.278107 152.821716,178.585007 
M83.927673,241.534042 
	C89.455238,248.184372 96.183685,253.064636 104.449173,255.861664 
	C105.822311,249.776932 104.787254,245.013748 99.846756,241.036331 
	C95.850952,237.819458 92.535553,233.758255 88.912468,230.077362 
	C84.286011,225.377090 79.653679,220.682587 74.127899,215.076599 
	C74.849609,225.564575 77.814453,233.760620 83.927673,241.534042 
z"/>
<path fill="#F8BB13" opacity="1.000000" stroke="none" 
	d="
M38.844364,207.897400 
	C36.988209,228.504318 42.183891,244.424164 57.349689,264.625458 
	C54.680874,266.881866 51.947376,269.192963 49.226944,271.493011 
	C13.379594,233.377762 23.052290,162.762863 75.017090,133.390335 
	C81.369087,140.026978 87.856613,146.699890 94.204933,153.502701 
	C96.091377,155.524200 97.635406,156.266479 100.613327,155.252808 
	C114.601273,150.491348 128.747955,150.402618 142.728622,155.324661 
	C145.494827,156.298508 146.908920,155.481903 148.780502,153.743347 
	C155.741440,147.277145 162.864594,140.985565 170.349731,134.247757 
	C217.851532,159.849808 232.106644,229.247513 194.660873,272.924988 
	C191.767822,270.014160 188.874695,267.103271 185.580856,263.789215 
	C203.017365,243.324219 208.089722,219.613068 201.617569,193.513245 
	C196.859238,174.324615 184.659348,156.606796 171.124420,148.143494 
	C166.416656,152.720520 161.709137,157.297501 157.028229,161.848602 
	C163.004974,167.209976 168.768906,172.380447 175.040344,178.006149 
	C170.473663,181.986710 167.636566,184.459671 164.799469,186.932632 
	C165.219925,186.412735 165.640396,185.892853 166.060852,185.372955 
	C160.865723,180.113220 155.670578,174.853485 149.993759,169.106079 
	C139.596375,180.041367 130.936249,189.149521 122.459793,198.064484 
	C112.851273,188.948074 103.490517,180.066742 94.083153,171.141205 
	C77.591141,181.169449 67.894783,202.597992 71.401375,221.665115 
	C74.927544,240.838593 89.931236,256.869781 108.003128,260.223389 
	C108.003128,244.779907 108.003128,229.433807 108.003128,213.852295 
	C118.564201,213.852295 128.505646,213.852295 138.822174,213.852295 
	C138.822174,216.401688 138.822174,218.936890 138.822174,221.899750 
	C132.432800,221.899750 126.165070,221.899750 119.604233,221.899750 
	C119.604233,226.567963 119.604233,230.821945 119.604233,235.594589 
	C125.876068,235.594589 132.108673,235.594589 138.675354,235.594589 
	C138.675354,239.008789 138.675354,241.921326 138.675354,245.409744 
	C132.552505,245.409744 126.310509,245.409744 119.695282,245.409744 
	C119.695282,251.349045 119.695282,256.730713 119.695282,262.808411 
	C135.826996,263.160919 148.321274,255.769958 159.530457,245.173172 
	C162.373016,247.979874 165.192307,250.763565 168.331360,253.862991 
	C155.072632,268.036652 138.824265,274.679810 119.419846,275.134796 
	C119.419846,279.742828 119.419846,284.175903 119.419846,288.962646 
	C115.571739,288.962646 112.164505,288.962646 108.202011,288.962646 
	C108.202011,283.941132 108.202011,278.857208 108.202011,273.922394 
	C58.230675,261.371643 39.007030,196.993103 86.390793,162.038406 
	C81.435692,157.544083 76.533363,153.097641 71.253029,148.308334 
	C52.600708,163.096298 41.151718,182.697311 38.844364,207.897400 
M106.428413,165.964447 
	C111.776306,170.873398 117.124199,175.782349 122.815689,181.006683 
	C127.123245,176.490005 132.024170,171.351166 137.264359,165.856583 
	C126.326225,162.356186 116.400620,162.036255 106.428413,165.964447 
z"/>
<path fill="#FCFDFD" opacity="1.000000" stroke="none" 
	d="
M153.090576,178.826035 
	C156.839798,183.278107 160.320145,187.489166 164.056976,192.010529 
	C168.338135,188.297379 172.939499,184.306488 178.362305,179.603165 
	C172.905426,173.373917 167.708954,167.441956 162.572983,161.579041 
	C165.365036,158.907516 168.447174,155.958405 171.621201,152.921387 
	C194.390717,167.665863 213.111389,214.130173 191.012543,250.167358 
	C171.931793,230.518723 152.978958,211.001816 133.678650,191.127106 
	C138.679565,185.874771 143.567657,180.740921 148.649261,175.403839 
	C150.216614,176.598816 151.519165,177.591904 153.090576,178.826035 
z"/>
<path fill="#F8FAFC" opacity="1.000000" stroke="none" 
	d="
M83.696884,241.263565 
	C77.814453,233.760620 74.849609,225.564575 74.127899,215.076599 
	C79.653679,220.682587 84.286011,225.377090 88.912468,230.077362 
	C92.535553,233.758255 95.850952,237.819458 99.846756,241.036331 
	C104.787254,245.013748 105.822311,249.776932 104.449173,255.861664 
	C96.183685,253.064636 89.455238,248.184372 83.696884,241.263565 
z"/>
<path fill="#115A9C" opacity="1.000000" stroke="none" 
	d="
M106.431870,165.597870 
	C116.400620,162.036255 126.326225,162.356186 137.264359,165.856583 
	C132.024170,171.351166 127.123245,176.490005 122.815689,181.006683 
	C117.124199,175.782349 111.776306,170.873398 106.431870,165.597870 
M118.609375,173.824738 
	C119.649139,174.816650 120.688904,175.808578 122.001801,177.061066 
	C124.900764,173.888443 127.574799,170.961990 131.139435,167.060867 
	C124.197960,167.060867 118.693840,167.060867 113.189720,167.060867 
	C112.881882,167.634109 112.574043,168.207352 112.266205,168.780609 
	C114.218124,170.295731 116.170044,171.810867 118.609375,173.824738 
z"/>
<path fill="#EEF3F8" opacity="1.000000" stroke="none" 
	d="
M118.365677,173.575378 
	C116.170044,171.810867 114.218124,170.295731 112.266205,168.780609 
	C112.574043,168.207352 112.881882,167.634109 113.189720,167.060867 
	C118.693840,167.060867 124.197960,167.060867 131.139435,167.060867 
	C127.574799,170.961990 124.900764,173.888443 122.001801,177.061066 
	C120.688904,175.808578 119.649139,174.816650 118.365677,173.575378 
z"/>
</svg>