<svg version="1.1" id="Layer_1" xmlns="http://www.w3.org/2000/svg" xmlns:xlink="http://www.w3.org/1999/xlink" x="0px" y="0px"
	 width="100%" viewBox="0 0 221 281" enable-background="new 0 0 221 281" xml:space="preserve">
<path fill="#FDFDFD" opacity="1.000000" stroke="none" 
	d="
M1.000000,106.000000 
	C1.000000,70.666672 1.000000,35.833344 1.000000,1.000009 
	C74.666649,1.000006 148.333298,1.000006 221.999969,1.000003 
	C221.999969,94.666649 221.999969,188.333298 221.999985,281.999939 
	C148.333359,281.999969 74.666733,281.999969 1.000049,282.000000 
	C1.000000,223.500000 1.000000,165.000000 1.000000,106.000000 
M151.018936,43.283718 
	C150.678604,43.006226 150.338287,42.728737 149.885101,42.123066 
	C149.512741,42.036053 149.140366,41.949043 147.789780,41.704468 
	C144.291260,43.826984 143.933472,38.991856 141.338654,38.793148 
	C141.338654,38.793148 141.227020,38.862366 141.824524,38.189529 
	C137.845642,35.227406 136.875809,35.365311 136.194489,38.979656 
	C136.194489,38.979656 136.108139,39.090298 135.293457,38.311958 
	C131.500244,40.296467 128.060989,39.708462 124.798653,36.865578 
	C124.798653,36.865578 124.676674,36.507114 124.695457,35.631435 
	C122.889832,35.140179 121.041748,34.123714 119.287315,34.265575 
	C115.481056,34.573338 114.312584,32.721130 113.942184,29.299059 
	C115.653023,29.132809 117.068382,28.995274 118.483734,28.857737 
	C118.783882,28.371271 119.084023,27.884806 119.384163,27.398340 
	C117.835365,26.172819 116.286568,24.947296 114.085739,23.205839 
	C114.059952,22.889318 113.941826,21.439194 113.918869,19.338480 
	C113.608757,19.129520 113.298637,18.920559 112.098694,18.408047 
	C110.849174,20.247425 109.599648,22.086802 108.130394,24.249647 
	C107.355011,24.882727 106.021614,25.844704 104.877052,26.994638 
	C104.589493,27.283552 104.907600,28.175310 104.947701,28.795195 
	C106.647415,29.035812 108.019814,29.230095 109.392212,29.424376 
	C109.639885,29.869696 109.887558,30.315016 110.135239,30.760336 
	C108.117401,32.350201 106.099564,33.940067 103.921043,35.645676 
	C103.921043,35.645676 103.635109,35.901299 103.519760,34.802853 
	C102.802368,35.165836 102.084976,35.528820 101.250252,35.894852 
	C101.250252,35.894852 101.164520,35.995739 100.392967,35.246807 
	C97.281029,37.016052 94.169083,38.785297 91.186012,40.481274 
	C85.744980,34.406162 82.887222,34.896164 79.745514,41.699394 
	C79.615273,41.981419 78.548058,41.830746 77.706757,41.665543 
	C77.289841,41.752232 76.872925,41.838924 75.493500,41.761082 
	C73.704514,42.345287 71.125877,42.351868 72.917358,45.444233 
	C72.917358,45.444233 72.871750,45.321720 72.061729,44.849388 
	C70.183578,45.663040 68.305420,46.476688 66.107910,47.387119 
	C65.838615,47.729404 65.569328,48.071693 64.972458,49.168396 
	C64.631874,50.641197 64.291298,52.113995 63.358131,53.760769 
	C62.963520,54.187325 62.568905,54.613880 61.637226,55.552071 
	C61.681828,57.653244 61.726425,59.754421 61.872711,61.888165 
	C61.872711,61.888165 61.853985,61.783051 61.195534,61.168194 
	C58.425018,64.224533 58.378910,64.824097 60.689537,66.838936 
	C60.689537,66.838936 60.702126,67.059975 60.113567,67.382805 
	C60.072540,67.817268 60.031513,68.251740 59.467106,68.976685 
	C58.054317,71.754951 57.962631,74.264908 61.004230,76.920776 
	C62.059044,78.745094 62.859619,81.888329 64.215706,82.149727 
	C68.512482,82.977989 71.996574,84.183708 73.713814,88.622948 
	C73.986778,89.328583 75.328850,89.620659 76.056473,90.783981 
	C75.408310,92.039604 74.760139,93.295219 74.065262,94.641335 
	C75.647202,95.154099 76.905991,95.562119 78.044785,96.714333 
	C78.044785,99.338921 78.044785,101.963509 78.044785,105.022224 
	C76.223152,106.163567 73.848145,107.651627 70.930435,109.479721 
	C70.103424,108.456245 69.332649,107.374474 68.435158,106.410713 
	C53.680576,90.566628 38.910751,74.736740 24.142076,58.905781 
	C22.468283,57.111599 21.173624,55.714119 21.896881,52.528137 
	C23.144390,47.032806 16.912779,42.286892 12.421948,45.388184 
	C8.885763,47.830212 5.602222,51.889980 4.250590,55.917244 
	C2.665976,60.638683 6.934064,63.113686 11.348414,64.184746 
	C10.978044,65.860565 10.706194,67.150375 10.407304,68.433899 
	C6.884768,83.560623 3.221287,98.950172 6.771682,114.313965 
	C9.379209,125.597626 9.372529,136.288391 6.685041,147.280930 
	C6.253689,149.045273 6.154108,150.894028 5.944723,152.708801 
	C4.688439,163.597122 8.969634,173.177078 12.682711,183.014023 
	C15.094424,189.403320 18.713934,194.146835 24.421343,197.886520 
	C33.591351,203.895004 40.366665,212.212067 46.492878,221.325729 
	C50.289875,226.974335 54.979782,233.167038 60.790356,236.067215 
	C71.219299,241.272537 79.677444,248.440704 87.346046,256.718506 
	C91.263733,260.947388 95.793190,263.380737 101.131302,263.778290 
	C107.204849,264.230530 113.483017,264.358032 119.451141,263.335815 
	C135.510025,260.585297 149.265884,252.394135 162.661621,243.601089 
	C167.210144,240.615372 171.721573,237.573166 176.379929,234.470200 
	C185.644455,243.657898 194.606613,252.545715 203.667038,261.530975 
	C206.774261,259.480164 209.898132,257.418365 214.318527,254.500854 
	C204.672256,245.516968 195.600128,237.067795 185.438370,227.603821 
	C197.031372,222.436050 207.224976,217.892075 217.752304,213.199341 
	C209.541382,205.061630 201.275620,196.869583 192.933258,188.069870 
	C192.033401,187.378357 191.133545,186.686844 189.875183,185.406067 
	C187.943573,183.840714 186.208664,181.882767 184.037720,180.795090 
	C180.025040,178.784683 179.671188,175.832047 180.228287,171.845352 
	C181.826218,160.410675 179.806580,149.381851 175.428543,138.797058 
	C169.256836,123.875732 158.806702,112.670311 145.911758,105.274689 
	C145.626389,101.579880 145.411758,98.801056 145.813156,95.884209 
	C146.966385,95.449242 148.119614,95.014275 149.384399,94.537231 
	C148.570999,92.956627 147.845978,91.547745 147.787323,89.918900 
	C149.566391,87.929787 151.345459,85.940681 153.668488,83.343384 
	C158.902359,84.361107 162.144302,81.172096 164.032669,74.903595 
	C163.737183,70.580772 163.441681,66.257957 162.863480,61.146069 
	C161.097549,56.794159 159.331635,52.442249 157.231445,47.599804 
	C156.521011,47.315933 155.810577,47.032059 154.633728,46.306671 
	C153.790482,46.193855 152.947250,46.081039 152.069839,45.949123 
	C152.069839,45.949123 152.066528,45.910114 152.182693,45.320045 
	C151.875702,44.845898 151.568726,44.371750 151.018936,43.283718 
z"/>
<path fill="#120F0C" opacity="1.000000" stroke="none" 
	d="
M145.197144,96.022224 
	C145.411758,98.801056 145.626389,101.579880 145.911758,105.274689 
	C158.806702,112.670311 169.256836,123.875732 175.428543,138.797058 
	C179.806580,149.381851 181.826218,160.410675 180.228287,171.845352 
	C179.671188,175.832047 180.025040,178.784683 184.037720,180.795090 
	C186.208664,181.882767 187.943573,183.840714 189.907593,186.037537 
	C187.298203,185.754471 184.656387,184.839935 181.987823,183.574249 
	C176.635635,179.499832 171.310181,175.776581 165.917007,171.710938 
	C163.243927,169.862244 160.638550,168.355927 158.013519,166.495911 
	C154.673492,162.311981 151.431992,158.407318 147.956238,154.723694 
	C147.366516,154.098709 145.755402,154.244324 144.641281,154.336746 
	C131.281296,155.444702 119.021591,159.784119 107.971458,167.335663 
	C98.926666,173.516769 90.498032,180.739197 81.002251,186.091263 
	C61.946766,196.831421 42.488937,198.163315 23.816118,184.770889 
	C19.694859,181.815048 16.265903,177.893967 12.351193,174.262466 
	C13.338782,181.399307 17.328974,189.663971 21.673634,193.161774 
	C25.423206,196.180511 29.261269,199.119080 33.288532,201.742615 
	C34.317394,202.412857 36.242725,201.934525 37.702179,201.677368 
	C44.510921,200.477600 51.281376,198.310623 58.103088,198.156937 
	C64.247719,198.018509 70.441109,200.044449 76.729858,201.449554 
	C79.613602,203.509918 82.380470,205.236526 85.269310,207.269165 
	C89.020172,211.749969 92.649063,215.924744 96.326218,220.425171 
	C97.548492,222.845352 98.722511,224.939880 99.915298,227.440613 
	C100.702736,232.561523 101.471413,237.276245 102.156693,242.419556 
	C101.813477,245.832993 101.553665,248.817841 101.164276,252.184875 
	C97.971123,262.046967 97.974159,261.916931 107.888565,262.148499 
	C124.035759,262.525696 137.985016,255.992355 151.296722,248.038940 
	C164.533401,240.130356 177.142105,231.171509 190.369751,223.246658 
	C197.386765,219.042694 205.133072,216.056030 213.021133,212.295303 
	C210.967682,210.483307 209.011108,208.756805 207.035156,206.682983 
	C204.423096,204.140381 201.830399,201.945129 199.191833,199.404984 
	C196.343735,195.999573 193.541519,192.939072 190.883865,189.560684 
	C191.688919,189.054382 192.349411,188.865952 193.009888,188.677551 
	C201.275620,196.869583 209.541382,205.061630 217.752304,213.199341 
	C207.224976,217.892075 197.031372,222.436050 185.438370,227.603821 
	C195.600128,237.067795 204.672256,245.516968 214.318527,254.500854 
	C209.898132,257.418365 206.774261,259.480164 203.667038,261.530975 
	C194.606613,252.545715 185.644455,243.657898 176.379929,234.470200 
	C171.721573,237.573166 167.210144,240.615372 162.661621,243.601089 
	C149.265884,252.394135 135.510025,260.585297 119.451141,263.335815 
	C113.483017,264.358032 107.204849,264.230530 101.131302,263.778290 
	C95.793190,263.380737 91.263733,260.947388 87.346046,256.718506 
	C79.677444,248.440704 71.219299,241.272537 60.790356,236.067215 
	C54.979782,233.167038 50.289875,226.974335 46.492878,221.325729 
	C40.366665,212.212067 33.591351,203.895004 24.421343,197.886520 
	C18.713934,194.146835 15.094424,189.403320 12.682711,183.014023 
	C8.969634,173.177078 4.688439,163.597122 5.944723,152.708801 
	C6.154108,150.894028 6.253689,149.045273 6.685041,147.280930 
	C9.372529,136.288391 9.379209,125.597626 6.771682,114.313965 
	C3.221287,98.950172 6.884768,83.560623 10.407304,68.433899 
	C10.706194,67.150375 10.978044,65.860565 11.348414,64.184746 
	C6.934064,63.113686 2.665976,60.638683 4.250590,55.917244 
	C5.602222,51.889980 8.885763,47.830212 12.421948,45.388184 
	C16.912779,42.286892 23.144390,47.032806 21.896881,52.528137 
	C21.173624,55.714119 22.468283,57.111599 24.142076,58.905781 
	C38.910751,74.736740 53.680576,90.566628 68.435158,106.410713 
	C69.332649,107.374474 70.103424,108.456245 70.930435,109.479721 
	C73.848145,107.651627 76.223152,106.163567 78.044785,105.022224 
	C78.044785,101.963509 78.044785,99.338921 78.447807,96.315628 
	C79.982841,95.182114 81.114853,94.447304 82.600479,93.732224 
	C86.271698,92.538368 89.589317,91.324783 93.288704,90.069305 
	C95.338745,89.664574 97.007027,89.301727 99.141922,89.048775 
	C103.131966,88.794037 106.655380,88.429398 110.410248,88.070679 
	C111.085434,88.072289 111.529182,88.067986 112.442947,88.108459 
	C116.628700,88.439026 120.344421,88.724823 124.438644,89.045593 
	C126.526695,89.360176 128.236252,89.639786 130.085602,90.270081 
	C133.832916,91.673225 137.440445,92.725693 141.345490,93.940048 
	C142.827713,94.742027 144.012421,95.382126 145.197144,96.022224 
M26.410664,183.177460 
	C26.734661,183.365326 27.058659,183.553192 27.903595,184.162811 
	C31.930830,186.363327 35.958065,188.563843 40.789948,190.883957 
	C43.025681,191.179184 45.261414,191.474426 47.460472,191.764816 
	C47.570278,191.267532 47.664036,191.098267 47.627602,190.964432 
	C47.455864,190.333679 47.268166,189.705658 47.050877,189.089127 
	C41.573711,173.548187 40.604893,157.700455 47.020451,142.478912 
	C50.158508,135.033569 48.755901,130.324432 43.692924,125.141518 
	C39.937763,121.297394 36.731224,116.917343 33.248055,112.041130 
	C29.831610,106.369537 26.415167,100.697952 22.955698,94.298828 
	C19.506004,86.793457 16.056309,79.288094 12.341785,71.206551 
	C9.154576,85.689873 5.843694,99.715363 9.045140,113.926224 
	C11.549916,125.044640 11.860306,135.795914 8.979722,146.786484 
	C4.972891,162.074158 12.654928,172.684464 23.563677,181.822311 
	C24.281834,182.423904 25.617313,182.288528 26.678566,182.555893 
	C26.678566,182.555893 26.679869,182.617233 26.410664,183.177460 
M109.531334,149.954041 
	C103.167023,142.364960 97.887856,134.228027 96.603683,122.612808 
	C89.167953,125.624962 82.069710,127.881424 75.589188,131.306610 
	C69.583588,134.480774 67.572792,140.307724 68.714828,147.090759 
	C70.961983,160.437592 79.522385,169.529114 88.955933,177.818253 
	C98.620949,171.282516 108.017006,164.928665 117.508438,158.510315 
	C114.994141,155.826492 112.496414,153.160370 109.531334,149.954041 
M139.905533,139.595093 
	C131.224686,133.000397 122.543846,126.405693 113.076782,119.213707 
	C118.999908,113.559753 124.785225,108.037354 130.500229,102.582062 
	C123.528015,98.918678 117.172470,99.743950 111.817627,106.117935 
	C109.253311,109.170288 106.535378,112.106392 104.143677,115.288078 
	C99.971756,120.837997 98.890587,127.262726 102.586380,133.060440 
	C107.635590,140.981293 113.649147,148.302963 119.519608,155.665985 
	C120.292297,156.635132 122.761772,156.833527 124.269638,156.526306 
	C128.974380,155.567749 133.589386,153.224075 138.249054,153.198242 
	C146.352280,153.153336 151.621048,149.179321 156.040176,143.236832 
	C158.318375,140.173309 160.548218,137.045868 162.482315,133.760361 
	C166.298706,127.277321 164.781448,123.038170 157.509567,119.489304 
	C155.910767,128.859268 151.462891,136.628845 144.333954,143.228592 
	C142.991974,142.133728 141.719482,141.095551 139.905533,139.595093 
M97.797272,256.056396 
	C103.109535,235.981232 96.992683,218.060226 81.353065,207.185776 
	C68.145180,198.002151 47.767166,197.605225 37.245571,204.872910 
	C41.400826,210.842728 45.521755,216.832596 49.716553,222.770294 
	C53.895561,228.685638 58.718967,233.716522 65.890144,236.209122 
	C69.678642,237.525955 73.700943,239.211273 76.589073,241.854263 
	C82.113647,246.909836 86.855896,252.813736 92.041679,258.252228 
	C92.962311,259.217712 94.458908,259.634033 95.944077,260.442474 
	C96.601189,258.876648 97.038559,257.834412 97.797272,256.056396 
M68.865662,157.571167 
	C67.235542,151.485397 65.605431,145.399643 63.983265,139.343536 
	C51.133770,143.871643 46.005985,150.702194 46.086029,164.298431 
	C46.112301,168.761078 46.158112,173.382156 47.267849,177.651932 
	C51.650021,194.512604 49.379871,194.007187 67.092979,189.776413 
	C74.099869,188.102814 80.614586,184.884155 85.432770,180.819290 
	C79.756462,172.970108 74.443535,165.623428 68.865662,157.571167 
M92.908844,102.218010 
	C71.799942,109.030182 57.524151,122.950211 49.507118,143.558456 
	C56.263866,139.767395 63.508812,136.879700 69.272507,132.176697 
	C76.828384,126.011322 85.206863,122.788734 94.443062,120.891190 
	C95.823509,120.607590 97.568642,120.112167 98.324875,119.101196 
	C103.036263,112.802696 107.514114,106.329498 112.677650,99.057579 
	C106.225433,100.072937 99.965027,101.058121 92.908844,102.218010 
M42.576744,119.903809 
	C45.516819,123.572342 48.456894,127.240883 51.431412,130.952393 
	C55.138477,126.033676 58.513340,121.555748 61.882530,117.074883 
	C51.740517,103.699287 18.393608,69.631195 15.126049,69.411629 
	C20.832905,87.873787 30.532961,104.118828 42.576744,119.903809 
M177.116440,171.158661 
	C178.302826,156.876953 175.541214,143.543839 168.225555,131.733093 
	C162.559647,139.228592 156.998413,146.585617 151.301483,154.122177 
	C155.790100,161.216629 169.682327,172.829437 176.696365,174.917435 
	C176.819595,173.930328 176.936234,172.995972 177.116440,171.158661 
M55.414585,97.088585 
	C42.609863,83.366234 29.805143,69.643883 17.047926,55.972435 
	C17.525358,55.146301 17.950979,54.741844 17.970259,54.318871 
	C18.052935,52.505013 18.627348,50.296188 17.805714,49.006599 
	C17.266380,48.160088 13.838351,47.882282 13.108671,48.662868 
	C10.744618,51.191826 8.927848,54.270908 7.237693,57.324841 
	C7.087602,57.596035 9.286306,59.387600 10.574050,60.181026 
	C12.384207,61.296341 14.819113,61.705994 16.199484,63.163242 
	C31.417967,79.229347 46.480392,95.443237 61.598564,111.604500 
	C62.568203,112.641037 63.648930,113.573669 64.798752,114.669769 
	C66.125732,113.466110 67.194107,112.497025 68.560791,111.257355 
	C64.229942,106.583916 60.066608,102.091255 55.414585,97.088585 
M110.661186,96.304199 
	C120.397614,96.376816 129.796463,98.062515 138.841736,101.801628 
	C139.882156,102.231720 141.516708,101.224594 142.875793,100.883835 
	C142.219086,99.758240 141.826508,98.002335 140.866669,97.600082 
	C121.533615,89.498024 102.111389,89.517853 82.753494,97.514412 
	C81.748512,97.929558 81.273865,99.628510 80.552307,100.729767 
	C81.907921,101.127853 83.375687,102.081749 84.601089,101.834496 
	C93.017960,100.136208 101.384117,98.186539 110.661186,96.304199 
M141.010941,136.403152 
	C142.044418,137.199112 143.077896,137.995071 145.096893,139.550034 
	C147.924469,134.046005 151.075714,129.150925 153.031189,123.817429 
	C156.025436,115.650688 155.279785,114.601181 146.208954,109.770569 
	C146.803772,112.450462 147.206802,114.266258 147.601593,116.044937 
	C145.868103,116.247566 144.235016,116.438461 142.601929,116.629356 
	C143.320175,118.351295 144.038437,120.073242 145.160110,122.762321 
	C142.850449,121.902367 141.345886,121.342178 139.669250,120.717918 
	C138.899796,121.934273 138.209366,123.025688 138.003922,123.350464 
	C139.311279,126.097267 140.327820,128.233078 141.344376,130.368881 
	C139.254837,129.517014 137.165298,128.665161 133.912338,127.338989 
	C134.394547,129.118805 134.369919,130.647781 135.120590,131.461639 
	C136.685699,133.158447 138.660706,134.477219 141.010941,136.403152 
M135.327805,113.273872 
	C136.764877,113.846985 138.201950,114.420105 139.639023,114.993217 
	C139.639023,113.103943 139.639023,111.214676 139.639023,109.111229 
	C140.909195,109.297737 142.323654,109.505440 143.738098,109.713142 
	C143.861679,109.295135 143.985260,108.877129 144.108856,108.459122 
	C141.094025,106.560341 138.424896,103.452950 134.036819,105.502777 
	C127.447594,108.580826 122.355972,113.429947 118.036804,119.368904 
	C122.415657,122.337975 126.469666,125.086792 130.449005,127.784966 
	C135.487625,123.000809 125.563065,122.899933 128.664062,118.359573 
	C130.607971,119.543098 132.558960,120.730934 134.738770,122.058075 
	C135.628723,120.728592 136.417267,119.550583 136.442871,119.512344 
	C135.601898,116.737503 135.086273,115.036125 135.327805,113.273872 
M205.056564,256.815033 
	C206.031357,256.057129 207.006165,255.299225 208.314056,254.282364 
	C199.737076,246.075287 191.472916,238.167557 182.974747,230.035889 
	C182.071396,230.692444 180.809067,231.609879 178.519592,233.273834 
	C185.290314,239.722351 191.628998,245.821854 198.047897,251.835754 
	C200.044724,253.706619 202.258759,255.345657 205.056564,256.815033 
z"/>
<path fill="#F8F8F8" opacity="1.000000" stroke="none" 
	d="
M99.896530,227.034393 
	C98.722511,224.939880 97.548492,222.845352 96.674530,220.369934 
	C101.795975,217.828522 106.845032,216.060089 111.388901,213.421646 
	C119.540672,208.688202 127.332375,203.339645 135.376190,198.414154 
	C149.683380,189.653473 164.674774,182.978287 182.014557,183.925415 
	C184.656387,184.839935 187.298203,185.754471 190.086853,186.332153 
	C191.133545,186.686844 192.033401,187.378357 192.971573,188.373703 
	C192.349411,188.865952 191.688919,189.054382 190.460205,189.560425 
	C187.740494,190.084167 185.576096,190.201035 183.439590,190.510559 
	C167.149078,192.870651 153.038239,200.574936 138.780396,208.207672 
	C126.094994,214.998611 112.878578,220.797607 99.896530,227.034393 
z"/>
<path fill="#110E03" opacity="1.000000" stroke="none" 
	d="
M104.081726,35.529934 
	C106.099564,33.940067 108.117401,32.350201 110.135239,30.760336 
	C109.887558,30.315016 109.639885,29.869696 109.392212,29.424376 
	C108.019814,29.230095 106.647415,29.035812 104.947701,28.795195 
	C104.907600,28.175310 104.589493,27.283552 104.877052,26.994638 
	C106.021614,25.844704 107.355011,24.882727 108.130394,24.249647 
	C109.599648,22.086802 110.849174,20.247425 112.611404,18.814556 
	C113.357300,19.477066 113.590492,19.733068 113.823700,19.989071 
	C113.941826,21.439194 114.059952,22.889318 114.085739,23.205839 
	C116.286568,24.947296 117.835365,26.172819 119.384163,27.398340 
	C119.084023,27.884806 118.783882,28.371271 118.483734,28.857737 
	C117.068382,28.995274 115.653023,29.132809 113.942184,29.299059 
	C114.312584,32.721130 115.481056,34.573338 119.287315,34.265575 
	C121.041748,34.123714 122.889832,35.140179 124.328682,36.458618 
	C123.352814,37.034481 122.602928,36.424175 122.160454,36.597706 
	C120.708427,37.167149 119.368034,38.021255 117.984741,38.765961 
	C118.729462,39.870285 119.474182,40.974606 120.218903,42.078926 
	C121.450905,41.099888 122.767662,40.206379 123.878761,39.105328 
	C124.425316,38.563709 124.591118,37.637856 124.929222,36.885876 
	C128.060989,39.708462 131.500244,40.296467 135.549347,39.119053 
	C136.591751,41.497368 137.378265,43.068588 138.164780,44.639809 
	C139.156616,43.295280 140.202087,41.985554 141.109833,40.586472 
	C141.409088,40.125221 141.352509,39.433105 141.458649,38.846558 
	C143.933472,38.991856 144.291260,43.826984 148.182648,42.259254 
	C148.232666,43.126450 147.825104,43.391911 147.558380,43.759552 
	C146.508621,45.206486 144.321182,47.213306 144.697495,48.056156 
	C145.947998,50.856918 148.142105,50.450119 150.093842,48.268135 
	C150.183929,48.167419 151.074707,48.782883 151.441864,49.485886 
	C151.355728,51.762486 151.420288,53.617985 150.989197,55.389549 
	C147.261292,52.612534 144.029037,49.919464 140.796768,47.226395 
	C140.999054,46.798569 141.201340,46.370739 141.403625,45.942913 
	C139.596039,46.663872 137.788452,47.384834 135.719269,48.540977 
	C133.632477,48.664516 131.807266,48.352867 129.848358,47.667812 
	C130.310287,45.699017 131.045578,44.128670 131.341324,42.479500 
	C131.382629,42.249168 128.421585,41.071777 128.280960,41.283401 
	C127.325760,42.720921 126.754471,44.413540 125.743408,46.354202 
	C122.426613,45.395100 119.425560,44.105553 115.263786,42.317238 
	C116.084854,44.365425 116.152702,45.238895 116.569145,45.462162 
	C119.926987,47.262398 121.253220,49.530228 118.800026,53.044205 
	C118.545395,53.408928 118.994774,54.201939 118.936310,54.777843 
	C118.695801,57.147083 118.385292,59.509216 117.975693,62.109314 
	C117.576180,62.560101 117.301498,62.775547 116.805725,62.821419 
	C116.004372,62.207119 115.424126,61.762390 115.004936,61.028412 
	C115.759148,59.070351 116.352310,57.401543 116.945473,55.732731 
	C116.604980,55.643517 116.264496,55.554302 115.924011,55.465084 
	C114.911812,56.662006 113.899612,57.858929 112.522339,59.057259 
	C110.852165,59.467083 109.547073,59.875500 108.187233,59.922867 
	C108.455833,58.289352 108.779182,57.016891 109.102524,55.744431 
	C108.852074,55.511631 108.601624,55.278831 108.351173,55.046032 
	C107.303986,56.174297 106.256798,57.302559 105.209610,58.430824 
	C106.191010,59.079826 107.172417,59.728828 108.419479,60.633881 
	C108.185623,61.290375 107.686111,61.690815 106.911987,61.979980 
	C106.123390,61.575520 105.609413,61.282333 104.778519,60.737362 
	C104.193352,54.637383 101.545853,48.349518 108.178345,43.776527 
	C107.845581,43.424316 107.512810,43.072109 107.180046,42.719898 
	C104.084572,44.136200 100.989098,45.552502 97.523392,46.738327 
	C97.257446,45.868965 97.674164,45.013603 97.408913,44.630772 
	C96.524147,43.353832 95.394936,42.246269 94.359390,41.073799 
	C93.407455,42.183838 92.455521,43.293873 91.503586,44.403908 
	C92.834015,45.244720 94.106239,46.209877 95.520386,46.871853 
	C96.188889,47.184792 97.129173,46.917156 97.982422,47.288769 
	C97.499245,48.810558 97.043404,49.990261 96.449020,51.095451 
	C94.525948,54.671146 92.551987,58.219467 90.524948,61.395584 
	C92.103889,56.961006 89.323044,55.653828 86.362244,54.112663 
	C86.339668,51.685455 86.339668,49.589684 86.339668,47.214520 
	C85.208008,46.956146 83.648758,46.600147 81.776581,46.172703 
	C81.417953,52.101364 76.238342,51.871033 72.656174,53.040657 
	C72.800652,51.612671 72.891678,50.797733 73.263870,49.582947 
	C75.219505,49.044365 76.893974,48.905628 78.568451,48.766888 
	C78.377975,47.244339 78.165352,45.724094 78.006332,44.198269 
	C77.926407,43.431305 77.943916,42.654186 77.917366,41.881660 
	C78.548058,41.830746 79.615273,41.981419 79.745514,41.699394 
	C82.887222,34.896164 85.744980,34.406162 91.186012,40.481274 
	C94.169083,38.785297 97.281029,37.016052 100.525253,36.073563 
	C100.732872,38.484737 100.601997,40.131649 101.048111,41.603695 
	C101.143539,41.918568 104.327522,41.817642 104.389404,41.535549 
	C104.718689,40.034279 104.534508,38.413258 104.465736,36.836403 
	C104.446526,36.396164 104.215553,35.965168 104.081726,35.529934 
M87.891739,45.352814 
	C88.336594,45.730904 88.781456,46.108990 89.226311,46.487080 
	C89.392395,46.251816 89.558479,46.016552 89.724564,45.781292 
	C89.088135,45.392357 88.451698,45.003422 87.481178,43.845181 
	C88.483505,41.368889 88.552208,39.078568 85.230240,38.845287 
	C84.258102,38.777020 82.316795,40.376602 82.283813,41.266045 
	C82.169357,44.352158 84.190895,45.044559 86.926300,44.269119 
	C87.125237,44.212723 87.439789,44.564167 87.891739,45.352814 
M93.687737,53.062302 
	C94.808006,50.585548 94.221092,48.563599 91.446281,48.367962 
	C90.458717,48.298332 88.377899,50.359180 88.439041,51.345684 
	C88.609749,54.099976 90.603836,54.759739 93.687737,53.062302 
M112.238510,41.226093 
	C113.044128,40.021027 114.245872,38.884823 114.472855,37.579163 
	C114.572548,37.005665 112.758942,35.654686 111.676544,35.472107 
	C110.915520,35.343739 109.075836,36.869297 109.177063,37.178326 
	C109.653214,38.631931 110.633598,39.920368 112.238510,41.226093 
M115.849113,48.927483 
	C115.849113,49.930275 115.849113,50.933067 115.849113,51.935860 
	C116.521042,51.755146 117.192963,51.574436 117.864891,51.393723 
	C117.383102,50.530685 116.901321,49.667652 115.849113,48.927483 
M108.028694,50.786148 
	C108.278152,50.233402 108.527611,49.680656 108.777077,49.127911 
	C107.632423,49.260761 106.487762,49.393612 105.343109,49.526463 
	C105.399605,49.888035 105.456100,50.249607 105.512596,50.611179 
	C106.133644,50.718739 106.754692,50.826302 108.028694,50.786148 
M111.635887,54.444717 
	C112.025139,53.557602 112.414391,52.670486 112.803642,51.783371 
	C112.382324,51.686729 111.961006,51.590092 111.539688,51.493454 
	C111.429535,52.315556 111.319389,53.137661 111.635887,54.444717 
M112.934265,46.361614 
	C112.583717,45.771648 112.233170,45.181686 111.882629,44.591721 
	C111.613724,45.099609 111.344826,45.607498 111.075928,46.115387 
	C111.644501,46.415482 112.213066,46.715576 112.934265,46.361614 
z"/>
<path fill="#110E03" opacity="1.000000" stroke="none" 
	d="
M59.990486,68.686203 
	C60.031513,68.251740 60.072540,67.817268 60.699150,66.879715 
	C63.438671,67.967278 65.544296,68.864098 67.489212,65.891937 
	C67.784340,65.646698 67.822029,65.430923 67.581902,64.826218 
	C66.989769,63.576340 66.522499,62.684898 66.039055,61.678017 
	C66.022881,61.562576 66.010178,61.329159 66.369614,61.221100 
	C70.150436,59.717533 69.495399,57.594353 67.913818,55.114403 
	C68.057365,54.948647 68.347069,54.619408 68.895515,54.656651 
	C70.502495,54.418285 71.561028,54.142677 72.654465,54.416203 
	C71.251053,59.564404 69.482597,64.098724 68.560692,68.799080 
	C68.254677,70.359306 70.124069,72.346199 71.000671,74.429245 
	C71.009155,75.108734 71.015862,75.497017 70.607849,75.900208 
	C68.289513,76.546204 66.385895,77.177284 64.482269,77.808372 
	C64.508163,78.400665 64.534058,78.992958 64.559952,79.585258 
	C69.048256,79.716606 73.536552,79.847954 78.103516,80.361572 
	C77.162445,82.331352 76.142715,83.918869 75.122986,85.506393 
	C76.867020,85.475830 78.670990,85.725380 80.344902,85.367157 
	C88.443329,83.634109 96.422501,81.012321 104.601555,80.061897 
	C118.360710,78.463028 131.808167,80.617760 144.691299,85.976379 
	C145.696609,86.394524 147.197327,85.621689 148.467773,85.402390 
	C147.987396,84.173019 147.641434,82.864220 146.978729,81.742584 
	C146.546585,81.011177 145.654236,80.551697 145.349579,79.656700 
	C153.280594,80.986748 156.809708,80.533882 158.784195,77.685745 
	C157.193283,77.076401 155.598343,76.465508 154.002838,75.549698 
	C154.002502,74.838196 154.002762,74.431618 154.131104,73.466995 
	C154.427597,71.026619 154.596008,69.144302 155.212997,67.547592 
	C156.207123,68.262848 156.752670,68.692497 157.267303,69.584503 
	C156.829849,74.979599 157.389877,75.450829 162.416016,74.439217 
	C163.015152,74.996994 163.255722,75.219101 163.496292,75.441208 
	C162.144302,81.172096 158.902359,84.361107 153.668488,83.343384 
	C151.345459,85.940681 149.566391,87.929787 147.058167,89.958771 
	C145.526367,89.927925 144.723709,89.857201 143.717529,89.515274 
	C139.958374,88.242218 136.402725,87.240379 132.536697,86.174423 
	C131.819519,85.993317 131.412704,85.876312 130.968567,85.495544 
	C130.305710,85.081078 129.680191,84.930382 128.787277,84.858574 
	C127.682045,84.875122 126.844215,84.812782 125.979401,84.511971 
	C125.401184,83.976753 124.849968,83.680016 123.885468,83.534348 
	C119.307198,83.618187 115.142212,83.550949 110.593452,83.237335 
	C106.833954,83.376183 103.458221,83.761421 99.658661,84.059341 
	C97.512711,84.010330 95.790588,84.048637 93.863228,84.134666 
	C93.382759,84.302322 93.209106,84.507980 93.006554,85.116440 
	C92.022209,85.693321 91.168327,85.953117 89.927650,86.026146 
	C86.155190,87.135399 82.769524,88.431427 78.981354,89.774612 
	C77.778114,89.915825 76.977386,90.009880 76.176651,90.103935 
	C75.328850,89.620659 73.986778,89.328583 73.713814,88.622948 
	C71.996574,84.183708 68.512482,82.977989 64.215706,82.149727 
	C62.859619,81.888329 62.059044,78.745094 61.087082,76.035736 
	C61.263783,74.819244 61.357632,74.487793 61.785797,74.350044 
	C64.674454,75.592239 66.756973,74.726501 66.629936,72.091515 
	C66.578560,71.026031 63.771820,70.093391 61.661484,68.998665 
	C60.732841,68.826752 60.361668,68.756477 59.990486,68.686203 
z"/>
<path fill="#DDC02F" opacity="1.000000" stroke="none" 
	d="
M151.592560,49.064789 
	C151.074707,48.782883 150.183929,48.167419 150.093842,48.268135 
	C148.142105,50.450119 145.947998,50.856918 144.697495,48.056156 
	C144.321182,47.213306 146.508621,45.206486 147.558380,43.759552 
	C147.825104,43.391911 148.232666,43.126450 148.671753,42.338036 
	C149.140366,41.949043 149.512741,42.036053 149.585632,42.448280 
	C149.265274,43.033031 149.244370,43.292568 149.252838,44.072792 
	C150.210327,45.032356 151.138428,45.471237 152.066528,45.910118 
	C152.066528,45.910114 152.069839,45.949123 151.575043,46.118660 
	C151.210342,47.231369 151.340408,48.174541 151.500214,49.099632 
	C151.529953,49.081551 151.592560,49.064789 151.592560,49.064789 
z"/>
<path fill="#161007" opacity="1.000000" stroke="none" 
	d="
M157.565704,48.090340 
	C159.331635,52.442249 161.097549,56.794159 162.508636,61.662270 
	C161.826523,62.272766 161.499252,62.367065 160.830841,62.296387 
	C159.195175,61.745422 157.900665,61.359444 157.034454,61.036079 
	C158.289932,59.691208 159.117096,58.283710 159.944275,56.876217 
	C158.293015,56.572628 156.641739,56.269035 154.970825,55.648045 
	C154.932983,55.119423 154.914764,54.908203 155.101105,54.446312 
	C155.636459,52.698105 155.967255,51.200565 156.632477,49.313614 
	C157.166504,48.646244 157.366104,48.368290 157.565704,48.090340 
z"/>
<path fill="#141581" opacity="1.000000" stroke="none" 
	d="
M76.116562,90.443954 
	C76.977386,90.009880 77.778114,89.915825 79.320358,89.814453 
	C81.203751,89.968300 82.345634,90.129471 83.542854,90.298447 
	C83.004410,91.716888 82.625641,92.714691 82.246872,93.712494 
	C81.114853,94.447304 79.982841,95.182114 78.507805,95.943535 
	C76.905991,95.562119 75.647202,95.154099 74.065262,94.641335 
	C74.760139,93.295219 75.408310,92.039604 76.116562,90.443954 
z"/>
<path fill="#141583" opacity="1.000000" stroke="none" 
	d="
M143.921051,89.786484 
	C144.723709,89.857201 145.526367,89.927925 146.724976,90.068756 
	C147.845978,91.547745 148.570999,92.956627 149.384399,94.537231 
	C148.119614,95.014275 146.966385,95.449242 145.505157,95.953217 
	C144.012421,95.382126 142.827713,94.742027 141.332336,93.582016 
	C140.696106,92.197762 140.370514,91.333427 139.973404,90.279160 
	C141.426605,90.097794 142.673828,89.942131 143.921051,89.786484 
z"/>
<path fill="#D8BC2E" opacity="1.000000" stroke="none" 
	d="
M72.619560,53.867065 
	C71.561028,54.142677 70.502495,54.418285 68.659554,54.373070 
	C67.540260,52.877205 67.311737,51.656578 66.834297,50.542637 
	C66.498009,49.758022 65.823524,49.118362 65.300041,48.413982 
	C65.569328,48.071693 65.838615,47.729404 66.281029,47.790939 
	C68.649185,48.801147 70.844231,49.407539 73.017860,50.018661 
	C72.996452,50.023392 72.982697,49.982792 72.982697,49.982792 
	C72.891678,50.797733 72.800652,51.612671 72.679260,53.058281 
	C72.648895,53.688950 72.619560,53.867065 72.619560,53.867065 
z"/>
<path fill="#E1C42F" opacity="1.000000" stroke="none" 
	d="
M77.812057,41.773602 
	C77.943916,42.654186 77.926407,43.431305 78.006332,44.198269 
	C78.165352,45.724094 78.377975,47.244339 78.568451,48.766888 
	C76.893974,48.905628 75.219505,49.044365 73.263863,49.582947 
	C72.982697,49.982792 72.996452,50.023392 73.433380,49.686264 
	C73.537453,48.006664 73.204605,46.664192 72.871750,45.321720 
	C72.871750,45.321720 72.917358,45.444233 73.277519,45.358208 
	C74.577126,44.156658 75.516563,43.041138 76.456009,41.925613 
	C76.872925,41.838924 77.289841,41.752232 77.812057,41.773602 
z"/>
<path fill="#E1C32F" opacity="1.000000" stroke="none" 
	d="
M124.863937,36.875725 
	C124.591118,37.637856 124.425316,38.563709 123.878761,39.105328 
	C122.767662,40.206379 121.450905,41.099888 120.218903,42.078926 
	C119.474182,40.974606 118.729462,39.870285 117.984741,38.765961 
	C119.368034,38.021255 120.708427,37.167149 122.160454,36.597706 
	C122.602928,36.424175 123.352814,37.034481 124.319290,36.896458 
	C124.676674,36.507114 124.798653,36.865578 124.863937,36.875725 
z"/>
<path fill="#D9BC2E" opacity="1.000000" stroke="none" 
	d="
M104.001389,35.587807 
	C104.215553,35.965168 104.446526,36.396164 104.465736,36.836403 
	C104.534508,38.413258 104.718689,40.034279 104.389404,41.535549 
	C104.327522,41.817642 101.143539,41.918568 101.048111,41.603695 
	C100.601997,40.131649 100.732872,38.484737 100.911026,36.448029 
	C101.164520,35.995739 101.250252,35.894852 101.875725,35.971428 
	C102.879166,35.999104 103.257141,35.950199 103.635109,35.901299 
	C103.635109,35.901299 103.921043,35.645676 104.001389,35.587807 
z"/>
<path fill="#D4B82D" opacity="1.000000" stroke="none" 
	d="
M141.398651,38.819851 
	C141.352509,39.433105 141.409088,40.125221 141.109833,40.586472 
	C140.202087,41.985554 139.156616,43.295280 138.164780,44.639809 
	C137.378265,43.068588 136.591751,41.497368 135.956696,39.508224 
	C136.108139,39.090298 136.194489,38.979656 136.750885,38.892410 
	C138.613876,38.824230 139.920441,38.843296 141.227020,38.862366 
	C141.227020,38.862366 141.338654,38.793148 141.398651,38.819851 
z"/>
<path fill="#DABD2E" opacity="1.000000" stroke="none" 
	d="
M66.055229,61.793457 
	C66.522499,62.684898 66.989769,63.576340 67.446487,64.994965 
	C67.435928,65.522156 67.384712,65.951889 67.384712,65.951889 
	C65.544296,68.864098 63.438671,67.967278 60.993431,66.718292 
	C60.702126,67.059975 60.689537,66.838936 61.033871,66.410690 
	C61.536800,64.582642 61.695393,63.182846 61.853985,61.783051 
	C61.853985,61.783051 61.872711,61.888165 62.175362,62.057281 
	C62.983479,62.064629 63.488945,61.902859 64.335602,61.794975 
	C65.136276,61.830395 65.595749,61.811924 66.055229,61.793457 
z"/>
<path fill="#110E03" opacity="1.000000" stroke="none" 
	d="
M161.171967,62.461365 
	C161.499252,62.367065 161.826523,62.272766 162.649994,62.056801 
	C163.441681,66.257957 163.737183,70.580772 163.764481,75.172401 
	C163.255722,75.219101 163.015152,74.996994 162.537064,74.105629 
	C163.502396,68.540344 160.156128,69.119453 157.189941,68.745720 
	C160.388550,67.640320 163.663177,67.036011 161.171967,62.461365 
z"/>
<path fill="#161007" opacity="1.000000" stroke="none" 
	d="
M61.451485,74.156334 
	C61.357632,74.487793 61.263783,74.819244 61.047405,75.652679 
	C57.962631,74.264908 58.054317,71.754951 59.728798,68.831444 
	C60.361668,68.756477 60.732841,68.826752 61.476822,69.296249 
	C61.716908,71.182434 61.584198,72.669380 61.451485,74.156334 
z"/>
<path fill="#110E03" opacity="1.000000" stroke="none" 
	d="
M72.466743,45.085556 
	C73.204605,46.664192 73.537453,48.006664 73.454788,49.681534 
	C70.844231,49.407539 68.649185,48.801147 66.440704,47.742546 
	C68.305420,46.476688 70.183578,45.663040 72.466743,45.085556 
z"/>
<path fill="#110E03" opacity="1.000000" stroke="none" 
	d="
M65.136246,48.791191 
	C65.823524,49.118362 66.498009,49.758022 66.834297,50.542637 
	C67.311737,51.656578 67.540260,52.877205 68.111107,54.335831 
	C68.347069,54.619408 68.057365,54.948647 67.588058,55.084045 
	C66.077988,55.430622 65.037216,55.641800 63.995506,55.475201 
	C63.979954,54.593880 63.965332,54.090336 63.950714,53.586796 
	C64.291298,52.113995 64.631874,50.641197 65.136246,48.791191 
z"/>
<path fill="#110E03" opacity="1.000000" stroke="none" 
	d="
M63.994411,61.741089 
	C63.488945,61.902859 62.983479,62.064629 62.124519,62.040997 
	C61.726425,59.754421 61.681828,57.653244 62.164169,55.508560 
	C62.910938,55.850742 63.130764,56.236427 63.288757,56.931396 
	C63.508739,58.433788 63.790558,59.626896 64.045242,61.049629 
	C64.018112,61.279255 63.994411,61.741093 63.994411,61.741089 
z"/>
<path fill="#110E03" opacity="1.000000" stroke="none" 
	d="
M141.525772,38.525948 
	C139.920441,38.843296 138.613876,38.824230 136.814941,38.888512 
	C136.875809,35.365311 137.845642,35.227406 141.525772,38.525948 
z"/>
<path fill="#110E03" opacity="1.000000" stroke="none" 
	d="
M151.470490,49.117714 
	C151.340408,48.174541 151.210342,47.231369 151.592133,46.128212 
	C152.947250,46.081039 153.790482,46.193855 154.837891,46.853394 
	C155.027832,47.836193 155.013641,48.272274 154.555786,48.704693 
	C153.231598,48.839924 152.351044,48.978817 151.470490,49.117714 
z"/>
<path fill="#110E03" opacity="1.000000" stroke="none" 
	d="
M61.524757,61.475624 
	C61.695393,63.182846 61.536800,64.582642 61.076668,66.308594 
	C58.378910,64.824097 58.425018,64.224533 61.524757,61.475624 
z"/>
<path fill="#110E03" opacity="1.000000" stroke="none" 
	d="
M75.974754,41.843346 
	C75.516563,43.041138 74.577126,44.156658 73.212646,45.366203 
	C71.125877,42.351868 73.704514,42.345287 75.974754,41.843346 
z"/>
<path fill="#161007" opacity="1.000000" stroke="none" 
	d="
M152.124603,45.615082 
	C151.138428,45.471237 150.210327,45.032356 149.753387,44.236137 
	C150.570282,43.885063 150.916000,43.891331 151.261734,43.897598 
	C151.568726,44.371750 151.875702,44.845898 152.124603,45.615082 
z"/>
<path fill="#161007" opacity="1.000000" stroke="none" 
	d="
M154.999435,48.708355 
	C155.013641,48.272274 155.027832,47.836193 155.071091,47.074150 
	C155.810577,47.032059 156.521011,47.315933 157.398575,47.845070 
	C157.366104,48.368290 157.166504,48.646244 156.422256,49.139881 
	C155.584900,49.139828 155.292160,48.924091 154.999435,48.708355 
z"/>
<path fill="#161007" opacity="1.000000" stroke="none" 
	d="
M63.350590,56.622116 
	C63.130764,56.236427 62.910938,55.850742 62.432701,55.252743 
	C62.568905,54.613880 62.963520,54.187325 63.654423,53.673782 
	C63.965332,54.090336 63.979954,54.593880 63.879601,55.705742 
	C63.626617,56.416752 63.488602,56.519436 63.350590,56.622116 
z"/>
<path fill="#110E03" opacity="1.000000" stroke="none" 
	d="
M103.577438,35.352074 
	C103.257141,35.950199 102.879166,35.999104 101.934387,35.969906 
	C102.084976,35.528820 102.802368,35.165836 103.577438,35.352074 
z"/>
<path fill="#110E03" opacity="1.000000" stroke="none" 
	d="
M151.140335,43.590660 
	C150.916000,43.891331 150.570282,43.885063 149.723999,43.715450 
	C149.244370,43.292568 149.265274,43.033031 149.642059,42.612373 
	C150.338287,42.728737 150.678604,43.006226 151.140335,43.590660 
z"/>
<path fill="#161007" opacity="1.000000" stroke="none" 
	d="
M113.871277,19.663776 
	C113.590492,19.733068 113.357300,19.477066 113.056320,18.966331 
	C113.298637,18.920559 113.608757,19.129520 113.871277,19.663776 
z"/>
<path fill="#0C0E89" opacity="1.000000" stroke="none" 
	d="
M99.915298,227.440613 
	C112.878578,220.797607 126.094994,214.998611 138.780396,208.207672 
	C153.038239,200.574936 167.149078,192.870651 183.439590,190.510559 
	C185.576096,190.201035 187.740494,190.084167 190.315643,189.878326 
	C193.541519,192.939072 196.343735,195.999573 198.768616,199.518814 
	C185.937592,201.564896 174.764664,206.522186 164.233536,213.087494 
	C144.738892,225.240860 125.097588,237.059143 102.240089,241.990952 
	C101.471413,237.276245 100.702736,232.561523 99.915298,227.440613 
z"/>
<path fill="#0C0E8A" opacity="1.000000" stroke="none" 
	d="
M181.987823,183.574249 
	C164.674774,182.978287 149.683380,189.653473 135.376190,198.414154 
	C127.332375,203.339645 119.540672,208.688202 111.388901,213.421646 
	C106.845032,216.060089 101.795975,217.828522 96.626266,220.044281 
	C92.649063,215.924744 89.020172,211.749969 85.534698,207.052567 
	C90.826118,203.906769 96.142326,201.563736 101.083748,198.596542 
	C109.024765,193.828186 116.595985,188.443237 124.543945,183.687317 
	C137.263779,176.075958 150.876999,171.317688 165.984711,172.053329 
	C171.310181,175.776581 176.635635,179.499832 181.987823,183.574249 
z"/>
<path fill="#E2990D" opacity="1.000000" stroke="none" 
	d="
M109.765007,150.224136 
	C112.496414,153.160370 114.994141,155.826492 117.508438,158.510315 
	C108.017006,164.928665 98.620949,171.282516 88.955933,177.818253 
	C79.522385,169.529114 70.961983,160.437592 68.714828,147.090759 
	C67.572792,140.307724 69.583588,134.480774 75.589188,131.306610 
	C82.069710,127.881424 89.167953,125.624962 96.603683,122.612808 
	C97.887856,134.228027 103.167023,142.364960 109.765007,150.224136 
z"/>
<path fill="#090B88" opacity="1.000000" stroke="none" 
	d="
M76.612991,201.115784 
	C70.441109,200.044449 64.247719,198.018509 58.103088,198.156937 
	C51.281376,198.310623 44.510921,200.477600 37.702179,201.677368 
	C36.242725,201.934525 34.317394,202.412857 33.288532,201.742615 
	C29.261269,199.119080 25.423206,196.180511 21.673634,193.161774 
	C17.328974,189.663971 13.338782,181.399307 12.351193,174.262466 
	C16.265903,177.893967 19.694859,181.815048 23.816118,184.770889 
	C42.488937,198.163315 61.946766,196.831421 81.002251,186.091263 
	C90.498032,180.739197 98.926666,173.516769 107.971458,167.335663 
	C119.021591,159.784119 131.281296,155.444702 144.641281,154.336746 
	C145.755402,154.244324 147.366516,154.098709 147.956238,154.723694 
	C151.431992,158.407318 154.673492,162.311981 157.549820,166.557938 
	C138.394531,166.670197 121.604645,172.089096 106.229408,182.876450 
	C96.755310,189.523560 86.511322,195.073334 76.612991,201.115784 
z"/>
<path fill="#E1980D" opacity="1.000000" stroke="none" 
	d="
M140.176270,139.826233 
	C141.719482,141.095551 142.991974,142.133728 144.333954,143.228592 
	C151.462891,136.628845 155.910767,128.859268 157.509567,119.489304 
	C164.781448,123.038170 166.298706,127.277321 162.482315,133.760361 
	C160.548218,137.045868 158.318375,140.173309 156.040176,143.236832 
	C151.621048,149.179321 146.352280,153.153336 138.249054,153.198242 
	C133.589386,153.224075 128.974380,155.567749 124.269638,156.526306 
	C122.761772,156.833527 120.292297,156.635132 119.519608,155.665985 
	C113.649147,148.302963 107.635590,140.981293 102.586380,133.060440 
	C98.890587,127.262726 99.971756,120.837997 104.143677,115.288078 
	C106.535378,112.106392 109.253311,109.170288 111.817627,106.117935 
	C117.172470,99.743950 123.528015,98.918678 130.500229,102.582062 
	C124.785225,108.037354 118.999908,113.559753 113.076782,119.213707 
	C122.543846,126.405693 131.224686,133.000397 140.176270,139.826233 
z"/>
<path fill="#0B0C89" opacity="1.000000" stroke="none" 
	d="
M207.054535,207.030319 
	C209.011108,208.756805 210.967682,210.483307 213.021133,212.295303 
	C205.133072,216.056030 197.386765,219.042694 190.369751,223.246658 
	C177.142105,231.171509 164.533401,240.130356 151.296722,248.038940 
	C137.985016,255.992355 124.035759,262.525696 107.888565,262.148499 
	C97.974159,261.916931 97.971123,262.046967 101.570831,252.159851 
	C115.637550,251.332886 127.812775,246.479065 139.183243,239.679047 
	C149.164719,233.709686 158.667892,226.945938 168.470978,220.671585 
	C180.253448,213.130310 192.841583,207.752563 207.054535,207.030319 
z"/>
<path fill="#F5F5F7" opacity="1.000000" stroke="none" 
	d="
M97.636597,256.424316 
	C97.038559,257.834412 96.601189,258.876648 95.944077,260.442474 
	C94.458908,259.634033 92.962311,259.217712 92.041679,258.252228 
	C86.855896,252.813736 82.113647,246.909836 76.589073,241.854263 
	C73.700943,239.211273 69.678642,237.525955 65.890144,236.209122 
	C58.718967,233.716522 53.895561,228.685638 49.716553,222.770294 
	C45.521755,216.832596 41.400826,210.842728 37.245571,204.872910 
	C47.767166,197.605225 68.145180,198.002151 81.353065,207.185776 
	C96.992683,218.060226 103.109535,235.981232 97.636597,256.424316 
M53.082703,218.414627 
	C53.145710,217.852371 53.208717,217.290115 52.870579,216.202728 
	C52.293869,216.202728 51.717159,216.202728 50.614338,216.202728 
	C51.574169,217.036575 52.065941,217.463791 53.082703,218.414627 
M58.259552,210.770538 
	C56.758781,209.256653 55.258015,207.742783 53.757801,206.229462 
	C51.349400,208.586578 44.217907,209.052856 50.814747,214.992065 
	C50.964588,213.428574 51.085899,212.162796 51.229832,210.660995 
	C54.065632,211.498810 56.524467,212.225250 59.048409,213.611084 
	C59.704880,214.604935 60.361347,215.598785 61.127991,216.759430 
	C61.944122,215.548111 62.463028,214.777924 63.565872,214.392365 
	C67.187675,219.928177 72.085449,224.012955 78.654938,224.928177 
	C85.045387,225.818451 89.747131,228.660767 93.276749,234.720764 
	C94.768890,238.173340 93.266006,238.877579 90.203094,237.995651 
	C88.117599,237.395157 86.072281,236.655167 83.825989,235.322250 
	C74.259064,229.586990 64.692139,223.851730 55.125214,218.116455 
	C54.805107,218.627151 54.485001,219.137833 54.164898,219.648529 
	C58.752232,225.371460 64.614761,229.285660 71.506790,232.070358 
	C74.956749,233.464294 78.125458,235.681961 81.164536,237.881897 
	C81.999519,238.486343 81.908585,240.369888 82.383080,242.212173 
	C85.887634,243.210800 84.692963,239.949097 85.670143,238.027512 
	C87.469032,240.136414 89.267921,242.245316 90.584511,243.788788 
	C95.117210,240.595566 98.388245,237.535995 93.947021,232.187180 
	C88.618332,223.933105 82.073845,217.575363 71.615601,216.353149 
	C67.133682,215.829346 63.885872,213.159012 62.950932,208.028915 
	C64.918266,207.850098 66.419487,207.713654 67.920708,207.577209 
	C67.920906,207.079117 67.921104,206.581039 67.921310,206.082962 
	C66.067947,206.082962 63.890461,205.500443 62.475269,206.287903 
	C61.532917,206.812256 61.678135,209.291168 60.514565,210.958786 
	C59.965855,210.988724 59.417145,211.018661 58.259552,210.770538 
z"/>
<path fill="#0A0B89" opacity="1.000000" stroke="none" 
	d="
M26.665653,182.495941 
	C25.617313,182.288528 24.281834,182.423904 23.563677,181.822311 
	C12.654928,172.684464 4.972891,162.074158 8.979722,146.786484 
	C11.860306,135.795914 11.549916,125.044640 9.045140,113.926224 
	C5.843694,99.715363 9.154576,85.689873 12.341785,71.206551 
	C16.056309,79.288094 19.506004,86.793457 22.960735,95.079010 
	C23.019348,101.814522 22.042551,108.004463 23.334345,113.677856 
	C26.307840,126.737091 26.114904,139.674042 24.319164,152.751205 
	C22.934517,162.834656 21.565365,172.921860 26.665653,182.495941 
z"/>
<path fill="#E39A0D" opacity="1.000000" stroke="none" 
	d="
M68.998138,157.923950 
	C74.443535,165.623428 79.756462,172.970108 85.432770,180.819290 
	C80.614586,184.884155 74.099869,188.102814 67.092979,189.776413 
	C49.379871,194.007187 51.650021,194.512604 47.267849,177.651932 
	C46.158112,173.382156 46.112301,168.761078 46.086029,164.298431 
	C46.005985,150.702194 51.133770,143.871643 63.983265,139.343536 
	C65.605431,145.399643 67.235542,151.485397 68.998138,157.923950 
z"/>
<path fill="#F9F9F9" opacity="1.000000" stroke="none" 
	d="
M207.035156,206.682983 
	C192.841583,207.752563 180.253448,213.130310 168.470978,220.671585 
	C158.667892,226.945938 149.164719,233.709686 139.183243,239.679047 
	C127.812775,246.479065 115.637550,251.332886 101.700409,251.777664 
	C101.553665,248.817841 101.813477,245.832993 102.156693,242.419556 
	C125.097588,237.059143 144.738892,225.240860 164.233536,213.087494 
	C174.764664,206.522186 185.937592,201.564896 198.814499,199.863708 
	C201.830399,201.945129 204.423096,204.140381 207.035156,206.682983 
z"/>
<path fill="#E1990D" opacity="1.000000" stroke="none" 
	d="
M93.306732,102.130653 
	C99.965027,101.058121 106.225433,100.072937 112.677650,99.057579 
	C107.514114,106.329498 103.036263,112.802696 98.324875,119.101196 
	C97.568642,120.112167 95.823509,120.607590 94.443062,120.891190 
	C85.206863,122.788734 76.828384,126.011322 69.272507,132.176697 
	C63.508812,136.879700 56.263866,139.767395 49.507118,143.558456 
	C57.524151,122.950211 71.799942,109.030182 93.306732,102.130653 
z"/>
<path fill="#F9F9F9" opacity="1.000000" stroke="none" 
	d="
M42.351578,119.623917 
	C30.532961,104.118828 20.832905,87.873787 15.126049,69.411629 
	C18.393608,69.631195 51.740517,103.699287 61.885368,117.076355 
	C58.513340,121.555748 55.138477,126.033676 51.431412,130.952393 
	C48.456894,127.240883 45.516819,123.572342 42.351578,119.623917 
z"/>
<path fill="#F8F7F8" opacity="1.000000" stroke="none" 
	d="
M26.672108,182.525909 
	C21.565365,172.921860 22.934517,162.834656 24.319164,152.751205 
	C26.114904,139.674042 26.307840,126.737091 23.334345,113.677856 
	C22.042551,108.004463 23.019348,101.814522 22.982246,95.442780 
	C26.415167,100.697952 29.831610,106.369537 33.120720,112.834129 
	C32.896404,117.914711 32.692417,122.203094 32.724606,126.489708 
	C32.792641,135.551376 33.410076,144.630875 33.012165,153.668274 
	C32.561012,163.914978 33.396492,173.833603 37.135193,183.428452 
	C38.087654,185.872818 39.035393,188.319000 39.985298,190.764343 
	C35.958065,188.563843 31.930830,186.363327 27.597595,183.727570 
	C27.160604,183.001251 26.956696,182.776215 26.679869,182.617233 
	C26.679869,182.617233 26.678566,182.555893 26.672108,182.525909 
z"/>
<path fill="#F9F9F9" opacity="1.000000" stroke="none" 
	d="
M76.729858,201.449554 
	C86.511322,195.073334 96.755310,189.523560 106.229408,182.876450 
	C121.604645,172.089096 138.394531,166.670197 157.569458,166.911621 
	C160.638550,168.355927 163.243927,169.862244 165.917007,171.710938 
	C150.876999,171.317688 137.263779,176.075958 124.543945,183.687317 
	C116.595985,188.443237 109.024765,193.828186 101.083748,198.596542 
	C96.142326,201.563736 90.826118,203.906769 85.412727,206.746536 
	C82.380470,205.236526 79.613602,203.509918 76.729858,201.449554 
z"/>
<path fill="#0B0C89" opacity="1.000000" stroke="none" 
	d="
M40.387623,190.824158 
	C39.035393,188.319000 38.087654,185.872818 37.135193,183.428452 
	C33.396492,173.833603 32.561012,163.914978 33.012165,153.668274 
	C33.410076,144.630875 32.792641,135.551376 32.724606,126.489708 
	C32.692417,122.203094 32.896404,117.914711 33.136845,113.201569 
	C36.731224,116.917343 39.937763,121.297394 43.692924,125.141518 
	C48.755901,130.324432 50.158508,135.033569 47.020451,142.478912 
	C40.604893,157.700455 41.573711,173.548187 47.050877,189.089127 
	C47.268166,189.705658 47.455864,190.333679 47.627602,190.964432 
	C47.664036,191.098267 47.570278,191.267532 47.460472,191.764816 
	C45.261414,191.474426 43.025681,191.179184 40.387623,190.824158 
z"/>
<path fill="#E1990D" opacity="1.000000" stroke="none" 
	d="
M177.084656,171.610138 
	C176.936234,172.995972 176.819595,173.930328 176.696365,174.917435 
	C169.682327,172.829437 155.790100,161.216629 151.301483,154.122177 
	C156.998413,146.585617 162.559647,139.228592 168.225555,131.733093 
	C175.541214,143.543839 178.302826,156.876953 177.084656,171.610138 
z"/>
<path fill="#E6C831" opacity="1.000000" stroke="none" 
	d="
M55.658932,97.343590 
	C60.066608,102.091255 64.229942,106.583916 68.560791,111.257355 
	C67.194107,112.497025 66.125732,113.466110 64.798752,114.669769 
	C63.648930,113.573669 62.568203,112.641037 61.598564,111.604500 
	C46.480392,95.443237 31.417967,79.229347 16.199484,63.163242 
	C14.819113,61.705994 12.384207,61.296341 10.574050,60.181026 
	C9.286306,59.387600 7.087602,57.596035 7.237693,57.324841 
	C8.927848,54.270908 10.744618,51.191826 13.108671,48.662868 
	C13.838351,47.882282 17.266380,48.160088 17.805714,49.006599 
	C18.627348,50.296188 18.052935,52.505013 17.970259,54.318871 
	C17.950979,54.741844 17.525358,55.146301 17.047926,55.972435 
	C29.805143,69.643883 42.609863,83.366234 55.658932,97.343590 
z"/>
<path fill="#E3C630" opacity="1.000000" stroke="none" 
	d="
M110.213890,96.310989 
	C101.384117,98.186539 93.017960,100.136208 84.601089,101.834496 
	C83.375687,102.081749 81.907921,101.127853 80.552307,100.729767 
	C81.273865,99.628510 81.748512,97.929558 82.753494,97.514412 
	C102.111389,89.517853 121.533615,89.498024 140.866669,97.600082 
	C141.826508,98.002335 142.219086,99.758240 142.875793,100.883835 
	C141.516708,101.224594 139.882156,102.231720 138.841736,101.801628 
	C129.796463,98.062515 120.397614,96.376816 110.213890,96.310989 
z"/>
<path fill="#DB950D" opacity="1.000000" stroke="none" 
	d="
M140.739105,136.177231 
	C138.660706,134.477219 136.685699,133.158447 135.120590,131.461639 
	C134.369919,130.647781 134.394547,129.118805 133.912338,127.338989 
	C137.165298,128.665161 139.254837,129.517014 141.344376,130.368881 
	C140.327820,128.233078 139.311279,126.097267 138.003922,123.350464 
	C138.209366,123.025688 138.899796,121.934273 139.669250,120.717918 
	C141.345886,121.342178 142.850449,121.902367 145.160110,122.762321 
	C144.038437,120.073242 143.320175,118.351295 142.601929,116.629356 
	C144.235016,116.438461 145.868103,116.247566 147.601593,116.044937 
	C147.206802,114.266258 146.803772,112.450462 146.208954,109.770569 
	C155.279785,114.601181 156.025436,115.650688 153.031189,123.817429 
	C151.075714,129.150925 147.924469,134.046005 145.096893,139.550034 
	C143.077896,137.995071 142.044418,137.199112 140.739105,136.177231 
z"/>
<path fill="#DA940D" opacity="1.000000" stroke="none" 
	d="
M134.949219,113.304306 
	C135.086273,115.036125 135.601898,116.737503 136.442871,119.512344 
	C136.417267,119.550583 135.628723,120.728592 134.738770,122.058075 
	C132.558960,120.730934 130.607971,119.543098 128.664062,118.359573 
	C125.563065,122.899933 135.487625,123.000809 130.449005,127.784966 
	C126.469666,125.086792 122.415657,122.337975 118.036804,119.368904 
	C122.355972,113.429947 127.447594,108.580826 134.036819,105.502777 
	C138.424896,103.452950 141.094025,106.560341 144.108856,108.459122 
	C143.985260,108.877129 143.861679,109.295135 143.738098,109.713142 
	C142.323654,109.505440 140.909195,109.297737 139.639023,109.111229 
	C139.639023,111.214676 139.639023,113.103943 139.639023,114.993217 
	C138.201950,114.420105 136.764877,113.846985 134.949219,113.304306 
z"/>
<path fill="#E6C830" opacity="1.000000" stroke="none" 
	d="
M204.714966,256.952942 
	C202.258759,255.345657 200.044724,253.706619 198.047897,251.835754 
	C191.628998,245.821854 185.290314,239.722351 178.519592,233.273834 
	C180.809067,231.609879 182.071396,230.692444 182.974747,230.035889 
	C191.472916,238.167557 199.737076,246.075287 208.314056,254.282364 
	C207.006165,255.299225 206.031357,256.057129 204.714966,256.952942 
z"/>
<path fill="#D91A0E" opacity="1.000000" stroke="none" 
	d="
M94.068474,84.086945 
	C95.790588,84.048637 97.512711,84.010330 99.758591,84.333786 
	C103.312500,87.460457 99.474274,87.624146 98.675301,88.938881 
	C97.007027,89.301727 95.338745,89.664574 92.952888,90.012070 
	C89.616440,89.739876 88.570427,88.684578 90.314453,86.212914 
	C91.168327,85.953117 92.022209,85.693321 93.196930,85.057907 
	C93.744278,84.523598 93.927841,84.325150 94.068474,84.086945 
z"/>
<path fill="#DEC02F" opacity="1.000000" stroke="none" 
	d="
M143.717529,89.515266 
	C142.673828,89.942131 141.426605,90.097794 139.973404,90.279160 
	C140.370514,91.333427 140.696106,92.197762 141.034821,93.420128 
	C137.440445,92.725693 133.832916,91.673225 130.450439,90.254219 
	C133.429871,89.879654 135.004105,89.169327 132.847076,86.238541 
	C136.402725,87.240379 139.958374,88.242218 143.717529,89.515266 
z"/>
<path fill="#DBBD2F" opacity="1.000000" stroke="none" 
	d="
M110.977219,83.483719 
	C115.142212,83.550949 119.307198,83.618187 123.854263,83.887856 
	C124.265030,84.324944 124.293732,84.559593 123.977814,84.862701 
	C120.179352,86.667336 123.926178,87.649925 124.060143,89.010620 
	C120.344421,88.724823 116.628700,88.439026 112.776764,87.875565 
	C113.942490,86.945496 115.244431,86.293083 117.217545,85.304337 
	C114.695358,84.566734 112.839630,84.024033 110.971237,83.463745 
	C110.958572,83.446159 110.977219,83.483719 110.977219,83.483719 
z"/>
<path fill="#DABD30" opacity="1.000000" stroke="none" 
	d="
M89.927650,86.026146 
	C88.570427,88.684578 89.616440,89.739876 92.571121,90.053955 
	C89.589317,91.324783 86.271698,92.538368 82.600479,93.732224 
	C82.625641,92.714691 83.004410,91.716888 83.542854,90.298447 
	C82.345634,90.129471 81.203751,89.968300 79.722855,89.767288 
	C82.769524,88.431427 86.155190,87.135399 89.927650,86.026146 
z"/>
<path fill="#DA120D" opacity="1.000000" stroke="none" 
	d="
M124.438644,89.045593 
	C123.926178,87.649925 120.179352,86.667336 124.259109,84.860489 
	C125.258812,84.776695 125.632607,84.763565 126.006393,84.750443 
	C126.844215,84.812782 127.682045,84.875122 129.052124,84.950363 
	C130.058228,85.228607 130.532074,85.493958 131.005905,85.759308 
	C131.412704,85.876312 131.819519,85.993317 132.536697,86.174423 
	C135.004105,89.169327 133.429871,89.879654 130.310654,89.903549 
	C128.236252,89.639786 126.526695,89.360176 124.438644,89.045593 
z"/>
<path fill="#E6C731" opacity="1.000000" stroke="none" 
	d="
M110.593452,83.237335 
	C110.977219,83.483719 110.958572,83.446159 110.648552,83.634857 
	C109.258331,84.325592 108.178131,84.827629 106.997368,85.376389 
	C108.247643,86.432899 109.213226,87.248833 110.178802,88.064758 
	C106.655380,88.429398 103.131966,88.794037 99.141922,89.048775 
	C99.474274,87.624146 103.312500,87.460457 100.182426,84.421097 
	C103.458221,83.761421 106.833954,83.376183 110.593452,83.237335 
z"/>
<path fill="#201D73" opacity="1.000000" stroke="none" 
	d="
M110.410248,88.070679 
	C109.213226,87.248833 108.247643,86.432899 106.997368,85.376389 
	C108.178131,84.827629 109.258331,84.325592 110.661209,83.652451 
	C112.839630,84.024033 114.695358,84.566734 117.217545,85.304337 
	C115.244431,86.293083 113.942490,86.945496 112.306740,87.830795 
	C111.529182,88.067986 111.085434,88.072289 110.410248,88.070679 
z"/>
<path fill="#0A0B89" opacity="1.000000" stroke="none" 
	d="
M26.545265,182.897339 
	C26.956696,182.776215 27.160604,183.001251 27.337126,183.516693 
	C27.058659,183.553192 26.734661,183.365326 26.545265,182.897339 
z"/>
<path fill="#DCBF2E" opacity="1.000000" stroke="none" 
	d="
M154.003418,75.854614 
	C155.598343,76.465508 157.193283,77.076401 158.784195,77.685745 
	C156.809708,80.533882 153.280594,80.986748 145.370697,79.666580 
	C145.010284,79.990173 144.992218,80.033852 145.184113,79.772232 
	C145.032303,79.286583 144.688614,79.062553 144.129425,78.568436 
	C141.407150,75.944206 138.900375,73.590065 137.440842,72.219406 
	C131.052902,72.784775 125.550690,73.271759 119.786346,73.529984 
	C116.822327,72.109268 114.120422,70.917313 111.643112,69.824432 
	C108.994568,71.093353 106.466461,72.304573 103.493988,73.595657 
	C97.575546,73.194824 92.101456,72.714119 87.097832,72.274734 
	C84.298035,74.662354 81.147804,77.348816 77.991737,80.014816 
	C77.985893,79.994354 78.024857,79.979309 78.024857,79.979309 
	C73.536552,79.847954 69.048256,79.716606 64.559952,79.585258 
	C64.534058,78.992958 64.508163,78.400665 64.482269,77.808372 
	C66.385895,77.177284 68.289513,76.546204 70.856049,76.222992 
	C76.055115,77.919037 78.818985,76.793526 80.046570,73.027657 
	C80.009109,73.012367 80.050743,73.081757 80.335556,73.375038 
	C81.285172,73.009865 81.949974,72.351402 82.614769,71.692940 
	C78.411148,68.520088 82.816879,65.941238 83.427719,63.031891 
	C83.646805,62.978336 83.989746,62.685345 84.224648,62.639194 
	C84.459549,62.593044 84.808884,62.265633 85.246201,62.403145 
	C87.964447,63.109882 90.245384,63.679108 92.584488,64.294617 
	C92.642647,64.340904 92.626694,64.271919 92.221786,64.287979 
	C91.800644,66.243477 91.784416,68.182915 92.061646,70.379974 
	C98.525612,72.633507 104.262634,72.164391 108.072044,68.915817 
	C107.674873,65.854614 107.430733,63.972935 107.186600,62.091255 
	C107.686111,61.690815 108.185623,61.290375 108.414780,60.585304 
	C108.144417,60.280674 108.241974,60.283916 108.241974,60.283920 
	C109.547073,59.875500 110.852165,59.467083 112.698288,59.303802 
	C113.774170,60.138515 114.309021,60.728085 114.843880,61.317657 
	C115.424126,61.762390 116.004372,62.207119 116.825348,63.192593 
	C116.249153,65.115311 115.432228,66.497284 114.447830,68.162582 
	C118.983192,71.786591 124.195839,72.826363 130.357361,70.836105 
	C134.739761,69.691551 130.708130,65.773979 133.028046,64.032898 
	C133.008286,64.002228 133.061935,64.052391 133.452530,64.241394 
	C135.398239,63.751236 136.953339,63.072071 138.493652,62.409515 
	C138.478851,62.426125 138.445648,62.447136 138.831787,62.593018 
	C139.483856,62.809673 139.749786,62.880444 140.167053,63.271751 
	C140.882996,66.347725 146.022324,68.728264 140.692215,71.566826 
	C145.620956,77.514153 148.273590,78.312599 154.003418,75.854614 
z"/>
<path fill="#E5070B" opacity="1.000000" stroke="none" 
	d="
M72.654465,54.416199 
	C72.619560,53.867065 72.648895,53.688950 72.625809,53.671326 
	C76.238342,51.871033 81.417953,52.101364 81.776581,46.172703 
	C83.648758,46.600147 85.208008,46.956146 86.339668,47.214520 
	C86.339668,49.589684 86.339668,51.685455 86.351463,54.130501 
	C86.363258,54.479782 86.335388,54.510651 85.988319,54.488396 
	C84.850624,56.751804 84.059998,59.037472 83.000824,61.431190 
	C82.336067,61.977402 81.939865,62.415565 81.328857,63.129955 
	C78.656158,66.400208 78.168404,69.610748 80.050743,73.081757 
	C80.050743,73.081757 80.009109,73.012367 79.670837,72.986816 
	C76.728172,74.582214 74.133522,76.272179 70.998894,74.138031 
	C70.124069,72.346199 68.254677,70.359306 68.560692,68.799080 
	C69.482597,64.098724 71.251053,59.564404 72.654465,54.416199 
z"/>
<path fill="#E7070B" opacity="1.000000" stroke="none" 
	d="
M154.764404,67.261978 
	C154.596008,69.144302 154.427597,71.026619 153.731018,73.430939 
	C149.798843,75.449577 146.628677,75.645622 143.915787,72.082703 
	C146.299210,67.263847 143.353912,64.085716 139.874786,60.831154 
	C139.780807,59.738705 139.812073,58.871204 139.887634,57.714859 
	C139.662140,56.939705 139.392365,56.453392 138.982574,55.622334 
	C137.865936,52.842838 136.889313,50.408089 135.956818,47.992516 
	C136.000931,48.011692 135.980865,48.105793 135.980865,48.105793 
	C137.788452,47.384834 139.596039,46.663872 141.403625,45.942913 
	C141.201340,46.370739 140.999054,46.798569 140.796768,47.226395 
	C144.029037,49.919464 147.261292,52.612534 150.972961,55.422043 
	C151.452393,55.538475 151.465820,55.909184 151.664398,56.265453 
	C152.271271,57.590469 152.679581,58.559212 153.333206,59.664299 
	C153.550735,60.500931 153.522934,61.201218 153.685364,62.338593 
	C153.931885,64.043770 153.988190,65.311852 154.185059,66.592331 
	C154.530899,66.796860 154.677155,67.015945 154.764404,67.261978 
z"/>
<path fill="#E6070B" opacity="1.000000" stroke="none" 
	d="
M118.100525,61.873966 
	C118.385292,59.509216 118.695801,57.147083 118.936310,54.777843 
	C118.994774,54.201939 118.545395,53.408928 118.800026,53.044205 
	C121.253220,49.530228 119.926987,47.262398 116.569145,45.462162 
	C116.152702,45.238895 116.084854,44.365425 115.263786,42.317238 
	C119.425560,44.105553 122.426613,45.395100 125.716263,46.347481 
	C126.004860,46.010315 126.030403,45.960297 125.642136,46.234009 
	C125.849457,48.409138 126.220573,50.428982 127.134949,52.162216 
	C127.594704,53.033691 129.041611,53.384377 130.022324,53.986359 
	C130.002533,54.002148 130.030594,53.960785 129.660400,54.235718 
	C130.547440,57.691231 131.804688,60.871811 133.061935,64.052391 
	C133.061935,64.052391 133.008286,64.002228 132.698273,63.803654 
	C131.466293,65.530533 130.544342,67.455994 129.204926,69.463097 
	C125.211769,69.397202 121.636063,69.249657 118.855965,69.134949 
	C118.508919,65.799278 118.304718,63.836620 118.100525,61.873966 
z"/>
<path fill="#E4070B" opacity="1.000000" stroke="none" 
	d="
M92.626694,64.271919 
	C92.626694,64.271919 92.642647,64.340904 92.340088,64.109436 
	C91.546928,63.178692 91.056320,62.479412 90.572380,61.769249 
	C90.579048,61.758362 90.597633,61.778336 90.597633,61.778336 
	C92.551987,58.219467 94.525948,54.671146 96.449020,51.095451 
	C97.043404,49.990261 97.499245,48.810558 98.000565,47.331932 
	C97.982605,46.998898 97.893623,46.968803 97.893623,46.968803 
	C100.989098,45.552502 104.084572,44.136200 107.180046,42.719898 
	C107.512810,43.072109 107.845581,43.424316 108.178345,43.776527 
	C101.545853,48.349518 104.193352,54.637383 104.742905,61.187294 
	C105.024216,63.965672 105.024216,66.042336 105.024216,68.359062 
	C101.265869,70.791809 97.201591,70.362823 93.087357,68.415604 
	C92.944611,66.728760 92.785652,65.500343 92.626694,64.271919 
z"/>
<path fill="#161007" opacity="1.000000" stroke="none" 
	d="
M93.071144,68.874016 
	C97.201591,70.362823 101.265869,70.791809 105.024216,68.359062 
	C105.024216,66.042336 105.024216,63.965672 105.059822,61.439079 
	C105.609413,61.282333 106.123390,61.575520 106.911987,61.979980 
	C107.430733,63.972935 107.674873,65.854614 108.072044,68.915817 
	C104.262634,72.164391 98.525612,72.633507 92.334930,70.235611 
	C92.566895,69.513748 92.819016,69.193878 93.071144,68.874016 
z"/>
<path fill="#291806" opacity="1.000000" stroke="none" 
	d="
M117.975693,62.109314 
	C118.304718,63.836620 118.508919,65.799278 118.855965,69.134949 
	C121.636063,69.249657 125.211769,69.397202 129.314941,69.829147 
	C129.896973,70.361099 129.951538,70.608643 130.006104,70.856194 
	C124.195839,72.826363 118.983192,71.786591 114.447830,68.162582 
	C115.432228,66.497284 116.249153,65.115311 117.046448,63.362167 
	C117.301498,62.775547 117.576180,62.560101 117.975693,62.109314 
z"/>
<path fill="#DBBE2E" opacity="1.000000" stroke="none" 
	d="
M97.964462,46.955734 
	C97.129173,46.917156 96.188889,47.184792 95.520386,46.871853 
	C94.106239,46.209877 92.834015,45.244720 91.503586,44.403908 
	C92.455521,43.293873 93.407455,42.183838 94.359390,41.073799 
	C95.394936,42.246269 96.524147,43.353832 97.408913,44.630772 
	C97.674164,45.013603 97.257446,45.868965 97.523392,46.738323 
	C97.893623,46.968803 97.982605,46.998898 97.964462,46.955734 
z"/>
<path fill="#DEC12F" opacity="1.000000" stroke="none" 
	d="
M151.465820,55.909180 
	C151.465820,55.909184 151.452393,55.538475 151.468628,55.505981 
	C151.420288,53.617985 151.355728,51.762486 151.441864,49.485886 
	C151.592560,49.064789 151.529953,49.081551 151.500214,49.099632 
	C152.351044,48.978817 153.231598,48.839924 154.555786,48.704693 
	C155.292160,48.924091 155.584900,49.139828 156.087830,49.529297 
	C155.967255,51.200565 155.636459,52.698105 154.653046,54.440712 
	C153.155548,55.093578 152.310684,55.501377 151.465820,55.909180 
z"/>
<path fill="#DDC02E" opacity="1.000000" stroke="none" 
	d="
M129.982056,48.041214 
	C131.807266,48.352867 133.632477,48.664516 135.719269,48.540977 
	C135.980865,48.105793 136.000931,48.011692 135.550247,48.165871 
	C135.153839,51.767460 135.165268,55.176361 130.030594,53.960785 
	C130.030594,53.960785 130.002533,54.002148 129.938538,53.641827 
	C129.918564,51.529057 129.962570,49.776611 129.994934,48.016434 
	C129.983307,48.008701 129.982056,48.041214 129.982056,48.041214 
z"/>
<path fill="#D9BC2D" opacity="1.000000" stroke="none" 
	d="
M126.032013,46.017036 
	C126.754471,44.413540 127.325760,42.720921 128.280960,41.283401 
	C128.421585,41.071777 131.382629,42.249168 131.341324,42.479500 
	C131.045578,44.128670 130.310287,45.699017 129.848358,47.667809 
	C129.982056,48.041214 129.983307,48.008701 129.938232,47.653702 
	C128.605576,46.852566 127.317986,46.406429 126.030403,45.960297 
	C126.030403,45.960297 126.004860,46.010315 126.032013,46.017036 
z"/>
<path fill="#DFC22F" opacity="1.000000" stroke="none" 
	d="
M87.700592,44.725994 
	C87.439789,44.564167 87.125237,44.212723 86.926300,44.269119 
	C84.190895,45.044559 82.169357,44.352158 82.283813,41.266045 
	C82.316795,40.376602 84.258102,38.777020 85.230240,38.845287 
	C88.552208,39.078568 88.483505,41.368889 87.643089,44.281914 
	C87.805000,44.718643 87.700592,44.725994 87.700592,44.725994 
z"/>
<path fill="#DEC12F" opacity="1.000000" stroke="none" 
	d="
M93.396866,53.354294 
	C90.603836,54.759739 88.609749,54.099976 88.439041,51.345684 
	C88.377899,50.359180 90.458717,48.298332 91.446281,48.367962 
	C94.221092,48.563599 94.808006,50.585548 93.396866,53.354294 
z"/>
<path fill="#DDC02F" opacity="1.000000" stroke="none" 
	d="
M111.836273,41.246922 
	C110.633598,39.920368 109.653214,38.631931 109.177063,37.178326 
	C109.075836,36.869297 110.915520,35.343739 111.676544,35.472107 
	C112.758942,35.654686 114.572548,37.005665 114.472855,37.579163 
	C114.245872,38.884823 113.044128,40.021027 111.836273,41.246922 
z"/>
<path fill="#161007" opacity="1.000000" stroke="none" 
	d="
M86.374039,54.461945 
	C89.323044,55.653828 92.103889,56.961006 90.524948,61.395584 
	C90.597633,61.778336 90.579048,61.758362 90.249710,61.479424 
	C88.947281,60.800800 87.974197,60.401112 87.000549,60.000710 
	C87.000000,60.000000 86.998558,59.998920 86.823410,59.737900 
	C86.543968,57.821468 86.439682,56.166061 86.335388,54.510651 
	C86.335388,54.510651 86.363258,54.479782 86.374039,54.461945 
z"/>
<path fill="#161007" opacity="1.000000" stroke="none" 
	d="
M108.149117,60.329254 
	C107.172417,59.728828 106.191010,59.079826 105.209610,58.430824 
	C106.256798,57.302559 107.303986,56.174297 108.351173,55.046032 
	C108.601624,55.278831 108.852074,55.511631 109.102524,55.744431 
	C108.779182,57.016891 108.455833,58.289352 108.187233,59.922867 
	C108.241974,60.283916 108.144417,60.280674 108.149117,60.329254 
z"/>
<path fill="#161007" opacity="1.000000" stroke="none" 
	d="
M115.004936,61.028412 
	C114.309021,60.728085 113.774170,60.138515 113.063362,59.302395 
	C113.899612,57.858929 114.911812,56.662006 115.924011,55.465084 
	C116.264496,55.554302 116.604980,55.643517 116.945473,55.732731 
	C116.352310,57.401543 115.759148,59.070351 115.004936,61.028412 
z"/>
<path fill="#161007" opacity="1.000000" stroke="none" 
	d="
M116.134323,48.866051 
	C116.901321,49.667652 117.383102,50.530685 117.864891,51.393723 
	C117.192963,51.574436 116.521042,51.755146 115.849113,51.935860 
	C115.849113,50.933067 115.849113,49.930275 116.134323,48.866051 
z"/>
<path fill="#161007" opacity="1.000000" stroke="none" 
	d="
M107.702217,50.860004 
	C106.754692,50.826302 106.133644,50.718739 105.512596,50.611179 
	C105.456100,50.249607 105.399605,49.888035 105.343109,49.526463 
	C106.487762,49.393612 107.632423,49.260761 108.777077,49.127911 
	C108.527611,49.680656 108.278152,50.233402 107.702217,50.860004 
z"/>
<path fill="#161007" opacity="1.000000" stroke="none" 
	d="
M111.422562,54.202240 
	C111.319389,53.137661 111.429535,52.315556 111.539688,51.493454 
	C111.961006,51.590092 112.382324,51.686729 112.803642,51.783371 
	C112.414391,52.670486 112.025139,53.557602 111.422562,54.202240 
z"/>
<path fill="#161007" opacity="1.000000" stroke="none" 
	d="
M112.857956,46.688644 
	C112.213066,46.715576 111.644501,46.415482 111.075928,46.115387 
	C111.344826,45.607498 111.613724,45.099609 111.882629,44.591721 
	C112.233170,45.181686 112.583717,45.771648 112.857956,46.688644 
z"/>
<path fill="#161007" opacity="1.000000" stroke="none" 
	d="
M87.810135,44.666565 
	C88.451698,45.003422 89.088135,45.392357 89.724564,45.781292 
	C89.558479,46.016552 89.392395,46.251816 89.226311,46.487080 
	C88.781456,46.108990 88.336594,45.730904 87.796165,45.039406 
	C87.700592,44.725994 87.805000,44.718643 87.810135,44.666565 
z"/>
<path fill="#E2C530" opacity="1.000000" stroke="none" 
	d="
M144.989166,79.980293 
	C145.654236,80.551697 146.546585,81.011177 146.978729,81.742584 
	C147.641434,82.864220 147.987396,84.173019 148.467773,85.402390 
	C147.197327,85.621689 145.696609,86.394524 144.691299,85.976379 
	C131.808167,80.617760 118.360710,78.463028 104.601555,80.061897 
	C96.422501,81.012321 88.443329,83.634109 80.344902,85.367157 
	C78.670990,85.725380 76.867020,85.475830 75.122986,85.506393 
	C76.142715,83.918869 77.162445,82.331352 78.103516,80.361572 
	C78.024857,79.979309 77.985893,79.994354 78.325928,80.289337 
	C87.101685,78.655479 95.537407,76.726639 104.438843,74.854126 
	C109.942818,74.885086 114.981087,74.859718 120.435822,74.911873 
	C128.241714,76.611877 135.631134,78.234367 143.345200,80.015404 
	C144.110626,80.127251 144.551422,80.080551 144.992218,80.033852 
	C144.992218,80.033852 145.010284,79.990173 144.989166,79.980293 
z"/>
<path fill="#161007" opacity="1.000000" stroke="none" 
	d="
M140.000061,61.056095 
	C143.353912,64.085716 146.299210,67.263847 143.915787,72.082703 
	C146.628677,75.645622 149.798843,75.449577 153.602936,73.988998 
	C154.002762,74.431618 154.002502,74.838196 154.002838,75.549690 
	C148.273590,78.312599 145.620956,77.514153 140.692215,71.566826 
	C146.022324,68.728264 140.882996,66.347725 140.161804,62.955894 
	C140.003510,61.898361 140.001785,61.477230 140.000061,61.056095 
z"/>
<path fill="#DCBF2E" opacity="1.000000" stroke="none" 
	d="
M155.212997,67.547592 
	C154.677155,67.015945 154.530899,66.796860 154.690582,66.816711 
	C155.372009,65.188103 155.688507,63.347515 156.109207,61.417847 
	C156.360916,61.228653 156.491821,61.110222 156.606140,60.973461 
	C157.900665,61.359444 159.195175,61.745422 160.830841,62.296387 
	C163.663177,67.036011 160.388550,67.640320 157.203827,68.730576 
	C157.242355,69.181168 157.298203,69.122147 157.298203,69.122147 
	C156.752670,68.692497 156.207123,68.262848 155.212997,67.547592 
z"/>
<path fill="#E4C630" opacity="1.000000" stroke="none" 
	d="
M157.267303,69.584503 
	C157.298203,69.122147 157.242355,69.181168 157.228470,69.196304 
	C160.156128,69.119453 163.502396,68.540344 162.178528,73.769966 
	C157.389877,75.450829 156.829849,74.979599 157.267303,69.584503 
z"/>
<path fill="#D8BB2D" opacity="1.000000" stroke="none" 
	d="
M61.785797,74.350044 
	C61.584198,72.669380 61.716908,71.182434 62.034286,69.397888 
	C63.771820,70.093391 66.578560,71.026031 66.629936,72.091515 
	C66.756973,74.726501 64.674454,75.592239 61.785797,74.350044 
z"/>
<path fill="#DEC12F" opacity="1.000000" stroke="none" 
	d="
M63.288757,56.931396 
	C63.488602,56.519436 63.626617,56.416752 63.880539,56.083527 
	C65.037216,55.641800 66.077988,55.430622 67.444511,55.249802 
	C69.495399,57.594353 70.150436,59.717533 66.050491,61.121635 
	C64.938744,61.026821 64.505554,60.923416 64.072372,60.820007 
	C63.790558,59.626896 63.508739,58.433788 63.288757,56.931396 
z"/>
<path fill="#161007" opacity="1.000000" stroke="none" 
	d="
M71.000671,74.429245 
	C74.133522,76.272179 76.728172,74.582214 79.708298,73.002106 
	C78.818985,76.793526 76.055115,77.919037 71.270767,76.208076 
	C71.015862,75.497017 71.009155,75.108734 71.000671,74.429245 
z"/>
<path fill="#161007" opacity="1.000000" stroke="none" 
	d="
M125.979401,84.511963 
	C125.632607,84.763565 125.258812,84.776695 124.603729,84.792038 
	C124.293732,84.559593 124.265030,84.324944 124.267548,83.736786 
	C124.849968,83.680016 125.401184,83.976753 125.979401,84.511963 
z"/>
<path fill="#161007" opacity="1.000000" stroke="none" 
	d="
M130.968567,85.495544 
	C130.532074,85.493958 130.058228,85.228607 129.319550,84.871475 
	C129.680191,84.930382 130.305710,85.081078 130.968567,85.495544 
z"/>
<path fill="#161007" opacity="1.000000" stroke="none" 
	d="
M64.045242,61.049629 
	C64.505554,60.923416 64.938744,61.026821 65.691055,61.229694 
	C66.010178,61.329159 66.022881,61.562576 66.039055,61.678017 
	C65.595749,61.811924 65.136276,61.830395 64.335602,61.794975 
	C63.994411,61.741093 64.018112,61.279255 64.045242,61.049629 
z"/>
<path fill="#161007" opacity="1.000000" stroke="none" 
	d="
M67.489212,65.891937 
	C67.384712,65.951889 67.435928,65.522156 67.571350,65.353409 
	C67.822029,65.430923 67.784340,65.646698 67.489212,65.891937 
z"/>
<path fill="#161007" opacity="1.000000" stroke="none" 
	d="
M93.863228,84.134666 
	C93.927841,84.325150 93.744278,84.523598 93.327408,84.740822 
	C93.209106,84.507980 93.382759,84.302322 93.863228,84.134666 
z"/>
<path fill="#DBBE2E" opacity="1.000000" stroke="none" 
	d="
M157.034454,61.036079 
	C156.491821,61.110222 156.360916,61.228653 155.673431,61.098999 
	C154.587326,61.213326 154.041229,61.557415 153.495132,61.901501 
	C153.522934,61.201218 153.550735,60.500931 153.725708,59.671528 
	C154.245407,58.350086 154.617935,57.157764 154.990479,55.965443 
	C156.641739,56.269035 158.293015,56.572628 159.944275,56.876217 
	C159.117096,58.283710 158.289932,59.691208 157.034454,61.036079 
z"/>
<path fill="#110E03" opacity="1.000000" stroke="none" 
	d="
M154.970825,55.648041 
	C154.617935,57.157764 154.245407,58.350086 153.480377,59.535179 
	C152.679581,58.559212 152.271271,57.590469 151.664398,56.265450 
	C152.310684,55.501377 153.155548,55.093578 154.448486,54.691376 
	C154.914764,54.908203 154.932983,55.119423 154.970825,55.648041 
z"/>
<path fill="#1E1F95" opacity="1.000000" stroke="none" 
	d="
M93.146576,233.971207 
	C89.747131,228.660767 85.045387,225.818451 78.654938,224.928177 
	C72.085449,224.012955 67.187675,219.928177 63.229313,213.902969 
	C62.374031,212.574142 61.855309,211.734695 61.336586,210.895264 
	C61.678135,209.291168 61.532917,206.812256 62.475269,206.287903 
	C63.890461,205.500443 66.067947,206.082962 67.921310,206.082962 
	C67.921104,206.581039 67.920906,207.079117 67.920708,207.577209 
	C66.419487,207.713654 64.918266,207.850098 62.950932,208.028915 
	C63.885872,213.159012 67.133682,215.829346 71.615601,216.353149 
	C82.073845,217.575363 88.618332,223.933105 93.905609,232.749054 
	C93.698936,233.611389 93.459724,233.831482 93.146576,233.971207 
z"/>
<path fill="#1A1C93" opacity="1.000000" stroke="none" 
	d="
M84.993347,237.937561 
	C84.692963,239.949097 85.887634,243.210800 82.383080,242.212173 
	C81.908585,240.369888 81.999519,238.486343 81.164536,237.881897 
	C78.125458,235.681961 74.956749,233.464294 71.506790,232.070358 
	C64.614761,229.285660 58.752232,225.371460 54.164898,219.648529 
	C54.485001,219.137833 54.805107,218.627151 55.125214,218.116455 
	C64.692139,223.851730 74.259064,229.586990 83.890572,235.883011 
	C83.955154,236.443771 83.969360,236.912903 83.990692,237.252884 
	C84.354431,237.749542 84.696846,237.906204 85.049553,238.023560 
	C85.059845,237.984268 84.993347,237.937561 84.993347,237.937561 
z"/>
<path fill="#292A99" opacity="1.000000" stroke="none" 
	d="
M83.969360,236.912903 
	C83.969360,236.912903 83.955154,236.443771 83.982079,236.210663 
	C86.072281,236.655167 88.117599,237.395157 90.203094,237.995651 
	C93.266006,238.877579 94.768890,238.173340 93.211662,234.345978 
	C93.459724,233.831482 93.698936,233.611389 93.966484,233.085617 
	C98.388245,237.535995 95.117210,240.595566 90.584511,243.788788 
	C89.267921,242.245316 87.469032,240.136414 85.331741,237.982544 
	C84.993347,237.937561 85.059845,237.984268 85.050491,237.706818 
	C84.683884,237.257217 84.326622,237.085052 83.969360,236.912903 
z"/>
<path fill="#202195" opacity="1.000000" stroke="none" 
	d="
M58.983303,212.951691 
	C56.524467,212.225250 54.065632,211.498810 51.229832,210.660995 
	C51.085899,212.162796 50.964588,213.428574 50.814747,214.992065 
	C44.217907,209.052856 51.349400,208.586578 53.757801,206.229462 
	C55.258015,207.742783 56.758781,209.256653 58.622932,211.224030 
	C58.985306,212.102234 58.984306,212.526962 58.983303,212.951691 
z"/>
<path fill="#F4F4F9" opacity="1.000000" stroke="none" 
	d="
M59.015854,213.281387 
	C58.984306,212.526962 58.985306,212.102234 58.927372,211.363052 
	C59.417145,211.018661 59.965855,210.988724 60.925575,210.927032 
	C61.855309,211.734695 62.374031,212.574142 62.937344,213.710663 
	C62.463028,214.777924 61.944122,215.548111 61.127991,216.759430 
	C60.361347,215.598785 59.704880,214.604935 59.015854,213.281387 
z"/>
<path fill="#1A1C93" opacity="1.000000" stroke="none" 
	d="
M52.557720,217.891022 
	C52.065941,217.463791 51.574169,217.036575 50.614338,216.202728 
	C51.717159,216.202728 52.293869,216.202728 52.870461,216.742462 
	C52.766132,217.485123 52.661930,217.688065 52.557720,217.891022 
z"/>
<path fill="#1A1C93" opacity="1.000000" stroke="none" 
	d="
M53.071033,217.005020 
	C53.208717,217.290115 53.145710,217.852371 52.820213,218.152817 
	C52.661930,217.688065 52.766132,217.485123 53.071033,217.005020 
z"/>
<path fill="#110E03" opacity="1.000000" stroke="none" 
	d="
M103.973137,74.797806 
	C95.537407,76.726639 87.101685,78.655479 78.331772,80.309799 
	C81.147804,77.348816 84.298035,74.662354 87.097832,72.274734 
	C92.101456,72.714119 97.575546,73.194824 103.494049,73.917053 
	C103.950012,74.371658 103.961578,74.584732 103.973137,74.797806 
z"/>
<path fill="#161007" opacity="1.000000" stroke="none" 
	d="
M143.020569,79.856857 
	C135.631134,78.234367 128.241714,76.611877 120.444313,74.643005 
	C120.040382,74.117332 120.044426,73.938042 120.048477,73.758743 
	C125.550690,73.271759 131.052902,72.784775 137.440842,72.219406 
	C138.900375,73.590065 141.407150,75.944206 143.866165,78.679321 
	C143.552460,79.325813 143.286514,79.591331 143.020569,79.856857 
z"/>
<path fill="#110E03" opacity="1.000000" stroke="none" 
	d="
M139.874786,60.831154 
	C140.001785,61.477230 140.003510,61.898361 140.010468,62.635357 
	C139.749786,62.880444 139.483856,62.809673 138.862579,62.617786 
	C138.507217,62.496670 138.508453,62.392906 138.508453,62.392906 
	C136.953339,63.072071 135.398239,63.751236 133.452530,64.241394 
	C131.804688,60.871811 130.547440,57.691231 129.660400,54.235718 
	C135.165268,55.176361 135.153839,51.767460 135.506134,48.146698 
	C136.889313,50.408089 137.865936,52.842838 138.673584,55.649899 
	C136.445389,56.336166 134.386169,56.650124 132.326950,56.964081 
	C132.384033,57.416550 132.441116,57.869019 132.498199,58.321491 
	C133.784836,59.141514 135.071472,59.961533 136.225159,60.696819 
	C137.598312,59.674751 138.720825,58.839226 139.843353,58.003700 
	C139.812073,58.871204 139.780807,59.738705 139.874786,60.831154 
z"/>
<path fill="#272108" opacity="1.000000" stroke="none" 
	d="
M119.786346,73.529984 
	C120.044426,73.938042 120.040382,74.117332 120.027847,74.565491 
	C114.981087,74.859718 109.942818,74.885086 104.438843,74.854126 
	C103.961578,74.584732 103.950012,74.371658 103.938400,73.837189 
	C106.466461,72.304573 108.994568,71.093353 111.643112,69.824432 
	C114.120422,70.917313 116.822327,72.109268 119.786346,73.529984 
z"/>
<path fill="#110E03" opacity="1.000000" stroke="none" 
	d="
M87.001106,60.001419 
	C87.974197,60.401112 88.947281,60.800800 90.243042,61.490311 
	C91.056320,62.479412 91.546928,63.178692 92.281921,64.063156 
	C90.245384,63.679108 87.964447,63.109882 85.124695,62.330765 
	C84.388695,62.045914 84.203911,62.009846 83.839508,61.825729 
	C83.534790,61.533573 83.402084,61.428356 83.269371,61.323139 
	C84.059998,59.037472 84.850624,56.751804 85.988319,54.488396 
	C86.439682,56.166061 86.543968,57.821468 86.686310,59.792274 
	C86.816605,60.072254 86.908859,60.036835 87.001106,60.001419 
z"/>
<path fill="#161007" opacity="1.000000" stroke="none" 
	d="
M80.335556,73.375038 
	C78.168404,69.610748 78.656158,66.400208 81.745377,63.190086 
	C82.654015,63.011143 82.931328,63.048290 83.208641,63.085442 
	C82.816879,65.941238 78.411148,68.520088 82.614769,71.692940 
	C81.949974,72.351402 81.285172,73.009865 80.335556,73.375038 
z"/>
<path fill="#161007" opacity="1.000000" stroke="none" 
	d="
M130.357361,70.836105 
	C129.951538,70.608643 129.896973,70.361099 129.732391,69.747498 
	C130.544342,67.455994 131.466293,65.530533 132.718048,63.834328 
	C130.708130,65.773979 134.739761,69.691551 130.357361,70.836105 
z"/>
<path fill="#110E03" opacity="1.000000" stroke="none" 
	d="
M93.087357,68.415604 
	C92.819016,69.193878 92.566895,69.513748 92.041473,69.977982 
	C91.784416,68.182915 91.800644,66.243477 92.221786,64.287979 
	C92.785652,65.500343 92.944611,66.728760 93.087357,68.415604 
z"/>
<path fill="#110E03" opacity="1.000000" stroke="none" 
	d="
M83.427719,63.031891 
	C82.931328,63.048290 82.654015,63.011143 81.960175,62.913860 
	C81.939865,62.415565 82.336067,61.977402 83.000824,61.431190 
	C83.402084,61.428356 83.534790,61.533573 83.831192,61.993706 
	C83.994888,62.348618 83.989746,62.685345 83.989746,62.685345 
	C83.989746,62.685345 83.646805,62.978336 83.427719,63.031891 
z"/>
<path fill="#110E03" opacity="1.000000" stroke="none" 
	d="
M143.345200,80.015404 
	C143.286514,79.591331 143.552460,79.325813 144.081665,78.949402 
	C144.688614,79.062553 145.032303,79.286583 145.184113,79.772232 
	C144.551422,80.080551 144.110626,80.127251 143.345200,80.015404 
z"/>
<path fill="#E7070B" opacity="1.000000" stroke="none" 
	d="
M138.493652,62.409515 
	C138.508453,62.392906 138.507217,62.496670 138.476440,62.471901 
	C138.445648,62.447136 138.478851,62.426125 138.493652,62.409515 
z"/>
<path fill="#161007" opacity="1.000000" stroke="none" 
	d="
M84.224648,62.639194 
	C83.989746,62.685345 83.994888,62.348618 84.003204,62.180641 
	C84.203911,62.009846 84.388695,62.045914 84.687378,62.193253 
	C84.808884,62.265633 84.459549,62.593044 84.224648,62.639194 
z"/>
<path fill="#161007" opacity="1.000000" stroke="none" 
	d="
M139.887634,57.714859 
	C138.720825,58.839226 137.598312,59.674751 136.225159,60.696819 
	C135.071472,59.961533 133.784836,59.141514 132.498199,58.321491 
	C132.441116,57.869019 132.384033,57.416550 132.326950,56.964081 
	C134.386169,56.650124 136.445389,56.336166 138.813599,55.994644 
	C139.392365,56.453392 139.662140,56.939705 139.887634,57.714859 
z"/>
<path fill="#110E03" opacity="1.000000" stroke="none" 
	d="
M153.685364,62.338593 
	C154.041229,61.557415 154.587326,61.213326 155.569214,61.188080 
	C155.688507,63.347515 155.372009,65.188103 154.550003,66.804314 
	C153.988190,65.311852 153.931885,64.043770 153.685364,62.338593 
z"/>
<path fill="#110E03" opacity="1.000000" stroke="none" 
	d="
M125.642136,46.234009 
	C127.317986,46.406429 128.605576,46.852566 129.949860,47.661430 
	C129.962570,49.776611 129.918564,51.529057 129.958344,53.626038 
	C129.041611,53.384377 127.594704,53.033691 127.134949,52.162216 
	C126.220573,50.428982 125.849457,48.409138 125.642136,46.234009 
z"/>
<path fill="#F5F5F7" opacity="1.000000" stroke="none" 
	d="
M83.990692,237.252884 
	C84.326622,237.085052 84.683884,237.257217 85.040207,237.746124 
	C84.696846,237.906204 84.354431,237.749542 83.990692,237.252884 
z"/>
<path fill="#161007" opacity="1.000000" stroke="none" 
	d="
M87.000549,60.000710 
	C86.908859,60.036835 86.816605,60.072254 86.861458,60.053299 
	C86.998558,59.998920 87.000000,60.000000 87.000549,60.000710 
z"/>
</svg>