<svg version="1.1" id="Layer_1" xmlns="http://www.w3.org/2000/svg" xmlns:xlink="http://www.w3.org/1999/xlink" x="0px" y="0px"
	 width="100%" viewBox="0 0 192 400" enable-background="new 0 0 192 400" xml:space="preserve">
<path fill="#000000" opacity="1.000000" stroke="none" 
	d="
M193.000000,328.666687 
	C189.554047,332.030518 186.600861,332.872223 184.206375,327.681702 
	C183.280655,325.675079 181.425262,324.097290 179.411835,322.614532 
	C180.207260,325.256866 180.993286,327.902039 181.801605,330.540436 
	C182.300995,332.170410 182.803909,333.879730 181.206909,335.123810 
	C179.494873,336.457550 178.073471,335.205231 176.755615,334.210510 
	C174.535660,332.535004 172.369751,330.787872 169.476639,329.583801 
	C170.768356,331.990540 172.042587,334.406860 173.358643,336.800201 
	C174.097061,338.143158 175.070786,339.462128 172.991959,340.509247 
	C171.054703,341.485046 170.138214,340.138092 169.541138,338.761505 
	C166.565002,331.899719 162.624908,325.546539 158.954971,318.768250 
	C161.618591,315.828461 164.132935,315.005066 167.345428,318.031769 
	C169.948990,320.484802 172.872574,322.598114 176.472626,325.528259 
	C175.241287,321.453766 174.541885,318.383789 173.385483,315.496887 
	C171.804031,311.548859 172.789505,309.113708 177.266159,307.876404 
	C182.479416,313.932922 186.415665,321.159058 192.715027,326.828003 
	C193.000000,327.444458 193.000000,327.888885 193.000000,328.666687 
z"/>
<path fill="#000000" opacity="1.000000" stroke="none" 
	d="
M65.919128,252.083878 
	C61.418568,251.018066 59.961437,248.568787 61.685158,244.021179 
	C63.534489,239.142212 65.785347,234.571030 69.078743,230.502975 
	C70.833107,228.335968 72.706215,226.310715 73.097603,223.213760 
	C73.415466,220.698456 75.686363,219.526398 78.038361,218.798264 
	C97.485733,212.777573 105.929863,200.931061 106.816734,180.457962 
	C107.392754,167.160660 101.969749,157.279419 92.091385,149.319794 
	C85.607574,144.095398 78.845116,139.217697 72.231506,134.153320 
	C58.944176,123.978554 50.884869,110.981461 50.742447,93.822624 
	C50.651321,82.843987 54.790249,73.400314 61.555302,64.956253 
	C65.302299,60.279289 69.161896,55.700928 72.187477,50.471283 
	C79.003952,38.689186 77.335678,19.484737 58.713970,15.811596 
	C58.102890,15.691060 57.561115,15.219170 56.971542,14.902748 
	C56.963402,12.647686 58.704189,12.117649 60.132607,11.479258 
	C68.134201,7.903174 76.395035,6.726129 84.937386,9.244093 
	C93.521172,11.774271 98.904968,19.689228 99.284050,30.499807 
	C99.669548,41.493282 99.151154,52.440540 97.590706,63.356495 
	C95.092453,80.832710 100.184319,95.604080 113.863052,107.116692 
	C114.880524,107.973045 115.932999,108.814384 117.066963,109.501328 
	C123.286217,113.268951 126.355652,112.277527 128.725372,105.340935 
	C132.138672,95.349602 135.668610,85.525558 144.047363,78.327370 
	C149.064987,74.016739 154.815826,71.136314 160.855698,68.664902 
	C163.292908,67.667633 164.795410,68.184273 166.080948,70.622612 
	C169.586212,77.271240 169.293457,78.842384 163.094345,83.321442 
	C162.613876,83.668602 162.295395,84.239960 161.991714,84.600220 
	C162.429184,85.654175 163.208130,85.778008 163.770554,85.587738 
	C170.019180,83.473885 171.526657,86.947540 171.998947,92.193291 
	C172.580399,98.651802 173.552902,105.063492 173.396454,111.589485 
	C173.324051,114.609962 172.498062,116.007248 169.196808,116.328850 
	C142.687347,118.911339 119.730133,143.668823 119.179947,170.106583 
	C119.114449,173.254059 118.887085,176.465118 120.592796,179.362808 
	C121.746048,181.321960 120.625435,182.826859 119.624802,184.399017 
	C117.496780,187.742538 115.107689,190.948318 113.735970,194.647217 
	C116.810387,197.381058 118.280380,198.206970 134.587631,191.218781 
	C134.641068,194.204391 132.737213,195.782913 130.964737,197.365158 
	C127.090477,200.823639 122.279114,202.176331 117.349953,203.178589 
	C110.148262,204.642929 107.889900,206.571609 107.485184,211.749924 
	C107.115883,216.475052 109.560600,219.599594 115.769234,222.130768 
	C124.125847,225.537674 131.233337,230.580078 136.673981,237.848358 
	C137.170395,238.511520 137.630859,239.208832 138.031433,239.932678 
	C138.173447,240.189301 138.087204,240.572250 138.129822,241.343887 
	C112.637146,229.793488 89.302147,234.669830 67.058556,250.770859 
	C66.456451,251.534576 66.187790,251.809219 65.919128,252.083878 
M93.667679,50.280155 
	C93.905960,47.128201 94.250435,43.979942 94.360321,40.823521 
	C94.587059,34.310528 94.332344,27.802114 91.648766,21.739698 
	C88.879074,15.482711 82.709534,12.534045 76.819305,14.329242 
	C76.732368,15.265162 77.161240,15.999205 77.977425,16.311222 
	C85.713165,19.268492 86.557190,22.239124 81.608849,29.614767 
	C80.979065,30.553490 80.958778,31.426506 81.089249,32.433277 
	C82.083611,40.106167 80.083138,47.212723 77.405556,54.328068 
	C73.993614,63.394859 78.505379,71.213402 87.834213,73.380547 
	C90.394844,73.975410 91.501633,73.272995 91.720901,70.550446 
	C92.240997,64.092705 92.990013,57.653400 93.667679,50.280155 
z"/>
<path fill="#000000" opacity="1.000000" stroke="none" 
	d="
M65.746399,252.271332 
	C66.187790,251.809219 66.456451,251.534576 66.940475,251.066742 
	C71.094452,249.808167 74.008797,246.874283 77.604858,245.163803 
	C95.183342,236.802444 113.159859,233.169586 132.098129,240.350693 
	C139.312698,243.086334 143.751572,248.015137 145.514648,255.752945 
	C147.480713,264.381653 147.689011,272.836060 145.302063,281.346802 
	C144.811249,283.096802 144.468948,285.229523 142.112518,285.193176 
	C139.652786,285.155243 140.158035,282.917572 139.951691,281.396057 
	C139.370361,277.109589 137.052750,274.384949 132.852448,273.394806 
	C128.808914,272.441620 124.763962,271.422577 120.663773,270.800629 
	C116.022408,270.096588 112.537247,272.480469 110.213905,276.195282 
	C108.455162,279.007324 106.579292,279.543121 103.588493,278.460785 
	C91.387970,274.045563 79.078857,269.895325 67.571861,263.805176 
	C64.945358,262.415100 63.098690,262.119904 61.481571,265.134369 
	C60.559410,266.853394 58.782566,267.542175 56.367588,267.040100 
	C55.989979,266.998413 56.012772,267.019836 56.012772,267.019836 
	C53.462498,262.089661 54.252792,257.340027 56.892838,252.341400 
	C56.998253,251.998169 56.975517,252.014389 56.975517,252.014389 
	C59.982395,249.437912 62.666550,253.105225 65.746399,252.271332 
z"/>
<path fill="#000000" opacity="1.000000" stroke="none" 
	d="
M79.152039,270.830231 
	C87.230309,274.068878 94.898628,277.342316 102.934235,279.572205 
	C105.902069,280.395782 107.303207,281.756989 107.334404,285.105164 
	C107.389099,290.976776 110.198608,294.206635 115.945244,295.762054 
	C118.508850,296.455963 121.161682,296.816193 123.767715,297.358215 
	C129.946259,298.643158 134.446533,296.291962 137.756821,291.096985 
	C138.713959,289.594910 139.004791,287.037506 141.852905,287.737183 
	C142.970078,289.443176 141.729950,290.677734 141.053894,291.892059 
	C134.042435,304.486938 123.543564,312.921814 109.565704,316.157806 
	C98.255127,318.776245 88.174736,314.645172 79.503281,307.471344 
	C68.379265,298.268524 62.384266,286.053619 59.709682,272.002289 
	C59.132042,268.967590 60.637020,267.452454 62.503490,265.665802 
	C64.421959,263.829376 66.171638,264.669434 67.986931,265.514709 
	C71.609016,267.201263 75.198006,268.958923 79.152039,270.830231 
z"/>
<path fill="#000000" opacity="1.000000" stroke="none" 
	d="
M55.975945,266.990479 
	C57.089493,268.231354 57.912727,269.583282 58.219131,271.316589 
	C61.581036,290.334839 70.593216,305.450928 88.249527,314.554596 
	C88.962860,314.922424 89.828072,315.206268 89.711960,316.706970 
	C83.962341,316.702698 78.944077,314.400208 74.060738,311.789581 
	C62.221561,305.460388 54.226368,295.880707 50.294945,283.024200 
	C48.333378,276.609528 50.608982,269.551361 55.634605,266.987488 
	C56.012772,267.019836 55.989979,266.998413 55.975945,266.990479 
z"/>
<path fill="#000000" opacity="1.000000" stroke="none" 
	d="
M24.895004,367.918335 
	C26.568811,364.062805 28.241928,360.604492 29.558447,357.015411 
	C30.396940,354.729523 31.571577,354.187836 33.702034,355.139191 
	C35.709965,356.035858 37.333691,356.989990 35.799778,359.595764 
	C35.044273,360.879211 34.561592,362.320801 33.916065,363.672058 
	C32.874580,365.852112 33.672932,367.043793 35.831001,367.854828 
	C37.911049,368.636536 39.387188,368.416565 40.201500,366.173492 
	C40.428570,365.548004 40.767258,364.946167 40.889484,364.302155 
	C41.827774,359.358032 44.423733,358.934174 48.643570,361.790039 
	C45.969849,369.170654 43.617985,376.753571 40.440334,383.973083 
	C38.857876,387.568329 36.409008,384.318085 34.239372,383.859833 
	C34.581184,379.594818 37.994003,376.384796 36.870934,372.558807 
	C36.347702,370.776306 33.700062,370.409607 31.493351,369.953430 
	C28.791180,372.686981 28.488873,376.795746 26.381247,379.893921 
	C23.925816,379.979218 22.084570,379.125671 20.466290,377.159882 
	C21.883347,374.211243 23.313322,371.235718 24.895004,367.918335 
z"/>
<path fill="#000000" opacity="1.000000" stroke="none" 
	d="
M166.507538,368.957092 
	C164.940811,371.819733 167.307617,372.456787 168.649216,373.360931 
	C170.805695,374.814240 173.166656,375.964142 175.597458,377.330017 
	C173.572266,380.907410 170.931763,381.489288 167.854721,379.892181 
	C165.805191,378.828369 163.939362,377.385986 162.069214,376.007385 
	C159.754486,374.301117 157.996887,372.511078 160.694427,369.551392 
	C162.227142,367.869690 161.793884,365.817291 160.595779,363.997559 
	C159.695221,362.629669 158.383163,361.805298 156.774704,362.337677 
	C154.786209,362.995819 155.224197,364.674438 155.717438,366.100433 
	C157.720184,371.890533 159.796234,377.655304 161.826477,383.376465 
	C156.398315,387.073120 156.057434,386.897919 154.147781,381.022095 
	C152.152283,374.882080 150.333755,368.676086 147.423050,362.722015 
	C150.379730,360.483826 153.614441,359.696808 156.684692,358.563812 
	C159.883926,357.383240 163.044846,357.500397 165.553040,359.903748 
	C168.138885,362.381470 168.110840,365.507965 166.507538,368.957092 
z"/>
<path fill="#000000" opacity="1.000000" stroke="none" 
	d="
M135.763443,334.490845 
	C135.209564,332.072998 134.711151,330.003021 134.240387,328.047852 
	C135.799057,326.352234 137.605286,326.204193 140.165909,325.959808 
	C142.157791,333.988983 144.165894,342.083588 146.160065,350.121948 
	C144.326691,351.646790 142.602097,352.394867 140.441116,351.824768 
	C138.381592,348.531616 139.236526,344.273468 136.923325,341.137573 
	C130.442139,341.719879 130.303329,341.989258 131.750732,349.039429 
	C132.178345,351.122314 133.881424,353.683167 130.387527,354.837524 
	C128.006699,355.624084 126.065506,355.397675 125.778954,352.258423 
	C125.115044,344.985199 123.443413,337.891968 121.743042,330.769958 
	C123.420052,329.228119 125.388687,329.254578 127.387840,329.168396 
	C128.829239,330.983307 129.070587,333.123291 129.295624,335.253693 
	C129.461365,336.822937 129.704529,338.593842 131.729584,338.220428 
	C133.519699,337.890320 136.618576,338.529602 135.763443,334.490845 
z"/>
<path fill="#000000" opacity="1.000000" stroke="none" 
	d="
M45.850197,326.674072 
	C46.820881,333.139008 44.628975,338.180542 40.393841,342.328949 
	C36.828728,345.821075 31.603020,346.344940 27.510183,343.988434 
	C23.358311,341.597870 21.367233,336.987457 22.320539,332.075378 
	C23.202515,327.530853 25.045835,323.515717 28.864727,320.711426 
	C35.108929,316.126190 42.464718,318.595001 45.850197,326.674072 
M30.634466,341.576935 
	C35.736839,340.148346 41.679253,330.649536 40.616077,325.621552 
	C39.888485,322.180664 36.576908,321.217529 33.851665,323.879150 
	C30.314568,327.333649 28.521511,331.812714 27.452549,336.545715 
	C26.969896,338.682739 27.817583,340.452179 30.634466,341.576935 
z"/>
<path fill="#000000" opacity="1.000000" stroke="none" 
	d="
M131.272491,366.284180 
	C134.429459,366.310791 133.925583,368.530670 134.293869,370.212799 
	C135.321213,374.905273 136.298828,379.611115 137.462524,384.270081 
	C137.980209,386.342621 139.251312,388.056061 141.736282,387.374542 
	C143.992035,386.755859 144.137939,384.669525 143.750534,382.858246 
	C142.814621,378.482361 141.684235,374.145111 140.529724,369.819672 
	C138.967712,363.967529 138.926529,363.978516 145.540039,363.266388 
	C146.847626,368.774170 148.460068,374.302521 149.416061,379.942169 
	C150.405258,385.777832 147.450424,389.492371 141.651489,390.678192 
	C136.891190,391.651611 132.439331,389.019775 130.954605,383.970398 
	C129.415161,378.734924 128.220276,373.398102 126.919106,368.280273 
	C127.775703,366.252136 129.586548,366.890045 131.272491,366.284180 
z"/>
<path fill="#000000" opacity="1.000000" stroke="none" 
	d="
M66.875153,385.598572 
	C62.019398,391.185822 58.313408,392.391846 53.242256,390.292084 
	C48.183304,388.197357 46.088139,383.995636 46.692986,377.158020 
	C47.227867,371.111328 51.123161,365.842346 55.873444,364.740021 
	C65.295807,362.553467 71.877945,370.853424 68.851830,381.170868 
	C68.435875,382.589050 67.682480,383.908234 66.875153,385.598572 
M63.322876,370.606873 
	C60.030849,366.897034 57.517437,366.948914 55.427044,371.065765 
	C53.620602,374.623444 52.442802,378.453857 52.364422,382.509796 
	C52.319088,384.855743 53.106419,386.897491 55.598755,387.483429 
	C57.892075,388.022614 59.485039,386.530487 60.409767,384.699554 
	C62.519016,380.523285 64.090317,376.160522 63.322876,370.606873 
z"/>
<path fill="#000000" opacity="1.000000" stroke="none" 
	d="
M121.422607,350.544769 
	C121.669434,352.823151 123.466690,355.093842 121.099678,356.375092 
	C118.558037,357.750854 117.295715,355.125519 115.911934,353.646088 
	C113.001961,350.535065 110.245567,347.280365 107.014305,343.617889 
	C105.737663,347.833435 106.684181,351.182220 107.115120,354.556091 
	C107.303558,356.031464 107.358505,357.756958 105.222679,357.927155 
	C103.469940,358.066833 102.973015,356.752808 102.930878,355.319336 
	C102.707932,347.733673 102.830193,340.135101 101.420341,331.707672 
	C109.697334,332.342041 110.912300,340.494507 116.307648,343.438477 
	C117.454659,340.139160 115.975632,337.014618 115.624092,333.829163 
	C115.474380,332.472565 115.224556,331.054688 117.194038,330.843109 
	C119.081657,330.640320 119.253563,331.892578 119.411369,333.350525 
	C120.016792,338.944183 120.714455,344.527863 121.422607,350.544769 
z"/>
<path fill="#000000" opacity="1.000000" stroke="none" 
	d="
M150.866028,349.076721 
	C148.551483,350.189209 147.779037,349.245056 147.696609,347.354950 
	C147.386261,340.238312 147.123459,333.119415 146.770233,326.004944 
	C146.677032,324.127411 147.193497,322.754333 149.035538,322.075836 
	C150.934708,321.376282 152.682953,321.626678 153.999893,323.216797 
	C159.039429,329.301727 164.030441,335.426849 169.199814,341.732422 
	C165.801498,344.422424 162.960251,346.181549 160.367172,341.180450 
	C159.168915,338.869476 157.304871,338.119293 154.537094,339.139801 
	C151.791122,340.152283 151.091278,341.854095 151.288635,344.464050 
	C151.398529,345.917542 151.226791,347.392303 150.866028,349.076721 
M151.419525,335.441803 
	C152.741852,336.866302 154.137115,336.168549 154.353394,334.844604 
	C154.727875,332.552368 152.901764,331.239258 150.678284,329.344421 
	C150.908539,331.728882 151.058960,333.286621 151.419525,335.441803 
z"/>
<path fill="#000000" opacity="1.000000" stroke="none" 
	d="
M108.715576,369.211304 
	C113.029335,368.712067 116.979744,367.619476 120.930283,368.846405 
	C125.561966,370.284912 127.772423,374.547424 126.327888,379.047455 
	C124.937660,383.378296 120.753242,385.325562 116.237206,383.743286 
	C121.738380,375.903931 121.586334,373.556763 114.966576,371.558105 
	C113.146118,377.522949 115.039253,383.428345 115.774315,389.095276 
	C116.473930,394.489075 114.512527,394.804840 109.899239,393.963562 
	C109.476768,385.839539 106.988380,377.776245 108.715576,369.211304 
z"/>
<path fill="#000000" opacity="1.000000" stroke="none" 
	d="
M84.789352,340.052185 
	C85.202286,337.067444 83.388474,333.305542 86.232407,332.318878 
	C90.220764,330.935089 94.768494,331.223541 98.958588,332.515381 
	C100.102196,332.867950 100.373428,334.262390 99.570061,335.558167 
	C97.049332,336.864624 93.030487,332.981171 91.459091,337.577148 
	C89.356575,343.726501 96.083473,341.829529 99.012115,345.128204 
	C92.976692,345.799072 89.175507,347.953033 91.249382,354.279236 
	C94.284958,355.912872 97.305840,354.125214 100.594612,353.888214 
	C101.566032,356.562653 100.709801,357.978241 97.916260,358.296875 
	C97.751373,358.315704 97.582573,358.298950 97.417206,358.315216 
	C84.797287,359.555908 84.570564,359.356842 84.686852,347.033997 
	C84.707275,344.869110 84.751610,342.704437 84.789352,340.052185 
z"/>
<path fill="#000000" opacity="1.000000" stroke="none" 
	d="
M116.997162,282.997223 
	C117.546692,284.189575 117.978943,285.411682 117.449577,287.501465 
	C121.048233,283.826385 123.250328,283.851685 123.931892,288.715759 
	C125.135590,287.803802 125.302734,285.669861 127.318344,286.165771 
	C129.169006,286.621094 129.307190,288.108398 128.881989,289.734344 
	C130.844849,289.586273 130.680939,287.560608 132.029465,287.176208 
	C133.716492,286.695282 135.421112,286.589661 136.605042,288.026459 
	C137.674255,289.324097 136.560822,290.528076 135.840637,291.593689 
	C134.806824,293.123352 133.447464,294.338135 131.794876,295.192474 
	C127.483978,297.421051 114.948891,295.339661 111.579987,291.765198 
	C109.440781,289.495514 107.673683,286.605408 109.075150,283.688080 
	C110.651306,280.407166 113.815147,283.414917 116.625832,282.995300 
	C117.025650,283.011597 116.997162,282.997223 116.997162,282.997223 
z"/>
<path fill="#000000" opacity="1.000000" stroke="none" 
	d="
M91.262909,389.739441 
	C92.503227,390.602783 93.410133,391.344391 94.416557,391.908478 
	C96.354958,392.994934 98.091705,392.347992 99.215446,390.693634 
	C100.467987,388.849609 99.655777,387.164948 97.990028,385.954529 
	C95.845345,384.395966 93.385284,383.190735 91.495583,381.379883 
	C88.196983,378.218933 88.496979,373.467834 91.810722,370.882477 
	C95.184128,368.250519 102.876495,368.461639 104.778641,371.295837 
	C105.407547,372.232910 105.101303,373.199249 104.292519,373.974426 
	C103.210625,374.694000 102.430687,373.905579 101.569916,373.457245 
	C99.611702,372.437195 97.325027,371.190582 95.840858,373.648834 
	C94.294518,376.210052 96.637711,377.480560 98.476341,378.655548 
	C99.736778,379.461090 101.079453,380.146881 102.292419,381.015930 
	C105.040802,382.985046 106.833435,385.560028 106.077591,389.082520 
	C105.397964,392.249786 103.330200,394.532166 100.115135,395.117950 
	C96.505081,395.775696 92.645302,396.163788 89.737297,393.277924 
	C88.343918,391.895172 88.062408,389.958344 91.262909,389.739441 
z"/>
<path fill="#000000" opacity="1.000000" stroke="none" 
	d="
M117.041679,283.017883 
	C116.326103,282.637848 115.590904,282.258179 114.863617,281.863892 
	C113.208801,280.966705 110.462654,281.063538 110.543724,278.459015 
	C110.615959,276.138367 112.623344,274.751648 114.510338,273.643616 
	C116.571854,272.433105 118.892380,271.933319 121.242149,272.342621 
	C125.169556,273.026733 129.074478,273.857483 132.962524,274.742310 
	C134.805481,275.161682 136.234390,276.346283 137.299255,277.905457 
	C138.621857,279.841980 138.683380,282.013824 138.001724,284.123779 
	C137.496857,285.686523 135.958191,285.524414 134.612976,285.518311 
	C131.918243,285.506073 131.898788,283.229034 131.581970,281.111511 
	C129.997940,282.353790 130.312637,284.965454 127.833519,284.276794 
	C124.832062,283.443085 127.281570,280.728394 126.049179,279.174683 
	C124.320068,280.224701 125.398933,283.987305 122.060547,283.289124 
	C119.708748,282.797302 120.681709,280.624054 120.067947,279.105896 
	C118.846588,280.103638 119.075844,282.031586 117.269073,282.822266 
	C116.997162,282.997223 117.025650,283.011597 117.041679,283.017883 
z"/>
<path fill="#000000" opacity="1.000000" stroke="none" 
	d="
M18.011734,322.986725 
	C15.512584,326.709839 13.219788,330.142120 10.960717,333.523956 
	C4.863498,332.013275 4.508951,330.947296 7.809770,326.280914 
	C11.132963,321.582886 14.893578,317.156372 17.392403,312.203583 
	C16.626404,309.590912 13.956606,309.906464 12.583389,308.169067 
	C13.402854,305.855988 14.876441,305.163330 17.026134,306.534637 
	C20.934830,309.028107 24.800173,311.592285 28.629578,314.206116 
	C30.460196,315.455658 30.903059,316.965942 28.986530,318.591614 
	C23.364712,315.339569 23.364712,315.339569 18.011734,322.986725 
z"/>
<path fill="#000000" opacity="1.000000" stroke="none" 
	d="
M64.865524,332.209625 
	C63.294243,331.800079 61.722958,331.390503 59.734890,330.872345 
	C57.096581,336.185181 56.054337,342.049927 54.311493,347.661407 
	C52.667439,352.954803 52.381420,353.123230 46.726154,350.267914 
	C48.662754,343.322540 51.454430,336.459045 52.623039,329.686340 
	C51.240204,327.594421 48.935974,328.799469 47.905861,327.045441 
	C47.998169,324.986145 49.418655,323.735962 51.108765,324.573456 
	C55.730820,326.863770 62.167439,325.116943 65.115585,331.387634 
	C65.021545,331.915436 64.865524,332.209625 64.865524,332.209625 
z"/>
<path fill="#000000" opacity="1.000000" stroke="none" 
	d="
M81.218712,382.936951 
	C80.696922,386.787781 80.213074,390.196320 79.751328,393.449188 
	C77.394562,394.532837 75.657707,393.310303 73.262390,392.879120 
	C74.041122,387.768005 74.856171,382.914703 75.499084,378.038727 
	C75.995369,374.274841 76.560112,370.295746 70.662354,370.938812 
	C70.091545,368.067413 71.496750,367.199127 73.662720,367.635529 
	C78.787491,368.668182 84.776283,366.905273 89.481804,371.342377 
	C86.984413,373.847137 84.770882,371.322571 82.792625,373.113617 
	C81.878891,375.933624 81.330421,379.169769 81.218712,382.936951 
z"/>
<path fill="#000000" opacity="1.000000" stroke="none" 
	d="
M65.091766,331.764465 
	C66.264595,330.143494 67.205620,328.781555 69.586868,329.291260 
	C73.141830,330.052216 76.796844,330.347839 80.410736,330.830658 
	C82.655014,331.130493 83.684113,332.246429 82.866463,335.027954 
	C76.933548,332.657135 76.577026,336.594666 76.121758,340.922150 
	C75.603035,345.852753 74.625046,350.735016 73.844444,355.652283 
	C67.767357,357.178680 66.894279,356.361694 68.079315,350.602875 
	C69.013237,346.064331 69.659767,341.467438 70.525177,336.913818 
	C71.376991,332.431671 68.331543,332.575592 65.148636,332.347290 
	C64.865524,332.209625 65.021545,331.915436 65.091766,331.764465 
z"/>
<path fill="#000000" opacity="1.000000" stroke="none" 
	d="
M57.005978,251.986511 
	C55.526875,252.845703 54.982376,255.968323 52.316940,254.016907 
	C50.162403,252.439529 51.078327,250.517624 51.905037,248.682877 
	C55.301128,241.145798 59.874634,234.557724 67.150635,230.034088 
	C62.905518,236.775421 60.606815,244.303497 57.181458,251.714996 
	C56.975517,252.014389 56.998253,251.998169 57.005978,251.986511 
z"/>
<path fill="#000000" opacity="1.000000" stroke="none" 
	d="
M52.186970,266.698273 
	C50.996929,268.649475 50.947521,270.904755 48.313644,272.125885 
	C47.051819,266.273285 48.223389,261.052368 49.905029,255.690811 
	C53.905270,257.907257 54.329201,260.084198 52.186970,266.698273 
z"/>
</svg>